<?xml version="1.0" encoding="utf-8"?>
<!-- Generator: Adobe Illustrator 19.2.1, SVG Export Plug-In . SVG Version: 6.00 Build 0)  -->
<svg version="1.1" id="Capa_1" xmlns="http://www.w3.org/2000/svg" xmlns:xlink="http://www.w3.org/1999/xlink" x="0px" y="0px"
	 viewBox="0 0 1922.7 1040.2" style="enable-background:new 0 0 1922.7 1040.2;" xml:space="preserve">
<style type="text/css">
	.st0{fill:none;}
	.st1{fill:#FFFFFF;}
	.st2{fill:#F5F5F5;}
</style>
<line class="st0" x1="989.1" y1="16" x2="964.1" y2="16"/>
<polygon class="st0" points="942.4,16 942.7,16 943,16 962.2,31 943.1,31 935.1,31 935.1,16 "/>
<rect x="0" y="388.4" transform="matrix(-1 -1.224647e-16 1.224647e-16 -1 1922.7424 1428.6404)" class="st1" width="1922.7" height="651.9"/>
<polygon class="st1" points="1922.7,0 970.3,0 484.8,397 1921.7,389.6 "/>
<polygon class="st2" points="1917.5,44.2 1917.6,38.3 952.7,37 945.4,43 "/>
<polygon class="st2" points="1917.7,31.3 1917.8,29.5 963.5,28.2 961.2,30 "/>
<polygon class="st2" points="1917.9,22.3 1918,16.5 979.4,15.2 972.2,21 979.9,21 "/>
<polygon class="st2" points="968.5,49.4 551.9,392.4 561.2,392.4 977.6,49.6 "/>
<polygon class="st2" points="954.8,49.2 538,392.4 540.9,392.4 957.6,49.3 "/>
<polygon class="st2" points="934.7,49 517.5,392.4 526.7,392.4 943.7,49.1 "/>
<polygon class="st2" points="515.7,436.2 524.5,429.5 -1,429.5 -1,436.2 "/>
<polygon class="st2" points="534.8,421.6 537.5,419.5 -1,419.5 -1,421.6 "/>
<polygon class="st2" points="548.1,411.4 556.8,404.8 -1,404.8 -1,411.4 "/>
<line class="st0" x1="980.1" y1="-107" x2="955.1" y2="-107"/>
<polygon class="st0" points="970.1,-107 969.8,-107 969.5,-107 950.3,-92 969.4,-92 977.1,-92 977.1,-107 "/>
</svg>
