<?xml version="1.0" encoding="utf-8"?>
<!-- Generator: Adobe Illustrator 19.2.1, SVG Export Plug-In . SVG Version: 6.00 Build 0)  -->
<svg version="1.1" id="Capa_1" xmlns="http://www.w3.org/2000/svg" xmlns:xlink="http://www.w3.org/1999/xlink" x="0px" y="0px"
	 viewBox="0 0 228.2 59.5" style="enable-background:new 0 0 228.2 59.5;" xml:space="preserve">
<style type="text/css">
	.st0{opacity:0.5;fill:#FFFFFF;}
	.st1{opacity:0.83;fill:#FFD126;}
	.st2{fill:#FFFFFF;}
</style>
<g>
	<rect class="st0" width="228.2" height="59.5"/>
	<rect class="st1" width="71.6" height="59.5"/>
	<g>
		<path class="st2" d="M101.2,21.1h2.4l5,14.7l5.2-14.7h2.4l-6.5,18.1h-2.4L101.2,21.1z"/>
		<path class="st2" d="M116.9,29.9c0-1.4,0.1-2.7,0.4-3.8c0.2-1.2,0.5-2.1,0.9-2.7c0.4-0.7,0.9-1.2,1.5-1.5c0.7-0.4,1.3-0.6,1.9-0.7
			c0.6-0.1,1.3-0.1,2.2-0.1c0.8,0,1.5,0,2,0.1c0.5,0,1,0.1,1.5,0.3s1,0.4,1.3,0.6c0.4,0.3,0.7,0.6,1,1.1s0.6,1,0.8,1.7
			c0.4,1.4,0.6,3.3,0.6,5.6c0,2.7-0.3,4.6-0.9,5.9c-0.3,0.7-0.6,1.2-1,1.6s-0.8,0.7-1.4,1c-1,0.4-2.2,0.6-3.8,0.6
			c-2.3,0-3.8-0.3-4.7-1c-0.9-0.6-1.5-1.5-1.8-2.7C117.1,34.3,116.9,32.4,116.9,29.9z M119.3,26.9c-0.1,0.4-0.1,1-0.2,1.5
			c0,0.6,0,1.2,0,2c0,0.8,0,1.5,0.1,2.1c0,0.6,0.1,1.2,0.2,1.7c0.1,0.5,0.2,0.9,0.4,1.2s0.4,0.6,0.6,0.8s0.5,0.4,0.9,0.5
			c0.6,0.2,1.4,0.3,2.2,0.3s1.5,0,1.9-0.1c0.4-0.1,0.8-0.2,1.2-0.4c0.4-0.2,0.7-0.4,0.9-0.8c0.2-0.3,0.4-0.7,0.6-1.2
			c0.3-0.9,0.4-2.4,0.4-4.4c0-1.5-0.1-2.5-0.2-3.1s-0.2-1.1-0.3-1.4s-0.2-0.6-0.3-0.9s-0.3-0.5-0.4-0.7c-0.1-0.2-0.3-0.3-0.5-0.5
			c-0.2-0.1-0.4-0.2-0.6-0.3c-0.2-0.1-0.4-0.1-0.7-0.1c-0.5,0-1-0.1-1.5-0.1s-0.9,0-1.1,0c-0.2,0-0.5,0-0.8,0.1
			c-0.3,0-0.6,0.1-0.7,0.1s-0.4,0.2-0.6,0.3s-0.4,0.3-0.5,0.4c-0.1,0.2-0.3,0.4-0.4,0.7c-0.2,0.3-0.3,0.6-0.4,0.9
			C119.5,26.1,119.4,26.5,119.3,26.9z"/>
		<path class="st2" d="M133.2,36V21.1h2.3v14.6c0,0.6,0.2,1,0.5,1.1c0.2,0.1,0.6,0.1,1,0.1h7.2v2.2h-7.5c-1.7,0-2.7-0.5-3.2-1.6
			C133.3,37.2,133.2,36.7,133.2,36z"/>
		<path class="st2" d="M142.6,21.1h2.4l5,14.7l5.2-14.7h2.4l-6.5,18.1h-2.4L142.6,21.1z"/>
		<path class="st2" d="M161.6,21.1c0.1,0,1.3,0.1,3.8,0.2c2.5,0.1,3.9,0.2,4.2,0.2v1.8H162c-0.6,0-1,0.1-1.1,0.4
			c-0.1,0.2-0.1,0.5-0.1,0.9v4.4l7.9,0.3v1.8l-7.9,0.2v4.4c0,0.6,0.2,1,0.5,1.1c0.3,0.1,0.6,0.1,1,0.1h7.4v1.8l-7.6,0.4
			c-0.1,0-0.3,0-0.4,0c-2.1,0-3.2-1.1-3.2-3.3V24.5c0-1.2,0.3-2.1,0.9-2.6C160,21.4,160.8,21.1,161.6,21.1z"/>
		<path class="st2" d="M179.2,21.1c2.9,0,4.4,1.8,4.4,5.5c0,1.2-0.1,2-0.3,2.5c-0.2,0.5-0.4,0.9-0.5,1.1s-0.3,0.5-0.5,0.7
			c-0.2,0.2-0.4,0.3-0.5,0.4s-0.3,0.2-0.5,0.3c-0.3,0.1-0.5,0.2-0.8,0.2l3.7,7.4h-2.5l-3.6-7.2l-4.4-0.3v7.6h-2.3V21.1H179.2z
			 M173.7,29.7h5.4c0.9,0,1.5-0.2,1.8-0.7c0.3-0.5,0.4-1.2,0.4-2.1c0-0.9-0.1-1.6-0.2-2c-0.1-0.5-0.3-0.8-0.5-1
			c-0.4-0.4-0.9-0.6-1.5-0.6h-5.4V29.7z"/>
	</g>
	<g>
		<polygon class="st2" points="39.6,13.9 36.2,13.9 18.6,29.1 36.2,45.3 39.6,45.3 22,29.1 		"/>
		<polygon class="st2" points="44.1,13.9 43.1,13.9 25.4,29.1 43.1,45.3 44.1,45.3 26.5,29.1 		"/>
		<polygon class="st2" points="50.8,13.9 47.5,13.9 29.9,29.1 47.5,45.3 50.8,45.3 33.2,29.1 		"/>
	</g>
</g>
</svg>
