<?xml version="1.0" encoding="utf-8"?>
<!-- Generator: Adobe Illustrator 19.2.1, SVG Export Plug-In . SVG Version: 6.00 Build 0)  -->
<svg version="1.1" id="Capa_1" xmlns="http://www.w3.org/2000/svg" xmlns:xlink="http://www.w3.org/1999/xlink" x="0px" y="0px"
	 viewBox="0 0 360 476" style="enable-background:new 0 0 360 476;" xml:space="preserve">
<style type="text/css">
	.st0{fill:#FFFFFF;}
	.st1{opacity:0.33;}
	.st2{opacity:0.33;fill:#FFFFFF;}
	.st3{fill:none;}
	.st4{fill:#B31822;}
	.st5{fill:#F7C639;}
</style>
<g>
	<g>
		<g id="XMLID_81_">
			<polygon class="st0" points="116.9,261.2 95.7,315.2 98.5,315.2 119.7,261.2 			"/>
		</g>
		<g id="XMLID_80_">
			<polygon class="st0" points="113.4,261.2 92.2,315.2 92.7,315.2 113.9,261.2 			"/>
		</g>
		<g id="XMLID_79_">
			<polygon class="st0" points="107.3,261.2 87,315.2 89.8,315.2 110.1,261.2 			"/>
		</g>
		<g id="XMLID_72_">
			<g id="XMLID_78_">
				<polygon class="st0" points="129.4,315.2 132.3,315.2 116.4,274.8 115,278.3 				"/>
			</g>
			<g id="XMLID_77_">
				<polygon class="st0" points="135.3,315.2 135.8,315.2 118.2,270.4 118,271 				"/>
			</g>
			<g id="XMLID_73_">
				<polygon class="st0" points="141,315.2 121.3,262.8 119.8,266.4 138.2,315.2 				"/>
			</g>
		</g>
	</g>
</g>
<g>
	<g>
		<g id="XMLID_328_">
			<rect x="109.6" y="331.2" class="st0" width="27.8" height="2"/>
		</g>
		<g id="XMLID_327_">
			<rect x="109.6" y="335.3" class="st0" width="27.8" height="0.6"/>
		</g>
		<g id="XMLID_302_">
			<rect x="109.6" y="337.9" class="st0" width="27.8" height="1.9"/>
		</g>
		<g id="XMLID_301_">
			<rect x="109.6" y="375" class="st0" width="27.8" height="2"/>
		</g>
		<g id="XMLID_300_">
			<rect x="109.6" y="379.1" class="st0" width="27.8" height="0.6"/>
		</g>
		<g id="XMLID_299_">
			<rect x="109.6" y="381.7" class="st0" width="27.8" height="1.9"/>
		</g>
		<g id="XMLID_298_">
			<rect x="109.6" y="353.6" class="st0" width="17.2" height="2"/>
		</g>
		<g id="XMLID_297_">
			<rect x="109.6" y="357.6" class="st0" width="17.2" height="0.6"/>
		</g>
		<g id="XMLID_296_">
			<rect x="109.6" y="360.3" class="st0" width="17.2" height="1.9"/>
		</g>
		<g id="XMLID_292_">
			<g>
				<polygon id="XMLID_295_" class="st0" points="98.5,340.2 98.5,374.5 101.1,377.3 101.1,337.7 				"/>
				<polygon id="XMLID_294_" class="st0" points="102.8,336 102.8,379.2 103.3,379.6 103.3,335.6 				"/>
				<polygon id="XMLID_293_" class="st0" points="105.4,333.5 105.4,382 107.6,384.3 107.6,331.4 				"/>
			</g>
		</g>
	</g>
</g>
<g>
	<g>
		<g id="XMLID_248_">
			<g id="XMLID_253_">
				<rect x="57.2" y="332" class="st0" width="1.9" height="51.9"/>
			</g>
			<g id="XMLID_252_">
				<rect x="54.6" y="332" class="st0" width="0.6" height="51.9"/>
			</g>
			<g id="XMLID_250_">
				<rect x="50.7" y="332" class="st0" width="1.9" height="51.9"/>
			</g>
		</g>
		<g id="XMLID_240_">
			<g id="XMLID_243_">
				<rect x="89.6" y="332" class="st0" width="1.9" height="51.9"/>
			</g>
			<g id="XMLID_242_">
				<rect x="87" y="332" class="st0" width="0.6" height="51.9"/>
			</g>
			<g id="XMLID_241_">
				<rect x="83.1" y="332" class="st0" width="1.9" height="51.9"/>
			</g>
		</g>
		<g id="XMLID_229_">
			<g id="XMLID_239_">
				<polygon class="st0" points="60.6,331.7 60.6,335.8 81.8,369.6 81.8,365.6 				"/>
			</g>
			<g id="XMLID_238_">
				<polygon class="st0" points="60.6,341.3 81.8,375.1 81.8,373.9 60.6,340.1 				"/>
			</g>
			<g id="XMLID_230_">
				<polygon class="st0" points="60.6,349.6 81.8,383.4 81.8,379.4 60.6,345.6 				"/>
			</g>
		</g>
	</g>
</g>
<g>
	<g>
		<g id="XMLID_286_">
			<g id="XMLID_289_">
				<rect x="54.7" y="261.1" class="st0" width="2" height="54.3"/>
			</g>
			<g id="XMLID_288_">
				<rect x="52" y="261.1" class="st0" width="0.6" height="54.3"/>
			</g>
			<g id="XMLID_287_">
				<rect x="48" y="261.1" class="st0" width="2" height="54.3"/>
			</g>
		</g>
		<g id="XMLID_285_">
			<rect x="58.2" y="261.5" class="st0" width="22.2" height="2"/>
		</g>
		<g id="XMLID_284_">
			<rect x="58.2" y="265.6" class="st0" width="22.2" height="0.6"/>
		</g>
		<g id="XMLID_283_">
			<rect x="58.2" y="268.4" class="st0" width="22.2" height="2"/>
		</g>
		<g id="XMLID_279_">
			<g id="XMLID_282_">
				<polygon class="st0" points="58.2,283.6 58.2,285.6 87.8,285.6 89.7,283.6 				"/>
			</g>
			<g id="XMLID_281_">
				<polygon class="st0" points="58.2,288.3 85.2,288.3 85.8,287.7 58.2,287.7 				"/>
			</g>
			<g id="XMLID_280_">
				<polygon class="st0" points="58.2,292.5 81.3,292.5 83.2,290.5 58.2,290.5 				"/>
			</g>
		</g>
		<g id="XMLID_274_">
			<g id="XMLID_278_">
				<polygon class="st0" points="89.3,268.3 89.3,282.7 91.3,282.7 91.3,270.2 				"/>
			</g>
			<g id="XMLID_276_">
				<polygon class="st0" points="86.5,282.7 87.2,282.7 87.2,266.2 86.5,265.7 				"/>
			</g>
			<g id="XMLID_275_">
				<polygon class="st0" points="82.4,282.7 84.4,282.7 84.4,263.6 82.4,261.7 				"/>
			</g>
		</g>
	</g>
</g>
<g>
	<g>
		<g id="XMLID_343_">
			<g id="XMLID_346_">
				<rect x="152.9" y="260.4" class="st0" width="2" height="55.6"/>
			</g>
			<g id="XMLID_345_">
				<rect x="150.3" y="260.4" class="st0" width="0.6" height="55.6"/>
			</g>
			<g id="XMLID_344_">
				<rect x="146.3" y="260.4" class="st0" width="2" height="55.6"/>
			</g>
		</g>
		<g id="XMLID_338_">
			<polygon id="XMLID_341_" class="st0" points="176,314.5 178.3,314.5 162.4,295 160.1,295 			"/>
			<polygon id="XMLID_340_" class="st0" points="182.7,314.5 183.4,314.5 167.4,295 166.7,295 			"/>
			<polygon id="XMLID_339_" class="st0" points="190.6,314.5 174.6,295 172.4,295 188.4,314.5 			"/>
		</g>
		<g id="XMLID_337_">
			<rect x="156.9" y="261.2" class="st0" width="22.2" height="2"/>
		</g>
		<g id="XMLID_336_">
			<rect x="156.9" y="265.4" class="st0" width="22.2" height="0.6"/>
		</g>
		<g id="XMLID_335_">
			<rect x="156.9" y="268.1" class="st0" width="22.2" height="2"/>
		</g>
		<g id="XMLID_331_">
			<g id="XMLID_334_">
				<polygon class="st0" points="156.9,283.3 156.9,285.4 186.5,285.4 188.5,283.3 				"/>
			</g>
			<g id="XMLID_333_">
				<polygon class="st0" points="156.9,288.1 183.9,288.1 184.5,287.5 156.9,287.5 				"/>
			</g>
			<g id="XMLID_332_">
				<polygon class="st0" points="156.9,292.2 180,292.2 181.9,290.2 156.9,290.2 				"/>
			</g>
		</g>
		<g id="XMLID_322_">
			<g id="XMLID_330_">
				<polygon class="st0" points="188,268 188,282.4 190.1,282.4 190.1,270 				"/>
			</g>
			<g id="XMLID_324_">
				<polygon class="st0" points="185.3,282.4 185.9,282.4 185.9,266 185.3,265.4 				"/>
			</g>
			<g id="XMLID_323_">
				<polygon class="st0" points="181.2,282.4 183.2,282.4 183.2,263.4 181.2,261.5 				"/>
			</g>
		</g>
	</g>
</g>
<g>
	<g>
		<g id="XMLID_318_">
			<g id="XMLID_321_">
				<rect x="148.6" y="330.9" class="st0" width="1.9" height="53.9"/>
			</g>
			<g id="XMLID_320_">
				<rect x="146" y="330.9" class="st0" width="0.6" height="53.9"/>
			</g>
			<g id="XMLID_319_">
				<rect x="142.1" y="330.9" class="st0" width="1.9" height="53.9"/>
			</g>
		</g>
		<g id="XMLID_314_">
			<polygon id="XMLID_317_" class="st0" points="171,383.5 173.2,383.5 157.8,364.4 155.6,364.4 			"/>
			<polygon id="XMLID_316_" class="st0" points="177.5,383.5 178.2,383.5 162.7,364.4 162,364.4 			"/>
			<polygon id="XMLID_315_" class="st0" points="185.2,383.5 169.6,364.4 167.5,364.4 183,383.5 			"/>
		</g>
		<g id="XMLID_313_">
			<rect x="152.5" y="331.7" class="st0" width="21.6" height="2"/>
		</g>
		<g id="XMLID_312_">
			<rect x="152.5" y="335.7" class="st0" width="21.6" height="0.6"/>
		</g>
		<g id="XMLID_311_">
			<rect x="152.5" y="338.4" class="st0" width="21.6" height="1.9"/>
		</g>
		<g id="XMLID_307_">
			<g id="XMLID_310_">
				<polygon class="st0" points="152.5,353.1 152.5,355.1 181.2,355.1 183.1,353.1 				"/>
			</g>
			<g id="XMLID_309_">
				<polygon class="st0" points="152.5,357.8 178.7,357.8 179.3,357.2 152.5,357.2 				"/>
			</g>
			<g id="XMLID_308_">
				<polygon class="st0" points="152.5,361.8 174.9,361.8 176.7,359.8 152.5,359.8 				"/>
			</g>
		</g>
		<g id="XMLID_303_">
			<g id="XMLID_306_">
				<polygon class="st0" points="182.6,338.3 182.6,352.3 184.6,352.3 184.6,340.2 				"/>
			</g>
			<g id="XMLID_305_">
				<polygon class="st0" points="180,352.3 180.6,352.3 180.6,336.3 180,335.7 				"/>
			</g>
			<g id="XMLID_304_">
				<polygon class="st0" points="176,352.3 177.9,352.3 177.9,333.8 176,331.9 				"/>
			</g>
		</g>
	</g>
</g>
<g>
	<g>
		<g id="XMLID_60_">
			<rect x="189.8" y="341" class="st0" width="2" height="9.7"/>
		</g>
		<g id="XMLID_59_">
			<rect x="193.8" y="341" class="st0" width="0.6" height="9.7"/>
		</g>
		<g id="XMLID_58_">
			<rect x="196.5" y="341" class="st0" width="2" height="9.7"/>
		</g>
		<g id="XMLID_57_">
			<rect x="213.6" y="362.5" class="st0" width="2" height="10.5"/>
		</g>
		<g id="XMLID_56_">
			<rect x="217.6" y="362.5" class="st0" width="0.6" height="10.5"/>
		</g>
		<g id="XMLID_55_">
			<rect x="220.3" y="362.5" class="st0" width="2" height="10.5"/>
		</g>
		<polygon class="st0" points="199.2,331.4 196.3,333.6 222.4,333.6 222.4,331.4 		"/>
		<polygon class="st0" points="194.5,334.9 194,335.3 222.4,335.3 222.4,334.9 		"/>
		<polygon class="st0" points="191.6,337 189.3,338.8 222.4,338.8 222.4,337 		"/>
		<polygon class="st0" points="196.3,357.8 199.2,360 222.4,360 222.4,359.6 220.5,357.8 		"/>
		<polygon class="st0" points="194,356.1 194.5,356.5 219.1,356.5 218.7,356.1 		"/>
		<polygon class="st0" points="189.3,352.6 191.6,354.3 216.8,354.3 214.9,352.6 		"/>
		<polygon class="st0" points="212.5,382.9 215.4,380.7 190.5,380.7 190.5,382.9 		"/>
		<polygon class="st0" points="217.2,379.4 217.7,379 190.5,379 190.5,379.4 		"/>
		<polygon class="st0" points="220.1,377.2 222.4,375.5 190.5,375.5 190.5,377.2 		"/>
	</g>
</g>
<g>
	
		<rect id="XMLID_3545_" x="212.5" y="80.5" transform="matrix(-1 -1.224647e-16 1.224647e-16 -1 426.989 202.7156)" class="st0" width="2" height="41.7"/>
	
		<rect id="XMLID_3543_" x="208.9" y="80.5" transform="matrix(-1 -1.224647e-16 1.224647e-16 -1 418.3832 202.7156)" class="st0" width="0.6" height="41.7"/>
	
		<rect id="XMLID_3541_" x="203.9" y="80.5" transform="matrix(-1 -1.224647e-16 1.224647e-16 -1 409.8092 202.7156)" class="st0" width="2" height="41.7"/>
	
		<rect id="XMLID_3539_" x="208.2" y="50.6" transform="matrix(6.123234e-17 -1 1 6.123234e-17 131.5719 286.8431)" class="st0" width="2" height="54.1"/>
	
		<rect id="XMLID_3537_" x="208.9" y="46.3" transform="matrix(6.123234e-17 -1 1 6.123234e-17 135.8721 282.543)" class="st0" width="0.6" height="54.1"/>
	
		<rect id="XMLID_3535_" x="208.2" y="42" transform="matrix(6.123234e-17 -1 1 6.123234e-17 140.1563 278.2588)" class="st0" width="2" height="54.1"/>
</g>
<g>
	
		<rect id="XMLID_3533_" x="225.9" y="274.2" transform="matrix(-1 -1.224647e-16 1.224647e-16 -1 453.6148 587.7006)" class="st0" width="1.9" height="39.3"/>
	
		<rect id="XMLID_3531_" x="222.5" y="274.2" transform="matrix(-1 -1.224647e-16 1.224647e-16 -1 445.5084 587.7006)" class="st0" width="0.6" height="39.3"/>
	
		<rect id="XMLID_3529_" x="217.8" y="274.2" transform="matrix(-1 -1.224647e-16 1.224647e-16 -1 437.4319 587.7006)" class="st0" width="1.9" height="39.3"/>
	
		<rect id="XMLID_3527_" x="221.8" y="246" transform="matrix(6.123234e-17 -1 1 6.123234e-17 -48.7355 494.274)" class="st0" width="1.9" height="51"/>
	
		<rect id="XMLID_3525_" x="222.5" y="242" transform="matrix(6.123234e-17 -1 1 6.123234e-17 -44.685 490.2234)" class="st0" width="0.6" height="51"/>
	
		<rect id="XMLID_3523_" x="221.8" y="237.9" transform="matrix(6.123234e-17 -1 1 6.123234e-17 -40.6493 486.1878)" class="st0" width="1.9" height="51"/>
</g>
<g>
	
		<rect id="XMLID_3520_" x="146.6" y="39.6" transform="matrix(-1.836970e-16 1 -1 -1.836970e-16 199.3352 -95.841)" class="st0" width="2" height="24.4"/>
	
		<rect id="XMLID_3518_" x="147.3" y="43" transform="matrix(-1.836970e-16 1 -1 -1.836970e-16 202.7525 -92.4237)" class="st0" width="0.6" height="24.4"/>
	
		<rect id="XMLID_3516_" x="146.6" y="46.4" transform="matrix(-1.836970e-16 1 -1 -1.836970e-16 206.1539 -89.0222)" class="st0" width="2" height="24.4"/>
	
		<rect id="XMLID_3514_" x="146.6" y="-5.5" transform="matrix(-1.836970e-16 1 -1 -1.836970e-16 154.3165 -140.8597)" class="st0" width="2" height="24.4"/>
	
		<rect id="XMLID_3512_" x="147.3" y="-2" transform="matrix(-1.836970e-16 1 -1 -1.836970e-16 157.7336 -137.4426)" class="st0" width="0.6" height="24.4"/>
	
		<rect id="XMLID_3509_" x="146.6" y="1.4" transform="matrix(-1.836970e-16 1 -1 -1.836970e-16 161.1352 -134.041)" class="st0" width="2" height="24.4"/>
	<g id="XMLID_3501_">
		<g>
			<polygon id="XMLID_32_" class="st0" points="124.7,14.9 124.7,49.9 127.3,52.8 127.3,12.3 			"/>
			<polygon id="XMLID_31_" class="st0" points="129.1,10.6 129.1,54.7 129.6,55.2 129.6,10.2 			"/>
			<polygon id="XMLID_30_" class="st0" points="131.8,8 131.8,57.6 134,60 134,5.9 			"/>
		</g>
	</g>
</g>
<g>
	
		<rect id="XMLID_3499_" x="266.7" y="54.8" transform="matrix(-1.836970e-16 1 -1 -1.836970e-16 336.7025 -198.6781)" class="st0" width="2" height="28.4"/>
	
		<rect id="XMLID_3497_" x="267.4" y="58.2" transform="matrix(-1.836970e-16 1 -1 -1.836970e-16 340.1197 -195.261)" class="st0" width="0.6" height="28.4"/>
	
		<rect id="XMLID_3495_" x="266.7" y="61.6" transform="matrix(-1.836970e-16 1 -1 -1.836970e-16 343.5213 -191.8594)" class="st0" width="2" height="28.4"/>
	
		<rect id="XMLID_3493_" x="266.7" y="99.5" transform="matrix(-1.836970e-16 1 -1 -1.836970e-16 381.4309 -153.9498)" class="st0" width="2" height="28.4"/>
	
		<rect id="XMLID_3491_" x="267.4" y="102.9" transform="matrix(-1.836970e-16 1 -1 -1.836970e-16 384.8483 -150.5324)" class="st0" width="0.6" height="28.4"/>
	
		<rect id="XMLID_3450_" x="266.7" y="106.3" transform="matrix(-1.836970e-16 1 -1 -1.836970e-16 388.2499 -147.1308)" class="st0" width="2" height="28.4"/>
	
		<rect id="XMLID_3448_" x="261.3" y="83" transform="matrix(-1.836970e-16 1 -1 -1.836970e-16 354.0894 -170.4577)" class="st0" width="2" height="17.6"/>
	
		<rect id="XMLID_3446_" x="262" y="86.4" transform="matrix(-1.836970e-16 1 -1 -1.836970e-16 357.5067 -167.0404)" class="st0" width="0.6" height="17.6"/>
	
		<rect id="XMLID_3361_" x="261.3" y="89.8" transform="matrix(-1.836970e-16 1 -1 -1.836970e-16 360.9083 -163.6388)" class="st0" width="2" height="17.6"/>
	<g id="XMLID_3233_">
		<g>
			<polygon id="XMLID_28_" class="st0" points="242.1,77.2 242.1,112.2 244.8,115 244.8,74.6 			"/>
			<polygon id="XMLID_27_" class="st0" points="246.5,72.9 246.5,117 247,117.4 247,72.5 			"/>
			<polygon id="XMLID_26_" class="st0" points="249.2,70.3 249.2,119.9 251.4,122.3 251.4,68.2 			"/>
		</g>
	</g>
</g>
<g>
	
		<rect id="XMLID_3231_" x="256.4" y="-7.2" transform="matrix(-1.836970e-16 1 -1 -1.836970e-16 264.472 -250.404)" class="st0" width="2" height="28.4"/>
	
		<rect id="XMLID_3229_" x="257.1" y="-3.8" transform="matrix(-1.836970e-16 1 -1 -1.836970e-16 267.8892 -246.9868)" class="st0" width="0.6" height="28.4"/>
	
		<rect id="XMLID_3227_" x="256.4" y="-0.4" transform="matrix(-1.836970e-16 1 -1 -1.836970e-16 271.2907 -243.5853)" class="st0" width="2" height="28.4"/>
	
		<rect id="XMLID_3225_" x="256.4" y="37.5" transform="matrix(-1.836970e-16 1 -1 -1.836970e-16 309.2004 -205.6756)" class="st0" width="2" height="28.4"/>
	
		<rect id="XMLID_3223_" x="257.1" y="41" transform="matrix(-1.836970e-16 1 -1 -1.836970e-16 312.6177 -202.2583)" class="st0" width="0.6" height="28.4"/>
	
		<rect id="XMLID_3221_" x="256.4" y="44.4" transform="matrix(-1.836970e-16 1 -1 -1.836970e-16 316.0193 -198.8566)" class="st0" width="2" height="28.4"/>
	
		<rect id="XMLID_3219_" x="251" y="21" transform="matrix(-1.836970e-16 1 -1 -1.836970e-16 281.8589 -222.1837)" class="st0" width="2" height="17.6"/>
	
		<rect id="XMLID_3192_" x="251.7" y="24.5" transform="matrix(-1.836970e-16 1 -1 -1.836970e-16 285.2762 -218.7663)" class="st0" width="0.6" height="17.6"/>
	
		<rect id="XMLID_3190_" x="251" y="27.9" transform="matrix(-1.836970e-16 1 -1 -1.836970e-16 288.6778 -215.3647)" class="st0" width="2" height="17.6"/>
	<g id="XMLID_3167_">
		<g>
			<polygon id="XMLID_25_" class="st0" points="231.9,15.2 231.9,50.2 234.5,53.1 234.5,12.6 			"/>
			<polygon id="XMLID_24_" class="st0" points="236.3,10.9 236.3,55 236.7,55.5 236.7,10.5 			"/>
			<polygon id="XMLID_23_" class="st0" points="238.9,8.3 238.9,57.9 241.1,60.3 241.1,6.2 			"/>
		</g>
	</g>
</g>
<g id="XMLID_3132_">
	<rect id="XMLID_3165_" x="216.6" y="6.6" class="st0" width="2" height="53.1"/>
	<rect id="XMLID_3163_" x="213.9" y="6.6" class="st0" width="0.6" height="53.1"/>
	<rect id="XMLID_3157_" x="209.9" y="6.6" class="st0" width="1.9" height="53.1"/>
</g>
<g>
	<g id="XMLID_3084_">
		<rect id="XMLID_3130_" x="173.7" y="6.5" class="st0" width="2" height="44.1"/>
		<rect id="XMLID_3128_" x="171.1" y="6.5" class="st0" width="0.6" height="44.1"/>
		<rect id="XMLID_3104_" x="167.1" y="6.5" class="st0" width="1.9" height="44.1"/>
	</g>
	<g id="XMLID_3077_">
		<polygon id="XMLID_3082_" class="st0" points="202.2,59.8 202.2,57.8 172.8,57.8 174.5,59.8 		"/>
		<polygon id="XMLID_3080_" class="st0" points="202.2,55.7 202.2,55.1 170.4,55.1 170.9,55.7 		"/>
		<polygon id="XMLID_3078_" class="st0" points="202.2,51.2 167.1,51.2 167.1,51.5 168.5,53.1 202.2,53.1 		"/>
	</g>
</g>
<g>
	<g id="XMLID_3070_">
		<rect id="XMLID_3075_" x="282.7" y="6.8" class="st0" width="2" height="53"/>
		<rect id="XMLID_3073_" x="280" y="6.8" class="st0" width="0.6" height="53"/>
		<rect id="XMLID_3071_" x="276" y="6.8" class="st0" width="1.9" height="53"/>
	</g>
	<g id="XMLID_3061_">
		<rect id="XMLID_3066_" x="315.8" y="6.8" class="st0" width="2" height="53"/>
		<rect id="XMLID_3064_" x="313.2" y="6.8" class="st0" width="0.6" height="53"/>
		<rect id="XMLID_3062_" x="309.2" y="6.8" class="st0" width="1.9" height="53"/>
	</g>
	<g id="XMLID_3045_">
		<polygon id="XMLID_3058_" class="st0" points="286.2,6.4 286.2,10.7 307.8,45.3 307.8,41.1 		"/>
		<polygon id="XMLID_3054_" class="st0" points="286.2,16.3 307.8,50.9 307.8,49.6 286.2,15 		"/>
		<polygon id="XMLID_3050_" class="st0" points="286.2,24.8 307.8,59.3 307.8,55.2 286.2,20.7 		"/>
	</g>
</g>
<g>
	<rect id="XMLID_3043_" x="287.4" y="78.7" class="st0" width="2" height="9.9"/>
	<rect id="XMLID_3040_" x="291.5" y="78.7" class="st0" width="0.6" height="9.9"/>
	<rect id="XMLID_3036_" x="294.2" y="78.7" class="st0" width="2" height="9.9"/>
	<rect id="XMLID_3012_" x="311.7" y="100.6" class="st0" width="2" height="10.8"/>
	<rect id="XMLID_3010_" x="315.8" y="100.6" class="st0" width="0.6" height="10.8"/>
	<rect id="XMLID_3008_" x="318.5" y="100.6" class="st0" width="2" height="10.8"/>
	<polygon class="st0" points="297,68.8 294.1,71.1 320.7,71.1 320.7,68.8 	"/>
	<polygon class="st0" points="292.1,72.4 291.7,72.8 320.7,72.8 320.7,72.4 	"/>
	<polygon class="st0" points="289.3,74.6 286.8,76.4 320.7,76.4 320.7,74.6 	"/>
	<polygon class="st0" points="294.1,95.8 297,98 320.7,98 320.7,97.7 318.8,95.8 	"/>
	<polygon class="st0" points="291.7,94 292.1,94.5 317.4,94.5 316.9,94 	"/>
	<polygon class="st0" points="286.8,90.5 289.3,92.3 315,92.3 313,90.5 	"/>
	<polygon class="st0" points="310.6,121.4 313.5,119.2 288.1,119.2 288.1,121.4 	"/>
	<polygon class="st0" points="315.4,117.9 315.9,117.4 288.1,117.4 288.1,117.9 	"/>
	<polygon class="st0" points="318.3,115.7 320.7,113.9 288.1,113.9 288.1,115.7 	"/>
</g>
<g id="XMLID_2968_" class="st1">
	<rect id="XMLID_2992_" x="-113.7" y="284.6" class="st0" width="157.5" height="1.8"/>
	<rect id="XMLID_2987_" x="-113.7" y="288.2" class="st0" width="157.5" height="0.5"/>
	<rect id="XMLID_2983_" x="-113.7" y="290.6" class="st0" width="157.5" height="1.7"/>
</g>
<g id="XMLID_2945_" class="st1">
	<rect id="XMLID_2963_" x="232.6" y="332.8" class="st0" width="257.6" height="1.8"/>
	<rect id="XMLID_2956_" x="232.6" y="336.4" class="st0" width="257.6" height="0.5"/>
	<rect id="XMLID_2948_" x="232.6" y="338.8" class="st0" width="257.6" height="1.7"/>
</g>
<rect id="XMLID_2844_" x="131.2" y="-134.8" class="st2" width="1.8" height="139.7"/>
<rect id="XMLID_2835_" x="128.8" y="-134.8" class="st2" width="0.5" height="139.7"/>
<rect id="XMLID_2830_" x="125.3" y="-134.8" class="st2" width="1.7" height="139.7"/>
<rect id="XMLID_2767_" x="87.9" y="-40.1" class="st2" width="1.8" height="53.1"/>
<rect id="XMLID_2756_" x="85.6" y="-40.1" class="st2" width="0.5" height="53.1"/>
<rect id="XMLID_2729_" x="82" y="-40.1" class="st2" width="1.7" height="53.1"/>
<rect x="136.4" y="-44.5" class="st2" width="70.7" height="1.8"/>
<polygon class="st2" points="84,-44.5 82.2,-42.7 122,-42.7 122,-44.5 "/>
<rect x="136.4" y="-46.8" class="st2" width="70.7" height="0.5"/>
<polygon class="st2" points="86.4,-46.8 85.9,-46.3 122,-46.3 122,-46.8 "/>
<rect x="136.4" y="-50.4" class="st2" width="70.7" height="1.7"/>
<polygon class="st2" points="90,-50.4 88.2,-48.7 122,-48.7 122,-50.4 "/>
<rect x="261.2" y="168.2" class="st3" width="14.8" height="1.8"/>
<rect x="261.2" y="170.6" class="st3" width="14.8" height="1.8"/>
<polygon class="st2" points="528.2,-24.5 438.2,231.8 439.9,232.3 529.3,-22.2 "/>
<polygon class="st2" points="436,231 436.5,231.1 527,-26.8 526.7,-27.5 "/>
<polygon class="st2" points="524.4,-55.7 432.6,205.8 434.2,206.4 525.6,-53.9 524.8,-55.5 "/>
<g id="bandas-partners">
	
		<rect x="86.2" y="428.8" transform="matrix(0.9999 -1.160055e-02 1.160055e-02 0.9999 -4.9896 1.2632)" class="st4" width="40.4" height="3.9"/>
	
		<rect x="114.8" y="435.5" transform="matrix(0.9999 -1.156109e-02 1.156109e-02 0.9999 -5.0495 1.4254)" class="st4" width="11.8" height="3.9"/>
</g>
<polygon id="XMLID_2719_" class="st0" points="230.9,409.4 230.9,411.4 101.4,410.8 101.4,408.8 "/>
<polygon id="XMLID_2676_" class="st0" points="230.9,406.7 230.9,407.3 101.4,406.7 101.4,406.1 "/>
<polygon id="XMLID_2346_" class="st0" points="230.9,402.6 230.9,404.6 101.4,404 101.4,402 "/>
<polygon id="XMLID_2316_" class="st0" points="230.9,465.2 230.9,467.3 101.4,466.7 101.4,464.6 "/>
<polygon id="XMLID_1989_" class="st0" points="230.9,462.5 230.9,463.2 101.4,462.5 101.4,461.9 "/>
<polygon id="XMLID_1982_" class="st0" points="230.9,458.5 230.9,460.4 101.4,459.8 101.4,457.9 "/>
<g id="button-partners">
	<g>
		<g>
			<path class="st0" d="M149.6,424.8h4.1l4.5,15.5l4.7-15.5h4.1l-6.6,20.6h-4.4L149.6,424.8z"/>
			<path class="st0" d="M172.1,425.5c0.5-0.3,0.9-0.5,1.4-0.6c0.4-0.1,0.8-0.2,1.1-0.2c0.3,0,1.6,0,3.9,0.1c2.4,0.1,4.1,0.2,5.3,0.4
				v3.3h-7.9c-0.7,0-1.1,0.2-1.3,0.5c-0.1,0.3-0.2,0.6-0.2,1.1v3.2l8.1,0.3v3.3l-8.1,0.3v3.2c0,0.7,0.2,1.1,0.6,1.3
				c0.3,0.1,0.6,0.2,1.1,0.2h7.6v3.2c-0.9,0.1-3.2,0.3-6.7,0.4l-1.8,0.1c-0.1,0-0.3,0-0.5,0s-0.4,0-0.8,0c-0.3,0-0.7-0.1-1.1-0.3
				c-0.4-0.2-0.8-0.4-1.1-0.7c-0.7-0.7-1.1-1.7-1.1-3.1v-12.3C170.6,427.3,171.1,426.2,172.1,425.5z"/>
			<path class="st0" d="M197.4,424.8c1.7,0,3.1,0.5,3.9,1.4c1,1.1,1.6,2.8,1.6,5c0,2.7-0.5,4.4-1.6,5.3c-0.3,0.3-0.6,0.5-0.8,0.5
				c-0.2,0.1-0.4,0.2-0.8,0.3l3.8,8.1h-4.3l-3.3-7.8l-3.4-0.4v8.2h-3.8v-20.6H197.4z M192.5,434.1h4.5c0.7,0,1.2-0.2,1.5-0.6
				c0.3-0.4,0.5-1.1,0.5-2.3s-0.2-1.9-0.5-2.4c-0.3-0.4-0.8-0.6-1.5-0.6h-4.5V434.1z"/>
		</g>
	</g>
</g>
<g id="bandas-clientes">
	
		<rect x="177.5" y="158.6" transform="matrix(0.9999 -1.160055e-02 1.160055e-02 0.9999 -1.8489 2.3046)" class="st5" width="40.4" height="3.9"/>
	
		<rect x="206.2" y="165.3" transform="matrix(0.9999 -1.156100e-02 1.156100e-02 0.9999 -1.9196 2.4634)" class="st5" width="11.8" height="3.9"/>
</g>
<polygon id="XMLID_1972_" class="st0" points="322.2,139.2 322.2,141.2 192.8,140.6 192.8,138.6 "/>
<polygon id="XMLID_1968_" class="st0" points="322.2,136.5 322.2,137.1 192.8,136.5 192.8,135.9 "/>
<polygon id="XMLID_1068_" class="st0" points="322.2,132.4 322.2,134.4 192.8,133.8 192.8,131.8 "/>
<polygon id="XMLID_1062_" class="st0" points="322.2,195 322.2,197.1 192.8,196.5 192.8,194.4 "/>
<polygon id="XMLID_1059_" class="st0" points="322.2,192.3 322.2,192.9 192.8,192.3 192.8,191.7 "/>
<polygon id="XMLID_940_" class="st0" points="322.2,188.3 322.2,190.2 192.8,189.6 192.8,187.7 "/>
<g>
	<g>
		<g>
			<path class="st0" d="M240.9,154.6h4.1l4.5,15.5l4.7-15.5h4.1l-6.6,20.6h-4.4L240.9,154.6z"/>
			<path class="st0" d="M263.4,155.3c0.5-0.3,0.9-0.5,1.4-0.6c0.4-0.1,0.8-0.2,1.1-0.2c0.3,0,1.6,0,3.9,0.1c2.4,0.1,4.1,0.2,5.3,0.4
				v3.3h-7.9c-0.7,0-1.1,0.2-1.3,0.5c-0.1,0.3-0.2,0.6-0.2,1.1v3.2l8.1,0.3v3.3l-8.1,0.3v3.2c0,0.7,0.2,1.1,0.6,1.3
				c0.3,0.1,0.6,0.2,1.1,0.2h7.6v3.2c-0.9,0.1-3.2,0.3-6.7,0.4l-1.8,0.1c-0.1,0-0.3,0-0.5,0s-0.4,0-0.8,0c-0.3,0-0.7-0.1-1.1-0.3
				c-0.4-0.2-0.8-0.4-1.1-0.7c-0.7-0.7-1.1-1.7-1.1-3.1v-12.3C261.9,157.1,262.4,156,263.4,155.3z"/>
			<path class="st0" d="M288.7,154.6c1.7,0,3.1,0.5,3.9,1.4c1,1.1,1.6,2.8,1.6,5c0,2.7-0.5,4.4-1.6,5.3c-0.3,0.3-0.6,0.5-0.8,0.5
				c-0.2,0.1-0.4,0.2-0.8,0.3l3.8,8.1h-4.3l-3.3-7.8l-3.4-0.4v8.2H280v-20.6H288.7z M283.8,163.9h4.5c0.7,0,1.2-0.2,1.5-0.6
				c0.3-0.4,0.5-1.1,0.5-2.3s-0.2-1.9-0.5-2.4c-0.3-0.4-0.8-0.6-1.5-0.6h-4.5V163.9z"/>
		</g>
	</g>
</g>
<line class="st3" x1="124.7" y1="111.7" x2="135.2" y2="126.9"/>
<polygon class="st2" points="155.8,119.7 130.7,119.7 132.1,121.5 157,121.5 "/>
<polygon class="st2" points="128.9,117.4 129.3,117.9 154.5,117.9 154.1,117.4 "/>
<polygon class="st2" points="126.1,113.8 127.5,115.5 152.8,115.5 151.6,113.8 "/>
<polygon class="st2" points="131.5,63.6 131.5,109.1 133.2,109.1 133.2,65.5 "/>
<polygon class="st2" points="129.1,109.1 129.6,109.1 129.6,61.7 129.1,61.1 "/>
<polygon class="st2" points="124.9,109.3 126.6,109.3 126.6,59.4 124.9,57.6 "/>
<polygon class="st2" points="121.7,14.8 121.7,16.6 -322.1,16.6 -321.1,14.8 "/>
<polygon class="st2" points="121.7,18.4 121.7,19 -323.5,19 -323.2,18.4 "/>
<polygon class="st2" points="121.7,20.8 121.7,22.5 -325.5,22.5 -324.5,20.8 "/>
<g id="XMLID_942_" class="st1">
	<rect id="XMLID_2317_" x="153.6" y="124.9" class="st0" width="2.1" height="129.5"/>
	<rect id="XMLID_2308_" x="150.8" y="124.9" class="st0" width="0.6" height="129.5"/>
	<rect id="XMLID_2288_" x="146.6" y="124.9" class="st0" width="2" height="129.5"/>
</g>
<polygon class="st2" points="74.5,126.7 72.5,126.7 116.7,256.1 118.8,256.1 "/>
<polygon class="st2" points="69.8,126.7 114.1,256.1 114.7,256.1 70.4,126.7 "/>
<polygon class="st2" points="65.7,126.7 110,256.1 112,256.1 67.7,126.7 "/>
<polygon class="st2" points="73.4,121.6 -31.1,121.6 -29.9,123.8 74.4,123.8 "/>
<polygon class="st2" points="-32.6,118.7 -32.3,119.4 72.3,119.4 72,118.7 "/>
<polygon class="st2" points="-35,114.3 -33.8,116.5 70.9,116.5 69.8,114.3 "/>
</svg>
