<?xml version="1.0" encoding="utf-8"?>
<!-- Generator: Adobe Illustrator 21.0.0, SVG Export Plug-In . SVG Version: 6.00 Build 0)  -->
<svg version="1.1" id="Capa_1" xmlns="http://www.w3.org/2000/svg" xmlns:xlink="http://www.w3.org/1999/xlink" x="0px" y="0px"
	 viewBox="0 0 200 75" style="enable-background:new 0 0 200 75;" xml:space="preserve">
<style type="text/css">
	.st0{fill:#FFFFFF;}
</style>
<g>
	<rect x="39.8" y="26.2" class="st0" width="2.3" height="44.4"/>
	<rect x="53.6" y="26.2" class="st0" width="2.3" height="44.4"/>
	<g>
		<g>
			<polygon class="st0" points="87.5,3.7 28.4,3.7 28.4,6.7 86.6,6.7 			"/>
			<polygon class="st0" points="81.9,21.3 82.9,18.2 28.4,18.2 28.4,21.3 			"/>
			<polygon class="st0" points="84.5,13.2 84.7,12.7 28.4,12.7 28.4,13.2 			"/>
		</g>
	</g>
	<polygon class="st0" points="107.7,4.2 85.6,70.4 88.7,70.4 110.8,4.2 	"/>
	<polygon class="st0" points="102.3,4.2 80.2,70.4 80.7,70.4 102.8,4.2 	"/>
	<polygon class="st0" points="94.6,4.2 72.1,70.4 75.2,70.4 97.7,4.2 	"/>
	<polygon class="st0" points="113.4,8.5 111.7,13.5 129.5,70.4 132.6,70.4 	"/>
	<polygon class="st0" points="104.9,34.3 115.6,70.4 118.7,70.4 106.5,29.7 	"/>
	<polygon class="st0" points="108.5,21.4 124.4,70.4 124.9,70.4 108.8,20.6 	"/>
	<polygon class="st0" points="140.7,4.2 126.4,29.1 127.5,33 144.1,4.2 	"/>
	<polygon class="st0" points="154.5,4.2 131.2,45.1 132.4,49 158,4.2 	"/>
	<polygon class="st0" points="149,4.2 129.1,38.2 129.3,38.8 149.5,4.2 	"/>
	<polygon class="st0" points="142.8,38.8 141.3,41.4 169.7,70.3 174,70.3 	"/>
	<polygon class="st0" points="134.5,52.9 151.6,70.3 155.9,70.3 136.1,50.3 	"/>
	<polygon class="st0" points="138.4,46.3 162.6,70.3 163.3,70.3 138.7,45.9 	"/>
	<polygon class="st0" points="47.2,70.6 47.7,70.7 47.7,26.2 47.2,26.2 	"/>
</g>
</svg>
