<?xml version="1.0" encoding="utf-8"?>
<!-- Generator: Adobe Illustrator 19.2.1, SVG Export Plug-In . SVG Version: 6.00 Build 0)  -->
<svg version="1.1" id="Capa_1" xmlns="http://www.w3.org/2000/svg" xmlns:xlink="http://www.w3.org/1999/xlink" x="0px" y="0px"
	 viewBox="0 0 360.2 235.9" style="enable-background:new 0 0 360.2 235.9;" xml:space="preserve">
<style type="text/css">
	.st0{fill:#E6E6E6;}
</style>
<g id="XMLID_4_">
	<g>
		<g id="XMLID_26_">
			<rect x="36.9" y="67.5" class="st0" width="2.1" height="168.4"/>
		</g>
		<g id="XMLID_25_">
			<rect x="34.1" y="67.5" class="st0" width="0.6" height="168.4"/>
		</g>
		<g id="XMLID_24_">
			<rect x="29.9" y="67.5" class="st0" width="2" height="168.4"/>
		</g>
	</g>
</g>
<polygon class="st0" points="-18.4,174.7 -16.9,176.1 24,135.2 24,132.2 "/>
<polygon class="st0" points="-15.4,177.6 -15,178.1 24,139.1 24,138.2 "/>
<polygon class="st0" points="-13.5,179.6 -12,181 24,145 24,142.1 "/>
<polygon class="st0" points="44.1,112.1 44.1,115.1 91.2,67.8 88.3,67.8 "/>
<polygon class="st0" points="157.7,1.5 156.3,0 104,52.1 107,52.1 "/>
<polygon class="st0" points="44.1,118.1 44.1,119 95.1,67.8 94.2,67.8 "/>
<polygon class="st0" points="159.7,3.4 159.2,3 110,52.1 110.9,52.1 "/>
<polygon class="st0" points="44.1,122 44.1,124.9 101,67.8 98.2,67.8 "/>
<polygon class="st0" points="162.6,6.4 161.2,4.9 113.9,52.1 116.8,52.1 "/>
<polygon class="st0" points="113.5,55.5 110.6,55.5 107.6,55.5 106.7,55.5 103.7,55.5 100.7,55.5 41.3,55.5 38.9,57.6 98.7,57.6 
	101.6,57.6 104.6,57.6 105.5,57.6 108.5,57.6 111.4,57.6 360.2,57.6 360.2,55.5 "/>
<polygon class="st0" points="109.3,59.7 106.4,59.7 103.4,59.7 102.5,59.7 99.5,59.7 96.5,59.7 36.4,59.7 35.7,60.4 95.9,60.4 
	98.8,60.4 101.9,60.4 102.7,60.4 105.8,60.4 108.7,60.4 360.2,60.4 360.2,59.7 "/>
<polygon class="st0" points="106.5,62.5 103.6,62.5 100.6,62.5 99.7,62.5 96.7,62.5 93.8,62.5 33.2,62.5 30.8,64.5 91.7,64.5 
	94.7,64.5 97.7,64.5 98.6,64.5 101.6,64.5 104.5,64.5 360.2,64.5 360.2,62.5 "/>
<polygon class="st0" points="-21.3,177.4 -22.8,178.8 24,225.6 24,222.7 "/>
<polygon class="st0" points="-24.7,180.8 24,229.5 24,228.6 -24.3,180.3 "/>
<polygon class="st0" points="-27.7,183.7 24,235.4 24,232.5 -26.3,182.3 "/>
</svg>
