<?xml version="1.0" encoding="utf-8"?>
<!-- Generator: Adobe Illustrator 19.2.1, SVG Export Plug-In . SVG Version: 6.00 Build 0)  -->
<svg version="1.1" id="Capa_1" xmlns="http://www.w3.org/2000/svg" xmlns:xlink="http://www.w3.org/1999/xlink" x="0px" y="0px"
	 viewBox="0 0 1191.6 521.9" style="enable-background:new 0 0 1191.6 521.9;" xml:space="preserve">
<style type="text/css">
	.st0{fill:#E6E6E6;}
</style>
<g>
	<polygon class="st0" points="945.2,520.1 947.1,521.9 1191.6,277.4 1191.6,273.8 	"/>
	<polygon class="st0" points="942.8,517.6 943.3,518.2 1191.6,270 1191.6,268.9 	"/>
	<polygon class="st0" points="939.1,513.9 940.9,515.7 1191.6,265.1 1191.6,261.5 	"/>
	<polygon class="st0" points="6.1,139.1 7.9,140.9 148.8,0 145.2,0 	"/>
	<polygon class="st0" points="3.7,136.6 4.2,137.2 141.4,0 140.3,0 	"/>
	<polygon class="st0" points="0,132.9 1.8,134.7 136.5,0 132.9,0 	"/>
	<polygon class="st0" points="158.3,0 155.7,2.6 861.8,2.6 858.6,0 	"/>
	<polygon class="st0" points="152.3,6 865.9,6 865,5.3 153,5.3 	"/>
	<polygon class="st0" points="147.1,11.2 872.2,11.2 869.1,8.7 149.6,8.7 	"/>
	<polygon class="st0" points="1181.4,266 1183,263.9 863.3,15.5 859,15.5 	"/>
	<polygon class="st0" points="1184.6,261.8 1185.1,261.2 868.9,15.5 867.6,15.5 	"/>
	<polygon class="st0" points="1188.3,257.1 877.4,15.5 873.3,15.5 1186.7,259.1 	"/>
</g>
</svg>
