<?xml version="1.0" encoding="utf-8"?>
<!-- Generator: Adobe Illustrator 19.2.1, SVG Export Plug-In . SVG Version: 6.00 Build 0)  -->
<svg version="1.1" id="Capa_1" xmlns="http://www.w3.org/2000/svg" xmlns:xlink="http://www.w3.org/1999/xlink" x="0px" y="0px"
	 viewBox="0 0 127.5 226.2" style="enable-background:new 0 0 127.5 226.2;" xml:space="preserve">
<style type="text/css">
	.st0{fill:#E6E6E6;}
	.st1{fill:none;}
</style>
<g id="XMLID_4938_">
	<g>
		<g id="XMLID_28_">
			<rect x="85.7" y="16.1" class="st0" width="2.6" height="210.1"/>
		</g>
		<g id="XMLID_27_">
			<rect x="82.2" y="16.1" class="st0" width="0.8" height="210.1"/>
		</g>
		<g id="XMLID_26_">
			<rect x="77" y="16.1" class="st0" width="2.5" height="210.1"/>
		</g>
	</g>
</g>
<rect x="43.4" y="140.6" transform="matrix(0.7071 -0.7071 0.7071 0.7071 -118.8753 86.2698)" class="st0" width="2.6" height="92"/>
<rect x="41.2" y="143.7" transform="matrix(0.7071 -0.7071 0.7071 0.7071 -121.9529 84.9951)" class="st0" width="0.8" height="92"/>
<rect x="37.3" y="146.8" transform="matrix(0.707 -0.7072 0.7072 0.707 -125.0253 83.7398)" class="st0" width="2.5" height="92"/>
<polygon class="st0" points="439.4,1.2 91.3,1.2 88.2,3.8 439.4,3.8 "/>
<polygon class="st0" points="439.4,7.3 439.4,6.5 85.1,6.5 84.2,7.3 "/>
<polygon class="st0" points="439.4,12.5 439.4,9.9 81,9.9 78.1,12.5 "/>
<polygon class="st1" points="94.7,75.5 69.7,100.6 69.7,104.4 94.7,79.3 "/>
<polygon class="st1" points="94.7,80.4 69.7,105.5 69.7,109.2 94.7,84.2 "/>
<polygon class="st0" points="16.7,149.8 18.6,151.7 69.7,100.6 69.7,96.9 "/>
<polygon class="st0" points="236.4,-66.2 234.6,-68 94.7,71.9 94.7,75.5 "/>
<polygon class="st0" points="20.5,153.6 21,154.1 69.7,105.5 69.7,104.4 "/>
<polygon class="st0" points="238.9,-63.8 238.3,-64.3 94.7,79.3 94.7,80.4 "/>
<polygon class="st0" points="22.9,156 24.7,157.8 69.7,112.8 69.7,109.2 "/>
<polygon class="st0" points="240.8,-61.9 94.7,84.2 94.7,87.8 242.6,-60.1 "/>
</svg>
