<?xml version="1.0" encoding="utf-8"?>
<!-- Generator: Adobe Illustrator 19.2.1, SVG Export Plug-In . SVG Version: 6.00 Build 0)  -->
<svg version="1.1" id="Capa_1" xmlns="http://www.w3.org/2000/svg" xmlns:xlink="http://www.w3.org/1999/xlink" x="0px" y="0px"
	 viewBox="0 0 318.7 55.2" style="enable-background:new 0 0 318.7 55.2;" xml:space="preserve">
<style type="text/css">
	.st0{fill:#575756;}
</style>
<g>
	<path class="st0" d="M37.5,47.5c-2.8,0-5.6,0-8.5,0C31.9,47.5,34.7,47.5,37.5,47.5c0.6,0,1.2,0,1.8,0
		C38.7,47.5,38.1,47.5,37.5,47.5z"/>
	<path class="st0" d="M48.7,8.1c-7.4,0-14.9,0-22.3,0c-1.3,0-2.6,0.1-3.9,0.3C11.9,10.2,4.6,20.8,6.7,31.3
		c1.9,9.6,9.8,16.2,19.5,16.2c0.9,0,1.9,0,2.8,0c2.8,0,5.6,0,8.5,0c0.6,0,1.2,0,1.8,0c3.9,0,7.8,0.2,11.7-0.2
		c11.9-1,20.1-12.9,17-24.5C65.6,14,58,8.1,48.7,8.1z M50.8,40.4c-0.8,0.2-1.6,0.2-2.4,0.2c-7.3,0-14.5,0-21.8,0
		c-6.5,0-12.1-4.9-12.8-11.2c-0.7-6.7,3.5-12.6,10-14.1c0.9-0.2,1.9-0.3,2.9-0.3c3.6,0,7.3,0,10.9,0c3.6,0,7.1,0,10.7,0
		c6.7,0,12.2,4.9,12.9,11.5C61.9,33.1,57.4,39.1,50.8,40.4z"/>
	<path class="st0" d="M285.3,40.6c-4.4,0-8-1.8-10.6-5.4c-0.8-1.2-1.5-2.4-1.8-3.9c0.4,0,0.8,0,1.1,0c9.3,0,18.7,0,28,0
		c1.1,0,2.3,0.3,3.2-0.2c0.8-0.4,1.2-1.6,1.8-2.5c0.9-1.4,1.7-2.7,2.7-4.2c-12.4,0-24.5,0-36.9,0c0.3-0.8,0.5-1.5,0.9-2.2
		c2.4-4.6,6.3-7.1,11.5-7.1c7.1-0.1,14.3,0,21.4,0c0.3,0,0.8-0.1,1-0.4c1.4-2.1,2.8-4.2,4.2-6.5c-0.4,0-0.6,0-0.8,0
		c-8.7,0-17.5,0-26.2,0c-1.4,0-2.9,0.1-4.3,0.4c-10,2.3-16.4,11.2-15.4,21.5c1,9.5,9.3,17.3,18.9,17.4c7.8,0.1,15.6,0,23.4,0
		c0.3,0,0.7-0.2,0.9-0.5c1.1-1.7,2.2-3.5,3.4-5.2c0.2-0.4,0.5-0.7,0.8-1.2c-0.5,0-0.8,0-1.1,0C302.6,40.6,294,40.6,285.3,40.6z"/>
	<path class="st0" d="M106.5,34.6c8.3-0.3,14.3-8.3,12.3-16.3c-1.5-6.2-6.7-10.2-13.3-10.2c-10.6,0-21.3,0-31.9,0
		c-0.3,0-0.5,0-0.8,0c0,13.1,0,26.2,0,39.3c2.5,0,4.9,0,7.5,0c0-10.8,0-21.6,0-32.4c0.2,0,0.3,0,0.4,0c8.3,0,16.6,0,24.9,0
		c4.2,0,7.1,4.3,5.8,8.4c-0.9,2.8-3.3,4.5-6.7,4.5c-6.5,0-13.1,0-19.6-0.1c-0.3,0-0.6,0-1,0c0.2,0.2,0.2,0.3,0.3,0.3
		c7.3,6.4,14.6,12.7,21.9,19.1c0.2,0.2,0.5,0.3,0.7,0.3c3.4,0,6.8,0,10.2,0c0-0.1,0.1-0.1,0.1-0.2c-4.9-4.2-9.9-8.3-14.8-12.5
		c0-0.1,0.1-0.1,0.1-0.2C103.9,34.7,105.2,34.7,106.5,34.6z"/>
	<path class="st0" d="M152.9,10.4c-2.3-3.7-7.3-3.7-9.7,0c-7.8,12.2-15.5,24.3-23.3,36.5c-0.1,0.2-0.2,0.4-0.3,0.6
		c2.7,0,5.3,0,7.9,0c0.6,0,1-0.2,1.3-0.7c6.2-9.9,12.4-19.7,18.6-29.6c0.2-0.3,0.4-0.5,0.6-0.9c3.6,5.8,7.1,11.5,10.7,17.3
		c-6.8,0-13.4,0-20.2,0c1.4,2.2,2.7,4.2,4,6.2c0.3,0.5,0.7,0.7,1.3,0.7c6.2,0,12.5,0,18.7,0c0.7,0,1.1,0.2,1.4,0.8
		c1.1,1.9,2.2,3.7,3.3,5.6c0.3,0.4,0.5,0.6,1,0.6c1.5,0,3,0,4.5,0c1.2,0,2.3,0,3.6,0c-0.2-0.3-0.3-0.5-0.4-0.7
		C168.3,34.6,160.6,22.5,152.9,10.4z"/>
	<path class="st0" d="M192.8,40.6c-6.9,0-12.6-5.7-12.7-12.6c-0.1-7.3,5.6-13,12.9-13c7.1,0,14.3,0,21.4,0c0.5,0,0.9-0.1,1.1-0.6
		c0.6-0.9,1.2-1.9,1.8-2.8c0.7-1.1,1.4-2.3,2.2-3.5c-0.4,0-0.6,0-0.8,0c-8.7,0-17.3,0-26,0c-1.2,0-2.3,0-3.4,0.2
		c-10.5,1.8-17.5,11.1-16.4,21.6c1,9.7,9.3,17.4,19,17.5c7.8,0.1,15.6,0,23.3,0c0.3,0,0.7-0.2,0.9-0.5c1.1-1.6,2.2-3.3,3.2-5
		c0.3-0.4,0.5-0.9,0.9-1.4c-0.5,0-0.8,0-1.1,0C210.3,40.6,201.6,40.6,192.8,40.6z"/>
	<path class="st0" d="M231.2,8.1c-2.5,0-5,0-7.5,0c0,0.2,0,0.4,0,0.6c0,11.6,0,23.1,0,34.7c0,2.5,1.6,4,4,4c11.2,0,22.5,0,33.7,0
		c0.3,0,0.8-0.3,1-0.5c1.3-1.9,2.5-3.8,3.7-5.7c0.1-0.2,0.2-0.4,0.3-0.6c-11.8,0-23.4,0-35.2,0C231.2,29.7,231.2,18.9,231.2,8.1z"/>
</g>
</svg>
