<svg id="Capa_1" data-name="Capa 1" xmlns="http://www.w3.org/2000/svg" viewBox="0 0 327.55 136.59"><defs><style>.cls-1{fill:#999;}.cls-2{fill:#b3b3b3;}</style></defs><title>logo</title><path class="cls-1" d="M5.64,2.35V33.17h108.2V2.35H5.64ZM107.47,27.08H12.07V9h95.39v18.1Z"/><polygon class="cls-2" points="5.64 53.75 12.28 53.75 12.28 65.92 24.68 65.92 24.68 53.75 31.12 53.75 31.12 84.66 24.49 84.66 24.49 72.02 12.19 72.02 12.19 84.66 5.64 84.66 5.64 53.75"/><path class="cls-2" d="M55,69a8.78,8.78,0,0,0-5.83-6.29c-3.57-1.13-7-1-10.44,1.75s-4,8.35-3.37,11.92a10.15,10.15,0,0,0,6.11,7.94,15.19,15.19,0,0,0,7.75.7A17.64,17.64,0,0,0,53,83.81a5.53,5.53,0,0,0,.89-0.61l0-5.12A19.28,19.28,0,0,1,51,79.59c-1.22.47-5.07,0.89-6.53,0a6,6,0,0,1-3-4.09h14A22,22,0,0,0,55,69ZM41.5,70.94s0.85-3.95,4.18-3.85,3.52,2.44,3.85,3.85h-8Z"/><polygon class="cls-2" points="57.05 62.63 63.81 84.66 69.55 84.66 73.12 71.69 76.83 84.66 82.61 84.66 89.47 62.63 83.31 62.63 79.51 75.59 75.84 62.63 70.58 62.63 67.2 75.78 63.39 62.63 57.05 62.63"/><path class="cls-2" d="M92.8,53.65h6.58V78.22a1.56,1.56,0,0,0,1.08,1.27,5.63,5.63,0,0,0,1.83,0,2.8,2.8,0,0,0,.52-0.14L103,84.66a11.35,11.35,0,0,1-3.29.38,8.59,8.59,0,0,1-4.6-1.22,4.5,4.5,0,0,1-2-3.29C93,80,92.8,53.65,92.8,53.65Z"/><path class="cls-2" d="M130.73,56.55h6.5v6.27h8.54V56.55h6.53v6.27H157v4.94h-4.79v9.84a2,2,0,0,0,.89,1.56,3.63,3.63,0,0,0,3.34.41A1.26,1.26,0,0,0,157,79.3v5.34a14.44,14.44,0,0,1-3.38.41c-1.41-.07-3.08.37-5.16-1A5.3,5.3,0,0,1,146,80.26c-0.11-.67-0.19-12.62-0.19-12.62h-8.76v9.87a5.14,5.14,0,0,0,.89,1.6,2.82,2.82,0,0,0,2.38.63,5.11,5.11,0,0,0,1.78-.41l0,5.27a15.75,15.75,0,0,1-4,.64c-1.52-.08-3.71-0.38-4.94-1.38A6.73,6.73,0,0,1,131,79.93c0-1,0-12.14,0-12.14h-3.71V62.6h3.56Z"/><path class="cls-2" d="M188.4,56.55c-1.42-1.75-5.11-2.57-6.09-2.64s-14.13-.34-14.13-0.34v31.1H175v-10s5.23,0.13,7,0a9.68,9.68,0,0,0,3.44-1A10.24,10.24,0,0,0,189.56,70a11.63,11.63,0,0,0,1.53-5.77C191.09,59.29,189.31,57.67,188.4,56.55Zm-4,8.37c-0.09,2.6-2.46,3.63-3.81,4a32.52,32.52,0,0,1-5.72,0V59.24s5.3,0.09,5.86.19a4.53,4.53,0,0,1,2.68,1.49C184.78,62.22,184.35,64.91,184.35,64.91Z"/><path class="cls-2" d="M211,66.09a8.41,8.41,0,0,0-5.56-3.68,19,19,0,0,0-6.92,0,21.72,21.72,0,0,0-4.14,1.71v5s3.8-1.73,6.24-1.73,4.11,0.71,4.45,1.27a3.28,3.28,0,0,1,.59,2.59,39,39,0,0,0-5.93-.53A7.56,7.56,0,0,0,194.35,73a6.63,6.63,0,0,0-2.16,5.19,7.36,7.36,0,0,0,2.29,5.07A8.29,8.29,0,0,0,200.74,85a9.24,9.24,0,0,0,4.9-2.29c0.25-.31.22,0,0.25,0.28s0,1.79,0,1.79h6.24V69.71A8.81,8.81,0,0,0,211,66.09Zm-5.31,11.83a3.82,3.82,0,0,1-.91,1.38,4.34,4.34,0,0,1-3.36,1.24,2.69,2.69,0,0,1-2.83-2.25,3,3,0,0,1,1.16-2.68,6.36,6.36,0,0,1,2.45-.6,11.13,11.13,0,0,1,3.49.77v2.13Z"/><path class="cls-2" d="M278,66.09a8.41,8.41,0,0,0-5.56-3.68,19,19,0,0,0-6.92,0,21.71,21.71,0,0,0-4.14,1.71v5s3.8-1.73,6.24-1.73,4.11,0.71,4.45,1.27a3.28,3.28,0,0,1,.59,2.59,39,39,0,0,0-5.93-.53A7.56,7.56,0,0,0,261.41,73a6.63,6.63,0,0,0-2.16,5.19,7.36,7.36,0,0,0,2.29,5.07A8.29,8.29,0,0,0,267.8,85a9.24,9.24,0,0,0,4.9-2.29c0.25-.31.22,0,0.25,0.28s0,1.79,0,1.79h6.24V69.71A8.81,8.81,0,0,0,278,66.09Zm-5.31,11.83a3.82,3.82,0,0,1-.91,1.38,4.34,4.34,0,0,1-3.36,1.24,2.69,2.69,0,0,1-2.83-2.25,3,3,0,0,1,1.16-2.68,6.35,6.35,0,0,1,2.45-.6,11.13,11.13,0,0,1,3.49.77v2.13Z"/><path class="cls-2" d="M233.18,69.39V63.74a14.37,14.37,0,0,0-3.7-1.47,27.93,27.93,0,0,0-5.11,0,10.5,10.5,0,0,0-7.16,5.11,14.74,14.74,0,0,0-.38,12,9.12,9.12,0,0,0,5.86,5.11,15,15,0,0,0,7.27.45,26.17,26.17,0,0,0,3.22-1.23V77.78a9.63,9.63,0,0,1-2.36,1.52,14.81,14.81,0,0,1-4.25.27,5.53,5.53,0,0,1-3.87-3.12,8.76,8.76,0,0,1,.07-5.83c0.55-1.17,2.47-2.95,4.08-3a8.09,8.09,0,0,1,6.2,1.75"/><path class="cls-2" d="M237.39,53.59h6.51V71.17l6.82-8.64h7.61l-8.19,10.18a1.2,1.2,0,0,0,.31.92c0.34,0.21,7.51,10.87,7.51,10.87l-7.33.17-6.55-9.87s-0.27-.24-0.27.24v9.63h-6.41V53.59Z"/><path class="cls-2" d="M284.11,62.58h6.16l0,3.82A21.16,21.16,0,0,1,292,63.84a5.13,5.13,0,0,1,3.05-1.34,11.51,11.51,0,0,1,2.69.17v6.47a6.68,6.68,0,0,0-3.54-.75c-1.25.14-3.29,1.54-3.5,2.69-0.24,1.34,0,13.59,0,13.59h-6.62V62.58Z"/><path class="cls-2" d="M315.33,53.58V64s0,0.7-.25.46a8.18,8.18,0,0,0-3.13-2,14.75,14.75,0,0,0-4.74-.22,8.89,8.89,0,0,0-5.41,3.65,14.93,14.93,0,0,0-2,9.9,12.13,12.13,0,0,0,3,6.78c0.53,0.49,2.46,2.38,4.25,2.51s4.53,0.16,6.18-1a12.15,12.15,0,0,0,2.07-1.62s0.21-.28.21,0v2h6.34V53.58h-6.58Zm0,23.84a5.22,5.22,0,0,1-1.44,1.4,4.8,4.8,0,0,1-4,.67,5.28,5.28,0,0,1-3.44-3.55,10.59,10.59,0,0,1,.56-5.83,3.37,3.37,0,0,1,2.6-2.11,7.18,7.18,0,0,1,3.2,0,5,5,0,0,1,2.49,2v7.44Z"/><polygon class="cls-2" points="5.64 94.73 5.64 126.01 24.8 126.01 24.8 122.2 9.82 122.2 9.82 111.74 23.26 111.74 23.26 108.21 9.9 108.21 9.9 98.54 24.8 98.54 24.8 94.73 5.64 94.73"/><path class="cls-2" d="M30.15,103.93h4l0,3.36A8.3,8.3,0,0,1,40,103.57a8.62,8.62,0,0,1,6.7,2.7,6.45,6.45,0,0,1,1.41,3.19c0.05,1.08.14,16.29,0.14,16.29l-4.05,0V111.42a7.18,7.18,0,0,0-.56-2.18,4.65,4.65,0,0,0-2.83-2,6.55,6.55,0,0,0-3.38.39,7.1,7.1,0,0,0-2.33,1.66,5.12,5.12,0,0,0-.86,1.7c-0.12.52-.14,15-0.14,15h-4V103.93Z"/><path class="cls-2" d="M55.33,98.19h4.08v6h5.5v3.44H59.37v12.77s0.32,2.06,2.09,2.2,2.8,0.25,3.16,0,0.28-.11.28-0.11V126a18.65,18.65,0,0,1-3.12.39A8.15,8.15,0,0,1,57.35,125a5.46,5.46,0,0,1-2-3.8c0-.71,0-13.62,0-13.62h-3.8V104h3.76Z"/><path class="cls-2" d="M91.67,104h3.94v3.45a13.37,13.37,0,0,1,2.63-2.82,6.17,6.17,0,0,1,3.06-.88,10.35,10.35,0,0,1,2,.29v4.09a7.06,7.06,0,0,0-2.24-.44,5.43,5.43,0,0,0-2.61.42c-0.72.39-2.43,1.55-2.53,3.11-0.06.9-.3,14.72-0.3,14.72H91.75Z"/><path class="cls-2" d="M132.37,104h3.94v3.45a13.37,13.37,0,0,1,2.63-2.82,6.17,6.17,0,0,1,3.06-.88,10.36,10.36,0,0,1,2,.29v4.09a7.06,7.06,0,0,0-2.24-.44,5.44,5.44,0,0,0-2.61.42c-0.72.39-2.43,1.55-2.53,3.11-0.06.9-.3,14.72-0.3,14.72h-3.92Z"/><path class="cls-2" d="M126.42,109.79a8.91,8.91,0,0,0-15.15-3.29v-2.28h-4.11v30h4.33V123.61A8.35,8.35,0,0,0,118,126.4c1.62,0,5.14-.44,7.64-4.77S127.46,113.43,126.42,109.79Zm-3.82,9.09c-0.58,1.73-2.14,3.37-5.53,3.84s-5.77-3.55-5.77-3.55v-8.53c2.53-3.7,4.95-3.58,7.36-3.12s4.09,3.19,4.44,5.06A15.61,15.61,0,0,1,122.6,118.88Z"/><path class="cls-2" d="M148,104.16h3.85v21.79h-4.15S148.36,104.16,148,104.16Z"/><circle class="cls-2" cx="149.75" cy="97.78" r="2.53"/><path class="cls-2" d="M172.14,105.43v3.85s-2.94-2.23-5.14-2.3-3.82.14-4.63,1a2.17,2.17,0,0,0-.37,2.91c0.68,1.25,3.79,1.89,5.27,2.43s3.52,1,4.73,2.4,1.22,3,1.28,4.43a5.72,5.72,0,0,1-1.55,3.75,8.66,8.66,0,0,1-4,2,19.18,19.18,0,0,1-5.51.24,28,28,0,0,1-3-1,9.47,9.47,0,0,1-1.55-.74v-3.92a10.38,10.38,0,0,0,6.16,2.5,11.76,11.76,0,0,0,3.81-.41,2.52,2.52,0,0,0,.95-4.29c-0.75-.65-4.33-1.66-5.61-2.13a9.11,9.11,0,0,1-3.68-2.06,6,6,0,0,1-1.62-3.62,6.85,6.85,0,0,1,2.1-4.9,7.85,7.85,0,0,1,5.41-2A13.08,13.08,0,0,1,172.14,105.43Z"/><path class="cls-2" d="M196.39,116.16a27.31,27.31,0,0,0-.3-5,12.36,12.36,0,0,0-3.09-5.58,8.72,8.72,0,0,0-6.05-2c-2.67.22-6.1,0.87-8.65,5.8s-0.55,11.36,1.25,13.2,2.84,3.29,7.2,3.86a12.62,12.62,0,0,0,7.95-1.87v-3.69a12.59,12.59,0,0,1-3.59,1.79c-1.4.25-5.14,0.42-7-1a8.27,8.27,0,0,1-3-5.49C181,115.92,196.39,116.16,196.39,116.16ZM186.93,107c4.23,0,5.2,3.27,5.48,5.78H181.49S182.46,107.05,186.93,107Z"/><path class="cls-2" d="M86.9,116.16a27.31,27.31,0,0,0-.3-5,12.36,12.36,0,0,0-3.09-5.58,8.72,8.72,0,0,0-6.05-2c-2.67.22-6.1,0.87-8.65,5.8s-0.55,11.36,1.25,13.2,2.84,3.29,7.2,3.86a12.62,12.62,0,0,0,7.95-1.87v-3.69a12.59,12.59,0,0,1-3.59,1.79c-1.4.25-5.14,0.42-7-1a8.27,8.27,0,0,1-3-5.49C71.54,115.92,86.9,116.16,86.9,116.16ZM77.44,107c4.23,0,5.2,3.27,5.48,5.78H72S73,107.05,77.44,107Z"/><path class="cls-2" d="M124.85,69A8.78,8.78,0,0,0,119,62.72c-3.57-1.13-7-1-10.44,1.75s-4,8.35-3.37,11.92a10.15,10.15,0,0,0,6.11,7.94,15.19,15.19,0,0,0,7.75.7,17.66,17.66,0,0,0,3.76-1.22,5.53,5.53,0,0,0,.89-0.61l0-5.12a19.29,19.29,0,0,1-2.82,1.5c-1.22.47-5.07,0.89-6.53,0a6,6,0,0,1-3-4.09h14A22,22,0,0,0,124.85,69Zm-13.53,1.93s0.85-3.95,4.18-3.85,3.52,2.44,3.85,3.85h-8Z"/></svg>