<svg id="Capa_1" data-name="Capa 1" xmlns="http://www.w3.org/2000/svg" viewBox="0 0 300.29 44"><defs><style>.cls-1{fill:#b3b3b3;}</style></defs><title>logo</title><path class="cls-1" d="M32.43,41.23h0Z"/><path class="cls-1" d="M43.23,3.15q-10.79-.05-21.59,0a22.91,22.91,0,0,0-3.8.32,19,19,0,0,0,3.67,37.74H34.18c3.77,0,7.56.16,11.3-.17A19,19,0,0,0,43.23,3.15Zm2,31.18a12.13,12.13,0,0,1-2.29.21q-10.52,0-21,0A12.36,12.36,0,0,1,19.23,10.1,13.37,13.37,0,0,1,22,9.83c3.51,0,7,0,10.52,0H42.87A12.36,12.36,0,0,1,45.24,34.34Z"/><path class="cls-1" d="M271.78,34.55a12.12,12.12,0,0,1-10.21-5.24,10.36,10.36,0,0,1-1.77-3.82H288c1,0,2.24.28,3.05-.15s1.16-1.59,1.71-2.43l2.61-4.07H259.72c0.32-.8.53-1.49,0.86-2.11a12,12,0,0,1,11.09-6.89c6.9-.07,13.81,0,20.72,0a1.28,1.28,0,0,0,.94-0.36c1.36-2,2.67-4.08,4.07-6.26-0.35,0-.55,0-0.76,0-8.45,0-16.89,0-25.34,0a19.61,19.61,0,0,0-4.18.43,19,19,0,0,0,3.42,37.6c7.54,0.11,15.09,0,22.63,0a1.23,1.23,0,0,0,.87-0.49c1.11-1.65,2.17-3.34,3.24-5L298,34.56h-1C288.57,34.56,280.17,34.58,271.78,34.55Z"/><path class="cls-1" d="M99.05,28.82a12.84,12.84,0,0,0-.91-25.67q-15.42,0-30.84,0c-0.26,0-.52,0-0.78,0v38h7.23V9.86c0.21,0,.31,0,0.42,0,8,0,16,0,24.06,0a6.15,6.15,0,0,1,5.61,8.07c-0.88,2.74-3.22,4.32-6.44,4.32l-19-.05H77.5a3.72,3.72,0,0,0,.27.33Q88.33,31.73,98.9,40.94a1.17,1.17,0,0,0,.7.27c3.29,0,6.58,0,9.87,0l0.08-.16L95.25,29l0.09-.2C96.57,28.83,97.82,28.87,99.05,28.82Z"/><path class="cls-1" d="M143.85,5.42a5.43,5.43,0,0,0-9.34,0Q123.24,23,112,40.64a6.52,6.52,0,0,0-.29.59c2.63,0,5.15,0,7.67,0a1.27,1.27,0,0,0,1.26-.71q9-14.29,18-28.57c0.16-.26.34-0.51,0.56-0.85l10.36,16.7H130c1.36,2.12,2.62,4,3.83,6a1.29,1.29,0,0,0,1.27.7c6,0,12.06,0,18.09,0a1.37,1.37,0,0,1,1.37.79c1,1.81,2.17,3.59,3.23,5.4a1,1,0,0,0,1,.56c1.46,0,2.92,0,4.38,0h3.49c-0.19-.32-0.3-0.53-0.42-0.72Q155.06,23,143.85,5.42Z"/><path class="cls-1" d="M182.47,34.55a12.36,12.36,0,0,1,.17-24.73q10.36,0,20.71,0a1.08,1.08,0,0,0,1.08-.58c0.53-.92,1.13-1.8,1.7-2.69l2.13-3.36c-0.36,0-.58,0-0.81,0q-12.55,0-25.1,0a20,20,0,0,0-3.33.23,19,19,0,0,0,2.49,37.81c7.51,0.09,15,0,22.55,0a1.23,1.23,0,0,0,.87-0.48c1.07-1.58,2.08-3.2,3.11-4.81,0.27-.41.52-0.84,0.84-1.35H207.8C199.36,34.56,190.91,34.58,182.47,34.55Z"/><path class="cls-1" d="M219.58,3.2h-7.21c0,0.22,0,.4,0,0.59q0,16.77,0,33.54a3.66,3.66,0,0,0,3.9,3.9q16.29,0,32.59,0a1.31,1.31,0,0,0,.93-0.51c1.23-1.83,2.4-3.69,3.59-5.55a6.1,6.1,0,0,0,.29-0.6h-34V3.2Z"/></svg>