<svg id="Capa_1" data-name="Capa 1" xmlns="http://www.w3.org/2000/svg" viewBox="0 0 340.19 73.97"><defs><style>.cls-1{fill:#999;}.cls-2{fill:#b3b3b3;}</style></defs><title>logo</title><path class="cls-1" d="M175.47,14.7c5.87,0.35,11.66-.63,17.33.87C198.27,17,202,20.36,203.24,26c1.27,5.94-.31,11.06-5.17,15-0.23.19-.48,0.37-0.71,0.56a1.45,1.45,0,0,0-.19.29L209,58.64c-3.27,0-6.26,0-9.25,0a1.25,1.25,0,0,1-.78-0.56q-7.27-10.34-14.5-20.7a2,2,0,0,1-.17-0.42c1.7-.24,3.36-0.37,5-0.74a8.1,8.1,0,0,0,5.31-3.36,6.15,6.15,0,0,0-3-9.06,20,20,0,0,0-8-.74V58.53h-8.06V14.7Z"/><path class="cls-1" d="M118,22.75V58.53H109.8V14.93a1.23,1.23,0,0,1,.42-0.14c4.86,0.08,9.73-.07,14.56.33,6.85,0.57,11.92,5.22,13,11.36,1.39,8.11-2.81,14.83-10.86,17.35-2.91.91-2.91,0.91-4.64-1.57l-3.53-5.08a0.7,0.7,0,0,1-.05-0.25c1.59-.23,3.21-0.36,4.76-0.72a12.08,12.08,0,0,0,3.33-1.33,6,6,0,0,0,3-6.47,5.44,5.44,0,0,0-4.66-4.87C122.82,23.09,120.46,23,118,22.75Z"/><path class="cls-1" d="M168.68,14.84V23H151V50.41h17.67v8.12H142.84V14.84h25.84Z"/><path class="cls-1" d="M42.38,58.66L63.62,13.09,84.86,58.63c-2.75,0-5.31,0-7.86-.05a2,2,0,0,1-.88-1.11q-5.91-12.6-11.79-25.21c-0.19-.41-0.41-0.81-0.74-1.45l-4.08,8.74c-2.79,6-5.6,12-8.37,18a1.59,1.59,0,0,1-1.72,1.13C47.17,58.61,44.9,58.66,42.38,58.66Z"/><path class="cls-1" d="M87.66,72.11c-1-2.27-2.09-4.47-3-6.7a1.46,1.46,0,0,1,.46-1.11c1.88-2,3.91-3.88,5.68-6a15,15,0,0,0,3.49-7.77,15.63,15.63,0,0,0-1.51-8.77,52.09,52.09,0,0,0-4-7.34C83.86,27.23,83.56,19.73,87,11.92A37.74,37.74,0,0,1,93.7,1.75l6,4.79c-1,1.3-2.1,2.53-3,3.84a19.42,19.42,0,0,0-3.83,10,16.59,16.59,0,0,0,3.35,11,33.26,33.26,0,0,1,5.63,11.92,22.58,22.58,0,0,1-3.09,17.3A42.89,42.89,0,0,1,88.21,71.82,4.21,4.21,0,0,1,87.66,72.11Z"/><path class="cls-1" d="M219,1.75l5.92,4.74c-1.34,1.83-2.77,3.49-3.89,5.35-4,6.69-4,13.3.61,19.76a30.47,30.47,0,0,1,5.8,13.61A21.76,21.76,0,0,1,226,56.46c-2.67,6.6-7.5,11.38-13.08,15.76l-3.29-7.13c1.91-2,3.84-3.82,5.6-5.81a16.71,16.71,0,0,0,4.15-8.16c0.69-3.83-.38-7.33-2-10.69a45.12,45.12,0,0,0-3.3-5.82c-5.49-8-5.23-16.14-1-24.47A37.3,37.3,0,0,1,219,1.75Z"/><path class="cls-1" d="M41.46,14.77c-0.37.59-.6,1-0.86,1.36-4.56,6.51-9.11,13-13.7,19.52a1.53,1.53,0,0,0,0,2.12c4.6,6.48,9.14,13,13.7,19.52,0.26,0.38.5,0.77,0.87,1.36-3.22,0-6.2,0-9.19,0a1.47,1.47,0,0,1-.85-0.68Q24.22,47.7,17.09,37.43a1.58,1.58,0,0,1,0-1.44Q24.2,25.71,31.42,15.5a1.56,1.56,0,0,1,1-.7C35.33,14.74,38.28,14.77,41.46,14.77Z"/><path class="cls-1" d="M243.68,36.65l11-15.71c1.28-1.83,2.55-3.67,3.86-5.48a1.45,1.45,0,0,1,.85-0.66c3,0,6,0,9.18,0-0.38.58-.62,1-0.89,1.35-4.56,6.51-9.1,13-13.69,19.52a1.55,1.55,0,0,0,0,2.13c4.62,6.52,9.19,13.08,13.77,19.63,0.24,0.34.45,0.69,0.8,1.24-3.2,0-6.19,0-9.18,0a1.25,1.25,0,0,1-.77-0.56q-7.37-10.49-14.71-21A3.37,3.37,0,0,1,243.68,36.65Z"/><path class="cls-1" d="M269.17,14.76c2.74,0,5.19,0,7.63,0a1.93,1.93,0,0,1,1.15,1c2.93,5,5.82,10,8.72,15,0.27,0.47.56,0.93,0.95,1.56L293,23.07c1.42-2.45,2.86-4.9,4.24-7.37a1.6,1.6,0,0,1,1.62-1c2.27,0.05,4.55,0,7.16,0L287.6,46.69Z"/><path class="cls-1" d="M243.15,14.76V58.65H235s0-30.39,0-43.88h8.17Z"/><path class="cls-1" d="M16.05,58.57H8V14.85h8V58.57Z"/><path class="cls-2" d="M330.42,26.72l1.18,0.23V31H308.08V26.71h9.49a7.14,7.14,0,0,1-1.16-7.1,7,7,0,0,1,3.12-3.81c3.3-2,8.26-1.31,10.72,1.39S332.8,23.54,330.42,26.72Zm-6.38,0A3.74,3.74,0,0,0,328,23,3.89,3.89,0,0,0,324,19.22a3.73,3.73,0,0,0-3.81,3.71A3.66,3.66,0,0,0,324,26.72Z"/><path class="cls-2" d="M331.62,34.29v4.36l-0.89.19c2.86,5.92.86,11-5.06,11.93-3.49.55-6.9-.72-8.57-3.4s-1.53-5.56.58-8.48l-1.15-.21V34.29h15.1Zm-11.4,8.33a3.71,3.71,0,0,0,3.88,3.77,3.81,3.81,0,1,0-.07-7.61A3.75,3.75,0,0,0,320.22,42.62Z"/><path class="cls-2" d="M331.59,54.36v4.26H308.07V54.36h23.52Z"/><path class="cls-2" d="M162.94,30.92V42.51l-11.6-5.78Z"/><path class="cls-2" d="M69.37,44.14L63.62,55.65,57.87,44.14H69.37Z"/><path class="cls-2" d="M281.83,58.63l5.76-11.53,5.77,11.53H281.83Z"/></svg>