<?xml version="1.0" encoding="utf-8"?>
<!-- Generator: Adobe Illustrator 19.2.1, SVG Export Plug-In . SVG Version: 6.00 Build 0)  -->
<svg version="1.1" id="Capa_1" xmlns="http://www.w3.org/2000/svg" xmlns:xlink="http://www.w3.org/1999/xlink" x="0px" y="0px"
	 viewBox="0 0 447 257" style="enable-background:new 0 0 447 257;" xml:space="preserve">
<style type="text/css">
	.st0{fill:#F7C639;}
	.st1{fill:#575756;}
	.st2{font-family:'Exo-Light';}
	.st3{font-size:33.7356px;}
	.st4{letter-spacing:2;}
	.st5{letter-spacing:3;}
</style>
<rect x="46.5" y="77.4" class="st0" width="6.6" height="127"/>
<rect x="86" y="77.4" class="st0" width="6.6" height="127"/>
<polygon class="st0" points="183.2,13 14,13 14,21.7 180.4,21.7 "/>
<polygon class="st0" points="167.2,63.2 169.9,54.5 14,54.5 14,63.2 "/>
<polygon class="st0" points="174.6,40.1 175,38.6 14,38.6 14,40.1 "/>
<polygon class="st1" points="240.7,14.4 173.7,203.8 182.6,203.8 249.7,14.4 "/>
<polygon class="st1" points="225.4,14.4 158.4,203.8 159.9,203.8 226.9,14.4 "/>
<polygon class="st1" points="203.3,14.4 139.1,203.8 148,203.8 212.2,14.4 "/>
<polygon class="st1" points="257.2,26.8 252.3,40.9 303.3,203.8 312.1,203.8 "/>
<polygon class="st1" points="228.9,108.3 263.4,203.8 272.2,203.8 233.5,95.1 "/>
<polygon class="st1" points="243.1,67.5 288.5,203.8 289.9,203.8 243.9,65.2 "/>
<polygon class="st0" points="335.1,14.4 294.2,85.7 297.5,96.7 345,14.4 "/>
<polygon class="st0" points="374.8,14.4 308.1,131.4 311.4,142.5 384.6,14.4 "/>
<polygon class="st0" points="358.9,14.4 302.1,111.7 302.6,113.5 360.5,14.4 "/>
<polygon class="st0" points="341.3,113.3 336.8,120.9 418.3,203.6 430.5,203.6 "/>
<polygon class="st0" points="317.6,153.8 366.4,203.6 378.7,203.6 322,146.2 "/>
<polygon class="st0" points="328.6,134.9 397.8,203.6 399.9,203.6 329.4,133.6 "/>
<polygon class="st0" points="67.7,204.2 69.1,204.6 69.1,77.4 67.7,77.4 "/>
<text transform="matrix(1 0 0 1.0319 19.5781 246.8936)"><tspan x="0" y="0" class="st1 st2 st3 st4">T</tspan><tspan x="22.5" y="0" class="st1 st2 st3 st5">EC</tspan><tspan x="67.9" y="0" class="st1 st2 st3 st5">H</tspan><tspan x="93" y="0" class="st1 st2 st3 st5"> AN</tspan><tspan x="157.1" y="0" class="st1 st2 st3 st5">D</tspan><tspan x="182.8" y="0" class="st1 st2 st3 st5"> KN</tspan><tspan x="244.3" y="0" class="st1 st2 st3 st4">O</tspan><tspan x="269.3" y="0" class="st1 st2 st3 st5">WLE</tspan><tspan x="350.1" y="0" class="st1 st2 st3 st4">D</tspan><tspan x="375" y="0" class="st1 st2 st3 st5">G</tspan><tspan x="399.2" y="0" class="st1 st2 st3">E</tspan></text>
</svg>
