<svg width="1670" height="956.2000122070312" xmlns="http://www.w3.org/2000/svg" class="portafolio-horizontal">
 <style type="text/css">.portafolio-horizontal .st0{fill:#FFFFFF;}
                            .portafolio-horizontal .st1{opacity:0.2;fill:#FFFFFF;}
                            .portafolio-horizontal .st2{opacity:0.2;}
                            .portafolio-horizontal .st3{opacity:0.3;fill:#FFFFFF;}
                            .portafolio-horizontal .st4{fill:#F7C639; stroke:none;}
                            .portafolio-horizontal .st5{opacity:0;fill:#FFFFFF;}
                            .portafolio-horizontal .st6{fill:none;}</style>

 <g>
  <title>background</title>
  <rect fill="none" id="canvas_background" height="402" width="582" y="-1" x="-1"/>
 </g>
 <g>
  <title>Layer 1</title>
  <g id="svg_1">
   <polygon points="842.4,493.5 809.7,577.8 814.1,577.8 846.8,493.5   " id="XMLID_3906_" class="st0"/>
   <polygon points="837,493.5 804.3,577.8 805.1,577.8 837.7,493.5     " id="XMLID_3902_" class="st0"/>
   <polygon points="827.6,493.5 796.3,577.8 800.7,577.8 831.9,493.5   " id="XMLID_3900_" class="st0"/>
   <g id="XMLID_3887_">
    <polygon points="861.8,577.8 866.1,577.8 841.7,514.8 839.5,520.3       " id="XMLID_3894_" class="st0"/>
    <polygon points="870.8,577.8 871.5,577.8 844.5,507.9 844.1,508.8       " id="XMLID_3892_" class="st0"/>
    <polygon points="879.5,577.8 849.2,496.1 847,501.7 875.2,577.8         " id="XMLID_3889_" class="st0"/>
   </g>
  </g>
  <g id="svg_2">
   <rect y="512.2" x="752.2" width="3.1" transform="matrix(-1,-1.224647e-16,1.224647e-16,-1,1507.6436,1089.978) " id="XMLID_3884_" height="65.5" class="st0"/>
   <rect y="512.2" x="746.7" width="1" transform="matrix(-1,-1.224647e-16,1.224647e-16,-1,1494.2736,1089.978) " id="XMLID_3863_" height="65.5" class="st0"/>
   <rect y="512.2" x="738.9" width="3.1" transform="matrix(-1,-1.224647e-16,1.224647e-16,-1,1480.9532,1089.978) " id="XMLID_3860_" height="65.5" class="st0"/>
   <rect y="465.6" x="745.6" width="3.2" transform="matrix(6.123234e-17,-1,1,6.123234e-17,239.459,1254.8655) " id="XMLID_3856_" height="84.1" class="st0"/>
   <rect y="458.9" x="746.7" width="1" transform="matrix(6.123234e-17,-1,1,6.123234e-17,246.2178,1248.1067) " id="XMLID_3853_" height="84.1" class="st0"/>
   <rect y="452.1" x="745.6" width="3.1" transform="matrix(6.123234e-17,-1,1,6.123234e-17,252.9516,1241.3729) " id="XMLID_3849_" height="84.1" class="st0"/>
  </g>
  <g id="svg_3">
   <rect y="351.8" x="947.6" width="3.2" transform="matrix(-1.83697e-16,1,-1,-1.83697e-16,1323.0615,-575.3021) " id="XMLID_3799_" height="44.2" class="st0"/>
   <rect y="357.2" x="948.7" width="1" transform="matrix(-1.83697e-16,1,-1,-1.83697e-16,1328.4325,-569.9312) " id="XMLID_3795_" height="44.2" class="st0"/>
   <rect y="362.5" x="947.6" width="3.1" transform="matrix(-1.83697e-16,1,-1,-1.83697e-16,1333.7791,-564.5847) " id="XMLID_3792_" height="44.2" class="st0"/>
   <rect y="396" x="939.2" width="3.2" transform="matrix(-1.83697e-16,1,-1,-1.83697e-16,1350.4882,-531.0449) " id="XMLID_3778_" height="27.4" class="st0"/>
   <rect y="401.4" x="940.3" width="1" transform="matrix(-1.83697e-16,1,-1,-1.83697e-16,1355.8594,-525.6736) " id="XMLID_3775_" height="27.4" class="st0"/>
   <rect y="406.8" x="939.2" width="3.1" transform="matrix(-1.83697e-16,1,-1,-1.83697e-16,1361.2065,-520.3277) " id="XMLID_3658_" height="27.4" class="st0"/>
   <g id="XMLID_3352_">
    <g id="svg_4">
     <polygon points="909.5,386.7 909.5,441.7 913.6,446.2 913.6,382.7             " id="XMLID_28_" class="st0"/>
     <polygon points="916.3,380 916.3,449.3 917,450 917,379.3             " id="XMLID_27_" class="st0"/>
     <polygon points="920.4,375.9 920.4,453.8 923.9,457.6 923.9,372.6             " id="XMLID_26_" class="st0"/>
    </g>
   </g>
  </g>
  <g id="svg_5">
   <rect y="493.2" x="1132.5" width="4.1" id="XMLID_2942_" height="84" class="st0"/>
   <rect y="493.2" x="1141.4" width="0.7" id="XMLID_2941_" height="84" class="st0"/>
   <rect y="493.2" x="1146.9" width="3.4" id="XMLID_2940_" height="84" class="st0"/>
  </g>
  <g id="svg_6">
   <g id="XMLID_2142_">
    <rect y="493.8" x="1060.5" width="3.1" id="XMLID_2934_" height="69.4" class="st0"/>
    <rect y="493.8" x="1056.3" width="0.9" id="XMLID_2888_" height="69.4" class="st0"/>
    <rect y="493.8" x="1050.1" width="3" id="XMLID_2146_" height="69.4" class="st0"/>
   </g>
   <g id="XMLID_2010_">
    <polygon points="1104.7,577.5 1104.7,574.4 1059,574.4 1061.7,577.5         " id="XMLID_2081_" class="st0"/>
    <polygon points="1104.7,571.2 1104.7,570.2 1055.2,570.2 1056.1,571.2       " id="XMLID_2016_" class="st0"/>
    <polygon points="1104.7,563.9 1050.2,563.9 1050.2,564.6 1052.4,567 1104.7,567      " id="XMLID_2013_" class="st0"/>
   </g>
  </g>
  <g id="svg_7">
   <g id="XMLID_1871_">
    <polygon points="908.4,598.7 971.4,598.7 971.4,595.5 911.3,595.5 908.4,598.2       " id="XMLID_1882_" class="st0"/>
    <polygon points="971.4,590.8 971.4,589.9 917.6,589.9 916.6,590.8       " id="XMLID_1877_" class="st0"/>
    <polygon points="971.4,582 926.4,582 922.9,585.2 971.4,585.2       " id="XMLID_1872_" class="st0"/>
   </g>
   <g id="XMLID_1864_">
    <polygon points="924.9,665.2 924.9,601.5 921.8,601.5 921.8,662.2 924.4,665.2       " id="XMLID_1869_" class="st0"/>
    <polygon points="917.1,601.5 916.2,601.5 916.2,655.8 917.1,656.9       " id="XMLID_1867_" class="st0"/>
    <polygon points="908.4,601.5 908.4,647 911.5,650.5 911.5,601.5         " id="XMLID_1865_" class="st0"/>
   </g>
   <g id="XMLID_1857_">
    <polygon points="990,648.5 927,648.5 927,651.7 987,651.7 990,649       " id="XMLID_1862_" class="st0"/>
    <polygon points="927,656.3 927,657.3 980.7,657.3 981.8,656.3       " id="XMLID_1860_" class="st0"/>
    <polygon points="927,665.1 972,665.1 975.5,662 927,662         " id="XMLID_1858_" class="st0"/>
   </g>
   <g id="XMLID_1850_">
    <polygon points="973.5,582 973.5,645.7 976.6,645.7 976.6,585 974,582       " id="XMLID_1855_" class="st0"/>
    <polygon points="981.2,645.7 982.2,645.7 982.2,591.3 981.2,590.3       " id="XMLID_1853_" class="st0"/>
    <polygon points="989.9,645.7 989.9,600.2 986.8,596.6 986.8,645.7       " id="XMLID_1851_" class="st0"/>
   </g>
  </g>
  <g id="svg_8">
   <g id="XMLID_1843_">
    <polygon points="1171.5,391.9 1234.6,391.9 1234.6,388.8 1174.5,388.8 1171.5,391.4      " id="XMLID_1848_" class="st0"/>
    <polygon points="1234.6,384.1 1234.6,383.1 1180.8,383.1 1179.7,384.1       " id="XMLID_1846_" class="st0"/>
    <polygon points="1234.6,375.3 1189.6,375.3 1186.1,378.4 1234.6,378.4       " id="XMLID_1844_" class="st0"/>
   </g>
   <g id="XMLID_1836_">
    <polygon points="1188.1,458.5 1188.1,394.8 1184.9,394.8 1184.9,455.5 1187.6,458.5      " id="XMLID_1841_" class="st0"/>
    <polygon points="1180.3,394.8 1179.3,394.8 1179.3,449.1 1180.3,450.2       " id="XMLID_1839_" class="st0"/>
    <polygon points="1171.6,394.8 1171.6,440.2 1174.7,443.8 1174.7,394.8       " id="XMLID_1837_" class="st0"/>
   </g>
   <g id="XMLID_1826_">
    <polygon points="1253.2,441.7 1190.2,441.7 1190.2,444.9 1250.2,444.9 1253.2,442.3      " id="XMLID_1833_" class="st0"/>
    <polygon points="1190.2,449.6 1190.2,450.6 1243.9,450.6 1245,449.6         " id="XMLID_1831_" class="st0"/>
    <polygon points="1190.2,458.4 1235.2,458.4 1238.7,455.3 1190.2,455.3       " id="XMLID_1828_" class="st0"/>
   </g>
   <g id="XMLID_1817_">
    <polygon points="1236.6,375.2 1236.6,438.9 1239.8,438.9 1239.8,378.2 1237.2,375.2      " id="XMLID_1822_" class="st0"/>
    <polygon points="1244.4,438.9 1245.4,438.9 1245.4,384.6 1244.4,383.5       " id="XMLID_1820_" class="st0"/>
    <polygon points="1253.1,438.9 1253.1,393.4 1250,389.9 1250,438.9       " id="XMLID_1818_" class="st0"/>
   </g>
  </g>
  <g id="svg_9">
   <g id="XMLID_1803_">
    <rect y="364.3" x="453.8" width="3.1" id="XMLID_1814_" height="84.6" class="st0"/>
    <rect y="364.3" x="449.7" width="0.9" id="XMLID_1810_" height="84.6" class="st0"/>
    <rect y="364.3" x="443.5" width="3" id="XMLID_1805_" height="84.6" class="st0"/>
   </g>
   <rect y="349.4" x="474.8" width="3.2" transform="matrix(-1.83697e-16,1,-1,-1.83697e-16,842.9496,-109.8903) " id="XMLID_1799_" height="34.2" class="st0"/>
   <rect y="354.8" x="475.9" width="1" transform="matrix(-1.83697e-16,1,-1,-1.83697e-16,848.3209,-104.519) " id="XMLID_1795_" height="34.2" class="st0"/>
   <rect y="360.1" x="474.9" width="3.1" transform="matrix(-1.83697e-16,1,-1,-1.83697e-16,853.6672,-99.1728) " id="XMLID_1791_" height="34.2" class="st0"/>
   <g id="XMLID_1768_">
    <polygon points="459.3,399.4 459.3,402.6 504.9,402.6 507.9,399.4       " id="XMLID_1787_" class="st0"/>
    <polygon points="459.3,406.8 500.9,406.8 501.8,405.9 459.3,405.9       " id="XMLID_1783_" class="st0"/>
    <polygon points="459.3,413.3 494.9,413.3 497.8,410.1 459.3,410.1       " id="XMLID_1770_" class="st0"/>
   </g>
   <g id="XMLID_1755_">
    <polygon points="507.2,375.5 507.2,398 510.4,398 510.4,378.6       " id="XMLID_1765_" class="st0"/>
    <polygon points="503,398 503.9,398 503.9,372.4 503,371.5       " id="XMLID_1761_" class="st0"/>
    <polygon points="496.6,398 499.7,398 499.7,368.3 496.6,365.3       " id="XMLID_1757_" class="st0"/>
   </g>
  </g>
  <g id="svg_10">
   <g id="XMLID_1739_">
    <rect y="367.3" x="650.3" width="3.1" id="XMLID_1751_" height="86.6" class="st0"/>
    <rect y="367.3" x="646.2" width="0.9" id="XMLID_1747_" height="86.6" class="st0"/>
    <rect y="367.3" x="640" width="3" id="XMLID_1740_" height="86.6" class="st0"/>
   </g>
   <g id="XMLID_1734_">
    <polygon points="685.9,451.7 689.4,451.7 664.9,421.1 661.4,421.1       " id="XMLID_1737_" class="st0"/>
    <polygon points="696.2,451.7 697.3,451.7 672.7,421.1 671.6,421.1       " id="XMLID_1736_" class="st0"/>
    <polygon points="708.4,451.7 683.7,421.1 680.3,421.1 705,451.7         " id="XMLID_1735_" class="st0"/>
   </g>
   <rect y="353" x="672" width="3.2" transform="matrix(-1.83697e-16,1,-1,-1.83697e-16,1043.708,-303.4995) " id="XMLID_1658_" height="34.2" class="st0"/>
   <rect y="358.4" x="673.1" width="1" transform="matrix(-1.83697e-16,1,-1,-1.83697e-16,1049.0792,-298.1281) " id="XMLID_1656_" height="34.2" class="st0"/>
   <rect y="363.7" x="672" width="3.1" transform="matrix(-1.83697e-16,1,-1,-1.83697e-16,1054.4254,-292.782) " id="XMLID_1654_" height="34.2" class="st0"/>
   <g id="XMLID_1638_">
    <polygon points="656.5,403 656.5,406.2 702.1,406.2 705.1,403       " id="XMLID_1651_" class="st0"/>
    <polygon points="656.5,410.4 698.1,410.4 699,409.5 656.5,409.5         " id="XMLID_1649_" class="st0"/>
    <polygon points="656.5,416.8 692.1,416.8 695,413.7 656.5,413.7         " id="XMLID_1645_" class="st0"/>
   </g>
   <g id="XMLID_1613_">
    <polygon points="704.4,379.1 704.4,401.6 707.5,401.6 707.5,382.2       " id="XMLID_1634_" class="st0"/>
    <polygon points="700.2,401.6 701.1,401.6 701.1,375.9 700.2,375         " id="XMLID_1630_" class="st0"/>
    <polygon points="693.8,401.6 696.9,401.6 696.9,371.9 693.8,368.9       " id="XMLID_1614_" class="st0"/>
   </g>
  </g>
  <g id="svg_11">
   <polygon points="453.1,454.2 456.1,454.2 455.2,645.7 452.2,645.7   " id="XMLID_1611_" class="st1"/>
   <polygon points="449.2,454.2 450.1,454.2 449.2,645.7 448.3,645.7   " id="XMLID_1609_" class="st1"/>
   <polygon points="443.2,454.2 446.1,454.2 445.2,645.7 442.3,645.7   " id="XMLID_1607_" class="st1"/>
  </g>
  <g id="svg_12">
   <g id="svg_13">
    <g id="XMLID_24_" class="st2">
     <polygon id="svg_14" points="384.2,759.1 387.2,759.1 386.3,950.6 383.3,950.6            " class="st0"/>
    </g>
    <g id="XMLID_23_" class="st2">
     <polygon id="svg_15" points="380.3,759.1 381.2,759.1 380.3,950.6 379.4,950.6            " class="st0"/>
    </g>
    <g id="XMLID_22_" class="st2">
     <polygon id="svg_16" points="374.3,759.1 377.2,759.1 376.3,950.6 373.4,950.6            " class="st0"/>
    </g>
   </g>
  </g>
  <polygon points="1061.2,460.9 1064.2,460.9 1063.3,490.1 1060.3,490.1 " id="XMLID_1531_" class="st3"/>
  <polygon points="1057.2,460.9 1058.1,460.9 1057.2,490.1 1056.4,490.1 " id="XMLID_1529_" class="st3"/>
  <polygon points="1051.3,460.9 1054.2,460.9 1053.3,490.1 1050.4,490.1 " id="XMLID_1525_" class="st3"/>
  <polygon points="1145.8,460.9 1148.8,460.9 1147.9,490.1 1144.9,490.1 " id="XMLID_1523_" class="st3"/>
  <polygon points="1141.8,460.9 1142.7,460.9 1141.9,490.1 1141,490.1 " id="XMLID_1521_" class="st3"/>
  <polygon points="1135.9,460.9 1138.8,460.9 1137.9,490.1 1135,490.1 " id="XMLID_1518_" class="st3"/>
  <g id="svg_17">
   <polygon points="1357.5,164.9 1360.4,164.9 1359.5,418.2 1356.6,418.2   " id="XMLID_1514_" class="st3"/>
   <polygon points="1353.5,164.9 1354.4,164.9 1353.5,418.2 1352.6,418.2   " id="XMLID_1497_" class="st3"/>
   <polygon points="1347.5,164.9 1350.4,164.9 1349.6,418.2 1346.6,418.2   " id="XMLID_1493_" class="st3"/>
  </g>
  <g id="svg_18">
   <polygon id="svg_19" points="1016.2,-0.5 1015.6,173.5 1018.6,173.5 1019.2,-0.5  " class="st3"/>
   <polygon id="svg_20" points="1012.3,-0.5 1011.7,173.5 1012.6,173.5 1013.2,-0.5  " class="st3"/>
   <polygon id="svg_21" points="1006.3,-0.5 1005.7,173.5 1008.6,173.5 1009.2,-0.5  " class="st3"/>
  </g>
  <g id="svg_22">
   <polygon points="1565.8,660.5 1568.8,660.5 1567.9,896.7 1564.9,896.7   " id="XMLID_1411_" class="st3"/>
   <polygon points="1561.8,660.5 1562.7,660.5 1561.8,896.7 1561,896.7     " id="XMLID_1403_" class="st3"/>
   <polygon points="1555.9,660.5 1558.8,660.5 1557.9,896.7 1555,896.7     " id="XMLID_1396_" class="st3"/>
  </g>
  <polygon points="453.1,72.7 456.1,72.7 455.2,359.6 452.2,359.6 " id="XMLID_1391_" class="st3"/>
  <polygon points="449.2,72.7 450.1,72.7 449.2,359.6 448.3,359.6 " id="XMLID_1388_" class="st3"/>
  <polygon points="443.2,72.7 446.1,72.7 445.2,359.6 442.3,359.6 " id="XMLID_1386_" class="st3"/>
  <polygon points="751.5,583.6 754.5,583.6 753.6,866.4 750.7,866.4 " id="XMLID_1363_" class="st3"/>
  <polygon points="747.6,583.6 748.5,583.6 747.6,866.4 746.7,866.4 " id="XMLID_1351_" class="st3"/>
  <polygon points="741.6,583.6 744.5,583.6 743.6,866.4 740.7,866.4 " id="XMLID_1346_" class="st3"/>
  <polygon points="920.9,96.1 923.9,96.1 923,294.6 920.1,294.6 " id="XMLID_1341_" class="st3"/>
  <polygon points="917,96.1 917.9,96.1 917,294.6 916.1,294.6 " id="XMLID_1332_" class="st3"/>
  <polygon points="911,96.1 913.9,96.1 913,294.6 910.1,294.6 " id="XMLID_1310_" class="st3"/>
  <polygon points="438.9,220.1 438.9,223.1 156.5,222.2 156.5,219.2 " id="XMLID_1257_" class="st3"/>
  <polygon points="438.9,216.1 438.9,217 156.5,216.1 156.5,215.2 " id="XMLID_1246_" class="st3"/>
  <polygon points="438.9,210 438.9,213 156.5,212.1 156.5,209.1 " id="XMLID_1242_" class="st3"/>
  <polygon points="637.4,220.1 637.4,223.1 459.7,222.2 459.7,219.2 " id="XMLID_1213_" class="st3"/>
  <polygon points="637.4,216.1 637.4,217 459.7,216.1 459.7,215.2 " id="XMLID_1184_" class="st3"/>
  <polygon points="637.4,210 637.4,213 459.7,212.1 459.7,209.1 " id="XMLID_1054_" class="st3"/>
  <polygon points="701.5,504.4 701.5,507.4 550.8,506.5 550.8,503.5 " id="XMLID_1048_" class="st3"/>
  <polygon points="701.5,500.4 701.5,501.3 550.8,500.4 550.8,499.5 " id="XMLID_1044_" class="st3"/>
  <polygon points="701.5,494.4 701.5,497.3 550.8,496.4 550.8,493.5 " id="XMLID_972_" class="st3"/>
  <polygon points="597.5,354.1 597.5,357.1 462.7,356.2 462.7,353.2 " id="XMLID_968_" class="st3"/>
  <polygon points="597.5,350.1 597.5,351 462.7,350.1 462.7,349.2 " id="XMLID_941_" class="st3"/>
  <polygon points="597.5,344.1 597.5,347 462.7,346.1 462.7,343.2 " id="XMLID_930_" class="st3"/>
  <polygon points="436.9,311.9 436.9,314.9 317.2,314 317.2,311 " id="XMLID_912_" class="st3"/>
  <polygon points="436.9,307.9 436.9,308.8 317.2,307.9 317.2,307 " id="XMLID_899_" class="st3"/>
  <polygon points="436.9,301.9 436.9,304.8 317.2,303.9 317.2,301 " id="XMLID_892_" class="st3"/>
  <polygon points="1104.7,310.8 1104.7,313.8 809.7,312.9 809.7,309.9 " id="XMLID_883_" class="st3"/>
  <polygon points="1104.7,306.8 1104.7,307.7 809.7,306.8 809.7,305.9 " id="XMLID_873_" class="st3"/>
  <polygon points="1104.7,300.7 1104.7,303.7 809.7,302.8 809.7,299.8 " id="XMLID_855_" class="st3"/>
  <polygon points="1391.2,695.7 1391.2,698.7 1258.6,697.8 1258.6,694.8 " id="XMLID_811_" class="st3"/>
  <polygon points="1391.2,691.7 1391.2,692.6 1258.6,691.7 1258.6,690.8 " id="XMLID_803_" class="st3"/>
  <polygon points="1391.2,685.6 1391.2,688.6 1258.6,687.7 1258.6,684.7 " id="XMLID_799_" class="st3"/>
  <polygon id="svg_23" points="1670,654 1456.4,653.2 1456.4,656.1 1670,657 " class="st3"/>
  <polygon id="svg_24" points="1670,650 1456.4,649.1 1456.4,650.1 1670,650.9 " class="st3"/>
  <polygon id="svg_25" points="1670,644 1456.4,643.1 1456.4,646.1 1670,646.9 " class="st3"/>
  <polygon points="1050.1,383.3 1050.1,386.3 975,385.4 975,382.4 " id="XMLID_694_" class="st3"/>
  <polygon points="1050.1,379.3 1050.1,380.2 975,379.3 975,378.4 " id="XMLID_678_" class="st3"/>
  <polygon points="1050.1,373.2 1050.1,376.2 975,375.3 975,372.3 " id="XMLID_674_" class="st3"/>
  <polygon points="1166.7,453 1166.7,456 1050.1,455.1 1050.1,452.1 " id="XMLID_663_" class="st3"/>
  <polygon points="1166.7,449 1166.7,449.9 1050.1,449 1050.1,448.1 " id="XMLID_658_" class="st3"/>
  <polygon points="1166.7,443 1166.7,445.9 1050.1,445 1050.1,442.1 " id="XMLID_656_" class="st3"/>
  <g id="svg_26">
   <polygon id="svg_27" points="806.4,581.6 758.8,709.2 758.8,717 809.3,581.6  " class="st1"/>
   <polygon id="svg_28" points="758.8,698.9 758.8,701.2 803.4,581.6 802.5,581.6    " class="st1"/>
   <polygon id="svg_29" points="758.8,683.2 758.8,690.9 799.5,581.6 796.6,581.6    " class="st1"/>
  </g>
  <g id="svg_30">
   <g id="XMLID_419_">
    <polygon points="532.2,383.4 595.2,383.4 595.2,380.2 535.2,380.2 532.2,382.9        " id="XMLID_632_" class="st0"/>
    <polygon points="595.2,375.5 595.2,374.6 541.5,374.6 540.4,375.5        " id="XMLID_446_" class="st0"/>
    <polygon points="595.2,366.7 550.2,366.7 546.7,369.9 595.2,369.9        " id="XMLID_422_" class="st0"/>
   </g>
   <g id="XMLID_230_">
    <polygon points="548.7,449.9 548.7,386.2 545.6,386.2 545.6,446.9 548.2,449.9        " id="XMLID_415_" class="st0"/>
    <polygon points="540.9,386.2 540,386.2 540,440.5 540.9,441.6        " id="XMLID_241_" class="st0"/>
    <polygon points="532.3,386.2 532.3,431.7 535.4,435.2 535.4,386.2        " id="XMLID_232_" class="st0"/>
   </g>
   <g id="XMLID_166_">
    <polygon points="613.8,433.2 550.8,433.2 550.8,436.4 610.9,436.4 613.8,433.7        " id="XMLID_219_" class="st0"/>
    <polygon points="550.8,441.1 550.8,442 604.6,442 605.6,441.1        " id="XMLID_204_" class="st0"/>
    <polygon points="550.8,449.8 595.8,449.8 599.3,446.7 550.8,446.7        " id="XMLID_172_" class="st0"/>
   </g>
   <g id="XMLID_95_">
    <polygon points="597.3,366.7 597.3,430.4 600.4,430.4 600.4,369.7 597.8,366.7        " id="XMLID_162_" class="st0"/>
    <polygon points="605.1,430.4 606,430.4 606,376.1 605.1,375      " id="XMLID_149_" class="st0"/>
    <polygon points="613.8,430.4 613.8,384.9 610.7,381.4 610.7,430.4         " id="XMLID_98_" class="st0"/>
   </g>
  </g>
  <a id="button-oracle">
   <g id="svg_31" class="button-oracle">
    <g id="svg_32">
     <g id="svg_33">
      <g id="svg_34">
       <rect id="svg_35" y="208.6" x="960.2" width="59.1" transform="matrix(0.9999,-0.01173536,0.01173536,0.9999,-2.414,11.6297) " height="5.8" class="st4"/>
      </g>
      <g id="svg_36">
       <rect id="svg_37" y="218.6" x="1002.1" width="17.3" transform="matrix(0.9999,-0.01169136,0.01169136,0.9999,-2.5203,11.8326) " height="5.8" class="st4"/>
      </g>
     </g>
    </g>
    <rect id="svg_38" y="191" x="960.2" width="270.6" height="55.4" class="st5"/>
    <g id="svg_39">
     <path id="svg_40" d="m1038.8,226.2c-0.2,-1 -0.4,-2.1 -0.5,-3.3c-0.1,-1.3 -0.2,-2.8 -0.2,-4.5c0,-1.8 0.1,-3.4 0.3,-5c0.2,-1.6 0.5,-2.9 0.8,-4c0.3,-1.1 0.8,-2 1.4,-2.8c0.6,-0.8 1.2,-1.4 1.8,-1.8c0.6,-0.4 1.3,-0.8 2.2,-1c1.4,-0.4 2.8,-0.6 4.4,-0.6c1.5,0 2.7,0 3.4,0.1s1.5,0.2 2.2,0.4c0.8,0.2 1.5,0.4 2,0.8c0.6,0.3 1.1,0.8 1.7,1.3c0.6,0.5 1,1.2 1.4,2c0.4,0.8 0.7,1.7 1,2.7c0.6,2.1 0.9,4.5 0.9,7.2c0,2.8 -0.1,4.9 -0.3,6.4c-0.2,1.5 -0.5,2.8 -0.8,3.8c-0.3,1.1 -0.8,2 -1.3,2.8c-0.5,0.8 -1.1,1.4 -1.7,1.8s-1.3,0.8 -2.2,1.1c-2,0.6 -4.6,0.8 -7.8,0.6c-1.7,-0.1 -2.9,-0.3 -3.6,-0.6c-0.7,-0.3 -1.4,-0.7 -1.9,-1.1c-0.5,-0.4 -1,-0.8 -1.4,-1.4c-0.4,-0.5 -0.7,-1.2 -1.1,-2c-0.2,-1 -0.5,-1.9 -0.7,-2.9zm5.5,-13.8c-0.1,0.7 -0.2,1.6 -0.3,2.6c-0.1,1 -0.1,2.3 -0.1,3.9s0.1,2.9 0.2,4s0.3,2 0.5,2.8c0.3,0.8 0.6,1.4 1.1,1.8c0.9,0.7 2.3,1 4.3,1c1.9,0 3.3,-0.4 4.2,-1.1c1.3,-1 2,-3.9 2,-8.8c0,-3.3 -0.2,-5.4 -0.5,-6.5c-0.3,-1.1 -0.6,-1.8 -0.9,-2.3c-0.3,-0.4 -0.7,-0.8 -1.2,-1c-0.8,-0.4 -1.8,-0.5 -2.9,-0.5c-1.1,0 -1.9,0 -2.3,0.1c-0.4,0 -0.9,0.1 -1.4,0.3c-0.5,0.1 -0.9,0.4 -1.2,0.6c-0.3,0.3 -0.6,0.7 -0.8,1.2c-0.4,0.6 -0.6,1.2 -0.7,1.9z" class="st0"/>
     <path id="svg_41" d="m1081.9,203.2c2.6,0 4.5,0.7 5.7,2c1.5,1.6 2.3,4.1 2.3,7.5c0,3.9 -0.8,6.5 -2.4,7.8c-0.5,0.4 -0.9,0.7 -1.2,0.8c-0.3,0.1 -0.7,0.2 -1.2,0.4l5.6,12l-6.3,0l-4.8,-11.6l-4.9,-0.6l0,12.1l-5.6,0l0,-30.5l12.8,0l0,0.1zm-7.2,13.8l6.6,0c1,0 1.8,-0.3 2.2,-0.8s0.7,-1.7 0.7,-3.4c0,-1.7 -0.2,-2.9 -0.7,-3.5c-0.5,-0.6 -1.2,-0.9 -2.2,-0.9l-6.6,0l0,8.6z" class="st0"/>
     <path id="svg_42" d="m1096.6,233.8l9.9,-30.5l6.4,0l9.5,30.5l-6,0l-2.1,-6.8l-9.6,0l-2.1,6.8l-6,0zm9.6,-12l6.8,0l-3.3,-10.9l-3.5,10.9z" class="st0"/>
     <path id="svg_43" d="m1129.4,207c1.1,-1.8 2.5,-3 4.4,-3.6c1,-0.3 2.2,-0.5 3.5,-0.5c3.8,0 7.2,0.5 10.2,1.4l0,4.6c-0.4,-0.1 -0.8,-0.1 -1.1,-0.1c-0.3,0 -0.7,-0.1 -1.2,-0.1s-1,-0.1 -1.5,-0.1c-0.5,0 -1.1,-0.1 -1.6,-0.1c-1.3,-0.1 -2.4,-0.1 -3.4,-0.1s-1.8,0.1 -2.3,0.2s-1.1,0.4 -1.6,0.8c-0.5,0.4 -0.9,0.9 -1.1,1.7c-0.5,1.6 -0.8,4.2 -0.8,7.7c0,3.5 0.4,6.1 1.2,7.7s2.3,2.4 4.5,2.4c2.5,0 5,-0.1 7.6,-0.3l1.3,-0.1l0,4.5c-2.4,0.8 -5.5,1.2 -9.3,1.2c-0.3,0 -0.6,0 -0.9,0c-3.6,0 -6.1,-1.4 -7.7,-4c-1.5,-2.6 -2.3,-6.6 -2.3,-11.8c0.1,-5.4 0.8,-9.1 2.1,-11.4z" class="st0"/>
     <path id="svg_44" d="m1155,227.9l0,-24.6l5.6,0l0,23c0,1.1 0.3,1.7 0.8,1.9c0.4,0.2 0.9,0.2 1.6,0.2l10,0l0,5.4l-12,0c-4,0 -6,-2 -6,-5.9z" class="st0"/>
     <path id="svg_45" d="m1182.5,204.4c0.7,-0.4 1.3,-0.7 2,-0.9c0.7,-0.2 1.2,-0.2 1.6,-0.2c0.4,0 2.3,0 5.8,0.1c3.5,0.1 6,0.3 7.8,0.5l0,4.8l-11.5,0c-1,0 -1.6,0.2 -1.8,0.8c-0.2,0.4 -0.2,0.9 -0.2,1.6l0,4.8l11.8,0.4l0,4.8l-11.8,0.4l0,4.8c0,1.1 0.3,1.7 0.8,1.9c0.4,0.2 0.9,0.2 1.6,0.2l11.1,0l0,4.8c-1.3,0.2 -4.6,0.4 -9.9,0.6l-2.6,0.1c-0.2,0 -0.5,0 -0.7,0c-0.3,0 -0.6,0 -1.1,-0.1s-1,-0.2 -1.6,-0.4c-0.6,-0.3 -1.2,-0.6 -1.7,-1c-1.1,-1 -1.6,-2.5 -1.6,-4.6l0,-18.2c-0.1,-2.6 0.6,-4.3 2,-5.2z" class="st0"/>
    </g>
   </g>
  </a>
  <g id="svg_46">
   <polygon id="svg_47" points="542.2,449.8 541.7,503.9 544,506.5 544.6,506.5 545.1,452.6  " class="st3"/>
   <polygon id="svg_48" points="537.8,499.7 538.7,500.6 539.2,446.9 538.3,446  " class="st3"/>
   <polygon id="svg_49" points="532,493.2 534.8,496.3 535.3,443.1 532.4,440.3  " class="st3"/>
  </g>
  <g id="svg_50">
   <polygon id="svg_51" points="306.1,490.5 309,490.5 309.9,299.4 306.9,302.2  " class="st0"/>
   <polygon id="svg_52" points="302.1,490.5 303,490.5 303.8,305.1 302.9,305.9  " class="st0"/>
   <polygon id="svg_53" points="296.1,490.5 299,490.5 299.9,308.8 297,311.5    " class="st0"/>
   <polygon id="svg_54" points="1363.5,655 1366.4,655 1367.3,463.5 1364.3,463.5    " class="st0"/>
   <polygon id="svg_55" points="1359.5,655 1360.4,655 1361.3,463.5 1360.4,463.5    " class="st0"/>
   <polygon id="svg_56" points="1353.5,655 1356.4,655 1357.3,463.5 1354.4,463.5    " class="st0"/>
   <polygon id="svg_57" points="1448.1,655 1449,463.5 1446,463.5 1445.1,652.3 1447.3,655   " class="st0"/>
   <polygon id="svg_58" points="1442,463.5 1441.2,647.3 1442.1,648.4 1442.9,463.5  " class="st0"/>
   <polygon id="svg_59" points="1436.1,463.5 1435.3,639.7 1438.2,643.4 1439,463.5  " class="st0"/>
   <polygon id="svg_60" points="373.4,672.7 644.2,673.6 644.2,670.6 373.4,669.7    " class="st0"/>
   <polygon id="svg_61" points="373.4,666.6 644.2,667.5 644.2,666.6 373.4,665.7    " class="st0"/>
   <polygon id="svg_62" points="373.4,662.6 644.2,663.5 644.2,660.6 373.4,659.7    " class="st0"/>
   <polygon id="svg_63" points="1019.6,191 1230.8,191.8 1230.8,188.9 1016.3,188    " class="st0"/>
   <polygon id="svg_64" points="1012.9,184.9 1230.8,185.8 1230.8,184.9 1011.9,184  " class="st0"/>
   <polygon id="svg_65" points="1008.5,180.9 1230.8,181.8 1230.8,178.8 1005.3,177.9    " class="st0"/>
   <polygon id="svg_66" points="1004.4,258.5 1230.8,259.4 1230.8,256.4 1004.4,255.5    " class="st0"/>
   <polygon id="svg_67" points="1004.4,252.4 1230.8,253.3 1230.8,252.4 1004.4,251.5    " class="st0"/>
   <polygon id="svg_68" points="1004.4,248.4 1230.8,249.3 1230.8,246.4 1004.4,245.5    " class="st0"/>
   <polygon id="svg_69" points="227.5,490.5 230.5,490.5 231.3,299 228.4,299    " class="st0"/>
   <polygon id="svg_70" points="223.5,490.5 224.4,490.5 225.3,299 224.4,299    " class="st0"/>
   <polygon id="svg_71" points="217.6,490.5 220.5,490.5 221.4,299 218.5,299    " class="st0"/>
   <polygon id="svg_72" points="379.1,749.8 644.2,750.6 644.2,747.7 382,746.8  " class="st0"/>
   <polygon id="svg_73" points="385,743.7 644.2,744.6 644.2,743.7 385.9,742.8  " class="st0"/>
   <polygon id="svg_74" points="388.9,739.7 644.2,740.6 644.2,737.6 391.8,736.8    " class="st0"/>
  </g>
  <g id="svg_75">
   <polygon id="svg_76" points="615.2,294.6 612.3,294.6 611.5,378.1 614.4,381.1    " class="st3"/>
   <polygon id="svg_77" points="608.3,294.6 607.6,374 608.5,374.9 609.2,294.6  " class="st3"/>
   <polygon id="svg_78" points="602.4,294.6 601.7,367.8 604.6,370.8 605.3,294.6    " class="st3"/>
  </g>
  <g id="svg_79">
   <polygon id="svg_80" points="726.9,209.1 831.2,489.2 834.4,489.2 729.7,208.1    " class="st3"/>
   <polygon id="svg_81" points="732.5,206.9 837.7,489.2 838.6,489.2 733.4,206.6    " class="st3"/>
   <polygon id="svg_82" points="738.9,204.5 736.2,205.5 841.9,489.2 845,489.2  " class="st3"/>
  </g>
  <g id="svg_83">
   <polygon id="svg_84" points="923.9,316.3 920.9,316.3 920.5,371.9 923.4,369.2    " class="st3"/>
   <polygon id="svg_85" points="917,316.3 916.5,375.6 917.4,374.7 917.9,316.3  " class="st3"/>
   <polygon id="svg_86" points="911,316.3 910.5,381 913.4,378.4 913.9,316.3    " class="st3"/>
  </g>
  <g id="svg_87">
   <polygon id="svg_88" points="923.8,460.9 920.8,457.9 920.2,581.4 923.2,578.7    " class="st3"/>
   <polygon id="svg_89" points="916.9,453.9 916.3,584.9 917.2,584.1 917.8,454.8    " class="st3"/>
   <polygon id="svg_90" points="911,447.9 910.3,590.3 913.2,587.7 913.9,450.8  " class="st3"/>
  </g>
  <g id="svg_91">
   <polygon id="svg_92" points="1150.3,597.8 1150.3,594.8 989.1,594 991.7,597  " class="st3"/>
   <polygon id="svg_93" points="1150.3,591.7 1150.3,590.8 985.7,590 986.5,590.9    " class="st3"/>
   <polygon id="svg_94" points="1150.3,584.7 980.6,583.9 983.1,586.9 1150.3,587.7  " class="st3"/>
  </g>
  <g id="svg_95">
   <polygon id="svg_96" points="1342,390.1 1342,387.1 1253.6,386.4 1256.4,389.4    " class="st3"/>
   <polygon id="svg_97" points="1342,384 1342,383.1 1249.9,382.3 1250.8,383.2  " class="st3"/>
   <polygon id="svg_98" points="1342,377.1 1244.4,376.2 1247.1,379.2 1342,380  " class="st3"/>
  </g>
  <g id="svg_99">
   <polygon id="svg_100" points="1249.3,450.6 1248.4,695.4 1251.4,699.7 1251.4,699.7 1252.2,447.6   " class="st3"/>
   <polygon id="svg_101" points="1244.5,689.7 1245.4,691 1246.2,453.7 1245.3,454.6  " class="st3"/>
   <polygon id="svg_102" points="1238.6,681 1241.4,685.2 1242.2,457.6 1239.3,460.5  " class="st3"/>
  </g>
  <g id="svg_103">
   <polygon id="svg_104" points="650.6,219.5 649.7,362.9 652.7,362.9 653.5,222.7    " class="st3"/>
   <polygon id="svg_105" points="645.8,362.9 646.7,362.9 647.5,216.2 646.6,215.2    " class="st3"/>
   <polygon id="svg_106" points="640.7,209.5 639.8,362.9 642.7,362.9 643.6,211.9 641.4,209.5    " class="st3"/>
  </g>
  <rect id="svg_107" width="1670" height="956.2" class="st6"/>
  <a id="button-hp">
   <g id="svg_108" class="button-hp">
    <g id="svg_109">
     <rect id="svg_110" y="617.8" x="1392.6" width="5.8" transform="matrix(0.9999,-0.01146579,0.01146579,0.9999,-7.3345,16.0434) " height="59.8" class="st4"/>
     <rect id="svg_111" y="617.7" x="1402.5" width="5.8" transform="matrix(0.9999,-0.01142456,0.01142456,0.9999,-7.0648,16.0968) " height="17.5" class="st4"/>
    </g>
    <g id="svg_112">
     <path id="svg_113" d="m1417,605.8l-30.2,0l0,-5.7l12.9,0l0,-10.1l-12.9,0l0,-5.7l30.2,0l0,5.7l-12,0l0,10.1l12,0l0,5.7z" class="st0"/>
     <path id="svg_114" d="m1387.9,574c-0.4,-0.7 -0.7,-1.3 -0.9,-2c-0.2,-0.7 -0.2,-1.2 -0.2,-1.6s0,-2.3 0.1,-5.8c0.1,-3.5 0.3,-6.1 0.5,-7.8l4.8,0l0,11.7c0,1 0.2,1.6 0.7,1.9c0.4,0.2 0.9,0.2 1.6,0.2l4.7,0l0.4,-12l4.8,0l0.4,12l4.7,0c1,0 1.7,-0.3 1.9,-0.8c0.2,-0.4 0.2,-1 0.2,-1.7l0,-11.3l4.7,0c0.2,1.3 0.4,4.7 0.6,10l0.1,2.6c0,0.2 0,0.5 0,0.7c0,0.3 0,0.7 -0.1,1.1c0,0.5 -0.2,1 -0.4,1.7c-0.2,0.6 -0.6,1.2 -1,1.7c-1,1.1 -2.5,1.6 -4.6,1.6l-18,0c-2.3,0 -4,-0.8 -5,-2.2z" class="st0"/>
     <path id="svg_115" d="m1386.8,550.2l0,-6l22.4,-6.5l-22.4,-5.3l0,-6.1l7.8,2.1l14.7,-4.7l-22.5,-5.4l0,-6l30.2,8.1l0,6.5l-12.4,4l12.4,3.5l0,6.5l-30.2,9.3z" class="st0"/>
     <path id="svg_116" d="m1411.1,504.9l-24.3,0l0,-5.7l22.7,0c1,0 1.7,-0.3 1.9,-0.8c0.2,-0.4 0.2,-1 0.2,-1.7l0,-10.1l5.3,0l0,12.2c0.1,4.1 -1.9,6.1 -5.8,6.1z" class="st0"/>
     <path id="svg_117" d="m1387.9,477c-0.4,-0.7 -0.7,-1.3 -0.9,-2c-0.2,-0.7 -0.2,-1.2 -0.2,-1.6s0,-2.3 0.1,-5.8c0.1,-3.5 0.3,-6.1 0.5,-7.8l4.8,0l0,11.7c0,1 0.2,1.6 0.7,1.9c0.4,0.2 0.9,0.2 1.6,0.2l4.7,0l0.4,-12l4.8,0l0.4,12l4.7,0c1,0 1.7,-0.3 1.9,-0.8c0.2,-0.4 0.2,-1 0.2,-1.7l0,-11.3l4.7,0c0.2,1.3 0.4,4.7 0.6,10l0.1,2.6c0,0.2 0,0.5 0,0.7c0,0.3 0,0.7 -0.1,1.1c0,0.5 -0.2,1 -0.4,1.7c-0.2,0.6 -0.6,1.2 -1,1.7c-1,1.1 -2.5,1.6 -4.6,1.6l-18,0c-2.3,0 -4,-0.7 -5,-2.2z" class="st0"/>
     <path id="svg_118" d="m1392.1,453.4l-5.3,0l0,-21.9l5.3,0l0,8.2l24.9,0l0,5.7l-24.9,0l0,8z" class="st0"/>
     <path id="svg_119" d="m1392.1,425.3l-5.3,0l0,-21.9l5.3,0l0,8.2l24.9,0l0,5.7l-24.9,0l0,8z" class="st0"/>
     <path id="svg_120" d="m1417,382.4l-30.2,0l0,-12.7c0,-2.9 0.8,-5.1 2.5,-6.4c1.5,-1.2 3.8,-1.8 6.8,-1.8c1.8,0 3.3,0.2 4.5,0.5c1.3,0.4 2.2,0.8 2.9,1.3c0.7,0.5 1.2,1.2 1.5,2c0.5,1.1 0.7,2.2 0.7,3.5c0,0.9 -0.1,2.5 -0.4,4.6c-0.2,2.1 -0.4,3.2 -0.5,3.3l12,0l0,5.7l0.2,0zm-25.1,-12.3l0,6.6l8.8,0l0,-6.6c0,-0.6 -0.1,-1.2 -0.4,-1.6c-0.5,-0.9 -2,-1.4 -4.2,-1.4c-2.8,0.1 -4.2,1 -4.2,3z" class="st0"/>
     <path id="svg_121" d="m1417,358.3l-30.2,-10l0,-6.4l30.2,-9.6l0,6l-6.7,2.1l0,9.7l6.7,2.1l0,6.1zm-11.8,-9.7l0,-6.9l-10.8,3.3l10.8,3.6z" class="st0"/>
     <path id="svg_122" d="m1390.5,325.2c-1.8,-1.1 -3,-2.6 -3.6,-4.5c-0.3,-1.1 -0.5,-2.2 -0.5,-3.6c0,-3.9 0.5,-7.3 1.4,-10.3l4.5,0c-0.1,0.4 -0.1,0.8 -0.1,1.1c0,0.3 -0.1,0.7 -0.1,1.2s-0.1,1 -0.1,1.5c0,0.6 -0.1,1.1 -0.1,1.6c-0.1,1.3 -0.1,2.4 -0.1,3.4s0.1,1.8 0.2,2.3c0.1,0.6 0.4,1.1 0.7,1.6s0.9,0.9 1.7,1.1c1.6,0.5 4.1,0.8 7.6,0.8s6,-0.4 7.6,-1.2c1.6,-0.8 2.3,-2.3 2.3,-4.5c0,-2.5 -0.1,-5.1 -0.2,-7.7l-0.1,-1.3l4.5,0c0.8,2.4 1.2,5.6 1.2,9.4c0,0.3 0,0.6 0,0.9c0,3.6 -1.3,6.2 -4,7.7s-6.5,2.3 -11.6,2.3s-8.9,-0.5 -11.2,-1.8z" class="st0"/>
     <path id="svg_123" d="m1417,299.3l-30.2,0l0,-5.4l12.6,0l0,-2.4l-12.6,-7.5l0,-6.6l15.1,9.1l15.1,-9.1l0,6.6l-12.5,7.5l0,2.3l12.5,0l0,5.5z" class="st0"/>
     <path id="svg_124" d="m1417,271l-30.2,-10l0,-6.4l30.2,-9.6l0,6l-6.7,2.1l0,9.7l6.7,2.1l0,6.1zm-11.8,-9.7l0,-6.9l-10.8,3.3l10.8,3.6z" class="st0"/>
     <path id="svg_125" d="m1386.8,225.3c0,-2.6 0.7,-4.5 2,-5.8c1.6,-1.5 4.1,-2.3 7.4,-2.3c3.9,0 6.4,0.8 7.7,2.4c0.4,0.5 0.7,0.9 0.8,1.2c0.1,0.3 0.2,0.7 0.4,1.2l11.9,-5.6l0,6.4l-11.4,4.9l-0.6,5l12,0l0,5.7l-30.2,0l0,-13.1zm13.7,7.2l0,-6.7c0,-1.1 -0.3,-1.8 -0.8,-2.2s-1.7,-0.7 -3.3,-0.7s-2.8,0.2 -3.4,0.7s-0.9,1.2 -0.9,2.2l0,6.7l8.4,0z" class="st0"/>
     <path id="svg_126" d="m1392.1,210.5l-5.3,0l0,-21.9l5.3,0l0,8.2l24.9,0l0,5.7l-24.9,0l0,8z" class="st0"/>
    </g>
    <rect id="svg_127" y="177.9" x="1367.3" width="60.2" height="499.7" class="st5"/>
   </g>
  </a>
  <a id="button-kas">
   <g id="svg_128" class="button-kas">
    <g id="svg_129">
     <g id="svg_130">
      <g id="svg_131">
       <rect id="svg_132" y="701.1" x="322.8" width="59.1" transform="matrix(0.9999,-0.01173536,0.01173536,0.9999,-8.2372,4.1832) " height="5.8" class="st4"/>
      </g>
      <g id="svg_133">
       <rect id="svg_134" y="711" x="364.7" width="17.3" transform="matrix(0.9999,-0.01169136,0.01169136,0.9999,-8.3214,4.4138) " height="5.8" class="st4"/>
      </g>
     </g>
    </g>
    <g id="svg_135">
     <path id="svg_136" d="m395.8,719.3l0,-30.5l5.4,0l0,12.8l2.4,0l7.4,-12.8l6.5,0l-9,15.3l9,15.2l-6.5,0l-7.4,-12.6l-2.3,0l0,12.6l-5.5,0z" class="st0"/>
     <path id="svg_137" d="m423.8,719.3l9.9,-30.5l6.4,0l9.5,30.5l-6,0l-2.1,-6.8l-9.6,0l-2.1,6.8l-6,0zm9.6,-11.9l6.8,0l-3.3,-10.9l-3.5,10.9z" class="st0"/>
     <path id="svg_138" d="m454.9,699l0,-2.6c0,-2.9 0.8,-5 2.3,-6.2c1.4,-1.1 3.3,-1.6 5.6,-1.7c0.3,0 1,0 2,0c1,0 2.5,0.1 4.5,0.3c2,0.2 3.6,0.5 4.8,0.9l0,4.6c-3,-0.3 -5.5,-0.4 -7.3,-0.4s-2.8,0 -2.9,0c-1.2,0 -2.1,0.2 -2.6,0.5c-0.6,0.3 -0.8,1.2 -0.8,2.5l0,1.5c0,1.2 0.2,1.9 0.7,2.3c0.5,0.4 1.3,0.6 2.4,0.6l4.6,0c3,0 5.1,1.3 6.1,3.8c0.5,1.3 0.8,2.7 0.8,4.3l0,2c0,3.7 -1.2,6.2 -3.6,7.3c-1.2,0.6 -2.7,0.9 -4.5,0.9c-4.8,0 -8.6,-0.4 -11.3,-1.3l0,-4.6c2.9,0.3 5.5,0.5 7.7,0.5c2.2,0 3.5,0 3.8,-0.1c0.4,-0.1 0.7,-0.2 1.1,-0.3c0.8,-0.4 1.2,-1.1 1.2,-2.2l0,-1.6c0,-1.4 -0.4,-2.3 -1.3,-2.7c-0.3,-0.1 -0.8,-0.2 -1.3,-0.2l-4.5,0c-5,0 -7.5,-2.7 -7.5,-8.1z" class="st0"/>
     <path id="svg_139" d="m482.5,719.3l0,-30.5l12.6,0c2.9,0 5,0.8 6.3,2.5c1.2,1.5 1.8,3.8 1.8,6.9c0,1.8 -0.2,3.3 -0.5,4.6c-0.4,1.3 -0.8,2.3 -1.3,2.9c-0.5,0.7 -1.2,1.2 -2,1.6c-1,0.5 -2.2,0.8 -3.5,0.8c-0.9,0 -2.4,-0.1 -4.5,-0.4c-2.1,-0.3 -3.2,-0.4 -3.3,-0.5l0,12.1l-5.6,0zm12.1,-25.4l-6.6,0l0,8.9l6.6,0c0.6,0 1.2,-0.1 1.6,-0.4c0.9,-0.6 1.4,-2 1.4,-4.3c-0.1,-2.7 -1,-4.2 -3,-4.2z" class="st0"/>
     <path id="svg_140" d="m513,689.9c0.7,-0.4 1.3,-0.7 2,-0.9c0.7,-0.2 1.2,-0.2 1.6,-0.2c0.4,0 2.3,0 5.8,0.1c3.5,0.1 6,0.3 7.8,0.5l0,4.8l-11.5,0c-1,0 -1.6,0.2 -1.8,0.8c-0.2,0.4 -0.2,0.9 -0.2,1.6l0,4.8l11.8,0.4l0,4.8l-11.8,0.4l0,4.8c0,1.1 0.3,1.7 0.8,1.9c0.4,0.2 0.9,0.2 1.6,0.2l10.9,0l0,4.8c-1.3,0.2 -4.6,0.4 -9.9,0.6l-2.6,0.1c-0.2,0 -0.5,0 -0.7,0s-0.6,0 -1.1,-0.1c-0.5,0 -1,-0.2 -1.6,-0.4c-0.6,-0.3 -1.2,-0.6 -1.7,-1c-1.1,-1 -1.6,-2.5 -1.6,-4.6l0,-18.2c0,-2.5 0.7,-4.3 2.2,-5.2z" class="st0"/>
     <path id="svg_141" d="m550,688.8c2.6,0 4.5,0.7 5.7,2c1.5,1.6 2.3,4.1 2.3,7.5c0,3.9 -0.8,6.5 -2.4,7.8c-0.5,0.4 -0.9,0.7 -1.2,0.8c-0.3,0.1 -0.7,0.2 -1.2,0.4l5.6,12l-6.3,0l-4.8,-11.6l-4.9,-0.6l0,12.1l-5.6,0l0,-30.5l12.8,0l0,0.1zm-7.2,13.8l6.6,0c1,0 1.8,-0.3 2.2,-0.8c0.4,-0.6 0.7,-1.7 0.7,-3.4c0,-1.7 -0.2,-2.9 -0.7,-3.5c-0.5,-0.6 -1.2,-0.9 -2.2,-0.9l-6.6,0l0,8.6z" class="st0"/>
     <path id="svg_142" d="m565.4,699l0,-2.6c0,-2.9 0.8,-5 2.3,-6.2c1.4,-1.1 3.3,-1.6 5.6,-1.7c0.3,0 1,0 2,0c1,0 2.5,0.1 4.5,0.3c2,0.2 3.6,0.5 4.8,0.9l0,4.6c-3,-0.3 -5.5,-0.4 -7.3,-0.4s-2.8,0 -2.9,0c-1.2,0 -2.1,0.2 -2.6,0.5c-0.6,0.3 -0.8,1.2 -0.8,2.5l0,1.5c0,1.2 0.2,1.9 0.7,2.3c0.5,0.4 1.3,0.6 2.4,0.6l4.6,0c3,0 5.1,1.3 6.1,3.8c0.5,1.3 0.8,2.7 0.8,4.3l0,2c0,3.7 -1.2,6.2 -3.6,7.3c-1.2,0.6 -2.7,0.9 -4.5,0.9c-4.8,0 -8.6,-0.4 -11.3,-1.3l0,-4.6c2.9,0.3 5.5,0.5 7.7,0.5c2.2,0 3.5,0 3.8,-0.1c0.4,-0.1 0.7,-0.2 1.1,-0.3c0.8,-0.4 1.2,-1.1 1.2,-2.2l0,-1.6c0,-1.4 -0.4,-2.3 -1.3,-2.7c-0.3,-0.1 -0.8,-0.2 -1.3,-0.2l-4.4,0c-5.1,0 -7.6,-2.7 -7.6,-8.1z" class="st0"/>
     <path id="svg_143" d="m593.4,719.3l0,-30.5l5.4,0l0,12.8l2.4,0l7.4,-12.8l6.5,0l-9,15.3l9,15.2l-6.5,0l-7.4,-12.6l-2.3,0l0,12.6l-5.5,0z" class="st0"/>
     <path id="svg_144" d="m635.9,719.3l-5.6,0l0,-9.5l-8.9,-21.1l6.1,0l5.7,14.6l6.3,-14.6l6.1,0l-9.6,21.1l0,9.5l-0.1,0z" class="st0"/>
    </g>
    <rect id="svg_145" y="671.7" x="322.7" width="333.8" height="65.1" class="st5"/>
   </g>
  </a>
  <a id="button-red-hat">
   <g id="svg_146" class="button-red-hat">
    <g id="svg_147">
     <rect id="svg_148" y="498.2" x="254.6" width="5.8" transform="matrix(0.9999,-0.01146579,0.01146579,0.9999,-6.038,2.9864) " height="59.8" class="st4"/>
     <rect id="svg_149" y="498.1" x="264.4" width="5.8" transform="matrix(0.9999,-0.01142463,0.01142463,0.9999,-5.7727,3.0867) " height="17.5" class="st4"/>
    </g>
    <g id="svg_150">
     <path id="svg_151" d="m248.7,467.2c0,-2.6 0.7,-4.5 2,-5.8c1.6,-1.5 4.1,-2.3 7.4,-2.3c3.9,0 6.4,0.8 7.7,2.4c0.4,0.5 0.7,0.9 0.8,1.2s0.2,0.7 0.4,1.2l11.9,-5.6l0,6.4l-11.4,4.9l-0.6,5l12,0l0,5.7l-30.2,0l0,-13.1zm13.7,7.3l0,-6.7c0,-1.1 -0.3,-1.8 -0.8,-2.2c-0.5,-0.4 -1.7,-0.7 -3.3,-0.7c-1.7,0 -2.8,0.2 -3.4,0.7s-0.9,1.2 -0.9,2.2l0,6.7l8.4,0z" class="st0"/>
     <path id="svg_152" d="m249.8,449.1c-0.4,-0.7 -0.7,-1.3 -0.9,-2c-0.2,-0.7 -0.2,-1.2 -0.2,-1.6s0,-2.3 0.1,-5.8c0.1,-3.5 0.3,-6.1 0.5,-7.8l4.8,0l0,11.7c0,1 0.2,1.6 0.7,1.9c0.4,0.2 0.9,0.2 1.6,0.2l4.7,0l0.4,-12l4.8,0l0.4,12l4.7,0c1,0 1.7,-0.3 1.9,-0.8c0.2,-0.4 0.2,-1 0.2,-1.7l0,-11.3l4.7,0c0.2,1.3 0.4,4.7 0.6,10l0.1,2.6c0,0.2 0,0.5 0,0.7c0,0.3 0,0.7 -0.1,1.1c0,0.5 -0.2,1 -0.4,1.7c-0.2,0.6 -0.6,1.2 -1,1.7c-1,1.1 -2.5,1.6 -4.6,1.6l-18,0c-2.3,0 -4,-0.7 -5,-2.2z" class="st0"/>
     <path id="svg_153" d="m278.9,424.2l-30.2,0l0,-12.6c0,-6.8 5.1,-10.3 15.2,-10.3c6.3,0 10.6,1.5 13,4.4c1.3,1.6 1.9,3.5 1.9,5.9l0,12.6l0.1,0zm-15,-17.2c-5,0 -8.1,0.8 -9.3,2.3c-0.5,0.7 -0.8,1.6 -0.8,2.7l0,6.5l19.9,0l0,-6.5c0.1,-3.3 -3.2,-5 -9.8,-5z" class="st0"/>
     <path id="svg_154" d="m278.9,379.3l-30.2,0l0,-5.7l12.9,0l0,-10.1l-12.9,0l0,-5.7l30.2,0l0,5.7l-12,0l0,10.1l12,0l0,5.7z" class="st0"/>
     <path id="svg_155" d="m278.9,350.6l-30.2,-10l0,-6.4l30.2,-9.6l0,6l-6.7,2.1l0,9.7l6.7,2.1l0,6.1zm-11.8,-9.7l0,-6.9l-10.8,3.3l10.8,3.6z" class="st0"/>
     <path id="svg_156" d="m254.1,322.5l-5.3,0l0,-21.9l5.3,0l0,8.2l24.9,0l0,5.7l-24.9,0l0,8z" class="st0"/>
    </g>
    <rect id="svg_157" y="286.2" x="231.3" width="64.8" height="271.8" class="st5"/>
   </g>
  </a>
 </g>
</svg>