<?xml version="1.0" encoding="utf-8"?>
<!-- Generator: Adobe Illustrator 19.2.1, SVG Export Plug-In . SVG Version: 6.00 Build 0)  -->
<svg version="1.1" id="Capa_1" xmlns="http://www.w3.org/2000/svg" xmlns:xlink="http://www.w3.org/1999/xlink" x="0px" y="0px"
	 viewBox="0 0 360 484" style="enable-background:new 0 0 360 484;" xml:space="preserve">
<style type="text/css">
	.st0{fill:#F7C639;}
	.st1{fill:#FFFFFF;}
	.st2{opacity:0.3;fill:#FFFFFF;}
	.st3{opacity:0.2;fill:#FFFFFF;}
</style>
<g id="banda-kas">
	<g>
		<g>
			
				<rect x="37" y="374.3" transform="matrix(0.9999 -1.189225e-02 1.189225e-02 0.9999 -4.4644 0.635)" class="st0" width="28.4" height="2.8"/>
		</g>
		<g>
			
				<rect x="57.1" y="379.1" transform="matrix(0.9999 -1.184511e-02 1.184511e-02 0.9999 -4.5034 0.7521)" class="st0" width="8.3" height="2.8"/>
		</g>
	</g>
</g>
<g id="banda-red">
	
		<rect x="179" y="45.9" transform="matrix(0.9999 -1.161429e-02 1.161429e-02 0.9999 -0.5364 2.2512)" class="st0" width="29.2" height="2.8"/>
	
		<rect x="199.7" y="50.8" transform="matrix(0.9999 -1.157197e-02 1.157197e-02 0.9999 -0.5901 2.3634)" class="st0" width="8.5" height="2.8"/>
</g>
<g>
	
		<rect x="31.4" y="430.4" transform="matrix(0.9999 -1.161627e-02 1.161627e-02 0.9999 -5.015 0.5823)" class="st0" width="32.5" height="3.2"/>
	
		<rect x="54.4" y="435.8" transform="matrix(0.9999 -1.158036e-02 1.158036e-02 0.9999 -5.0614 0.7144)" class="st0" width="9.5" height="3.2"/>
</g>
<g id="banda-oracle">
	<g>
		<g>
			
				<rect x="179.9" y="100.5" transform="matrix(0.9999 -1.189083e-02 1.189083e-02 0.9999 -1.1981 2.3192)" class="st0" width="29" height="2.9"/>
		</g>
		<g>
			
				<rect x="200.5" y="105.4" transform="matrix(0.9999 -1.185008e-02 1.185008e-02 0.9999 -1.252 2.4338)" class="st0" width="8.5" height="2.9"/>
		</g>
	</g>
</g>
<g>
	<polygon id="XMLID_2685_" class="st1" points="277.6,159.5 259.9,205.9 262.3,205.9 280,159.5 	"/>
	<polygon id="XMLID_2683_" class="st1" points="274.7,159.5 257,205.9 257.4,205.9 275.1,159.5 	"/>
	<polygon id="XMLID_2681_" class="st1" points="269.6,159.5 252.6,205.9 255,205.9 271.9,159.5 	"/>
	<g id="XMLID_2674_">
		<polygon id="XMLID_2679_" class="st1" points="288.1,205.9 290.5,205.9 277.2,171.2 276,174.2 		"/>
		<polygon id="XMLID_2677_" class="st1" points="293,205.9 293.4,205.9 278.7,167.4 278.5,167.9 		"/>
		<polygon id="XMLID_2675_" class="st1" points="297.8,205.9 281.3,160.9 280.1,164 295.4,205.9 		"/>
	</g>
</g>
<g>
	
		<rect id="XMLID_2672_" x="228.7" y="169.8" transform="matrix(-1 -1.224647e-16 1.224647e-16 -1 459.1116 375.5937)" class="st1" width="1.7" height="36"/>
	
		<rect id="XMLID_2670_" x="225.7" y="169.8" transform="matrix(-1 -1.224647e-16 1.224647e-16 -1 451.857 375.5937)" class="st1" width="0.5" height="36"/>
	
		<rect id="XMLID_2668_" x="221.5" y="169.8" transform="matrix(-1 -1.224647e-16 1.224647e-16 -1 444.6294 375.5937)" class="st1" width="1.7" height="36"/>
	
		<rect id="XMLID_2666_" x="225.1" y="144.5" transform="matrix(6.123234e-17 -1 1 6.123234e-17 58.6434 393.2413)" class="st1" width="1.7" height="45.6"/>
	
		<rect id="XMLID_2664_" x="225.7" y="140.8" transform="matrix(6.123234e-17 -1 1 6.123234e-17 62.3591 389.5256)" class="st1" width="0.5" height="45.6"/>
	
		<rect id="XMLID_2662_" x="225.1" y="137.1" transform="matrix(6.123234e-17 -1 1 6.123234e-17 66.061 385.8237)" class="st1" width="1.7" height="45.6"/>
</g>
<g>
	
		<rect id="XMLID_2660_" x="80.7" y="255" transform="matrix(-1.836970e-16 1 -1 -1.836970e-16 348.5635 185.3519)" class="st1" width="1.7" height="24"/>
	
		<rect id="XMLID_2658_" x="81.3" y="257.9" transform="matrix(-1.836970e-16 1 -1 -1.836970e-16 351.5161 188.3046)" class="st1" width="0.5" height="24"/>
	
		<rect id="XMLID_2656_" x="80.7" y="260.9" transform="matrix(-1.836970e-16 1 -1 -1.836970e-16 354.4554 191.2439)" class="st1" width="1.7" height="24"/>
	
		<rect id="XMLID_2654_" x="76.2" y="279.2" transform="matrix(-1.836970e-16 1 -1 -1.836970e-16 363.7015 209.6222)" class="st1" width="1.7" height="14.8"/>
	
		<rect id="XMLID_2652_" x="76.8" y="282.2" transform="matrix(-1.836970e-16 1 -1 -1.836970e-16 366.6544 212.5751)" class="st1" width="0.5" height="14.8"/>
	
		<rect id="XMLID_2650_" x="76.2" y="285.1" transform="matrix(-1.836970e-16 1 -1 -1.836970e-16 369.594 215.5139)" class="st1" width="1.7" height="14.8"/>
	<g id="XMLID_2642_">
		<g>
			<polygon id="XMLID_25_" class="st1" points="60.1,274 60.1,304.2 62.3,306.7 62.3,271.8 			"/>
			<polygon id="XMLID_24_" class="st1" points="63.8,270.3 63.8,308.4 64.2,308.8 64.2,269.9 			"/>
			<polygon id="XMLID_23_" class="st1" points="66,268.1 66,310.9 67.9,313 67.9,266.2 			"/>
		</g>
	</g>
</g>
<g>
	<rect id="XMLID_2641_" x="199.5" y="266.9" class="st1" width="2.2" height="46.2"/>
	<rect id="XMLID_2640_" x="204.3" y="266.9" class="st1" width="0.4" height="46.2"/>
	<rect id="XMLID_2639_" x="207.3" y="266.9" class="st1" width="1.9" height="46.2"/>
</g>
<g>
	<g id="XMLID_2632_">
		<rect id="XMLID_2637_" x="160.4" y="267.3" class="st1" width="1.7" height="38.1"/>
		<rect id="XMLID_2635_" x="158.2" y="267.3" class="st1" width="0.5" height="38.1"/>
		<rect id="XMLID_2633_" x="154.8" y="267.3" class="st1" width="1.6" height="38.1"/>
	</g>
	<g id="XMLID_2625_">
		<polygon id="XMLID_2630_" class="st1" points="184.4,313.3 184.4,311.6 159.6,311.6 161.1,313.3 		"/>
		<polygon id="XMLID_2628_" class="st1" points="184.4,309.8 184.4,309.3 157.6,309.3 158,309.8 		"/>
		<polygon id="XMLID_2626_" class="st1" points="184.4,305.8 154.8,305.8 154.8,306.2 156,307.5 184.4,307.5 		"/>
	</g>
</g>
<g>
	<g id="XMLID_2618_">
		<polygon id="XMLID_2623_" class="st1" points="101,272.7 135.2,272.7 135.2,270.9 102.6,270.9 101,272.4 		"/>
		<polygon id="XMLID_2621_" class="st1" points="135.2,268.3 135.2,267.8 106,267.8 105.4,268.3 		"/>
		<polygon id="XMLID_2619_" class="st1" points="135.2,263.5 110.7,263.5 108.8,265.2 135.2,265.2 		"/>
	</g>
	<g id="XMLID_2611_">
		<polygon id="XMLID_2616_" class="st1" points="109.9,309.2 109.9,274.2 108.2,274.2 108.2,307.6 109.7,309.2 		"/>
		<polygon id="XMLID_2614_" class="st1" points="105.7,274.2 105.2,274.2 105.2,304.1 105.7,304.7 		"/>
		<polygon id="XMLID_2612_" class="st1" points="101,274.2 101,299.2 102.7,301.2 102.7,274.2 		"/>
	</g>
	<g id="XMLID_2604_">
		<polygon id="XMLID_2609_" class="st1" points="145.3,300 111.1,300 111.1,301.8 143.7,301.8 145.3,300.3 		"/>
		<polygon id="XMLID_2607_" class="st1" points="111.1,304.4 111.1,304.9 140.2,304.9 140.8,304.4 		"/>
		<polygon id="XMLID_2605_" class="st1" points="111.1,309.2 135.5,309.2 137.4,307.5 111.1,307.5 		"/>
	</g>
	<g id="XMLID_2597_">
		<polygon id="XMLID_2602_" class="st1" points="136.3,263.5 136.3,298.5 138,298.5 138,265.1 136.6,263.5 		"/>
		<polygon id="XMLID_2600_" class="st1" points="140.5,298.5 141,298.5 141,268.6 140.5,268 		"/>
		<polygon id="XMLID_2598_" class="st1" points="145.2,298.5 145.2,273.5 143.5,271.5 143.5,298.5 		"/>
	</g>
</g>
<g>
	<g id="XMLID_2590_">
		<polygon id="XMLID_2595_" class="st1" points="220.6,278.1 254.7,278.1 254.7,276.4 222.2,276.4 220.6,277.8 		"/>
		<polygon id="XMLID_2593_" class="st1" points="254.7,273.8 254.7,273.3 225.6,273.3 225,273.8 		"/>
		<polygon id="XMLID_2591_" class="st1" points="254.7,269 230.3,269 228.4,270.7 254.7,270.7 		"/>
	</g>
	<g id="XMLID_2583_">
		<polygon id="XMLID_2588_" class="st1" points="229.5,314.7 229.5,279.7 227.8,279.7 227.8,313.1 229.2,314.7 		"/>
		<polygon id="XMLID_2586_" class="st1" points="225.3,279.7 224.8,279.7 224.8,309.5 225.3,310.1 		"/>
		<polygon id="XMLID_2584_" class="st1" points="220.6,279.7 220.6,304.7 222.3,306.6 222.3,279.7 		"/>
	</g>
	<g id="XMLID_2576_">
		<polygon id="XMLID_2581_" class="st1" points="264.9,305.5 230.7,305.5 230.7,307.3 263.2,307.3 264.9,305.8 		"/>
		<polygon id="XMLID_2579_" class="st1" points="230.7,309.8 230.7,310.4 259.8,310.4 260.4,309.8 		"/>
		<polygon id="XMLID_2577_" class="st1" points="230.7,314.7 255.1,314.7 257,312.9 230.7,312.9 		"/>
	</g>
	<g id="XMLID_2569_">
		<polygon id="XMLID_2574_" class="st1" points="255.9,268.9 255.9,304 257.6,304 257.6,270.6 256.2,268.9 		"/>
		<polygon id="XMLID_2572_" class="st1" points="260.1,304 260.6,304 260.6,274.1 260.1,273.5 		"/>
		<polygon id="XMLID_2570_" class="st1" points="264.8,304 264.8,279 263.1,277 263.1,304 		"/>
	</g>
</g>
<g>
	<g id="XMLID_2562_">
		<rect id="XMLID_2567_" x="58.8" y="160.6" class="st1" width="1.7" height="46.5"/>
		<rect id="XMLID_2565_" x="56.6" y="160.6" class="st1" width="0.5" height="46.5"/>
		<rect id="XMLID_2563_" x="53.3" y="160.6" class="st1" width="1.6" height="46.5"/>
	</g>
	
		<rect id="XMLID_2560_" x="70.2" y="152.6" transform="matrix(-1.836970e-16 1 -1 -1.836970e-16 232.9307 90.7364)" class="st1" width="1.7" height="18.6"/>
	
		<rect id="XMLID_2558_" x="70.8" y="155.5" transform="matrix(-1.836970e-16 1 -1 -1.836970e-16 235.8836 93.6893)" class="st1" width="0.5" height="18.6"/>
	
		<rect id="XMLID_2556_" x="70.2" y="158.4" transform="matrix(-1.836970e-16 1 -1 -1.836970e-16 238.8226 96.6283)" class="st1" width="1.7" height="18.6"/>
	<g id="XMLID_2549_">
		<polygon id="XMLID_2554_" class="st1" points="61.8,179.9 61.8,181.7 86.6,181.7 88.2,179.9 		"/>
		<polygon id="XMLID_2552_" class="st1" points="61.8,184 84.4,184 84.9,183.5 61.8,183.5 		"/>
		<polygon id="XMLID_2550_" class="st1" points="61.8,187.5 81.1,187.5 82.7,185.8 61.8,185.8 		"/>
	</g>
	<g id="XMLID_2542_">
		<polygon id="XMLID_2547_" class="st1" points="87.8,166.8 87.8,179.1 89.5,179.1 89.5,168.5 		"/>
		<polygon id="XMLID_2545_" class="st1" points="85.5,179.1 86,179.1 86,165 85.5,164.5 		"/>
		<polygon id="XMLID_2543_" class="st1" points="82.1,179.1 83.7,179.1 83.7,162.8 82.1,161.2 		"/>
	</g>
</g>
<g>
	<g id="XMLID_2535_">
		<rect id="XMLID_2540_" x="165.5" y="162.2" class="st1" width="1.7" height="47.6"/>
		<rect id="XMLID_2538_" x="163.2" y="162.2" class="st1" width="0.5" height="47.6"/>
		<rect id="XMLID_2536_" x="159.9" y="162.2" class="st1" width="1.6" height="47.6"/>
	</g>
	<g id="XMLID_2531_">
		<polygon id="XMLID_2534_" class="st1" points="184.8,208.6 186.7,208.6 173.4,191.8 171.5,191.8 		"/>
		<polygon id="XMLID_2533_" class="st1" points="190.4,208.6 190.9,208.6 177.6,191.8 177,191.8 		"/>
		<polygon id="XMLID_2532_" class="st1" points="197,208.6 183.6,191.8 181.7,191.8 195.1,208.6 		"/>
	</g>
	
		<rect id="XMLID_2529_" x="177.2" y="154.5" transform="matrix(-1.836970e-16 1 -1 -1.836970e-16 341.8879 -14.2907)" class="st1" width="1.7" height="18.6"/>
	
		<rect id="XMLID_2527_" x="177.8" y="157.5" transform="matrix(-1.836970e-16 1 -1 -1.836970e-16 344.8409 -11.3378)" class="st1" width="0.5" height="18.6"/>
	
		<rect id="XMLID_2525_" x="177.2" y="160.4" transform="matrix(-1.836970e-16 1 -1 -1.836970e-16 347.7799 -8.3987)" class="st1" width="1.7" height="18.6"/>
	<g id="XMLID_2518_">
		<polygon id="XMLID_2523_" class="st1" points="168.8,181.9 168.8,183.6 193.6,183.6 195.2,181.9 		"/>
		<polygon id="XMLID_2521_" class="st1" points="168.8,186 191.4,186 191.9,185.4 168.8,185.4 		"/>
		<polygon id="XMLID_2519_" class="st1" points="168.8,189.5 188.1,189.5 189.7,187.8 168.8,187.8 		"/>
	</g>
	<g id="XMLID_2511_">
		<polygon id="XMLID_2516_" class="st1" points="194.8,168.7 194.8,181.1 196.5,181.1 196.5,170.4 		"/>
		<polygon id="XMLID_2514_" class="st1" points="192.5,181.1 193,181.1 193,167 192.5,166.5 		"/>
		<polygon id="XMLID_2512_" class="st1" points="189.1,181.1 190.7,181.1 190.7,164.8 189.1,163.1 		"/>
	</g>
</g>
<polygon id="XMLID_2500_" class="st2" points="160.8,242.8 162.4,242.8 161.9,265.3 160.3,265.3 "/>
<polygon id="XMLID_2498_" class="st2" points="158.6,242.8 159.1,242.8 158.6,265.3 158.2,265.3 "/>
<polygon id="XMLID_2496_" class="st2" points="155.4,241.9 157,241.9 156.5,264.4 154.9,264.4 "/>
<polygon id="XMLID_2494_" class="st2" points="206.7,242.8 208.3,242.8 207.8,265.3 206.2,265.3 "/>
<polygon id="XMLID_2492_" class="st2" points="204.6,242.8 205,242.8 204.6,265.3 204.1,265.3 "/>
<polygon id="XMLID_2490_" class="st2" points="201.3,242.8 202.9,242.8 202.4,265.3 200.8,265.3 "/>
<g>
	<polygon id="XMLID_2488_" class="st2" points="307.5,132.3 309.1,132.3 308.6,279.6 307,279.6 	"/>
	<polygon id="XMLID_2486_" class="st2" points="305.4,132.3 305.9,132.3 305.4,279.6 304.9,279.6 	"/>
	<polygon id="XMLID_2484_" class="st2" points="302.1,132.3 303.7,132.3 303.2,279.6 301.7,279.6 	"/>
</g>
<polygon id="XMLID_2482_" class="st2" points="58.5,0.3 60.1,0.3 59.6,158 58,158 "/>
<polygon id="XMLID_2480_" class="st2" points="56.3,0.3 56.8,0.3 56.3,158 55.8,158 "/>
<polygon id="XMLID_2478_" class="st2" points="53.1,0.3 54.6,0.3 54.2,158 52.6,158 "/>
<polygon id="XMLID_2476_" class="st2" points="334.2,392.1 335.8,392.1 335.3,484.9 333.7,484.9 "/>
<polygon id="XMLID_2474_" class="st2" points="332,392.1 332.5,392.1 332,484.9 331.5,484.9 "/>
<polygon id="XMLID_2472_" class="st2" points="328.8,392.1 330.4,392.1 329.9,484.9 328.3,484.9 "/>
<polygon id="XMLID_2470_" class="st2" points="228.3,209 229.9,209 229.4,234.5 227.8,234.5 "/>
<polygon id="XMLID_2468_" class="st2" points="226.2,209 226.7,209 226.2,234.5 225.7,234.5 "/>
<polygon id="XMLID_2466_" class="st2" points="222.9,209 224.5,209 224,234.5 222.5,234.5 "/>
<polygon id="XMLID_2464_" class="st2" points="50.8,35 50.8,36.7 -46.8,36.2 -46.8,34.5 "/>
<polygon id="XMLID_2462_" class="st2" points="50.8,32.8 50.8,33.3 -46.8,32.8 -46.8,32.3 "/>
<polygon id="XMLID_2460_" class="st2" points="50.8,29.5 50.8,31.1 -46.8,30.6 -46.8,29 "/>
<polygon id="XMLID_2458_" class="st2" points="364.6,457.6 364.6,459.3 342.2,458.8 342.2,457.1 "/>
<polygon id="XMLID_2456_" class="st2" points="364.6,455.4 364.6,455.9 342.2,455.4 342.2,454.9 "/>
<polygon id="XMLID_2454_" class="st2" points="364.6,452.1 364.6,453.7 342.2,453.2 342.2,451.6 "/>
<polygon id="XMLID_2452_" class="st2" points="192.5,35 192.5,36.7 62.2,36.2 62.2,34.5 "/>
<polygon id="XMLID_2450_" class="st2" points="192.5,32.8 192.5,33.3 62.2,32.8 62.2,32.3 "/>
<polygon id="XMLID_2448_" class="st2" points="192.5,29.5 192.5,31.1 62.2,30.6 62.2,29 "/>
<polygon id="XMLID_2446_" class="st2" points="321.1,455.6 321.1,457.2 190.7,456.7 190.7,455.1 "/>
<polygon id="XMLID_2444_" class="st2" points="321.1,453.4 321.1,453.9 190.7,453.4 190.7,452.9 "/>
<polygon id="XMLID_2442_" class="st2" points="321.1,450.1 321.1,451.7 190.7,451.2 190.7,449.6 "/>
<polygon id="XMLID_2440_" class="st2" points="136.8,155 136.8,156.7 63.6,156.2 63.6,154.5 "/>
<polygon id="XMLID_2438_" class="st2" points="136.8,152.8 136.8,153.3 63.6,152.8 63.6,152.3 "/>
<polygon id="XMLID_2436_" class="st2" points="136.8,149.5 136.8,151.1 63.6,150.6 63.6,149 "/>
<polygon id="XMLID_2434_" class="st2" points="398,165.3 398,166.9 286,166.4 286,164.8 "/>
<polygon id="XMLID_2432_" class="st2" points="398,163.1 398,163.6 286,163.1 286,162.6 "/>
<polygon id="XMLID_2430_" class="st2" points="398,159.8 398,161.4 286,160.9 286,159.3 "/>
<polygon id="XMLID_2428_" class="st2" points="302.7,15.3 301.1,15.3 301.6,-43.4 303.2,-43.4 "/>
<polygon id="XMLID_2426_" class="st2" points="304.9,15.3 304.4,15.3 304.9,-43.4 305.4,-43.4 "/>
<polygon id="XMLID_2424_" class="st2" points="308.2,15.3 306.6,15.3 307.1,-43.4 308.7,-43.4 "/>
<g>
	<g id="XMLID_2417_">
		<polygon id="XMLID_2422_" class="st1" points="101.4,171.1 135.6,171.1 135.6,169.4 103,169.4 101.4,170.8 		"/>
		<polygon id="XMLID_2420_" class="st1" points="135.6,166.8 135.6,166.2 106.4,166.2 105.8,166.8 		"/>
		<polygon id="XMLID_2418_" class="st1" points="135.6,162 111.1,162 109.2,163.7 135.6,163.7 		"/>
	</g>
	<g id="XMLID_2410_">
		<polygon id="XMLID_2415_" class="st1" points="110.3,207.7 110.3,172.6 108.6,172.6 108.6,206 110,207.7 		"/>
		<polygon id="XMLID_2413_" class="st1" points="106.1,172.6 105.6,172.6 105.6,202.5 106.1,203.1 		"/>
		<polygon id="XMLID_2411_" class="st1" points="101.4,172.6 101.4,197.7 103.1,199.6 103.1,172.6 		"/>
	</g>
	<g id="XMLID_2403_">
		<polygon id="XMLID_2408_" class="st1" points="145.7,198.5 111.5,198.5 111.5,200.2 144.1,200.2 145.7,198.8 		"/>
		<polygon id="XMLID_2406_" class="st1" points="111.5,202.8 111.5,203.3 140.6,203.3 141.2,202.8 		"/>
		<polygon id="XMLID_2404_" class="st1" points="111.5,207.6 135.9,207.6 137.8,205.9 111.5,205.9 		"/>
	</g>
	<g id="XMLID_2396_">
		<polygon id="XMLID_2401_" class="st1" points="136.7,161.9 136.7,196.9 138.4,196.9 138.4,163.6 137,161.9 		"/>
		<polygon id="XMLID_2399_" class="st1" points="140.9,196.9 141.4,196.9 141.4,167.1 140.9,166.5 		"/>
		<polygon id="XMLID_2397_" class="st1" points="145.6,196.9 145.6,171.9 143.9,170 143.9,196.9 		"/>
	</g>
</g>
<g id="red-had">
	<path class="st1" d="M223.8,43.1c1.3,0,2.2,0.3,2.8,1c0.7,0.8,1.1,2,1.1,3.6c0,1.9-0.4,3.2-1.2,3.8c-0.2,0.2-0.4,0.3-0.6,0.4
		s-0.3,0.1-0.6,0.2l2.7,5.8H225l-2.4-5.6l-2.4-0.3v5.9h-2.7V43.1H223.8z M220.2,49.8h3.3c0.5,0,0.9-0.1,1.1-0.4
		c0.2-0.3,0.3-0.8,0.3-1.6c0-0.8-0.1-1.4-0.4-1.7c-0.2-0.3-0.6-0.5-1.1-0.5h-3.3V49.8z"/>
	<path class="st1" d="M232.5,43.6c0.3-0.2,0.6-0.3,1-0.4s0.6-0.1,0.8-0.1s1.1,0,2.8,0.1c1.7,0,3,0.1,3.8,0.3v2.3h-5.7
		c-0.5,0-0.8,0.1-0.9,0.4c-0.1,0.2-0.1,0.4-0.1,0.8v2.3l5.8,0.2v2.3l-5.8,0.2v2.3c0,0.5,0.1,0.8,0.4,0.9c0.2,0.1,0.5,0.1,0.8,0.1
		h5.5v2.3c-0.7,0.1-2.3,0.2-4.8,0.3l-1.3,0.1c-0.1,0-0.2,0-0.4,0s-0.3,0-0.5,0c-0.2,0-0.5-0.1-0.8-0.2c-0.3-0.1-0.6-0.3-0.8-0.5
		c-0.5-0.5-0.8-1.2-0.8-2.2v-8.8C231.5,45,231.8,44.1,232.5,43.6z"/>
	<path class="st1" d="M244.6,57.9V43.1h6.1c3.3,0,5,2.5,5,7.5c0,3.1-0.7,5.2-2.1,6.4c-0.8,0.6-1.7,1-2.8,1H244.6z M252.9,50.6
		c0-2.5-0.4-4-1.1-4.6c-0.3-0.3-0.8-0.4-1.3-0.4h-3.1v9.8h3.1C252.1,55.4,252.9,53.8,252.9,50.6z"/>
	<path class="st1" d="M266.4,57.9V43.1h2.7v6.4h4.9v-6.4h2.7v14.8H274v-5.9h-4.9v5.9H266.4z"/>
	<path class="st1" d="M280.3,57.9l4.8-14.8h3.1l4.7,14.8H290l-1-3.3h-4.7l-1,3.3H280.3z M285,52.1h3.3l-1.6-5.3L285,52.1z"/>
	<path class="st1" d="M293.9,45.7v-2.6h10.6v2.6h-4v12.2h-2.7V45.7H293.9z"/>
</g>
<g id="oracle">
	<path class="st1" d="M220.4,109.3c-0.1-0.5-0.2-1-0.2-1.6s-0.1-1.3-0.1-2.2c0-0.9,0-1.7,0.1-2.4s0.2-1.4,0.4-1.9
		c0.2-0.5,0.4-1,0.7-1.4c0.3-0.4,0.6-0.7,0.9-0.9s0.6-0.4,1.1-0.5c0.7-0.2,1.4-0.3,2.1-0.3s1.3,0,1.6,0c0.3,0,0.7,0.1,1.1,0.2
		s0.7,0.2,1,0.4c0.3,0.2,0.5,0.4,0.8,0.6s0.5,0.6,0.7,1s0.3,0.8,0.5,1.3c0.3,1,0.4,2.2,0.4,3.5s0,2.4-0.1,3.1
		c-0.1,0.7-0.2,1.3-0.4,1.9s-0.4,1-0.6,1.3c-0.3,0.4-0.5,0.7-0.8,0.9c-0.3,0.2-0.6,0.4-1,0.5c-0.9,0.3-2.2,0.4-3.7,0.3
		c-0.8,0-1.4-0.1-1.7-0.3c-0.4-0.2-0.7-0.3-0.9-0.5c-0.3-0.2-0.5-0.4-0.7-0.7c-0.2-0.3-0.4-0.6-0.5-1
		C220.6,110.2,220.5,109.8,220.4,109.3z M223,102.6c-0.1,0.4-0.1,0.8-0.2,1.3s-0.1,1.1-0.1,1.9s0,1.4,0.1,1.9c0.1,0.5,0.1,1,0.3,1.4
		c0.1,0.4,0.3,0.7,0.5,0.9c0.4,0.3,1.1,0.5,2.1,0.5c0.9,0,1.6-0.2,2-0.5c0.6-0.5,0.9-1.9,0.9-4.3c0-1.6-0.1-2.6-0.2-3.1
		c-0.2-0.5-0.3-0.9-0.4-1.1s-0.3-0.4-0.6-0.5c-0.4-0.2-0.9-0.3-1.4-0.3s-0.9,0-1.1,0c-0.2,0-0.4,0.1-0.7,0.1
		c-0.2,0.1-0.4,0.2-0.6,0.3s-0.3,0.3-0.4,0.6C223.1,102,223.1,102.3,223,102.6z"/>
	<path class="st1" d="M241,98.2c1.2,0,2.1,0.3,2.7,1c0.7,0.8,1.1,2,1.1,3.6c0,1.9-0.4,3.2-1.1,3.8c-0.2,0.2-0.4,0.3-0.6,0.4
		c-0.1,0.1-0.3,0.1-0.6,0.2l2.7,5.8h-3l-2.3-5.6l-2.4-0.3v5.9h-2.7V98.2H241z M237.6,104.9h3.2c0.5,0,0.9-0.1,1.1-0.4
		c0.2-0.3,0.3-0.8,0.3-1.6c0-0.8-0.1-1.4-0.3-1.7c-0.2-0.3-0.6-0.5-1-0.5h-3.2V104.9z"/>
	<path class="st1" d="M248.1,113l4.7-14.8h3l4.6,14.8h-2.9l-1-3.3H252l-1,3.3H248.1z M252.7,107.2h3.3l-1.6-5.3L252.7,107.2z"/>
	<path class="st1" d="M263.8,100c0.5-0.9,1.2-1.5,2.1-1.8c0.5-0.1,1.1-0.2,1.7-0.2c1.8,0,3.5,0.2,4.9,0.7v2.2c-0.2,0-0.4,0-0.5-0.1
		c-0.2,0-0.3,0-0.6-0.1c-0.2,0-0.5,0-0.7-0.1c-0.3,0-0.5,0-0.8-0.1c-0.6,0-1.1-0.1-1.6-0.1c-0.5,0-0.8,0-1.1,0.1s-0.5,0.2-0.8,0.4
		s-0.4,0.5-0.5,0.8c-0.3,0.8-0.4,2-0.4,3.7c0,1.7,0.2,3,0.6,3.7c0.4,0.8,1.1,1.1,2.2,1.1c1.2,0,2.4,0,3.6-0.1l0.6,0v2.2
		c-1.1,0.4-2.6,0.6-4.4,0.6c-0.1,0-0.3,0-0.4,0c-1.7,0-2.9-0.7-3.7-1.9s-1.1-3.2-1.1-5.7C262.8,102.9,263.1,101.1,263.8,100z"/>
	<path class="st1" d="M276,110.1V98.2h2.7v11.2c0,0.5,0.1,0.8,0.4,0.9c0.2,0.1,0.5,0.1,0.8,0.1h4.8v2.6h-5.8
		C277,113,276,112,276,110.1z"/>
	<path class="st1" d="M289.2,98.7c0.3-0.2,0.6-0.3,0.9-0.4c0.3-0.1,0.6-0.1,0.7-0.1c0.2,0,1.1,0,2.8,0.1c1.7,0,2.9,0.1,3.7,0.3v2.3
		h-5.5c-0.5,0-0.8,0.1-0.9,0.4c-0.1,0.2-0.1,0.4-0.1,0.8v2.3l5.7,0.2v2.3l-5.7,0.2v2.3c0,0.5,0.1,0.8,0.4,0.9
		c0.2,0.1,0.5,0.1,0.8,0.1h5.3v2.3c-0.6,0.1-2.2,0.2-4.7,0.3l-1.2,0.1c-0.1,0-0.2,0-0.4,0c-0.1,0-0.3,0-0.5,0
		c-0.2,0-0.5-0.1-0.8-0.2c-0.3-0.1-0.6-0.3-0.8-0.5c-0.5-0.5-0.8-1.2-0.8-2.2v-8.8C288.2,100,288.5,99.2,289.2,98.7z"/>
</g>
<g>
	<path class="st1" d="M71.3,443.8v-16.6h3.1v7.1h5.5v-7.1H83v16.6h-3.1v-6.6h-5.5v6.6H71.3z"/>
	<path class="st1" d="M88.6,427.8c0.4-0.2,0.7-0.4,1.1-0.5c0.4-0.1,0.6-0.1,0.9-0.1c0.2,0,1.3,0,3.2,0.1c1.9,0.1,3.3,0.1,4.3,0.3
		v2.6h-6.3c-0.5,0-0.9,0.1-1,0.4c-0.1,0.2-0.1,0.5-0.1,0.9v2.6l6.5,0.2v2.6l-6.5,0.2v2.6c0,0.6,0.2,0.9,0.5,1
		c0.2,0.1,0.5,0.1,0.9,0.1H98v2.6c-0.7,0.1-2.5,0.2-5.4,0.3l-1.4,0.1c-0.1,0-0.3,0-0.4,0c-0.2,0-0.4,0-0.6,0c-0.2,0-0.5-0.1-0.9-0.2
		c-0.4-0.1-0.7-0.3-0.9-0.5c-0.6-0.5-0.9-1.4-0.9-2.5v-9.9C87.4,429.3,87.8,428.3,88.6,427.8z"/>
	<path class="st1" d="M101.5,427.2h3.3l3.6,12.3l2.9-12.3h3.3l-1.1,4.3l2.5,8.1l2.9-12.4h3.2l-4.4,16.6h-3.6L112,437l-1.9,6.8h-3.6
		L101.5,427.2z"/>
	<path class="st1" d="M126.1,440.6v-13.4h3.1v12.5c0,0.6,0.2,0.9,0.5,1c0.2,0.1,0.5,0.1,0.9,0.1h5.5v2.9h-6.6
		C127.2,443.8,126.1,442.7,126.1,440.6z"/>
	<path class="st1" d="M141.2,427.8c0.4-0.2,0.7-0.4,1.1-0.5c0.4-0.1,0.6-0.1,0.9-0.1c0.2,0,1.3,0,3.2,0.1c1.9,0.1,3.3,0.1,4.3,0.3
		v2.6h-6.3c-0.5,0-0.9,0.1-1,0.4c-0.1,0.2-0.1,0.5-0.1,0.9v2.6l6.5,0.2v2.6l-6.5,0.2v2.6c0,0.6,0.2,0.9,0.5,1
		c0.2,0.1,0.5,0.1,0.9,0.1h6.1v2.6c-0.7,0.1-2.5,0.2-5.4,0.3l-1.4,0.1c-0.1,0-0.3,0-0.4,0c-0.2,0-0.4,0-0.6,0
		c-0.2,0-0.5-0.1-0.9-0.2c-0.4-0.1-0.7-0.3-0.9-0.5c-0.6-0.5-0.9-1.4-0.9-2.5v-9.9C140,429.3,140.4,428.3,141.2,427.8z"/>
	<path class="st1" d="M154,430.1v-2.9h11.9v2.9h-4.5v13.7h-3.1v-13.7H154z"/>
	<path class="st1" d="M169.3,430.1v-2.9h11.9v2.9h-4.5v13.7h-3.1v-13.7H169.3z"/>
	<path class="st1" d="M192.6,443.8v-16.6h6.9c1.6,0,2.7,0.5,3.5,1.4c0.7,0.8,1,2.1,1,3.7c0,1-0.1,1.8-0.3,2.5s-0.4,1.2-0.7,1.6
		c-0.3,0.4-0.6,0.7-1.1,0.9c-0.6,0.3-1.2,0.4-1.9,0.4c-0.5,0-1.3-0.1-2.5-0.2c-1.1-0.1-1.7-0.2-1.8-0.2v6.6H192.6z M199.2,430h-3.6
		v4.9h3.6c0.4,0,0.6-0.1,0.9-0.2c0.5-0.3,0.7-1.1,0.7-2.3C200.8,430.8,200.3,430,199.2,430z"/>
	<path class="st1" d="M205.6,443.8l5.4-16.6h3.5l5.2,16.6h-3.3l-1.1-3.7h-5.3l-1.2,3.7H205.6z M210.9,437.3h3.7l-1.8-5.9
		L210.9,437.3z"/>
	<path class="st1" d="M223.6,429.2c0.6-1,1.4-1.7,2.4-2c0.6-0.2,1.2-0.2,1.9-0.2c2.1,0,4,0.2,5.6,0.7v2.5c-0.2,0-0.4-0.1-0.6-0.1
		c-0.2,0-0.4,0-0.6-0.1c-0.2,0-0.5,0-0.8-0.1s-0.6,0-0.9-0.1c-0.7,0-1.3-0.1-1.8-0.1s-1,0-1.3,0.1c-0.3,0.1-0.6,0.2-0.9,0.4
		c-0.3,0.2-0.5,0.5-0.6,0.9c-0.3,0.9-0.4,2.3-0.4,4.2s0.2,3.3,0.6,4.2c0.4,0.9,1.3,1.3,2.5,1.3c1.4,0,2.8,0,4.2-0.1l0.7,0v2.5
		c-1.3,0.4-3,0.6-5.1,0.6c-0.2,0-0.3,0-0.5,0c-2,0-3.4-0.7-4.2-2.2s-1.3-3.6-1.3-6.4C222.5,432.5,222.9,430.5,223.6,429.2z"/>
	<path class="st1" d="M237.6,443.8v-16.6h2.9v6.9h1.3l4.1-6.9h3.6l-4.9,8.3l4.9,8.3H246l-4.1-6.8h-1.3v6.8H237.6z"/>
	<path class="st1" d="M253,443.8l5.4-16.6h3.5l5.2,16.6h-3.3l-1.1-3.7h-5.3l-1.2,3.7H253z M258.3,437.3h3.7l-1.8-5.9L258.3,437.3z"
		/>
	<path class="st1" d="M277.8,427.2c1.4,0,2.4,0.4,3.1,1.1c0.8,0.9,1.2,2.2,1.2,4.1c0,2.1-0.4,3.5-1.3,4.2c-0.3,0.2-0.5,0.4-0.6,0.4
		s-0.4,0.1-0.6,0.2l3,6.5h-3.5l-2.7-6.3l-2.7-0.3v6.6h-3.1v-16.6H277.8z M273.9,434.7h3.6c0.6,0,1-0.2,1.2-0.5
		c0.2-0.3,0.4-0.9,0.4-1.8c0-0.9-0.1-1.6-0.4-1.9c-0.3-0.3-0.7-0.5-1.2-0.5h-3.6V434.7z"/>
	<path class="st1" d="M285.8,430.1v-2.9h11.9v2.9h-4.5v13.7h-3.1v-13.7H285.8z"/>
</g>
<g id="kaspersky">
	<path class="st1" d="M72,384.3v-16.6h2.9v6.9h1.3l4.1-6.9h3.6l-4.9,8.3l4.9,8.3h-3.6l-4.1-6.8h-1.3v6.8H72z"/>
	<path class="st1" d="M87.3,384.3l5.4-16.6h3.5l5.2,16.6h-3.3l-1.1-3.7h-5.3l-1.2,3.7H87.3z M92.6,377.8h3.7l-1.8-5.9L92.6,377.8z"
		/>
	<path class="st1" d="M104.4,373.3v-1.4c0-1.6,0.4-2.7,1.2-3.4c0.8-0.6,1.8-0.9,3.1-0.9c0.2,0,0.5,0,1.1,0c0.6,0,1.4,0.1,2.5,0.2
		c1.1,0.1,2,0.3,2.6,0.5v2.5c-1.7-0.2-3-0.2-4-0.2c-1,0-1.5,0-1.6,0c-0.7,0-1.1,0.1-1.4,0.3c-0.3,0.2-0.5,0.6-0.5,1.3v0.8
		c0,0.6,0.1,1.1,0.4,1.3c0.2,0.2,0.7,0.3,1.3,0.3h2.5c1.7,0,2.8,0.7,3.4,2.1c0.3,0.7,0.4,1.5,0.4,2.3v1.1c0,2-0.7,3.3-2,4
		c-0.7,0.3-1.5,0.5-2.5,0.5c-2.6,0-4.7-0.2-6.2-0.7v-2.5c1.6,0.2,3,0.2,4.2,0.2s1.9,0,2.1,0s0.4-0.1,0.6-0.2
		c0.4-0.2,0.7-0.6,0.7-1.2v-0.9c0-0.8-0.2-1.3-0.7-1.5c-0.2-0.1-0.4-0.1-0.7-0.1h-2.5C105.8,377.7,104.4,376.2,104.4,373.3z"/>
	<path class="st1" d="M119.6,384.3v-16.6h6.9c1.6,0,2.7,0.5,3.5,1.4c0.7,0.8,1,2.1,1,3.7c0,1-0.1,1.8-0.3,2.5s-0.4,1.2-0.7,1.6
		c-0.3,0.4-0.6,0.7-1.1,0.9c-0.6,0.3-1.2,0.4-1.9,0.4c-0.5,0-1.3-0.1-2.5-0.2c-1.1-0.1-1.7-0.2-1.8-0.2v6.6H119.6z M126.2,370.5
		h-3.6v4.9h3.6c0.4,0,0.6-0.1,0.9-0.2c0.5-0.3,0.7-1.1,0.7-2.3C127.8,371.3,127.3,370.5,126.2,370.5z"/>
	<path class="st1" d="M136.3,368.3c0.4-0.2,0.7-0.4,1.1-0.5c0.4-0.1,0.6-0.1,0.9-0.1c0.2,0,1.3,0,3.2,0.1c1.9,0.1,3.3,0.1,4.3,0.3
		v2.6h-6.3c-0.5,0-0.9,0.1-1,0.4c-0.1,0.2-0.1,0.5-0.1,0.9v2.6l6.5,0.2v2.6l-6.5,0.2v2.6c0,0.6,0.2,0.9,0.5,1
		c0.2,0.1,0.5,0.1,0.9,0.1h6.1v2.6c-0.7,0.1-2.5,0.2-5.4,0.3l-1.4,0.1c-0.1,0-0.3,0-0.4,0c-0.2,0-0.4,0-0.6,0
		c-0.2,0-0.5-0.1-0.9-0.2c-0.4-0.1-0.7-0.3-0.9-0.5c-0.6-0.5-0.9-1.4-0.9-2.5v-9.9C135.1,369.8,135.5,368.8,136.3,368.3z"/>
	<path class="st1" d="M156.6,367.7c1.4,0,2.4,0.4,3.1,1.1c0.8,0.9,1.2,2.2,1.2,4.1c0,2.1-0.4,3.5-1.3,4.2c-0.3,0.2-0.5,0.4-0.6,0.4
		s-0.4,0.1-0.6,0.2l3,6.5H158l-2.7-6.3l-2.7-0.3v6.6h-3.1v-16.6H156.6z M152.7,375.2h3.6c0.6,0,1-0.2,1.2-0.5
		c0.2-0.3,0.4-0.9,0.4-1.8c0-0.9-0.1-1.6-0.4-1.9c-0.3-0.3-0.7-0.5-1.2-0.5h-3.6V375.2z"/>
	<path class="st1" d="M165.1,373.3v-1.4c0-1.6,0.4-2.7,1.2-3.4c0.8-0.6,1.8-0.9,3.1-0.9c0.2,0,0.5,0,1.1,0c0.6,0,1.4,0.1,2.5,0.2
		c1.1,0.1,2,0.3,2.6,0.5v2.5c-1.7-0.2-3-0.2-4-0.2c-1,0-1.5,0-1.6,0c-0.7,0-1.1,0.1-1.4,0.3c-0.3,0.2-0.5,0.6-0.5,1.3v0.8
		c0,0.6,0.1,1.1,0.4,1.3c0.2,0.2,0.7,0.3,1.3,0.3h2.5c1.7,0,2.8,0.7,3.4,2.1c0.3,0.7,0.4,1.5,0.4,2.3v1.1c0,2-0.7,3.3-2,4
		c-0.7,0.3-1.5,0.5-2.5,0.5c-2.6,0-4.7-0.2-6.2-0.7v-2.5c1.6,0.2,3,0.2,4.2,0.2s1.9,0,2.1,0s0.4-0.1,0.6-0.2
		c0.4-0.2,0.7-0.6,0.7-1.2v-0.9c0-0.8-0.2-1.3-0.7-1.5c-0.2-0.1-0.4-0.1-0.7-0.1h-2.5C166.5,377.7,165.1,376.2,165.1,373.3z"/>
	<path class="st1" d="M180.5,384.3v-16.6h2.9v6.9h1.3l4.1-6.9h3.6l-4.9,8.3l4.9,8.3h-3.6l-4.1-6.8h-1.3v6.8H180.5z"/>
	<path class="st1" d="M203.8,384.3h-3.1v-5.1l-4.9-11.4h3.3l3.1,8l3.4-8h3.3l-5.3,11.4V384.3z"/>
</g>
<polygon class="st1" points="61.3,360.5 183.8,361 183.8,359.5 61.3,359.1 "/>
<polygon class="st1" points="61.3,357.6 183.8,358 183.8,357.6 61.3,357.1 "/>
<polygon class="st1" points="61.6,355.6 183.3,356.1 183.3,354.6 61.6,354.2 "/>
<polygon class="st1" points="61.3,397.5 183.8,397.9 183.8,396.4 61.3,396 "/>
<polygon class="st1" points="61.3,394.5 183.8,394.9 183.8,394.5 61.3,394.1 "/>
<polygon class="st1" points="61.6,392.6 183.3,393 183.3,391.6 61.6,391.1 "/>
<polygon class="st1" points="61.3,421.8 183.8,422.3 183.8,420.8 61.3,420.4 "/>
<polygon class="st1" points="61.3,418.9 183.8,419.3 183.8,418.9 61.3,418.4 "/>
<polygon class="st1" points="61.6,416.9 183.3,417.4 183.3,415.9 61.6,415.5 "/>
<polygon class="st1" points="61.3,455.9 183.8,456.4 183.8,454.9 61.3,454.5 "/>
<polygon class="st1" points="61.3,453 183.8,453.4 183.8,453 61.3,452.5 "/>
<polygon class="st1" points="61.6,451 183.3,451.5 183.3,450.1 61.6,449.6 "/>
<polygon class="st1" points="201.6,125.3 312.7,125.7 312.7,124.2 201.6,123.8 "/>
<polygon class="st1" points="201.6,122.3 312.7,122.7 312.7,122.2 201.6,121.8 "/>
<polygon class="st1" points="201.6,120.3 312.7,120.7 312.7,119.2 201.6,118.8 "/>
<polygon class="st1" points="201.6,94 312.7,94.4 312.7,92.9 201.6,92.5 "/>
<polygon class="st1" points="201.6,90.9 312.7,91.4 312.7,90.9 201.6,90.5 "/>
<polygon class="st1" points="201.6,88.9 312.7,89.4 312.7,87.9 201.6,87.5 "/>
<polygon class="st1" points="201.6,70.9 312.7,71.3 312.7,69.8 201.6,69.4 "/>
<polygon class="st1" points="201.6,67.9 312.7,68.3 312.7,67.9 201.6,67.4 "/>
<polygon class="st1" points="201.6,65.9 312.7,66.3 312.7,64.9 201.6,64.4 "/>
<polygon class="st1" points="201.6,35.4 312.7,35.9 312.7,34.4 201.6,34 "/>
<polygon class="st1" points="201.6,32.4 312.7,32.9 312.7,32.4 201.6,32 "/>
<polygon class="st1" points="201.6,30.4 312.7,30.9 312.7,29.4 201.6,29 "/>
<g>
	<polygon class="st2" points="146.4,122.3 144.8,122.3 144.4,168.2 146,169.9 	"/>
	<polygon class="st2" points="142.7,122.3 142.3,165.9 142.8,166.4 143.1,122.3 	"/>
	<polygon class="st2" points="139.4,122.3 139.1,162.5 140.6,164.2 141,122.3 	"/>
</g>
<g>
	<polygon class="st2" points="297.8,277.1 297.8,275.5 263.6,275.1 264.7,276.7 	"/>
	<polygon class="st2" points="297.8,273.8 297.8,273.3 262.2,272.8 262.5,273.3 	"/>
	<polygon class="st2" points="297.8,269.9 260.1,269.5 261.1,271.1 297.8,271.6 	"/>
</g>
<g>
	<polygon id="XMLID_2394_" class="st3" points="48.1,133.7 48.1,135.3 -45,134.8 -45,133.2 	"/>
	<polygon id="XMLID_2392_" class="st3" points="48.1,131.5 48.1,132 -45,131.5 -45,131 	"/>
	<polygon id="XMLID_2390_" class="st3" points="48.1,128.3 48.1,129.8 -45,129.4 -45,127.8 	"/>
</g>
<polygon class="st2" points="165.6,75.2 165.1,159.9 166.7,159.9 167.2,75.2 "/>
<polygon class="st2" points="163,159.9 163.5,159.9 163.9,75.2 163.4,75.2 "/>
<polygon class="st2" points="159.8,159.9 161.3,159.9 161.8,75.2 160.2,75.2 "/>
<g>
	<polygon class="st2" points="108.4,210.7 106.8,208.8 106.6,263.6 108.2,261.8 	"/>
	<polygon class="st2" points="104.7,206.2 104.4,266 104.9,265.4 105.1,206.8 	"/>
	<polygon class="st2" points="101.5,202.4 101.2,269.6 102.8,267.8 103,204.3 	"/>
</g>
<polygon class="st2" points="67.4,315.7 65.8,313.8 65.7,349 67.3,349 "/>
<polygon class="st2" points="63.7,311.2 63.5,349 64,349 64.1,311.8 "/>
<polygon class="st2" points="60.5,307.4 60.3,349 61.9,349 62,309.3 "/>
</svg>
