<?xml version="1.0" encoding="utf-8"?>
<!-- Generator: Adobe Illustrator 19.2.1, SVG Export Plug-In . SVG Version: 6.00 Build 0)  -->
<svg version="1.1" id="Capa_1" xmlns="http://www.w3.org/2000/svg" xmlns:xlink="http://www.w3.org/1999/xlink" x="0px" y="0px"
	 viewBox="0 0 1044.4 461.8" style="enable-background:new 0 0 1044.4 461.8;" xml:space="preserve">
<style type="text/css">
	.st0{fill:#FFFFFF;}
	.st1{opacity:0.33;}
	.st2{opacity:0.33;fill:#FFFFFF;}
</style>
<g>
	<path class="st0" d="M306.2,171.9c-0.6-2-1-4.4-1.3-7.2c-0.3-2.7-0.4-6-0.4-9.7c0-3.7,0.2-7.1,0.6-10.3s1-5.8,1.7-8
		c0.7-2.2,1.6-4.1,2.8-5.6c1.2-1.6,2.4-2.8,3.6-3.7c1.2-0.9,2.7-1.6,4.5-2.1c2.9-0.8,6-1.2,9.4-1.2c3.4,0,5.8,0.1,7.5,0.2
		c1.6,0.2,3.4,0.5,5.2,1c1.8,0.5,3.3,1.2,4.5,2.1c1.2,0.9,2.4,2.1,3.6,3.7c1.2,1.6,2.1,3.4,2.7,5.6c1.5,4.8,2.2,11.1,2.2,18.7
		c0,11.1-1.6,18.9-4.8,23.2c-2.2,2.9-4.8,4.9-8,5.8c-4.4,1.3-10,1.7-16.7,1.2c-3.9-0.3-6.6-0.9-8.2-1.7c-1.6-0.9-2.9-1.8-4.1-2.9
		c-1.1-1-2.1-2.3-2.8-3.8C307.5,175.7,306.8,173.9,306.2,171.9z M315.1,143c-0.3,1.6-0.6,3.4-0.7,5.4c-0.1,2.1-0.2,4.7-0.2,7.9
		c0,3.2,0.2,6,0.5,8.4c0.3,2.4,0.7,4.5,1.3,6.1c0.6,1.7,1.5,2.9,2.7,3.7c2.1,1.4,5,2.2,8.7,2.2c3.7,0,6.4-0.3,8.2-0.8
		c1.7-0.5,3.2-1.6,4.4-3.1c1.2-1.6,2.1-3.7,2.5-6.4c0.4-2.7,0.7-5.8,0.7-9.3c0-3.4-0.1-6.1-0.2-8c-0.1-1.9-0.3-3.5-0.5-5
		c-0.2-1.4-0.5-2.7-0.9-3.8c-0.4-1.1-0.8-2.1-1.2-2.8c-0.4-0.8-0.9-1.4-1.6-2c-0.7-0.5-1.3-0.9-2-1.2c-0.6-0.3-1.4-0.5-2.3-0.7
		c-1.6-0.2-3.3-0.3-5.2-0.3c-1.9,0-3.3,0-4.1,0.1c-0.9,0.1-1.8,0.2-2.9,0.4c-1.1,0.2-1.9,0.5-2.5,0.9c-0.6,0.4-1.3,1-2,1.7
		c-0.7,0.7-1.2,1.6-1.6,2.7C315.8,140.1,315.4,141.5,315.1,143z M344.9,198.7c-1.6,0.4-3.2,0.7-4.9,0.7c-1.7,0-3.4-0.2-5-0.7
		c-1.6-0.4-3.1-1.1-4.5-2c-3.1-1.9-4.7-4.7-5.1-8.5h5.8c1.8,2.1,4.2,3.2,7.4,3.2c1.9,0,4-0.4,6.2-1.1V198.7z"/>
	<path class="st0" d="M359.4,171.2v-29.9h9.6v30c0,2.3,0.5,4,1.6,5c1.1,1.1,2.7,1.6,4.8,1.6c2.2,0,4.1-0.3,5.8-0.9
		c1.7-0.6,3.8-1.7,6.3-3.2v-32.5h9.6v44.2h-7.5l-2.2-4.8c-0.4,0.2-1.2,0.7-2.2,1.3c-1,0.6-1.7,1.1-2.2,1.4c-0.5,0.3-1.2,0.6-2.2,1.1
		c-0.9,0.4-1.8,0.8-2.5,1c-1.9,0.6-3.8,0.8-5.7,0.8c-4.6,0-8-1.4-10.1-4.2C360.4,179.3,359.4,175.6,359.4,171.2z"/>
	<path class="st0" d="M413.9,126.1c1.3,0,1.9,0.7,1.9,2.2v6.3c0,1.3-0.6,1.9-1.9,1.9h-7.1c-0.6,0-1-0.2-1.4-0.5
		c-0.4-0.4-0.6-0.8-0.6-1.4v-6.3c0-1.4,0.7-2.2,2-2.2H413.9z M405.4,185.5v-44.2h9.6v44.2H405.4z"/>
	<path class="st0" d="M426.1,146.4c1.7-2.2,3.7-3.7,6.2-4.4c2.5-0.7,5.3-1,8.4-1c3.1,0,5.4,0.1,6.9,0.2c1.5,0.1,3,0.3,4.5,0.7
		c1.5,0.4,2.7,0.9,3.6,1.6c0.9,0.7,1.7,1.7,2.4,2.8c1.4,2.1,2.1,5.6,2.1,10.6c0,7.2-4,10.7-12,10.7h-15.7c0,4.3,0.7,7.1,2.2,8.4
		c0.8,0.7,1.7,1.2,2.7,1.4c1,0.2,4,0.3,8.9,0.3c4.9,0,9.3-0.3,13.1-0.9v6.7c-4.5,1.6-11.9,2.3-22,2.3c-5.5,0-9.4-1.7-11.4-5
		c-2.1-3.4-3.1-9.2-3.1-17.6C422.8,155,423.9,149.4,426.1,146.4z M450.5,156.6c0-3.3-0.5-5.4-1.4-6.3c-0.9-0.9-3.1-1.3-6.5-1.3
		c-4.4,0-7,0.5-7.9,1.5c-1.2,1.3-1.8,2.8-2,4.5c-0.2,1.7-0.2,3.5-0.2,5.3h13.8C449.1,160.1,450.5,158.9,450.5,156.6z"/>
	<path class="st0" d="M495.4,155.5c0-4.5-1.9-6.7-5.8-6.7c-2.6,0-4.7,0.3-6.4,1c-1.7,0.6-3.8,1.7-6.3,3.2v32.6h-9.6v-44.2h7.5
		l2.2,4.9c0.2-0.1,0.8-0.5,1.8-1.2c1-0.7,2.1-1.3,3.1-1.9c1-0.6,2.5-1.2,4.3-1.7c1.8-0.6,3.7-0.8,5.7-0.8c4.6,0,8,1.4,10.1,4.2
		c2.2,2.8,3.2,6.4,3.2,10.8v29.9h-9.6V155.5z"/>
	<path class="st0" d="M514.4,146.4c1.7-2.2,3.7-3.7,6.2-4.4c2.5-0.7,5.3-1,8.4-1c3.1,0,5.4,0.1,6.9,0.2c1.5,0.1,3,0.3,4.5,0.7
		c1.5,0.4,2.7,0.9,3.6,1.6c0.9,0.7,1.7,1.7,2.4,2.8c1.4,2.1,2.1,5.6,2.1,10.6c0,7.2-4,10.7-12,10.7h-15.7c0,4.3,0.7,7.1,2.2,8.4
		c0.8,0.7,1.7,1.2,2.7,1.4c1,0.2,4,0.3,8.9,0.3c4.9,0,9.3-0.3,13.1-0.9v6.7c-4.5,1.6-11.9,2.3-22,2.3c-5.5,0-9.4-1.7-11.4-5
		c-2.1-3.4-3.1-9.2-3.1-17.6C511.2,155,512.2,149.4,514.4,146.4z M538.9,156.6c0-3.3-0.5-5.4-1.4-6.3c-0.9-0.9-3.1-1.3-6.5-1.3
		c-4.4,0-7,0.5-7.9,1.5c-1.2,1.3-1.8,2.8-2,4.5c-0.2,1.7-0.2,3.5-0.2,5.3h13.8C537.4,160.1,538.9,158.9,538.9,156.6z"/>
	<path class="st0" d="M565.6,140.9c4.3,0,8.7,0.2,13.4,0.5s7.8,0.8,9.5,1.4v6.4h-20.6c-1.8,0-2.9,0.3-3.4,0.8
		c-0.5,0.6-0.7,1.5-0.7,2.9v2.7c0,1.6,0.3,2.5,1,2.9c0.6,0.4,1.7,0.6,3.1,0.6h11.5c3.8,0,6.7,1,8.6,3.1c1.9,2.1,2.8,4.7,2.8,8.1v4.4
		c0,7.5-3.6,11.2-10.8,11.2c-4.2,0-8.9-0.2-14.1-0.6c-5.2-0.4-8.5-0.9-9.9-1.5v-6.3h21.5c2.4,0,3.6-1.1,3.6-3.4v-2.8
		c0-1.2-0.3-2-0.8-2.6c-0.5-0.6-1.5-0.9-2.8-0.9h-11.3c-4.1,0-7.1-0.9-9.1-2.6c-2-1.7-3-4.7-3-8.9v-3.8
		C554.2,144.8,558,140.9,565.6,140.9z"/>
</g>
<g id="XMLID_3876_" class="st1">
	<rect id="XMLID_3881_" x="0" y="293.7" class="st0" width="303" height="2.6"/>
	<rect id="XMLID_3879_" x="0" y="299" class="st0" width="303" height="0.8"/>
	<rect id="XMLID_3877_" x="0" y="302.4" class="st0" width="303" height="2.5"/>
</g>
<polygon class="st2" points="161.1,0 113.1,0 110.7,2.6 161.1,2.6 "/>
<polygon class="st2" points="161.1,6 161.1,5.3 108.2,5.3 107.4,6 "/>
<polygon class="st2" points="102.8,11.2 161.1,11.2 161.1,8.7 104.9,8.7 102.8,10.9 "/>
<g id="XMLID_3869_" class="st1">
	<rect id="XMLID_3874_" x="855.7" y="331.1" class="st0" width="188.7" height="2.6"/>
	<rect id="XMLID_3872_" x="855.7" y="336.3" class="st0" width="188.7" height="0.8"/>
	<rect id="XMLID_3870_" x="855.7" y="339.8" class="st0" width="188.7" height="2.5"/>
</g>
<polygon class="st2" points="784.4,412.1 688.7,412.1 685.9,414.6 784.4,414.6 "/>
<polygon class="st2" points="784.4,418.1 784.4,417.3 683,417.3 682.2,418.1 "/>
<polygon class="st2" points="784.4,423.3 784.4,420.8 679.2,420.8 676.5,423.3 "/>
<g id="XMLID_3785_" class="st1">
	<rect id="XMLID_3867_" x="493.1" y="229.2" class="st0" width="2.6" height="93.6"/>
	<rect id="XMLID_3788_" x="489.6" y="229.2" class="st0" width="0.8" height="93.6"/>
	<rect id="XMLID_3786_" x="484.4" y="229.2" class="st0" width="2.5" height="93.6"/>
</g>
<g>
	<g id="XMLID_3768_">
		<rect id="XMLID_3783_" x="494.8" y="328.1" class="st0" width="3.5" height="94.6"/>
		<rect id="XMLID_3781_" x="490.1" y="328.1" class="st0" width="1.1" height="94.6"/>
		<rect id="XMLID_3779_" x="482.9" y="328.1" class="st0" width="3.5" height="94.6"/>
	</g>
	<g id="XMLID_3737_">
		<rect id="XMLID_3754_" x="573.6" y="328.1" class="st0" width="3.5" height="94.6"/>
		<rect id="XMLID_3740_" x="568.8" y="328.1" class="st0" width="1.1" height="94.6"/>
		<rect id="XMLID_3738_" x="561.7" y="328.1" class="st0" width="3.5" height="94.6"/>
	</g>
	<g id="XMLID_3714_">
		<polygon id="XMLID_3735_" class="st0" points="501.1,327.5 501.1,335 526.7,376.7 529.1,373.1 		"/>
		<polygon id="XMLID_3718_" class="st0" points="501.1,345.1 523.5,381.5 524.2,380.4 501.1,342.8 		"/>
		<polygon id="XMLID_3716_" class="st0" points="501.1,360.2 518.7,388.8 521,385.3 501.1,352.8 		"/>
	</g>
	<g id="XMLID_3707_">
		<polygon id="XMLID_3712_" class="st0" points="558.6,327.5 519.4,391.6 524,391.6 558.6,335 		"/>
		<polygon id="XMLID_3710_" class="st0" points="558.6,345.1 558.6,342.8 528.8,391.6 530.2,391.6 		"/>
		<polygon id="XMLID_3708_" class="st0" points="558.6,360.2 558.6,352.8 534.9,391.6 539.5,391.6 		"/>
	</g>
</g>
<g>
	<g id="XMLID_3678_">
		<polygon id="XMLID_3705_" class="st0" points="587.2,346.9 659.6,346.9 659.6,343.3 590.6,343.3 587.2,346.3 		"/>
		<polygon id="XMLID_3682_" class="st0" points="659.6,337.9 659.6,336.8 597.9,336.8 596.6,337.9 		"/>
		<polygon id="XMLID_3680_" class="st0" points="659.6,328 607.9,328 603.9,331.5 659.6,331.5 		"/>
	</g>
	<g id="XMLID_3644_">
		<polygon id="XMLID_3676_" class="st0" points="606.2,422.4 606.2,350.1 602.6,350.1 602.6,419 605.6,422.4 		"/>
		<polygon id="XMLID_3647_" class="st0" points="597.3,350.1 596.2,350.1 596.2,411.7 597.3,413 		"/>
		<polygon id="XMLID_3645_" class="st0" points="587.3,350.1 587.3,401.7 590.9,405.7 590.9,350.1 		"/>
	</g>
	<g id="XMLID_3609_">
		<polygon id="XMLID_3635_" class="st0" points="681,403.4 608.6,403.4 608.6,407 677.6,407 681,404 		"/>
		<polygon id="XMLID_3612_" class="st0" points="608.6,412.3 608.6,413.4 670.3,413.4 671.6,412.3 		"/>
		<polygon id="XMLID_3610_" class="st0" points="608.6,422.3 660.3,422.3 664.3,418.7 608.6,418.7 		"/>
	</g>
	<g id="XMLID_3602_">
		<polygon id="XMLID_3607_" class="st0" points="662,327.9 662,400.2 665.6,400.2 665.6,331.3 662.6,327.9 		"/>
		<polygon id="XMLID_3605_" class="st0" points="670.9,400.2 672,400.2 672,338.5 670.9,337.3 		"/>
		<polygon id="XMLID_3603_" class="st0" points="680.9,400.2 680.9,348.6 677.3,344.6 677.3,400.2 		"/>
	</g>
</g>
<g>
	<g id="XMLID_3574_">
		<polygon id="XMLID_3579_" class="st0" points="378.8,231 451.1,231 451.1,227.4 382.2,227.4 378.8,230.4 		"/>
		<polygon id="XMLID_3577_" class="st0" points="451.1,222 451.1,220.9 389.4,220.9 388.2,222 		"/>
		<polygon id="XMLID_3575_" class="st0" points="451.1,212.1 399.5,212.1 395.4,215.6 451.1,215.6 		"/>
	</g>
	<g id="XMLID_3547_">
		<polygon id="XMLID_3572_" class="st0" points="397.8,306.5 397.8,234.1 394.1,234.1 394.1,303.1 397.2,306.5 		"/>
		<polygon id="XMLID_3551_" class="st0" points="388.8,234.1 387.7,234.1 387.7,295.8 388.8,297.1 		"/>
		<polygon id="XMLID_3548_" class="st0" points="378.9,234.1 378.9,285.8 382.4,289.8 382.4,234.1 		"/>
	</g>
	<g id="XMLID_3526_">
		<polygon id="XMLID_3538_" class="st0" points="472.5,287.5 400.2,287.5 400.2,291.1 469.1,291.1 472.5,288.1 		"/>
		<polygon id="XMLID_3536_" class="st0" points="400.2,296.4 400.2,297.5 461.9,297.5 463.1,296.4 		"/>
		<polygon id="XMLID_3527_" class="st0" points="400.2,306.4 451.8,306.4 455.8,302.8 400.2,302.8 		"/>
	</g>
	<g id="XMLID_3495_">
		<polygon id="XMLID_3516_" class="st0" points="453.5,212 453.5,284.3 457.1,284.3 457.1,215.4 454.1,212 		"/>
		<polygon id="XMLID_3513_" class="st0" points="462.5,284.3 463.6,284.3 463.6,222.6 462.5,221.4 		"/>
		<polygon id="XMLID_3498_" class="st0" points="472.4,284.3 472.4,232.7 468.9,228.6 468.9,284.3 		"/>
	</g>
</g>
<g>
	<rect id="XMLID_3489_" x="789.6" y="347.7" class="st0" width="3.6" height="17.7"/>
	<rect id="XMLID_3283_" x="796.9" y="347.7" class="st0" width="1.1" height="17.7"/>
	<rect id="XMLID_3281_" x="801.8" y="347.7" class="st0" width="3.6" height="17.7"/>
	<rect id="XMLID_3266_" x="832.9" y="386.8" class="st0" width="3.6" height="19.2"/>
	<rect id="XMLID_3149_" x="840.3" y="386.8" class="st0" width="1.1" height="19.2"/>
	<rect id="XMLID_3140_" x="845.1" y="386.8" class="st0" width="3.6" height="19.2"/>
	<polygon class="st0" points="806.7,329.7 801.5,333.7 849.2,333.7 849.2,329.7 	"/>
	<polygon class="st0" points="798.1,336.7 797.2,337.7 849.2,337.7 849.2,336.7 	"/>
	<polygon class="st0" points="792.9,340.7 788.6,343.7 849.2,343.7 849.2,340.7 	"/>
	<polygon class="st0" points="801.5,378.7 806.7,381.7 849.2,381.7 849.2,381.6 845.6,378.7 	"/>
	<polygon class="st0" points="797.2,374.7 798.1,375.7 843.1,375.7 842.2,374.7 	"/>
	<polygon class="st0" points="788.6,368.7 792.9,371.7 838.8,371.7 835.4,368.7 	"/>
	<polygon class="st0" points="831,423.7 836.2,419.7 791.2,419.7 791.2,423.7 	"/>
	<polygon class="st0" points="839.6,417.7 840.5,416.7 791.2,416.7 791.2,417.7 	"/>
	<polygon class="st0" points="844.8,413.7 849.1,410.7 791.2,410.7 791.2,413.7 	"/>
</g>
<g>
	<rect id="XMLID_3138_" x="308" y="229.9" class="st0" width="3.6" height="17.7"/>
	<rect id="XMLID_3129_" x="315.4" y="229.9" class="st0" width="1.1" height="17.7"/>
	<rect id="XMLID_3109_" x="320.2" y="229.9" class="st0" width="3.6" height="17.7"/>
	<rect id="XMLID_3107_" x="351.4" y="268.9" class="st0" width="3.6" height="19.2"/>
	<rect id="XMLID_3105_" x="358.7" y="268.9" class="st0" width="1.1" height="19.2"/>
	<rect id="XMLID_3103_" x="363.6" y="268.9" class="st0" width="3.6" height="19.2"/>
	<polygon class="st0" points="325.1,211.8 319.9,215.8 367.4,215.8 367.4,211.8 	"/>
	<polygon class="st0" points="316.5,218.8 315.7,219.8 367.4,219.8 367.4,218.8 	"/>
	<polygon class="st0" points="311.4,222.8 307.1,225.8 367.4,225.8 367.4,222.8 	"/>
	<polygon class="st0" points="319.9,260.8 325.1,263.8 367.4,263.8 367.4,263.8 364.1,260.8 	"/>
	<polygon class="st0" points="315.7,256.8 316.5,257.8 361.5,257.8 360.6,256.8 	"/>
	<polygon class="st0" points="307.1,250.8 311.4,253.8 357.2,253.8 353.8,250.8 	"/>
	<polygon class="st0" points="349.5,305.8 354.6,301.8 309.4,301.8 309.4,305.8 	"/>
	<polygon class="st0" points="358.1,299.8 358.9,298.8 309.4,298.8 309.4,299.8 	"/>
	<polygon class="st0" points="363.2,295.8 367.5,292.8 309.4,292.8 309.4,295.8 	"/>
</g>
<polygon class="st2" points="114.1,16.1 111.5,16.1 111.5,220.5 114.1,223.3 "/>
<polygon class="st2" points="108.1,16.1 108.1,216.8 108.8,217.7 108.8,16.1 "/>
<polygon class="st2" points="102.8,16.1 102.8,211.3 105.4,214 105.4,16.1 "/>
<polygon class="st2" points="119.4,212.2 119.4,214.8 303.5,214.8 306.6,212.2 "/>
<polygon class="st2" points="119.4,218.3 299.3,218.3 300.2,217.5 119.4,217.5 "/>
<polygon class="st2" points="119.4,223.5 292.9,223.5 296,220.9 119.4,220.9 "/>
<polygon class="st2" points="558.7,214.2 471.5,214.2 471.5,214.7 473.4,216.8 558.7,216.8 "/>
<polygon class="st2" points="558.7,220.3 558.7,219.5 475.9,219.5 476.6,220.3 "/>
<polygon class="st2" points="558.7,225.5 558.7,222.9 479.1,222.9 481.4,225.5 "/>
<polygon class="st2" points="362.3,303.6 362.3,387.2 364.8,387.2 364.8,301.6 "/>
<polygon class="st2" points="358.8,387.2 359.6,387.2 359.6,305.7 358.8,306.3 "/>
<polygon class="st2" points="353.6,387.2 356.1,387.2 356.1,308.3 353.6,310.3 "/>
<polygon class="st2" points="466.6,303.2 466.6,461.8 469.2,461.8 469.2,300.9 "/>
<polygon class="st2" points="463.1,461.8 463.9,461.8 463.9,305.6 463.1,306.3 "/>
<polygon class="st2" points="457.9,461.8 460.5,461.8 460.5,308.6 457.9,310.9 "/>
<polygon class="st2" points="677.6,333.5 678.1,230.6 674.6,230.6 674.1,329.9 677.5,333.5 "/>
<polygon class="st2" points="670,230.6 669.4,324.9 670.5,326 671,230.6 "/>
<polygon class="st2" points="663,230.6 662.4,317.4 665.8,321 666.4,230.6 "/>
<polygon class="st2" points="814.7,212.5 678.7,212.5 675,215 814.7,215 "/>
<polygon class="st2" points="814.7,218.5 814.7,217.7 671.2,217.7 670.1,218.5 "/>
<polygon class="st2" points="663,223.7 814.7,223.7 814.7,221.2 666.3,221.2 663,223.5 "/>
</svg>
