<?xml version="1.0" encoding="utf-8"?>
<!-- Generator: Adobe Illustrator 19.2.1, SVG Export Plug-In . SVG Version: 6.00 Build 0)  -->
<svg version="1.1" id="Capa_1" xmlns="http://www.w3.org/2000/svg" xmlns:xlink="http://www.w3.org/1999/xlink" x="0px" y="0px"
	 viewBox="0 0 269.3 199" style="enable-background:new 0 0 269.3 199;" xml:space="preserve">
<style type="text/css">
	.st0{fill:#FFFFFF;}
	.st1{enable-background:new    ;}
	.st2{opacity:0.33;}
</style>
<g>
	<g>
		<g>
			<g>
				<g id="XMLID_191_">
					<polygon class="st0" points="93.4,155.4 79.8,190.2 81.6,190.2 95.3,155.4 					"/>
				</g>
				<g id="XMLID_190_">
					<polygon class="st0" points="91.2,155.4 77.5,190.2 77.8,190.2 91.5,155.4 					"/>
				</g>
				<g id="XMLID_189_">
					<polygon class="st0" points="87.3,155.4 74.2,190.2 76,190.2 89.1,155.4 					"/>
				</g>
				<g id="XMLID_185_">
					<g id="XMLID_188_">
						<polygon class="st0" points="101.5,190.2 103.4,190.2 93.2,164.1 92.2,166.4 						"/>
					</g>
					<g id="XMLID_187_">
						<polygon class="st0" points="105.3,190.2 105.6,190.2 94.3,161.3 94.1,161.7 						"/>
					</g>
					<g id="XMLID_186_">
						<polygon class="st0" points="109,190.2 96.3,156.4 95.4,158.7 107.2,190.2 						"/>
					</g>
				</g>
			</g>
		</g>
		<g>
			<g>
				<g id="XMLID_165_">
					<rect x="60.3" y="163.3" class="st0" width="1.3" height="27.1"/>
				</g>
				<g id="XMLID_164_">
					<rect x="58" y="163.3" class="st0" width="0.4" height="27.1"/>
				</g>
				<g id="XMLID_163_">
					<rect x="54.8" y="163.3" class="st0" width="1.3" height="27.1"/>
				</g>
				<g id="XMLID_162_">
					<rect x="40.6" y="160.8" class="st0" width="35.2" height="1.3"/>
				</g>
				<g id="XMLID_161_">
					<rect x="40.6" y="158.4" class="st0" width="35.2" height="0.4"/>
				</g>
				<g id="XMLID_154_">
					<rect x="40.6" y="155.2" class="st0" width="35.2" height="1.3"/>
				</g>
			</g>
		</g>
	</g>
	<g>
		<g>
			<g>
				<g id="XMLID_184_">
					<polygon class="st0" points="125.5,101.1 111.9,135.9 113.7,135.9 127.4,101.1 					"/>
				</g>
				<g id="XMLID_183_">
					<polygon class="st0" points="123.3,101.1 109.6,135.9 109.9,135.9 123.6,101.1 					"/>
				</g>
				<g id="XMLID_182_">
					<polygon class="st0" points="119.3,101.1 106.3,135.9 108.1,135.9 121.2,101.1 					"/>
				</g>
				<g id="XMLID_178_">
					<g id="XMLID_181_">
						<polygon class="st0" points="133.6,135.9 135.4,135.9 125.2,109.9 124.3,112.2 						"/>
					</g>
					<g id="XMLID_180_">
						<polygon class="st0" points="137.4,135.9 137.7,135.9 126.4,107.1 126.2,107.4 						"/>
					</g>
					<g id="XMLID_179_">
						<polygon class="st0" points="141,135.9 128.4,102.2 127.4,104.5 139.2,135.9 						"/>
					</g>
				</g>
			</g>
		</g>
		<g>
			<g>
				<g>
					<g id="XMLID_160_">
						<rect x="94.6" y="107.9" class="st0" width="1.3" height="27.1"/>
					</g>
					<g id="XMLID_159_">
						<rect x="92.3" y="107.9" class="st0" width="0.4" height="27.1"/>
					</g>
					<g id="XMLID_158_">
						<rect x="89" y="107.9" class="st0" width="1.3" height="27.1"/>
					</g>
				</g>
				<g id="XMLID_157_">
					<rect x="74.9" y="105.4" class="st0" width="35.2" height="1.3"/>
				</g>
				<g id="XMLID_156_">
					<rect x="74.9" y="103" class="st0" width="35.2" height="0.4"/>
				</g>
				<g id="XMLID_155_">
					<rect x="74.9" y="99.8" class="st0" width="35.2" height="1.3"/>
				</g>
			</g>
		</g>
		<g>
			<g>
				<g id="XMLID_222_">
					<rect x="150.6" y="130.1" class="st0" width="15.8" height="1.3"/>
				</g>
				<g id="XMLID_221_">
					<rect x="150.6" y="132.8" class="st0" width="15.8" height="0.4"/>
				</g>
				<g id="XMLID_220_">
					<rect x="150.6" y="134.6" class="st0" width="15.8" height="1.3"/>
				</g>
				<g id="XMLID_219_">
					<rect x="150.6" y="100.9" class="st0" width="15.8" height="1.3"/>
				</g>
				<g id="XMLID_218_">
					<rect x="150.6" y="103.6" class="st0" width="15.8" height="0.4"/>
				</g>
				<g id="XMLID_217_">
					<rect x="150.6" y="105.3" class="st0" width="15.8" height="1.3"/>
				</g>
				<g id="XMLID_213_">
					<g>
						<polygon id="XMLID_216_" class="st0" points="143.7,106.9 143.7,129.6 145.4,131.5 145.4,105.2 						"/>
						<polygon id="XMLID_215_" class="st0" points="146.6,104.1 146.6,132.7 146.8,133 146.8,103.8 						"/>
						<polygon id="XMLID_214_" class="st0" points="148.3,102.4 148.3,134.6 149.7,136.1 149.7,101 						"/>
					</g>
				</g>
			</g>
		</g>
	</g>
	<g>
		<g>
			<g>
				<g id="XMLID_232_">
					<rect x="14.8" y="80.5" class="st0" width="15.8" height="1.3"/>
				</g>
				<g id="XMLID_231_">
					<rect x="14.8" y="83.1" class="st0" width="15.8" height="0.4"/>
				</g>
				<g id="XMLID_230_">
					<rect x="14.8" y="84.9" class="st0" width="15.8" height="1.3"/>
				</g>
				<g id="XMLID_229_">
					<rect x="14.8" y="51.2" class="st0" width="15.8" height="1.3"/>
				</g>
				<g id="XMLID_228_">
					<rect x="14.8" y="53.9" class="st0" width="15.8" height="0.4"/>
				</g>
				<g id="XMLID_227_">
					<rect x="14.8" y="55.7" class="st0" width="15.8" height="1.3"/>
				</g>
				<g id="XMLID_223_">
					<g>
						<polygon id="XMLID_226_" class="st0" points="7.8,57.2 7.8,79.9 9.6,81.8 9.6,55.5 						"/>
						<polygon id="XMLID_225_" class="st0" points="10.7,54.4 10.7,83 11,83.3 11,54.1 						"/>
						<polygon id="XMLID_224_" class="st0" points="12.4,52.7 12.4,84.9 13.9,86.5 13.9,51.3 						"/>
					</g>
				</g>
			</g>
		</g>
		<g>
			<g>
				<g id="XMLID_322_">
					<g id="XMLID_325_">
						<polygon class="st0" points="35.6,58.6 62,58.6 62,57.2 36.9,57.2 35.6,58.3 						"/>
					</g>
					<g id="XMLID_324_">
						<polygon class="st0" points="62,55.3 62,54.9 39.5,54.9 39.1,55.3 						"/>
					</g>
					<g id="XMLID_323_">
						<polygon class="st0" points="62,51.7 43.2,51.7 41.7,53 62,53 						"/>
					</g>
				</g>
				<g id="XMLID_318_">
					<g id="XMLID_321_">
						<polygon class="st0" points="42.6,86 42.6,59.7 41.2,59.7 41.2,84.8 42.3,86 						"/>
					</g>
					<g id="XMLID_320_">
						<polygon class="st0" points="39.3,59.7 38.9,59.7 38.9,82.2 39.3,82.6 						"/>
					</g>
					<g id="XMLID_319_">
						<polygon class="st0" points="35.7,59.7 35.7,78.5 37,80 37,59.7 						"/>
					</g>
				</g>
				<g id="XMLID_314_">
					<g id="XMLID_317_">
						<polygon class="st0" points="69.8,79.1 43.4,79.1 43.4,80.5 68.5,80.5 69.8,79.4 						"/>
					</g>
					<g id="XMLID_316_">
						<polygon class="st0" points="43.4,82.4 43.4,82.8 65.9,82.8 66.3,82.4 						"/>
					</g>
					<g id="XMLID_315_">
						<polygon class="st0" points="43.4,86 62.2,86 63.7,84.7 43.4,84.7 						"/>
					</g>
				</g>
				<g id="XMLID_310_">
					<g id="XMLID_313_">
						<polygon class="st0" points="62.9,51.7 62.9,78 64.2,78 64.2,52.9 63.1,51.7 						"/>
					</g>
					<g id="XMLID_312_">
						<polygon class="st0" points="66.1,78 66.5,78 66.5,55.5 66.1,55.1 						"/>
					</g>
					<g id="XMLID_311_">
						<polygon class="st0" points="69.7,78 69.7,59.2 68.5,57.7 68.5,78 						"/>
					</g>
				</g>
			</g>
		</g>
	</g>
	<g>
		<g>
			<g id="XMLID_256_">
				<g id="XMLID_259_">
					<rect x="116" y="155.7" class="st0" width="1.3" height="34.4"/>
				</g>
				<g id="XMLID_258_">
					<rect x="114.3" y="155.7" class="st0" width="0.4" height="34.4"/>
				</g>
				<g id="XMLID_257_">
					<rect x="111.7" y="155.7" class="st0" width="1.3" height="34.4"/>
				</g>
			</g>
			<g id="XMLID_252_">
				<g id="XMLID_255_">
					<rect x="137.5" y="155.7" class="st0" width="1.3" height="34.4"/>
				</g>
				<g id="XMLID_254_">
					<rect x="135.8" y="155.7" class="st0" width="0.4" height="34.4"/>
				</g>
				<g id="XMLID_253_">
					<rect x="133.2" y="155.7" class="st0" width="1.3" height="34.4"/>
				</g>
			</g>
			<g id="XMLID_247_">
				<g id="XMLID_251_">
					<polygon class="st0" points="118.3,155.4 118.3,158.2 132.3,180.6 132.3,177.9 					"/>
				</g>
				<g id="XMLID_250_">
					<polygon class="st0" points="118.3,161.8 132.3,184.3 132.3,183.5 118.3,161 					"/>
				</g>
				<g id="XMLID_249_">
					<polygon class="st0" points="118.3,167.4 132.3,189.8 132.3,187.1 118.3,164.7 					"/>
				</g>
			</g>
		</g>
	</g>
	<g>
		<g>
			<g id="XMLID_269_">
				<g id="XMLID_272_">
					<rect x="79.2" y="52.2" class="st0" width="1.3" height="34.4"/>
				</g>
				<g id="XMLID_271_">
					<rect x="77.5" y="52.2" class="st0" width="0.4" height="34.4"/>
				</g>
				<g id="XMLID_270_">
					<rect x="74.9" y="52.2" class="st0" width="1.3" height="34.4"/>
				</g>
			</g>
			<g id="XMLID_264_">
				<g id="XMLID_268_">
					<rect x="100.7" y="52.2" class="st0" width="1.3" height="34.4"/>
				</g>
				<g id="XMLID_266_">
					<rect x="99" y="52.2" class="st0" width="0.4" height="34.4"/>
				</g>
				<g id="XMLID_265_">
					<rect x="96.4" y="52.2" class="st0" width="1.3" height="34.4"/>
				</g>
			</g>
			<g id="XMLID_260_">
				<g id="XMLID_263_">
					<polygon class="st0" points="81.5,52 81.5,54.7 95.6,77.2 95.6,74.5 					"/>
				</g>
				<g id="XMLID_262_">
					<polygon class="st0" points="81.5,58.4 95.6,80.8 95.6,80 81.5,57.5 					"/>
				</g>
				<g id="XMLID_261_">
					<polygon class="st0" points="81.5,63.9 95.6,86.3 95.6,83.6 81.5,61.2 					"/>
				</g>
			</g>
		</g>
	</g>
	<g>
		<g>
			<g id="XMLID_338_">
				<g id="XMLID_341_">
					<polygon class="st0" points="145.4,162.5 171.8,162.5 171.8,161.2 146.6,161.2 145.4,162.3 					"/>
				</g>
				<g id="XMLID_340_">
					<polygon class="st0" points="171.8,159.2 171.8,158.8 149.3,158.8 148.8,159.2 					"/>
				</g>
				<g id="XMLID_339_">
					<polygon class="st0" points="171.8,155.6 152.9,155.6 151.5,156.9 171.8,156.9 					"/>
				</g>
			</g>
			<g id="XMLID_334_">
				<g id="XMLID_337_">
					<polygon class="st0" points="152.3,190 152.3,163.6 151,163.6 151,188.7 152.1,190 					"/>
				</g>
				<g id="XMLID_336_">
					<polygon class="st0" points="149.1,163.6 148.7,163.6 148.7,186.1 149.1,186.5 					"/>
				</g>
				<g id="XMLID_335_">
					<polygon class="st0" points="145.4,163.6 145.4,182.4 146.7,183.9 146.7,163.6 					"/>
				</g>
			</g>
			<g id="XMLID_330_">
				<g id="XMLID_333_">
					<polygon class="st0" points="179.5,183.1 153.2,183.1 153.2,184.4 178.3,184.4 179.5,183.3 					"/>
				</g>
				<g id="XMLID_332_">
					<polygon class="st0" points="153.2,186.3 153.2,186.7 175.7,186.7 176.1,186.3 					"/>
				</g>
				<g id="XMLID_331_">
					<polygon class="st0" points="153.2,189.9 172,189.9 173.5,188.6 153.2,188.6 					"/>
				</g>
			</g>
			<g id="XMLID_326_">
				<g id="XMLID_329_">
					<polygon class="st0" points="172.6,155.6 172.6,181.9 173.9,181.9 173.9,156.8 172.8,155.6 					"/>
				</g>
				<g id="XMLID_328_">
					<polygon class="st0" points="175.9,181.9 176.3,181.9 176.3,159.5 175.9,159 					"/>
				</g>
				<g id="XMLID_327_">
					<polygon class="st0" points="179.5,181.9 179.5,163.1 178.2,161.6 178.2,181.9 					"/>
				</g>
			</g>
		</g>
	</g>
	<g>
		<g>
			<g id="XMLID_177_">
				<rect x="186.4" y="162.1" class="st0" width="1.3" height="6.4"/>
			</g>
			<g id="XMLID_176_">
				<rect x="189.1" y="162.1" class="st0" width="0.4" height="6.4"/>
			</g>
			<g id="XMLID_175_">
				<rect x="190.8" y="162.1" class="st0" width="1.3" height="6.4"/>
			</g>
			<g id="XMLID_174_">
				<rect x="202.2" y="176.3" class="st0" width="1.3" height="7"/>
			</g>
			<g id="XMLID_166_">
				<rect x="204.9" y="176.3" class="st0" width="0.4" height="7"/>
			</g>
			<g id="XMLID_153_">
				<rect x="206.6" y="176.3" class="st0" width="1.3" height="7"/>
			</g>
			<polygon class="st0" points="192.6,155.7 190.7,157.1 208.1,157.1 208.1,155.7 			"/>
			<polygon class="st0" points="189.5,158 189.2,158.3 208.1,158.3 208.1,158 			"/>
			<polygon class="st0" points="187.6,159.4 186.1,160.6 208.1,160.6 208.1,159.4 			"/>
			<polygon class="st0" points="190.7,173.2 192.6,174.6 208.1,174.6 208.1,174.4 206.8,173.2 			"/>
			<polygon class="st0" points="189.2,172.1 189.5,172.3 205.9,172.3 205.6,172.1 			"/>
			<polygon class="st0" points="186.1,169.8 187.6,170.9 204.3,170.9 203.1,169.8 			"/>
			<polygon class="st0" points="201.5,189.8 203.4,188.4 186.8,188.4 186.8,189.8 			"/>
			<polygon class="st0" points="204.6,187.5 204.9,187.3 186.8,187.3 186.8,187.5 			"/>
			<polygon class="st0" points="206.5,186.1 208.1,185 186.8,185 186.8,186.1 			"/>
		</g>
	</g>
	<rect x="115.7" y="78.3" class="st0" width="95.2" height="1.9"/>
	<rect x="115.7" y="85" class="st0" width="47.6" height="1.9"/>
	<g>
		<g class="st1">
			<path class="st0" d="M124.6,14c-0.4-1.6-1.7-2.6-3.3-2.6c-2.8,0-4,2.4-4,4.7s1.2,4.7,4,4.7c2,0,3.2-1.5,3.4-3.4h1
				c-0.3,2.6-1.9,4.3-4.5,4.3c-3.4,0-5.1-2.6-5.1-5.6c0-2.9,1.7-5.6,5.1-5.6c2,0,4,1.2,4.3,3.5H124.6z"/>
			<path class="st0" d="M127.1,16.1c0.1-1.8,1.3-2.6,3.1-2.6c1.4,0,2.9,0.4,2.9,2.5v4.1c0,0.4,0.2,0.6,0.6,0.6c0.1,0,0.2,0,0.3-0.1
				v0.8c-0.2,0-0.4,0.1-0.6,0.1c-1,0-1.1-0.6-1.1-1.3h0c-0.7,1-1.3,1.6-2.8,1.6c-1.4,0-2.6-0.7-2.6-2.3c0-2.2,2.1-2.2,4.2-2.5
				c0.8-0.1,1.2-0.2,1.2-1c0-1.3-0.9-1.6-2-1.6c-1.2,0-2,0.5-2.1,1.8H127.1z M132.1,17.3L132.1,17.3c-0.1,0.2-0.6,0.3-0.8,0.3
				c-1.6,0.3-3.6,0.3-3.6,1.8c0,0.9,0.8,1.5,1.7,1.5c1.5,0,2.7-0.9,2.7-2.4V17.3z"/>
			<path class="st0" d="M135,13.8h0.9v1.8h0c0.5-1.3,1.5-2,2.9-1.9v0.9c-1.7-0.1-2.9,1.2-2.9,2.8v4.1H135V13.8z"/>
			<path class="st0" d="M139.7,13.8h0.9v1.8h0c0.5-1.3,1.5-2,2.9-1.9v0.9c-1.7-0.1-2.9,1.2-2.9,2.8v4.1h-0.9V13.8z"/>
			<path class="st0" d="M144.7,17.9c0,1.4,0.8,3,2.5,3c1.4,0,2.1-0.8,2.4-2h0.9c-0.4,1.8-1.4,2.8-3.4,2.8c-2.5,0-3.5-1.9-3.5-4.1
				c0-2,1-4.1,3.5-4.1c2.5,0,3.5,2.2,3.4,4.3H144.7z M149.7,17.1c0-1.4-0.9-2.8-2.5-2.8c-1.6,0-2.4,1.4-2.5,2.8H149.7z"/>
			<path class="st0" d="M151.9,13.8h0.9v1.8h0c0.5-1.3,1.5-2,2.9-1.9v0.9c-1.7-0.1-2.9,1.2-2.9,2.8v4.1h-0.9V13.8z"/>
			<path class="st0" d="M156.6,16.1c0.1-1.8,1.3-2.6,3.1-2.6c1.4,0,2.8,0.4,2.8,2.5v4.1c0,0.4,0.2,0.6,0.6,0.6c0.1,0,0.2,0,0.3-0.1
				v0.8c-0.2,0-0.4,0.1-0.6,0.1c-1,0-1.1-0.6-1.1-1.3h0c-0.7,1-1.3,1.6-2.8,1.6c-1.4,0-2.6-0.7-2.6-2.3c0-2.2,2.1-2.2,4.2-2.5
				c0.8-0.1,1.2-0.2,1.2-1c0-1.3-0.9-1.6-2-1.6c-1.2,0-2,0.5-2.1,1.8H156.6z M161.6,17.3L161.6,17.3c-0.1,0.2-0.6,0.3-0.8,0.3
				c-1.6,0.3-3.6,0.3-3.6,1.8c0,0.9,0.8,1.5,1.7,1.5c1.5,0,2.7-0.9,2.7-2.4V17.3z"/>
			<path class="st0" d="M169.2,13c1.7,0,2.7-0.1,3-2h0.8v10.5h-0.9v-7.8h-2.8V13z"/>
			<path class="st0" d="M182.7,13.7c-0.2-1.2-1-2-2.2-2c-2.5,0-2.9,2.8-2.9,4.7h0c0.5-1,1.6-1.7,2.8-1.7c2.1,0,3.5,1.5,3.5,3.5
				s-1.5,3.6-3.6,3.6c-2.5,0-3.7-1.5-3.7-5.6c0-1.2,0.3-5.2,3.8-5.2c1.9,0,3,0.9,3.2,2.7H182.7z M177.8,18.2c0,1.5,0.8,2.7,2.6,2.7
				c1.5,0,2.5-1.2,2.5-2.7c0-1.5-0.9-2.8-2.5-2.8C178.7,15.5,177.8,16.7,177.8,18.2z"/>
			<path class="st0" d="M196,18.2h-1.7l-0.5,3.3h-0.8l0.5-3.3h-2.1l-0.5,3.3h-0.8l0.5-3.3h-1.7v-0.7h1.7l0.3-2.3h-1.7v-0.7h1.7
				l0.5-3.3h0.8l-0.5,3.3h2.1l0.5-3.3h0.8l-0.5,3.3h1.6v0.7h-1.7l-0.3,2.3h1.6V18.2z M191.9,15.1l-0.3,2.3h2.1l0.3-2.3H191.9z"/>
			<path class="st0" d="M197.7,11.1h6.8V12c-1.3,1.4-4,4.6-4.2,9.5h-1c0.2-3.6,1.4-6.2,4.3-9.5h-5.8V11.1z"/>
			<path class="st0" d="M206.9,19c0.2,1.2,1,1.9,2.2,1.9c2.5,0,2.9-2.8,2.9-4.7h0c-0.5,1-1.6,1.7-2.8,1.7c-2.1,0-3.5-1.5-3.5-3.5
				c0-2,1.5-3.6,3.6-3.6c2.5,0,3.7,1.5,3.7,5.6c0,1.2-0.3,5.2-3.8,5.2c-1.9,0-3-0.9-3.2-2.7H206.9z M211.8,14.4
				c0-1.5-0.8-2.7-2.6-2.7c-1.5,0-2.5,1.2-2.5,2.7c0,1.5,0.9,2.8,2.5,2.8C210.9,17.2,211.8,15.9,211.8,14.4z"/>
			<path class="st0" d="M214.5,17.8v-0.9h3.8v0.9H214.5z"/>
			<path class="st0" d="M219.9,11.1h6.7V12c-1.3,1.4-4,4.6-4.2,9.5h-1c0.2-3.6,1.4-6.2,4.3-9.5h-5.8V11.1z"/>
			<path class="st0" d="M234.1,13.7c-0.2-1.2-1-2-2.2-2c-2.5,0-2.9,2.8-2.9,4.7h0c0.5-1,1.6-1.7,2.8-1.7c2.1,0,3.5,1.5,3.5,3.5
				s-1.5,3.6-3.6,3.6c-2.5,0-3.7-1.5-3.7-5.6c0-1.2,0.3-5.2,3.7-5.2c1.9,0,3,0.9,3.2,2.7H234.1z M229.2,18.2c0,1.5,0.8,2.7,2.6,2.7
				c1.5,0,2.5-1.2,2.5-2.7c0-1.5-0.9-2.8-2.5-2.8C230.2,15.5,229.2,16.7,229.2,18.2z"/>
		</g>
		<g class="st1">
			<path class="st0" d="M121.3,30.6c3.4,0,5,2.6,5,5.6c0,2.9-1.7,5.6-5,5.6c-3.4,0-5.1-2.6-5.1-5.6
				C116.2,33.2,117.9,30.6,121.3,30.6z M121.3,40.9c2.8,0,4-2.4,4-4.7s-1.2-4.7-4-4.7c-2.8,0-4,2.4-4,4.7S118.4,40.9,121.3,40.9z"/>
			<path class="st0" d="M128.2,34.6h-1.3v-0.8h1.3v-0.7c0-1.3,0.3-2.3,1.9-2.3c0.3,0,0.5,0,0.8,0.1v0.8c-0.3,0-0.5-0.1-0.7-0.1
				c-1,0-1,0.7-1,1.5v0.7h1.5v0.8h-1.5v6.9h-0.9V34.6z M131.6,30.8h0.9v1.5h-0.9V30.8z M131.6,33.8h0.9v7.7h-0.9V33.8z"/>
			<path class="st0" d="M139.8,36.2c-0.3-1.2-0.9-1.9-2.2-1.9c-1.8,0-2.7,1.7-2.7,3.3s0.9,3.3,2.7,3.3c1.2,0,2.1-0.9,2.2-2.2h0.9
				c-0.3,1.9-1.5,3-3.2,3c-2.4,0-3.7-1.9-3.7-4.1s1.3-4.1,3.7-4.1c1.7,0,2.9,0.9,3.1,2.7H139.8z"/>
			<path class="st0" d="M142.2,30.8h0.9v1.5h-0.9V30.8z M142.2,33.8h0.9v7.7h-0.9V33.8z"/>
			<path class="st0" d="M144.9,33.8h0.9v1.3h0c0.4-0.9,1.4-1.6,2.5-1.6c2.2,0,2.8,1.1,2.8,3v5h-0.9v-4.8c0-1.3-0.4-2.3-2-2.3
				c-1.5,0-2.4,1.1-2.4,2.7v4.5h-0.9V33.8z"/>
			<path class="st0" d="M152.9,36.1c0.1-1.8,1.3-2.6,3.1-2.6c1.4,0,2.8,0.4,2.8,2.5v4.1c0,0.4,0.2,0.6,0.6,0.6c0.1,0,0.2,0,0.3-0.1
				v0.8c-0.2,0-0.4,0.1-0.6,0.1c-1,0-1.1-0.6-1.1-1.3h0c-0.7,1-1.3,1.6-2.8,1.6c-1.4,0-2.6-0.7-2.6-2.3c0-2.2,2.1-2.2,4.2-2.5
				c0.8-0.1,1.2-0.2,1.2-1c0-1.3-0.9-1.6-2-1.6c-1.2,0-2,0.5-2.1,1.8H152.9z M157.9,37.3L157.9,37.3c-0.1,0.2-0.6,0.3-0.8,0.3
				c-1.6,0.3-3.6,0.3-3.6,1.8c0,0.9,0.8,1.5,1.7,1.5c1.5,0,2.7-0.9,2.7-2.4V37.3z"/>
			<path class="st0" d="M164.5,38l4.9-7h0.9v7.1h1.6v0.8h-1.6v2.6h-0.9v-2.6h-4.8V38z M169.3,38.1v-5.7h0l-4,5.7H169.3z"/>
			<path class="st0" d="M180.2,36.3c0,2.5-0.6,5.4-3.7,5.4s-3.7-3-3.7-5.4c0-2.5,0.6-5.4,3.7-5.4S180.2,33.9,180.2,36.3z
				 M173.8,36.3c0,1.8,0.3,4.6,2.7,4.6c2.4,0,2.7-2.8,2.7-4.6c0-1.8-0.3-4.6-2.7-4.6C174.2,31.7,173.8,34.5,173.8,36.3z"/>
			<path class="st0" d="M181.2,38l4.9-7h0.9v7.1h1.6v0.8h-1.6v2.6H186v-2.6h-4.8V38z M186,38.1v-5.7h0l-4,5.7H186z"/>
		</g>
		<g class="st1">
			<path class="st0" d="M115.6,50.7h8.5v0.9h-3.7v9.8h-1v-9.8h-3.7V50.7z"/>
			<path class="st0" d="M123.8,57.8c0,1.4,0.8,3,2.5,3c1.4,0,2.1-0.8,2.4-2h0.9c-0.4,1.8-1.4,2.8-3.4,2.8c-2.5,0-3.5-1.9-3.5-4.1
				c0-2,1-4.1,3.5-4.1c2.5,0,3.5,2.2,3.4,4.3H123.8z M128.9,57c0-1.4-0.9-2.8-2.5-2.8c-1.6,0-2.4,1.4-2.5,2.8H128.9z"/>
			<path class="st0" d="M131.1,50.7h0.9v10.7h-0.9V50.7z"/>
			<path class="st0" d="M134.4,57.8c0,1.4,0.8,3,2.5,3c1.4,0,2.1-0.8,2.4-2h0.9c-0.4,1.8-1.4,2.8-3.4,2.8c-2.5,0-3.5-1.9-3.5-4.1
				c0-2,1-4.1,3.5-4.1c2.5,0,3.5,2.2,3.4,4.3H134.4z M139.4,57c0-1.4-0.9-2.8-2.5-2.8c-1.6,0-2.4,1.4-2.5,2.8H139.4z M137.2,52.5
				h-0.8l1.6-2.1h1.2L137.2,52.5z"/>
			<path class="st0" d="M144.6,54.5h-1.5v6.9h-0.9v-6.9h-1.3v-0.8h1.3V53c0-1.3,0.3-2.3,1.9-2.3c0.3,0,0.5,0,0.8,0.1v0.8
				c-0.3,0-0.5-0.1-0.7-0.1c-1,0-1,0.7-1,1.5v0.7h1.5V54.5z"/>
			<path class="st0" d="M152.4,57.5c0,2.2-1.3,4.1-3.7,4.1c-2.4,0-3.7-1.9-3.7-4.1s1.3-4.1,3.7-4.1
				C151.1,53.4,152.4,55.3,152.4,57.5z M146.1,57.5c0,1.6,0.9,3.3,2.7,3.3s2.7-1.7,2.7-3.3s-0.9-3.3-2.7-3.3S146.1,55.9,146.1,57.5z
				"/>
			<path class="st0" d="M153.8,53.7h0.9V55h0c0.4-0.9,1.4-1.6,2.5-1.6c2.2,0,2.8,1.1,2.8,3v5h-0.9v-4.8c0-1.3-0.4-2.3-2-2.3
				c-1.5,0-2.4,1.1-2.4,2.7v4.5h-0.9V53.7z"/>
			<path class="st0" d="M168.8,57.5c0,2.2-1.3,4.1-3.7,4.1c-2.4,0-3.7-1.9-3.7-4.1s1.3-4.1,3.7-4.1
				C167.5,53.4,168.8,55.3,168.8,57.5z M162.5,57.5c0,1.6,0.9,3.3,2.7,3.3s2.7-1.7,2.7-3.3s-0.9-3.3-2.7-3.3S162.5,55.9,162.5,57.5z
				"/>
			<path class="st0" d="M181.8,53.9h0.8v3.4h3.4V58h-3.4v3.4h-0.8V58h-3.4v-0.8h3.4V53.9z"/>
			<path class="st0" d="M188.2,58.4c0,1.5,1.1,2.4,2.6,2.4c1.6,0,2.6-1.3,2.6-2.9c0-1.5-1.1-2.7-2.7-2.7c-0.9,0-1.8,0.5-2.3,1.2
				h-0.8l1-5.4h5.2v0.9h-4.6l-0.7,3.5l0,0c0.5-0.6,1.4-1,2.2-1c2.2,0,3.5,1.5,3.5,3.6c0,2-1.6,3.6-3.6,3.6c-2,0-3.4-1.2-3.5-3.2
				H188.2z"/>
			<path class="st0" d="M195.8,51h6.7v0.9c-1.3,1.4-4,4.6-4.2,9.5h-1c0.2-3.6,1.4-6.2,4.3-9.5h-5.8V51z"/>
			<path class="st0" d="M209,58.1c-0.1,1.7,0.9,2.8,2.6,2.8c1.4,0,2.7-0.8,2.7-2.3s-1.1-2.2-2.5-2.2H211v-0.8h0.8
				c1,0,2.1-0.6,2.1-1.9c0-1.4-1-2-2.3-2c-1.6,0-2.4,1.1-2.4,2.7h-0.9c0-2,1.3-3.5,3.3-3.5c1.6,0,3.3,0.8,3.3,2.7
				c0,1.1-0.6,2-1.8,2.3v0c1.4,0.2,2.2,1.2,2.2,2.6c0,2.1-1.7,3.2-3.6,3.2c-2.2,0-3.7-1.3-3.6-3.6H209z"/>
			<path class="st0" d="M223.7,56.2c0,2.5-0.6,5.4-3.7,5.4c-3.1,0-3.7-3-3.7-5.4c0-2.5,0.6-5.4,3.7-5.4
				C223.1,50.8,223.7,53.8,223.7,56.2z M217.3,56.2c0,1.8,0.3,4.6,2.7,4.6c2.4,0,2.7-2.8,2.7-4.6c0-1.8-0.3-4.6-2.7-4.6
				C217.6,51.6,217.3,54.4,217.3,56.2z"/>
			<path class="st0" d="M230.8,53.6c-0.2-1.2-1-2-2.2-2c-2.5,0-2.9,2.8-2.9,4.7h0c0.5-1,1.6-1.7,2.8-1.7c2.1,0,3.5,1.5,3.5,3.5
				s-1.5,3.6-3.6,3.6c-2.5,0-3.7-1.5-3.7-5.6c0-1.2,0.3-5.2,3.8-5.2c1.9,0,3,0.9,3.2,2.7H230.8z M226,58.1c0,1.5,0.8,2.7,2.6,2.7
				c1.5,0,2.5-1.2,2.5-2.7c0-1.5-0.9-2.8-2.5-2.8C226.9,55.4,226,56.6,226,58.1z"/>
			<path class="st0" d="M234,58.1c-0.1,1.7,0.9,2.8,2.6,2.8c1.4,0,2.7-0.8,2.7-2.3s-1.1-2.2-2.5-2.2H236v-0.8h0.8
				c1,0,2.1-0.6,2.1-1.9c0-1.4-1-2-2.3-2c-1.6,0-2.4,1.1-2.4,2.7h-0.9c0-2,1.3-3.5,3.3-3.5c1.6,0,3.3,0.8,3.3,2.7
				c0,1.1-0.6,2-1.8,2.3v0c1.4,0.2,2.2,1.2,2.2,2.6c0,2.1-1.7,3.2-3.6,3.2c-2.2,0-3.8-1.3-3.6-3.6H234z"/>
			<path class="st0" d="M241.7,51h6.7v0.9c-1.3,1.4-4,4.6-4.2,9.5h-1c0.2-3.6,1.4-6.2,4.3-9.5h-5.8V51z"/>
			<path class="st0" d="M250.7,58.1c-0.1,1.7,0.9,2.8,2.6,2.8c1.4,0,2.7-0.8,2.7-2.3s-1.1-2.2-2.5-2.2h-0.8v-0.8h0.8
				c1,0,2.1-0.6,2.1-1.9c0-1.4-1-2-2.3-2c-1.6,0-2.4,1.1-2.4,2.7H250c0-2,1.3-3.5,3.3-3.5c1.6,0,3.3,0.8,3.3,2.7
				c0,1.1-0.6,2-1.8,2.3v0c1.4,0.2,2.2,1.2,2.2,2.6c0,2.1-1.7,3.2-3.6,3.2c-2.2,0-3.8-1.3-3.6-3.6H250.7z"/>
			<path class="st0" d="M263.2,55.7L263.2,55.7c1.4,0.3,2.1,1.3,2.1,2.7c0,2.1-1.6,3.2-3.6,3.2c-2,0-3.6-1-3.6-3.2
				c0-1.4,0.8-2.4,2.1-2.7v0c-1.1-0.3-1.7-1.2-1.7-2.3c0-1.8,1.6-2.6,3.2-2.6c1.6,0,3.2,0.8,3.2,2.6
				C264.9,54.6,264.3,55.4,263.2,55.7z M264.4,58.5c0-1.5-1.3-2.3-2.7-2.3c-1.4,0-2.7,0.8-2.7,2.3c0,1.6,1.2,2.4,2.7,2.4
				C263.2,60.8,264.4,60.1,264.4,58.5z M264,53.4c0-1.2-1-1.8-2.2-1.8c-1.2,0-2.2,0.6-2.2,1.8c0,1.4,1.1,2,2.2,2
				C262.9,55.4,264,54.8,264,53.4z"/>
		</g>
	</g>
	<g id="XMLID_2895_" class="st2">
		<rect id="XMLID_2900_" x="96.2" y="19.7" class="st0" width="1.4" height="28.7"/>
		<rect id="XMLID_2898_" x="99.1" y="19.7" class="st0" width="0.4" height="28.7"/>
		<rect id="XMLID_2896_" x="101" y="19.7" class="st0" width="1.4" height="28.7"/>
	</g>
	<g id="XMLID_3304_" class="st2">
		<rect id="XMLID_3621_" x="55.1" y="142.2" class="st0" width="1.4" height="11.1"/>
		<rect id="XMLID_3619_" x="58" y="142.2" class="st0" width="0.4" height="11.1"/>
		<rect id="XMLID_3616_" x="59.9" y="142.2" class="st0" width="1.4" height="11.1"/>
	</g>
	<g id="XMLID_2820_" class="st2">
		<rect id="XMLID_2863_" x="7.8" y="100.4" class="st0" width="65.4" height="1.4"/>
		<rect id="XMLID_2859_" x="7.8" y="103.2" class="st0" width="65.4" height="0.4"/>
		<rect id="XMLID_2855_" x="7.8" y="105.1" class="st0" width="65.4" height="1.4"/>
	</g>
	<g id="XMLID_2911_" class="st2">
		<rect id="XMLID_3376_" x="62.5" y="143.3" class="st0" width="79.7" height="1.4"/>
		<rect id="XMLID_3374_" x="62.5" y="146.1" class="st0" width="79.7" height="0.4"/>
		<rect id="XMLID_2964_" x="62.5" y="148" class="st0" width="79.7" height="1.4"/>
	</g>
	<g id="XMLID_2829_" class="st2">
		<rect id="XMLID_2907_" x="168.4" y="100.4" class="st0" width="39.7" height="1.4"/>
		<rect id="XMLID_2868_" x="168.4" y="103.2" class="st0" width="39.7" height="0.4"/>
		<rect id="XMLID_2866_" x="168.4" y="105.1" class="st0" width="39.7" height="1.4"/>
	</g>
	<g id="XMLID_2867_" class="st2">
		<rect id="XMLID_2961_" x="148.5" y="127" class="st0" width="1.4" height="22.8"/>
		<rect id="XMLID_2959_" x="146.6" y="127" class="st0" width="0.4" height="22.8"/>
		<rect id="XMLID_2910_" x="143.8" y="127" class="st0" width="1.4" height="22.8"/>
	</g>
</g>
</svg>
