<?xml version="1.0" encoding="utf-8"?>
<!-- Generator: Adobe Illustrator 19.2.1, SVG Export Plug-In . SVG Version: 6.00 Build 0)  -->
<svg version="1.1" id="Capa_1" xmlns="http://www.w3.org/2000/svg" xmlns:xlink="http://www.w3.org/1999/xlink" x="0px" y="0px"
	 viewBox="0 0 359.1 640" style="enable-background:new 0 0 359.1 640;" xml:space="preserve">
<style type="text/css">
	.st0{clip-path:url(#SVGID_2_);fill:#F5F5F5;}
</style>
<g>
	<defs>
		<rect id="SVGID_1_" width="359.1" height="640"/>
	</defs>
	<clipPath id="SVGID_2_">
		<use xlink:href="#SVGID_1_"  style="overflow:visible;"/>
	</clipPath>
	<polygon class="st0" points="247.7,219.6 225,259.7 228.8,259.7 251.7,219.6 	"/>
	<polygon class="st0" points="263.5,219.6 240.8,259.7 244.7,259.7 267.4,219.6 	"/>
	<polygon class="st0" points="257.2,219.6 234.1,259.7 234.8,259.7 257.8,219.6 	"/>
	<polygon class="st0" points="-43,638.2 -39.5,638.2 5,502.4 2.3,499.7 	"/>
	<polygon class="st0" points="89.1,385.1 86.6,382.5 41.7,402.7 40.3,407.1 	"/>
	<polygon class="st0" points="-27.2,434.1 -24.6,436.6 10.9,420.5 12.4,416.1 	"/>
	<polygon class="st0" points="82.9,378.5 82.5,378 44.3,395.2 44,395.9 	"/>
	<polygon class="st0" points="-31.5,429.7 -31.1,430.1 14.6,409.3 14.8,408.6 	"/>
	<polygon class="st0" points="-37.4,423.8 -34.9,426.3 16.9,402.5 18.3,398.2 	"/>
	<polygon class="st0" points="78.9,374.2 76.4,371.6 47.8,384.6 46.3,389 	"/>
	<polygon class="st0" points="78.2,285.1 74.6,285.1 62.1,322.3 64.7,324.9 	"/>
	<polygon class="st0" points="11.5,472.4 14.2,475.2 55.6,352.2 52.9,349.5 	"/>
	<polygon class="st0" points="69.1,285.1 68.5,285.1 57.5,317.7 58,318.1 	"/>
	<polygon class="st0" points="7,467.8 7.4,468.3 48.8,345.4 48.4,344.9 	"/>
	<polygon class="st0" points="63.3,285.1 59.7,285.1 51,311.1 53.7,313.8 	"/>
	<polygon class="st0" points="0.9,461.6 3.5,464.3 44.6,341.1 41.9,338.4 	"/>
	<polygon class="st0" points="91.1,361.9 90.7,356.6 10.4,275.7 7.1,277.2 	"/>
	<polygon class="st0" points="92.5,379.2 -4,282.1 -7.3,283.6 92.9,384.6 	"/>
	<polygon class="st0" points="91.8,371 91.8,370.1 1.6,279.7 1,279.9 	"/>
	<polygon class="st0" points="54.1,638.2 57.7,638.2 154.5,362.2 150.9,362.2 	"/>
	<polygon class="st0" points="48.1,638.2 48.6,638.2 145.4,362.2 144.8,362.2 	"/>
	<polygon class="st0" points="40.4,638.2 43.9,638.2 139.9,362.2 136.4,362.2 	"/>
	<polygon class="st0" points="219.5,362.1 230.2,394.8 233.7,394.8 223.1,362.1 	"/>
	<polygon class="st0" points="214.3,394.8 217.8,394.8 206.5,362.1 202.9,362.1 	"/>
	<polygon class="st0" points="224.3,394.8 224.8,394.8 213.9,362.1 213.3,362.1 	"/>
	<polygon class="st0" points="90.3,261.4 85.2,264.8 91.8,264.8 91.8,261.4 	"/>
	<polygon class="st0" points="60.8,281.4 91.8,281.4 91.8,277.9 65.9,277.9 	"/>
	<polygon class="st0" points="74.4,272.1 91.8,272.1 91.8,271.6 75.3,271.6 	"/>
	<polygon class="st0" points="242.5,418.6 237.4,415.1 244,415.1 244,418.6 	"/>
	<polygon class="st0" points="212.9,398.6 244,398.6 244,402.1 218.1,402.1 	"/>
	<polygon class="st0" points="226.6,407.8 244,407.8 244,408.4 227.4,408.4 	"/>
	<polygon class="st0" points="263.5,428.5 260.4,422 257.3,518.7 260.7,517.2 	"/>
	<polygon class="st0" points="255.5,412 255,411 251.5,521.3 252,521 	"/>
	<polygon class="st0" points="251.3,403.4 248.1,397.1 243.8,524.7 247.2,523.2 	"/>
	<path class="st0" d="M239.3,574.5L213,548c0,1.6,0,3.3,0,4.8l26.1,26.3L239.3,574.5z"/>
	<path class="st0" d="M238.4,599.4l0.2-4.7L213,568.8c0,1.7,0,3.4,0,4.9L238.4,599.4z"/>
	<path class="st0" d="M238.9,587.5l0-0.8l-25.9-26c0,0.3,0,0.5,0,0.8L238.9,587.5z"/>
	<polygon class="st0" points="7.5,82.4 4.9,79.8 -121.4,133 -119.2,135.3 	"/>
	<polygon class="st0" points="12,86.9 11.6,86.5 -114.9,139.5 -114.5,140 	"/>
	<polygon class="st0" points="18.2,93.1 15.5,90.4 -111,143.5 -108.4,146.1 	"/>
	<polygon class="st0" points="151.6,81.5 155,80.1 79.6,5.6 74.8,5.6 	"/>
	<polygon class="st0" points="136.8,87.7 140.3,86.2 58.8,5.6 53.9,5.6 	"/>
	<polygon class="st0" points="145.5,84 146.1,83.8 66.9,5.6 66.1,5.6 	"/>
	<polygon class="st0" points="225,552.4 227.5,554.9 317.9,514.1 317.6,510.5 	"/>
	<polygon class="st0" points="220.6,548 221.1,548.4 317.1,505.1 317.1,504.4 	"/>
	<polygon class="st0" points="214.7,542.1 217.3,544.6 316.6,499.6 316.3,496 	"/>
	<polygon class="st0" points="243,47.3 102.2,106.1 104.5,108.7 245.6,49.9 	"/>
	<polygon class="st0" points="-77.2,181.1 -75,183.4 77.4,120 75.2,117.5 	"/>
	<polygon class="st0" points="-70.7,187.7 -70.2,188.1 81.7,124.7 81.3,124.3 	"/>
	<polygon class="st0" points="249.7,54 108.4,113 108.8,113.4 250.2,54.4 	"/>
	<polygon class="st0" points="-66.8,191.6 -64.2,194.2 87.3,131 84.9,128.4 	"/>
	<polygon class="st0" points="253.7,57.9 112,117 114.4,119.7 256.3,60.6 	"/>
	<polygon class="st0" points="66.7,102.6 145.5,185.7 148.8,184.3 67.2,98.2 	"/>
	<polygon class="st0" points="69.9,77.1 69.3,81.5 161.3,178.8 164.5,177.4 	"/>
	<polygon class="st0" points="68.1,91.5 154.1,182 154.6,181.8 68.2,90.8 	"/>
	<polygon class="st0" points="-12.2,272.3 -14.4,277 160.9,200.4 162,196.1 	"/>
	<polygon class="st0" points="-8.3,264.3 -8.6,265.1 163.8,189.6 164,188.9 	"/>
	<polygon class="st0" points="-2.9,253.3 -5.2,258 165.6,183.1 166.8,178.9 	"/>
	<polygon class="st0" points="173.4,98.2 170,99.7 233.7,162.7 239.6,163.6 	"/>
	<polygon class="st0" points="155.1,105.9 208.7,158.9 214.6,159.8 158.6,104.4 	"/>
	<polygon class="st0" points="163.9,102.2 223.7,161.2 224.7,161.3 164.5,101.9 	"/>
	<polygon class="st0" points="246.3,45.9 336.2,129.4 339.4,127.8 252.5,47.1 	"/>
	<polygon class="st0" points="278.7,52.3 272.5,51.1 350.3,122.5 353.6,120.9 	"/>
	<polygon class="st0" points="261.9,49 344.7,125.2 345.2,125 263,49.2 	"/>
	<polygon class="st0" points="378.5,97.3 346.8,111.4 349.5,114 384.3,98.5 383.5,97.7 	"/>
	<polygon class="st0" points="342.4,107.1 342.8,107.5 367.6,96.4 366.4,96.3 	"/>
	<polygon class="st0" points="336.2,101 338.8,103.6 356.8,95.5 349.7,94.9 	"/>
	<polygon class="st0" points="239.1,159.5 241.7,162 326.3,124.3 323.7,121.8 	"/>
	<polygon class="st0" points="319.1,117.4 234.7,155.1 235.1,155.5 319.5,117.9 	"/>
	<polygon class="st0" points="312.8,111.5 228.7,149.1 231.3,151.6 315.5,114 	"/>
	<polygon class="st0" points="260.2,242.6 350.2,336 355.6,336.8 261.4,238.9 	"/>
	<polygon class="st0" points="269.4,223.3 268.2,227 376.5,339.8 381.8,340.6 	"/>
	<polygon class="st0" points="263.3,233.4 364.4,338.1 365.3,338.2 263.5,232.7 	"/>
	<polygon class="st0" points="340.7,500.9 341.1,504.4 444,456.6 443.1,453.3 	"/>
	<polygon class="st0" points="340.2,494.8 340.3,495.4 441.6,448.2 441.5,447.6 	"/>
	<polygon class="st0" points="339.5,486.3 339.8,489.9 440.2,443.1 439.3,439.8 	"/>
	<polygon class="st0" points="-39.9,426 -40.1,426.2 -39.5,431.3 64.4,536 67.8,534.4 	"/>
	<polygon class="st0" points="-36.8,454.8 50.2,542.6 53.6,541 -37.4,449.3 	"/>
	<polygon class="st0" points="-38.3,441.2 58.8,538.6 59.3,538.3 -38.4,440.3 	"/>
	<polygon class="st0" points="23.7,92.6 23.8,92.4 23.3,87.3 -30.5,33.2 -33.9,34.7 	"/>
	<polygon class="st0" points="23.2,63.8 -14.1,26.1 -17.6,27.6 23.8,69.3 	"/>
	<polygon class="st0" points="22.2,78.3 22.1,77.4 -24.6,30.6 -25.2,30.9 	"/>
	<polygon class="st0" points="141.1,62.1 143.6,64.7 286.3,4.7 284.2,2.7 282.5,2.7 	"/>
	<polygon class="st0" points="84.3,89.6 118.6,75.2 116.2,72.6 82,86.9 	"/>
	<polygon class="st0" points="78,82.5 78.4,82.9 112.4,68.6 112,68.2 	"/>
	<polygon class="st0" points="137.3,58.1 269.1,2.7 267.6,2.7 136.9,57.7 	"/>
	<polygon class="st0" points="247.1,2.7 131.2,51.6 133.6,54.2 255.7,2.7 	"/>
	<polygon class="st0" points="72.5,76.4 74.8,79 108.7,64.7 106.3,62.2 	"/>
	<polygon class="st0" points="359.1,136.2 364.6,137.5 382.4,129.6 379.8,127 	"/>
	<polygon class="st0" points="375.4,122.7 349.8,134 350.7,134.3 375.8,123.1 	"/>
	<polygon class="st0" points="369.3,116.8 337.1,131.1 342.5,132.3 371.9,119.3 	"/>
	<polygon class="st0" points="260.9,543.2 257.5,544.7 254.2,630.9 257.6,630.9 	"/>
	<polygon class="st0" points="252.2,547 251.6,547.3 248.4,630.9 249,630.9 	"/>
	<polygon class="st0" points="247.2,549.2 243.8,550.7 240.6,630.9 243.9,630.9 	"/>
	<path class="st0" d="M20.6,563.5c0,1.6,0,3.3,0,4.8l39.9,33.2h5.8L20.6,563.5z"/>
	<path class="st0" d="M20.6,584.3c0,1.7,0,3.4,0,4.9l14.9,12.4h5.9L20.6,584.3z"/>
	<path class="st0" d="M20.6,576.2c0,0.3,0,0.5,0,0.8l29.6,24.6h1L20.6,576.2z"/>
	<polygon class="st0" points="312.6,450.5 309.4,451.9 341.7,601.6 345.2,601.6 	"/>
	<polygon class="st0" points="307.6,427.3 281.5,305.9 279.1,311.1 304.4,428.7 	"/>
	<polygon class="st0" points="313.1,424.8 285.6,297 285.2,297.9 312.5,425 	"/>
	<polygon class="st0" points="318.1,448.1 317.5,448.3 350.4,601.6 351,601.6 	"/>
	<polygon class="st0" points="325.5,444.7 322.4,446.2 355.7,601.6 359.1,601.6 	"/>
	<polygon class="st0" points="320.5,421.4 291.4,285.7 290.7,286 288.9,290.1 317.3,422.8 	"/>
	<polygon class="st0" points="516.2,534.3 515.3,530.4 308.6,627.2 317.9,627.2 	"/>
	<polygon class="st0" points="520.1,550.9 519.2,547 348.2,627.2 357.5,627.2 	"/>
	<polygon class="st0" points="518.1,541.9 518,541.2 332,626.5 333.6,626.5 	"/>
	<polygon class="st0" points="297.9,302 308.8,297.2 306,294.3 296.9,298.3 	"/>
	<polygon class="st0" points="525.6,202.4 522.9,199.6 330.4,283.6 333.2,286.6 	"/>
	<polygon class="st0" points="326.2,279.2 326.6,279.7 518.9,195.7 518.5,195.3 	"/>
	<polygon class="st0" points="295.5,293.2 302.3,290.3 301.8,289.8 295.4,292.7 	"/>
	<polygon class="st0" points="515,191.8 512.5,189.2 320.4,273.2 322.8,275.8 	"/>
	<polygon class="st0" points="298.6,286.4 296.1,283.8 293.3,285 294.2,288.3 	"/>
	<polygon class="st0" points="94,544.3 241.7,478.5 241.9,474.8 95.6,539.8 	"/>
	<polygon class="st0" points="35.1,570.4 67.1,556.2 68.4,551.9 32.6,567.9 	"/>
	<polygon class="st0" points="264.9,468.2 540.6,345.6 539.9,342.2 264.9,464.5 	"/>
	<polygon class="st0" points="28.7,563.9 70.5,545.3 70.7,544.6 28.2,563.5 	"/>
	<polygon class="st0" points="98.2,533 242.1,469 242.2,468.3 98.5,532.3 	"/>
	<polygon class="st0" points="264.9,458.2 264.9,458.8 538.7,337 538.6,336.4 	"/>
	<polygon class="st0" points="264.9,449.6 264.9,453.3 537.6,331.9 536.8,328.5 	"/>
	<polygon class="st0" points="100.7,526.4 242.4,463.3 242.5,459.5 102.3,521.9 	"/>
	<polygon class="st0" points="24.9,560.1 72.5,538.9 73.8,534.6 22.3,557.6 	"/>
	<polygon class="st0" points="12.8,2.9 12.4,2.4 -296.4,131.5 -296,131.9 	"/>
	<polygon class="st0" points="38,2.5 28.3,2.8 -292.7,135.9 -290.5,138.6 	"/>
</g>
</svg>
