<?xml version="1.0" encoding="utf-8"?>
<!-- Generator: Adobe Illustrator 19.2.1, SVG Export Plug-In . SVG Version: 6.00 Build 0)  -->
<svg version="1.1" id="Capa_1" xmlns="http://www.w3.org/2000/svg" xmlns:xlink="http://www.w3.org/1999/xlink" x="0px" y="0px"
	 viewBox="0 0 359 504.1" style="enable-background:new 0 0 359 504.1;" xml:space="preserve">
<style type="text/css">
	.st0{clip-path:url(#SVGID_2_);fill:none;}
	.st1{clip-path:url(#SVGID_2_);}
	.st2{fill:#FFFFFF;}
	.st3{clip-path:url(#SVGID_2_);fill:#F5F5F5;}
	.st4{clip-path:url(#SVGID_2_);fill:#E6E6E6;}
</style>
<g>
	<defs>
		<rect id="SVGID_1_" y="-264.4" width="359" height="1171"/>
	</defs>
	<clipPath id="SVGID_2_">
		<use xlink:href="#SVGID_1_"  style="overflow:visible;"/>
	</clipPath>
	<line class="st0" x1="232" y1="19.9" x2="215" y2="19.9"/>
	<polygon class="st0" points="199.8,19.9 200,19.9 200.2,19.9 213.3,29.9 200.2,29.9 195,29.9 195,19.9 	"/>
	<g class="st1">
		
			<rect x="-536.4" y="274.6" transform="matrix(-1 -1.224647e-16 1.224647e-16 -1 242.1181 778.7729)" class="st2" width="1314.9" height="229.5"/>
		<polygon class="st2" points="776.6,8.9 125.3,8.9 -206.7,280.5 775.9,275.3 		"/>
	</g>
	<polygon class="st3" points="775.6,36.6 775.7,32.5 115.8,31.6 110.8,35.7 	"/>
	<polygon class="st3" points="775.8,27.7 775.8,26.5 123.2,25.6 121.7,26.8 	"/>
	<polygon class="st3" points="775.9,21.6 775.9,17.6 134.1,16.7 129.2,20.7 134.4,20.7 	"/>
	<polygon class="st3" points="126.6,40.1 -158.3,274.6 -151.9,274.6 132.9,40.2 	"/>
	<polygon class="st3" points="117.2,40 -167.8,274.6 -165.8,274.6 119.2,40 	"/>
	<polygon class="st3" points="103.5,39.8 -181.8,274.6 -175.5,274.6 109.7,39.9 	"/>
	<polygon class="st3" points="-92,307.6 -86,303 -445.4,303 -445.4,307.6 	"/>
	<polygon class="st3" points="-79,297.6 -77.1,296.2 -445.4,296.2 -445.4,297.6 	"/>
	<polygon class="st3" points="-69.9,290.7 -64,286.1 -445.4,286.1 -445.4,290.7 	"/>
	<polygon class="st4" points="459.9,620.1 459.9,621.2 629.8,621.2 628.6,620.1 	"/>
	<polygon class="st4" points="459.9,622.5 459.9,622.8 631.4,622.8 631,622.5 	"/>
	<polygon class="st4" points="632.6,624 459.9,624 459.9,625.2 633.7,625.2 	"/>
	<g class="st1">
		<polygon style="fill:none;" points="441.5,614.5 442.9,614.5 442.9,614.5 441.5,614.5 		"/>
	</g>
	<polygon class="st4" points="-98.8,797.6 -97.1,797.6 -31.7,732.2 -33.4,732.2 	"/>
	<polygon class="st4" points="-95.4,797.6 -94.9,797.6 -29.4,732.2 -30,732.2 	"/>
	<polygon class="st4" points="-27.7,732.2 -93.1,797.6 -91.5,797.6 -26.1,732.2 	"/>
	<polygon class="st4" points="-19.4,643.7 -19.4,681.3 -18.2,682.3 -18.2,643.7 	"/>
	<polygon class="st4" points="-17,643.7 -17,683.3 -16.6,683.6 -16.6,643.7 	"/>
	<polygon class="st4" points="-14.2,643.7 -15.4,643.7 -15.4,684.6 -14.2,685.6 	"/>
	<polygon class="st4" points="494.2,474.8 492.6,474.8 643,625.2 644.7,625.2 	"/>
	<polygon class="st4" points="490.3,474.8 640.8,625.2 641.3,625.2 490.8,474.8 	"/>
	<polygon class="st4" points="487,474.8 637.4,625.2 639,625.2 488.6,474.8 	"/>
</g>
</svg>
