<?xml version="1.0" encoding="utf-8"?>
<!-- Generator: Adobe Illustrator 19.2.1, SVG Export Plug-In . SVG Version: 6.00 Build 0)  -->
<svg version="1.1" id="Capa_1" xmlns="http://www.w3.org/2000/svg" xmlns:xlink="http://www.w3.org/1999/xlink" x="0px" y="0px"
	 viewBox="0 0 217.5 66.8" style="enable-background:new 0 0 217.5 66.8;" xml:space="preserve">
<style type="text/css">
	.st0{fill:#F7C639;}
	.st1{fill:#575756;}
	.st2{fill:#FFFFFF;}
</style>
<g>
	<rect x="12.9" y="22.2" class="st0" width="2.3" height="44.9"/>
	<rect x="26.9" y="22.2" class="st0" width="2.3" height="44.9"/>
	<g>
		<polygon class="st0" points="61.2,-0.5 1.5,-0.5 1.5,2.6 60.3,2.6 		"/>
		<polygon class="st0" points="55.6,17.2 56.6,14.2 1.5,14.2 1.5,17.2 		"/>
		<polygon class="st0" points="58.2,9 58.3,8.5 1.5,8.5 1.5,9 		"/>
	</g>
	<polygon class="st1" points="81.6,0 57.9,66.9 61,66.9 84.7,0 	"/>
	<polygon class="st1" points="76.2,0 52.5,66.9 53,66.9 76.7,0 	"/>
	<polygon class="st1" points="68.3,0 45.7,66.9 48.8,66.9 71.5,0 	"/>
	<polygon class="st1" points="87.4,4.4 85.7,9.4 103.7,66.9 106.8,66.9 	"/>
	<polygon class="st1" points="77.4,33.2 89.6,66.9 92.7,66.9 79,28.5 	"/>
	<polygon class="st1" points="82.4,18.7 98.4,66.9 98.9,66.9 82.7,17.9 	"/>
	<polygon class="st0" points="114.9,0 100.4,25.2 101.6,29.1 118.4,0 	"/>
	<polygon class="st0" points="128.9,0 105.3,41.3 106.5,45.2 132.4,0 	"/>
	<polygon class="st0" points="123.3,0 103.2,34.4 103.4,35 123.9,0 	"/>
	<polygon class="st0" points="117.1,34.9 115.5,37.6 144.3,66.8 148.6,66.8 	"/>
	<polygon class="st0" points="108.7,49.2 126,66.8 130.3,66.8 110.3,46.5 	"/>
	<polygon class="st0" points="112.6,42.5 137,66.8 137.8,66.8 112.9,42.1 	"/>
	<polygon class="st0" points="20.4,67 20.9,67.2 20.9,22.2 20.4,22.2 	"/>
</g>
<polygon class="st1" points="217.5,0 217.5,66.8 156.3,66.8 121.9,31.9 140.1,0 "/>
<path class="st2" d="M190.6,29.7c0.2,0,0.4,0,0.5,0c0.9,0,1.8,0,2.7,0c0.3,0,0.6-0.1,0.7-0.5c0.1-0.3,0-0.6-0.2-0.8
	c0-0.1-0.1-0.1-0.2-0.1c-4.3-4.1-8.6-8.2-12.9-12.3c-0.6-0.5-0.8-0.5-1.4,0c-1,1-2,1.9-3.1,2.9c-0.5,0.5-1.1,1-1.7,1.6
	c0-0.1,0-0.1,0-0.2c0-0.8-0.2-1-1.1-1c-0.8,0-1.6,0-2.5,0c-0.9,0-1.2,0.2-1.2,1.2c0,1.3,0,2.7,0,4c0,0.3-0.1,0.6-0.4,0.8
	c-1.1,1-2.2,2.1-3.3,3.2c-0.2,0.2-0.4,0.5-0.3,0.9c0.2,0.4,0.5,0.4,0.8,0.4c0.5,0,1.1,0,1.6,0c0.5,0,1,0,1.6,0c0,0.2,0,0.4,0,0.6
	c0,2.4,0,4.8,0,7.2c0,0.9,0,1.8,0,2.7c0,0.7,0.5,1.2,1.2,1.2c1.9,0,3.7,0,5.6,0c0.4,0,0.6-0.2,0.7-0.6c0-0.2,0-0.3,0-0.5
	c0-1.7,0-3.5,0-5.2c0-0.4,0.1-0.6,0.5-0.6c1.4,0,2.8,0,4.2,0c0.3,0,0.5,0.2,0.5,0.5c0,0.2,0,0.5,0,0.7c0,1.6,0,3.2,0,4.8
	c0,0.6,0.2,0.9,0.7,0.9c1.8,0,3.7,0,5.5,0c0.4,0,0.8-0.2,1-0.5c0.1-0.3,0.2-0.6,0.2-0.9c0-3.2,0-6.4,0-9.5
	C190.6,30.1,190.6,29.9,190.6,29.7z"/>
</svg>
