<?xml version="1.0" encoding="utf-8"?>
<!-- Generator: Adobe Illustrator 19.2.1, SVG Export Plug-In . SVG Version: 6.00 Build 0)  -->
<svg version="1.1" id="Capa_1" xmlns="http://www.w3.org/2000/svg" xmlns:xlink="http://www.w3.org/1999/xlink" x="0px" y="0px"
	 viewBox="0 0 170.6 48.6" style="enable-background:new 0 0 170.6 48.6;" xml:space="preserve">
<style type="text/css">
	.st0{fill:#B31822;}
	.st1{enable-background:new    ;}
	.st2{fill:#FFFFFF;}
</style>
<g>
	<polygon class="st0" points="130.2,47.1 3.1,47 48.6,1.4 130.2,1.4 	"/>
	<g>
		<g class="st1">
			<path class="st2" d="M73.9,32.6l4-11.7h2.5l3.8,11.7h-2.4L81,30.1h-3.8l-0.8,2.6H73.9z M77.8,28.1h2.7l-1.3-4.2L77.8,28.1z"/>
			<path class="st2" d="M83.4,23v-2.1h8.7V23h-3.2v9.6h-2.2V23H83.4z"/>
			<path class="st2" d="M98.3,20.9c1,0,1.8,0.3,2.3,0.8c0.6,0.6,0.9,1.6,0.9,2.9c0,1.5-0.3,2.5-0.9,3c-0.2,0.2-0.4,0.3-0.5,0.3
				c-0.1,0-0.3,0.1-0.5,0.2l2.2,4.6h-2.5l-1.9-4.4l-2-0.2v4.7h-2.2V20.9H98.3z M95.5,26.2h2.7c0.4,0,0.7-0.1,0.9-0.3
				c0.2-0.2,0.3-0.6,0.3-1.3c0-0.7-0.1-1.1-0.3-1.3c-0.2-0.2-0.5-0.4-0.9-0.4h-2.7V26.2z"/>
			<path class="st2" d="M102.7,32.6l4-11.7h2.5l3.8,11.7h-2.4l-0.8-2.6h-3.8l-0.8,2.6H102.7z M106.5,28.1h2.7l-1.3-4.2L106.5,28.1z"
				/>
			<path class="st2" d="M113.5,24.9v-1c0-1.1,0.3-1.9,0.9-2.4c0.6-0.4,1.3-0.6,2.3-0.6c0.1,0,0.4,0,0.8,0c0.4,0,1,0,1.8,0.1
				c0.8,0.1,1.4,0.2,1.9,0.3v1.8c-1.2-0.1-2.2-0.2-2.9-0.2c-0.7,0-1.1,0-1.2,0c-0.5,0-0.8,0.1-1.1,0.2c-0.2,0.1-0.3,0.4-0.3,0.9v0.6
				c0,0.4,0.1,0.7,0.3,0.9c0.2,0.1,0.5,0.2,1,0.2h1.9c1.2,0,2,0.5,2.4,1.5c0.2,0.5,0.3,1,0.3,1.6v0.8c0,1.4-0.5,2.4-1.4,2.8
				c-0.5,0.2-1.1,0.4-1.8,0.4c-1.9,0-3.4-0.2-4.5-0.5v-1.8c1.2,0.1,2.2,0.2,3.1,0.2c0.9,0,1.4,0,1.5,0c0.1,0,0.3-0.1,0.4-0.1
				c0.3-0.1,0.5-0.4,0.5-0.8v-0.6c0-0.6-0.2-0.9-0.5-1c-0.1-0.1-0.3-0.1-0.5-0.1h-1.8C114.5,28,113.5,26.9,113.5,24.9z"/>
		</g>
	</g>
	<rect x="134.8" y="1.4" class="st0" width="32.7" height="45.7"/>
	<path class="st2" d="M158.2,23.9c0.1,0,0.3,0,0.4,0c0.6,0,1.3,0,1.9,0c0.2,0,0.4-0.1,0.5-0.3c0.1-0.2,0-0.4-0.2-0.6l-0.1-0.1
		c-3-2.8-6-5.7-9-8.5c-0.4-0.4-0.6-0.4-1,0c-0.7,0.7-1.4,1.3-2.1,2c-0.4,0.4-0.8,0.7-1.1,1.1c0-0.1,0-0.1,0-0.1
		c0-0.6-0.2-0.7-0.7-0.7c-0.6,0-1.1,0-1.7,0c-0.7,0-0.8,0.1-0.8,0.8c0,0.9,0,1.9,0,2.8c0,0.2-0.1,0.4-0.2,0.6
		c-0.8,0.7-1.5,1.5-2.3,2.2c-0.2,0.2-0.3,0.4-0.2,0.6c0.1,0.3,0.3,0.3,0.6,0.3c0.4,0,0.7,0,1.1,0c0.4,0,0.7,0,1.1,0
		c0,0.2,0,0.3,0,0.4c0,1.7,0,3.3,0,5c0,0.6,0,1.2,0,1.9c0,0.5,0.3,0.8,0.8,0.8c1.3,0,2.6,0,3.9,0c0.3,0,0.4-0.1,0.5-0.4
		c0-0.1,0-0.2,0-0.3c0-1.2,0-2.4,0-3.6c0-0.2,0.1-0.4,0.3-0.4c1,0,1.9,0,2.9,0c0.2,0,0.3,0.1,0.3,0.3c0,0.2,0,0.3,0,0.5
		c0,1.1,0,2.2,0,3.3c0,0.4,0.2,0.6,0.5,0.6c1.3,0,2.6,0,3.8,0c0.3,0,0.5-0.1,0.7-0.4c0.1-0.2,0.2-0.4,0.2-0.7c0-2.2,0-4.4,0-6.6
		C158.2,24.1,158.2,24,158.2,23.9z"/>
</g>
</svg>
