<?xml version="1.0" encoding="utf-8"?>
<!-- Generator: Adobe Illustrator 19.2.1, SVG Export Plug-In . SVG Version: 6.00 Build 0)  -->
<svg version="1.1" id="Capa_1" xmlns="http://www.w3.org/2000/svg" xmlns:xlink="http://www.w3.org/1999/xlink" x="0px" y="0px"
	 viewBox="0 0 1920 939.4" style="enable-background:new 0 0 1920 939.4;" xml:space="preserve">
<style type="text/css">
	.st0{fill:#FFFFFF;}
	.st1{fill:#FBFBFB;}
	.st2{font-family:'Exo-Regular';}
	.st3{font-size:39.5044px;}
	.st4{opacity:0.33;}
	.st5{opacity:0.33;fill:#FFFFFF;}
</style>
<g>
	<g>
		<g id="XMLID_167_">
			<rect x="1423.2" y="561.8" class="st0" width="4" height="82.6"/>
		</g>
		<g id="XMLID_166_">
			<rect x="1416" y="561.8" class="st0" width="1.2" height="82.6"/>
		</g>
		<g id="XMLID_165_">
			<rect x="1406.2" y="561.8" class="st0" width="3.9" height="82.6"/>
		</g>
		<g id="XMLID_164_">
			<rect x="1363.1" y="554.1" class="st0" width="107.2" height="4"/>
		</g>
		<g id="XMLID_163_">
			<rect x="1363.1" y="546.9" class="st0" width="107.2" height="1.2"/>
		</g>
		<g id="XMLID_162_">
			<rect x="1363.1" y="537.1" class="st0" width="107.2" height="3.9"/>
		</g>
	</g>
</g>
<g>
	<g>
		<g id="XMLID_227_">
			<rect x="885.8" y="626" class="st0" width="48.3" height="4"/>
		</g>
		<g id="XMLID_226_">
			<rect x="885.8" y="634.1" class="st0" width="48.3" height="1.2"/>
		</g>
		<g id="XMLID_225_">
			<rect x="885.8" y="639.5" class="st0" width="48.3" height="3.9"/>
		</g>
		<g id="XMLID_224_">
			<rect x="885.8" y="536.8" class="st0" width="48.3" height="4"/>
		</g>
		<g id="XMLID_223_">
			<rect x="885.8" y="545" class="st0" width="48.3" height="1.2"/>
		</g>
		<g id="XMLID_222_">
			<rect x="885.8" y="550.3" class="st0" width="48.3" height="3.9"/>
		</g>
		<g id="XMLID_218_">
			<g>
				<polygon id="XMLID_221_" class="st0" points="864.6,555 864.6,624.3 869.8,630 869.8,549.9 				"/>
				<polygon id="XMLID_220_" class="st0" points="873.3,546.5 873.3,633.8 874.2,634.7 874.2,545.6 				"/>
				<polygon id="XMLID_219_" class="st0" points="878.6,541.4 878.6,639.5 883,644.3 883,537.2 				"/>
			</g>
		</g>
	</g>
</g>
<g>
	<g>
		<g id="XMLID_247_">
			<rect x="1199.7" y="537" class="st0" width="56.3" height="4"/>
		</g>
		<g id="XMLID_246_">
			<rect x="1199.7" y="545.2" class="st0" width="56.3" height="1.2"/>
		</g>
		<g id="XMLID_245_">
			<rect x="1199.7" y="550.5" class="st0" width="56.3" height="3.9"/>
		</g>
		<g id="XMLID_244_">
			<rect x="1199.7" y="625.6" class="st0" width="56.3" height="4"/>
		</g>
		<g id="XMLID_243_">
			<rect x="1199.7" y="633.7" class="st0" width="56.3" height="1.2"/>
		</g>
		<g id="XMLID_242_">
			<rect x="1199.7" y="639.1" class="st0" width="56.3" height="3.9"/>
		</g>
		<g id="XMLID_241_">
			<rect x="1199.7" y="582.1" class="st0" width="34.9" height="4"/>
		</g>
		<g id="XMLID_240_">
			<rect x="1199.7" y="590.3" class="st0" width="34.9" height="1.2"/>
		</g>
		<g id="XMLID_239_">
			<rect x="1199.7" y="595.7" class="st0" width="34.9" height="3.9"/>
		</g>
		<g id="XMLID_235_">
			<g>
				<polygon id="XMLID_238_" class="st0" points="1177.3,555.2 1177.3,624.4 1182.5,630.1 1182.5,550.1 				"/>
				<polygon id="XMLID_237_" class="st0" points="1186,546.7 1186,634 1186.9,634.9 1186.9,545.8 				"/>
				<polygon id="XMLID_236_" class="st0" points="1191.2,541.6 1191.2,639.7 1195.6,644.4 1195.6,537.3 				"/>
			</g>
		</g>
	</g>
</g>
<g>
	<g>
		<g id="XMLID_264_">
			<g>
				<g id="XMLID_267_">
					<rect x="1023.8" y="414.4" class="st0" width="3.9" height="105"/>
				</g>
				<g id="XMLID_266_">
					<rect x="1018.5" y="414.4" class="st0" width="1.2" height="105"/>
				</g>
				<g id="XMLID_265_">
					<rect x="1010.6" y="414.4" class="st0" width="3.9" height="105"/>
				</g>
			</g>
		</g>
		<g id="XMLID_260_">
			<g>
				<g id="XMLID_263_">
					<rect x="1111.2" y="414.4" class="st0" width="3.9" height="105"/>
				</g>
				<g id="XMLID_262_">
					<rect x="1106" y="414.4" class="st0" width="1.2" height="105"/>
				</g>
				<g id="XMLID_261_">
					<rect x="1098.1" y="414.4" class="st0" width="3.8" height="105"/>
				</g>
			</g>
		</g>
		<g id="XMLID_256_">
			<g>
				<g id="XMLID_259_">
					<polygon class="st0" points="1030.7,413.7 1030.7,422 1059.2,468.3 1061.9,464.2 					"/>
				</g>
				<g id="XMLID_258_">
					<polygon class="st0" points="1030.7,433.2 1055.7,473.6 1056.5,472.4 1030.7,430.6 					"/>
				</g>
				<g id="XMLID_257_">
					<polygon class="st0" points="1030.7,450 1050.3,481.7 1052.9,477.8 1030.7,441.8 					"/>
				</g>
			</g>
		</g>
		<g id="XMLID_252_">
			<g>
				<g id="XMLID_255_">
					<polygon class="st0" points="1094.7,413.7 1051.1,484.8 1056.2,484.8 1094.7,422 					"/>
				</g>
				<g id="XMLID_254_">
					<polygon class="st0" points="1094.7,433.2 1094.7,430.6 1061.5,484.8 1063,484.8 					"/>
				</g>
				<g id="XMLID_253_">
					<polygon class="st0" points="1094.7,450 1094.7,441.8 1068.4,484.8 1073.4,484.8 					"/>
				</g>
			</g>
		</g>
	</g>
</g>
<g>
	<g>
		<g id="XMLID_188_">
			<g id="XMLID_191_">
				<rect x="1280.8" y="538.5" class="st0" width="3.9" height="105"/>
			</g>
			<g id="XMLID_190_">
				<rect x="1275.5" y="538.5" class="st0" width="1.2" height="105"/>
			</g>
			<g id="XMLID_189_">
				<rect x="1267.6" y="538.5" class="st0" width="3.8" height="105"/>
			</g>
		</g>
		<g id="XMLID_184_">
			<g id="XMLID_187_">
				<rect x="1346.4" y="538.5" class="st0" width="3.9" height="105"/>
			</g>
			<g id="XMLID_186_">
				<rect x="1341.1" y="538.5" class="st0" width="1.2" height="105"/>
			</g>
			<g id="XMLID_185_">
				<rect x="1333.2" y="538.5" class="st0" width="3.9" height="105"/>
			</g>
		</g>
		<g id="XMLID_180_">
			<g id="XMLID_183_">
				<polygon class="st0" points="1287.7,537.8 1287.7,546.2 1330.6,614.7 1330.6,606.4 				"/>
			</g>
			<g id="XMLID_182_">
				<polygon class="st0" points="1287.7,557.3 1330.6,625.8 1330.6,623.3 1287.7,554.8 				"/>
			</g>
			<g id="XMLID_181_">
				<polygon class="st0" points="1287.7,574.2 1330.6,642.5 1330.6,634.4 1287.7,566 				"/>
			</g>
		</g>
	</g>
</g>
<g id="XMLID_950_">
	<g>
		<g id="XMLID_52_">
			<rect x="965.4" y="535.3" class="st0" width="3.9" height="110.4"/>
		</g>
		<g id="XMLID_51_">
			<rect x="960.2" y="535.3" class="st0" width="1.2" height="110.4"/>
		</g>
		<g id="XMLID_47_">
			<rect x="952.3" y="535.3" class="st0" width="3.9" height="110.4"/>
		</g>
	</g>
</g>
<g id="XMLID_3_">
	<g>
		<g id="XMLID_44_">
			<rect x="1147.6" y="411.5" class="st0" width="3.9" height="110.4"/>
		</g>
		<g id="XMLID_43_">
			<rect x="1142.3" y="411.5" class="st0" width="1.2" height="110.4"/>
		</g>
		<g id="XMLID_39_">
			<rect x="1134.4" y="411.5" class="st0" width="3.8" height="110.4"/>
		</g>
	</g>
</g>
<g>
	<g>
		<g id="XMLID_212_">
			<g>
				<g id="XMLID_215_">
					<polygon class="st0" points="1482.9,559.3 1563.3,559.3 1563.3,555.3 1486.7,555.3 1482.9,558.7 					"/>
				</g>
				<g id="XMLID_214_">
					<polygon class="st0" points="1563.3,549.4 1563.3,548.2 1494.8,548.2 1493.4,549.4 					"/>
				</g>
				<g id="XMLID_213_">
					<polygon class="st0" points="1563.3,538.4 1505.9,538.4 1501.5,542.3 1563.3,542.3 					"/>
				</g>
			</g>
		</g>
		<g id="XMLID_208_">
			<g>
				<g id="XMLID_211_">
					<polygon class="st0" points="1504,643.1 1504,562.9 1500,562.9 1500,639.4 1503.4,643.1 					"/>
				</g>
				<g id="XMLID_210_">
					<polygon class="st0" points="1494.1,562.9 1492.9,562.9 1492.9,631.3 1494.1,632.7 					"/>
				</g>
				<g id="XMLID_209_">
					<polygon class="st0" points="1483,562.9 1483,620.2 1487,624.7 1487,562.9 					"/>
				</g>
			</g>
		</g>
		<g id="XMLID_204_">
			<g>
				<g id="XMLID_207_">
					<polygon class="st0" points="1587,622.1 1506.7,622.1 1506.7,626.1 1583.2,626.1 1587,622.7 					"/>
				</g>
				<g id="XMLID_206_">
					<polygon class="st0" points="1506.7,632 1506.7,633.2 1575.2,633.2 1576.6,632 					"/>
				</g>
				<g id="XMLID_205_">
					<polygon class="st0" points="1506.7,643.1 1564,643.1 1568.5,639.1 1506.7,639.1 					"/>
				</g>
			</g>
		</g>
		<g id="XMLID_200_">
			<g>
				<g id="XMLID_203_">
					<polygon class="st0" points="1565.9,538.3 1565.9,618.5 1569.9,618.5 1569.9,542 1566.6,538.3 					"/>
				</g>
				<g id="XMLID_202_">
					<polygon class="st0" points="1575.9,618.5 1577.1,618.5 1577.1,550.1 1575.9,548.7 					"/>
				</g>
				<g id="XMLID_201_">
					<polygon class="st0" points="1586.9,618.5 1586.9,561.2 1583,556.8 1583,618.5 					"/>
				</g>
			</g>
		</g>
	</g>
</g>
<text transform="matrix(0.9113 0 0 1 213.9345 299.0043)" class="st1 st2 st3">Estructuras de</text>
<g>
	<g>
		<g id="XMLID_97_">
			<rect x="403.1" y="402.7" class="st0" width="48.3" height="4"/>
		</g>
		<g id="XMLID_96_">
			<rect x="403.1" y="410.8" class="st0" width="48.3" height="1.2"/>
		</g>
		<g id="XMLID_95_">
			<rect x="403.1" y="416.2" class="st0" width="48.3" height="3.9"/>
		</g>
		<g id="XMLID_94_">
			<rect x="403.1" y="313.5" class="st0" width="48.3" height="4"/>
		</g>
		<g id="XMLID_93_">
			<rect x="403.1" y="321.7" class="st0" width="48.3" height="1.2"/>
		</g>
		<g id="XMLID_92_">
			<rect x="403.1" y="327.1" class="st0" width="48.3" height="3.9"/>
		</g>
		<g id="XMLID_88_">
			<g>
				<polygon id="XMLID_91_" class="st0" points="381.9,331.7 381.9,401 387.1,406.7 387.1,326.6 				"/>
				<polygon id="XMLID_90_" class="st0" points="390.6,323.2 390.6,410.5 391.5,411.5 391.5,322.4 				"/>
				<polygon id="XMLID_89_" class="st0" points="395.9,318.1 395.9,416.2 400.2,421 400.2,313.9 				"/>
			</g>
		</g>
	</g>
</g>
<g>
	<g>
		<g id="XMLID_106_">
			<g>
				<g id="XMLID_109_">
					<rect x="605.3" y="319.2" class="st0" width="3.9" height="105"/>
				</g>
				<g id="XMLID_108_">
					<rect x="600" y="319.2" class="st0" width="1.2" height="105"/>
				</g>
				<g id="XMLID_107_">
					<rect x="592.1" y="319.2" class="st0" width="3.8" height="105"/>
				</g>
			</g>
		</g>
		<g id="XMLID_102_">
			<g>
				<g id="XMLID_105_">
					<rect x="670.9" y="319.2" class="st0" width="3.9" height="105"/>
				</g>
				<g id="XMLID_104_">
					<rect x="665.6" y="319.2" class="st0" width="1.2" height="105"/>
				</g>
				<g id="XMLID_103_">
					<rect x="657.7" y="319.2" class="st0" width="3.9" height="105"/>
				</g>
			</g>
		</g>
		<g id="XMLID_98_">
			<g>
				<g id="XMLID_101_">
					<polygon class="st0" points="612.2,318.4 612.2,326.8 655.1,395.3 655.1,387 					"/>
				</g>
				<g id="XMLID_100_">
					<polygon class="st0" points="612.2,337.9 655.1,406.4 655.1,403.9 612.2,335.4 					"/>
				</g>
				<g id="XMLID_99_">
					<polygon class="st0" points="612.2,354.8 655.1,423.1 655.1,415 612.2,346.6 					"/>
				</g>
			</g>
		</g>
	</g>
</g>
<g>
	<g>
		<g id="XMLID_142_">
			<g id="XMLID_145_">
				<polygon class="st0" points="465.7,335.9 546.1,335.9 546.1,331.9 469.5,331.9 465.7,335.2 				"/>
			</g>
			<g id="XMLID_144_">
				<polygon class="st0" points="546.1,326 546.1,324.8 477.6,324.8 476.2,326 				"/>
			</g>
			<g id="XMLID_143_">
				<polygon class="st0" points="546.1,314.9 488.7,314.9 484.2,318.9 546.1,318.9 				"/>
			</g>
		</g>
		<g id="XMLID_138_">
			<g id="XMLID_141_">
				<polygon class="st0" points="486.8,419.7 486.8,339.4 482.8,339.4 482.8,415.9 486.1,419.7 				"/>
			</g>
			<g id="XMLID_140_">
				<polygon class="st0" points="476.9,339.4 475.7,339.4 475.7,407.9 476.9,409.2 				"/>
			</g>
			<g id="XMLID_139_">
				<polygon class="st0" points="465.8,339.4 465.8,396.7 469.8,401.2 469.8,339.4 				"/>
			</g>
		</g>
		<g id="XMLID_134_">
			<g id="XMLID_137_">
				<polygon class="st0" points="569.8,398.6 489.5,398.6 489.5,402.6 566,402.6 569.8,399.3 				"/>
			</g>
			<g id="XMLID_136_">
				<polygon class="st0" points="489.5,408.5 489.5,409.7 558,409.7 559.3,408.5 				"/>
			</g>
			<g id="XMLID_135_">
				<polygon class="st0" points="489.5,419.6 546.8,419.6 551.3,415.7 489.5,415.7 				"/>
			</g>
		</g>
		<g id="XMLID_130_">
			<g id="XMLID_133_">
				<polygon class="st0" points="548.7,314.8 548.7,395.1 552.7,395.1 552.7,318.6 549.4,314.8 				"/>
			</g>
			<g id="XMLID_132_">
				<polygon class="st0" points="558.6,395.1 559.9,395.1 559.9,326.6 558.6,325.3 				"/>
			</g>
			<g id="XMLID_131_">
				<polygon class="st0" points="569.7,395.1 569.7,337.8 565.8,333.3 565.8,395.1 				"/>
			</g>
		</g>
	</g>
</g>
<g>
	<g>
		<g id="XMLID_126_">
			<g id="XMLID_129_">
				<polygon class="st0" points="689.8,340 770.2,340 770.2,335.9 693.6,335.9 689.8,339.3 				"/>
			</g>
			<g id="XMLID_128_">
				<polygon class="st0" points="770.2,330 770.2,328.8 701.7,328.8 700.3,330 				"/>
			</g>
			<g id="XMLID_127_">
				<polygon class="st0" points="770.2,319 712.8,319 708.3,322.9 770.2,322.9 				"/>
			</g>
		</g>
		<g id="XMLID_122_">
			<g id="XMLID_125_">
				<polygon class="st0" points="710.9,423.8 710.9,343.5 706.9,343.5 706.9,420 710.2,423.8 				"/>
			</g>
			<g id="XMLID_124_">
				<polygon class="st0" points="701,343.5 699.8,343.5 699.8,411.9 701,413.3 				"/>
			</g>
			<g id="XMLID_123_">
				<polygon class="st0" points="689.9,343.5 689.9,400.8 693.9,405.3 693.9,343.5 				"/>
			</g>
		</g>
		<g id="XMLID_118_">
			<g id="XMLID_121_">
				<polygon class="st0" points="793.9,402.7 713.6,402.7 713.6,406.7 790.1,406.7 793.9,403.4 				"/>
			</g>
			<g id="XMLID_120_">
				<polygon class="st0" points="713.6,412.6 713.6,413.8 782.1,413.8 783.4,412.6 				"/>
			</g>
			<g id="XMLID_119_">
				<polygon class="st0" points="713.6,423.7 770.9,423.7 775.4,419.7 713.6,419.7 				"/>
			</g>
		</g>
		<g id="XMLID_114_">
			<g id="XMLID_117_">
				<polygon class="st0" points="772.8,318.9 772.8,399.2 776.8,399.2 776.8,322.7 773.5,318.9 				"/>
			</g>
			<g id="XMLID_116_">
				<polygon class="st0" points="782.7,399.2 784,399.2 784,330.7 782.7,329.3 				"/>
			</g>
			<g id="XMLID_115_">
				<polygon class="st0" points="793.8,399.2 793.8,341.8 789.9,337.4 789.9,399.2 				"/>
			</g>
		</g>
	</g>
</g>
<g id="XMLID_1451_" class="st4">
	<rect id="XMLID_1461_" x="1280.5" y="0" class="st0" width="3.7" height="532"/>
	<rect id="XMLID_1459_" x="1275.5" y="0" class="st0" width="1.1" height="532"/>
	<rect id="XMLID_1457_" x="1268" y="0" class="st0" width="3.7" height="532"/>
</g>
<g id="XMLID_1423_" class="st4">
	<rect id="XMLID_1433_" x="1421.6" y="437.3" class="st0" width="3.7" height="98.8"/>
	<rect id="XMLID_1431_" x="1416.7" y="437.3" class="st0" width="1.1" height="98.8"/>
	<rect id="XMLID_1429_" x="1409.1" y="437.3" class="st0" width="3.7" height="98.8"/>
</g>
<g id="XMLID_1435_" class="st4">
	<rect id="XMLID_1440_" x="1421.6" y="141.6" class="st0" width="3.7" height="266.7"/>
	<rect id="XMLID_1438_" x="1416.7" y="141.6" class="st0" width="1.1" height="266.7"/>
	<rect id="XMLID_1436_" x="1409.1" y="141.6" class="st0" width="3.7" height="266.7"/>
</g>
<g id="XMLID_487_" class="st4">
	<rect id="XMLID_1376_" x="1341.5" y="267" class="st0" width="3.7" height="144.3"/>
	<rect id="XMLID_1355_" x="1336.5" y="267" class="st0" width="1.1" height="144.3"/>
	<rect id="XMLID_834_" x="1329" y="267" class="st0" width="3.7" height="144.3"/>
</g>
<g id="XMLID_1105_" class="st4">
	<rect id="XMLID_1114_" x="1024.1" y="267" class="st0" width="3.7" height="141.2"/>
	<rect id="XMLID_1110_" x="1019.1" y="267" class="st0" width="1.1" height="141.2"/>
	<rect id="XMLID_1107_" x="1011.6" y="267" class="st0" width="3.7" height="141.2"/>
</g>
<g id="XMLID_805_" class="st4">
	<rect id="XMLID_1373_" x="1146.7" y="526.2" class="st0" width="3.7" height="119.6"/>
	<rect id="XMLID_1358_" x="1141.7" y="526.2" class="st0" width="1.1" height="119.6"/>
	<rect id="XMLID_1356_" x="1134.2" y="526.2" class="st0" width="3.7" height="119.6"/>
</g>
<polygon class="st0" points="472.4,117.2 472.4,117.2 472.4,117.2 "/>
<polygon class="st5" points="695.2,143.5 695.2,139.7 511.6,139.7 513.9,143.5 "/>
<polygon class="st5" points="695.2,148.4 695.2,147.3 516.2,147.3 516.9,148.4 "/>
<polygon class="st5" points="695.2,156 695.2,152.3 519.2,152.3 521.4,156 "/>
<g id="XMLID_1458_" class="st4">
	<rect id="XMLID_1468_" x="954.2" y="659.8" class="st0" width="47.3" height="3.7"/>
	<rect id="XMLID_1466_" x="954.2" y="667.4" class="st0" width="47.3" height="1.1"/>
	<rect id="XMLID_1464_" x="954.2" y="672.4" class="st0" width="47.3" height="3.7"/>
</g>
<g id="XMLID_954_" class="st4">
	<rect id="XMLID_1067_" x="403.5" y="692.7" class="st0" width="172" height="3.7"/>
	<rect id="XMLID_1063_" x="403.5" y="700.3" class="st0" width="172" height="1.1"/>
	<rect id="XMLID_1061_" x="403.5" y="705.3" class="st0" width="172" height="3.7"/>
</g>
<polygon class="st5" points="485,145.3 481.3,139.1 481.3,313.6 485,310.2 "/>
<polygon class="st5" points="476.3,130.8 476.3,318.1 477.4,317.1 477.4,132.7 "/>
<polygon class="st5" points="468.8,118.2 468.8,324.9 472.4,321.6 472.4,124.4 "/>
<polygon class="st5" points="395.9,426.8 395.9,704.3 399.6,704.3 399.6,430.9 "/>
<polygon class="st5" points="390.9,704.3 392,704.3 392,422.6 390.9,421.3 "/>
<polygon class="st5" points="383.4,704.3 387,704.3 387,417.1 383.4,413 "/>
<polygon class="st5" points="206.4,314.8 206.4,318.5 387.7,318.5 391.5,314.8 "/>
<polygon class="st5" points="206.4,323.5 382.7,323.5 383.8,322.4 206.4,322.4 "/>
<polygon class="st5" points="206.4,331.1 375.1,331.1 378.8,327.4 206.4,327.4 "/>
<polygon class="st5" points="439.5,29.3 436.3,31.2 605.9,313.5 610.3,313.5 "/>
<polygon class="st5" points="432.1,33.8 600.1,313.5 601.4,313.5 433,33.2 "/>
<polygon class="st5" points="425.6,37.7 591.3,313.5 595.6,313.5 428.7,35.8 "/>
<polygon class="st5" points="857.5,318.5 779.5,318.5 782.9,322.2 857.5,322.2 "/>
<polygon class="st5" points="857.5,327.2 857.5,326.1 786.4,326.1 787.4,327.2 "/>
<polygon class="st5" points="857.5,334.7 857.5,331.1 791,331.1 794.3,334.7 "/>
<polygon class="st5" points="881.4,318.5 877.7,318.5 877.7,534.7 881.5,531.1 "/>
<polygon class="st5" points="872.7,318.5 872.8,539.6 873.9,538.5 873.9,318.5 "/>
<polygon class="st5" points="865.2,318.5 865.2,547 868.9,543.4 868.9,318.5 "/>
<polygon class="st5" points="688.8,627.2 688.8,630.9 863.1,630.9 859.4,627.2 "/>
<polygon class="st5" points="688.8,635.9 868,635.9 866.9,634.8 688.8,634.8 "/>
<polygon class="st5" points="688.8,643.5 875.5,643.5 871.9,639.8 688.8,639.8 "/>
<rect x="1022.9" y="526.1" class="st5" width="3.7" height="150"/>
<rect x="1017.9" y="526.1" class="st5" width="1.1" height="150"/>
<rect x="1010.4" y="526.1" class="st5" width="3.7" height="150"/>
<polygon class="st5" points="1351,-6.1 1287.8,95.4 1287.8,102.7 1354.2,-4.1 "/>
<polygon class="st5" points="1104.2,408.2 1262.5,144.8 1262.5,137.5 1099.8,408.2 "/>
<polygon class="st5" points="1262.5,154.5 1262.5,152.3 1108.7,408.2 1110,408.2 "/>
<polygon class="st5" points="1357.5,-2.1 1287.8,110.2 1287.8,112.4 1358.5,-1.6 "/>
<polygon class="st5" points="1262.5,169.1 1262.5,162 1114.5,408.2 1118.8,408.2 "/>
<polygon class="st5" points="1361.8,0.4 1287.8,119.9 1287.8,127 1365,2.3 "/>
<polygon class="st5" points="1154.5,629.6 1154.5,633.3 1179.7,633.3 1176,629.6 "/>
<polygon class="st5" points="1154.5,637.2 1154.5,638.3 1184.7,638.3 1183.6,637.2 "/>
<polygon class="st5" points="1188.6,642.2 1154.5,642.2 1154.5,645.8 1192.2,645.8 "/>
<polygon class="st5" points="1585.7,437.3 1582,437.3 1582,545.5 1585.7,549.6 "/>
<polygon class="st5" points="1577,437.3 1577,539.9 1578.1,541.2 1578.1,437.3 "/>
<polygon class="st5" points="1569.5,437.3 1569.5,531.6 1573.1,535.7 1573.1,437.3 "/>
<polygon class="st5" points="1330.6,415 1330.6,416.1 1333.7,418.7 1574.3,418.7 1571.3,415 "/>
<polygon class="st5" points="1338.2,422.6 1339.5,423.7 1578.3,423.7 1577.4,422.6 "/>
<polygon class="st5" points="1581.4,427.6 1343.9,427.6 1348.2,431.2 1584.3,431.3 "/>
<polygon class="st5" points="1918.4,629 1596.3,629 1591.9,632.8 1918.4,632.8 "/>
<polygon class="st5" points="1918.4,637.8 1918.4,636.6 1587.4,636.6 1586.1,637.8 "/>
<polygon class="st5" points="1918.4,645.3 1918.4,641.6 1581.6,641.6 1577.4,645.3 "/>
<rect x="955.9" y="16.5" class="st0" width="1.1" height="1.1"/>
</svg>
