<?xml version="1.0" encoding="utf-8"?>
<!-- Generator: Adobe Illustrator 19.2.1, SVG Export Plug-In . SVG Version: 6.00 Build 0)  -->
<svg version="1.1" id="Capa_1" xmlns="http://www.w3.org/2000/svg" xmlns:xlink="http://www.w3.org/1999/xlink" x="0px" y="0px"
	 viewBox="0 0 332.3 482.6" style="enable-background:new 0 0 332.3 482.6;" xml:space="preserve">
<style type="text/css">
	.st0{fill:#E6E6E6;}
</style>
<g>
	<polygon class="st0" points="325.6,34.4 299,0 298,0 324.6,34.4 	"/>
	<polygon class="st0" points="332.3,34.4 305.6,0 302.4,0 329,34.4 	"/>
	<polygon class="st0" points="321.3,34.4 294.6,0 291.4,0 318,34.4 	"/>
</g>
<g>
	<polygon class="st0" points="72.8,11.2 302,11.2 300,8.7 75.3,8.7 	"/>
	<polygon class="st0" points="169.5,413.7 169.5,411.1 15.7,411.5 16.5,414.1 	"/>
	<polygon class="st0" points="169.5,408.5 169.5,407.7 14.6,408 14.8,408.8 	"/>
	<polygon class="st0" points="169.5,402.5 13,402.8 13.8,405.4 169.5,405 	"/>
	<polygon class="st0" points="0,412.4 70.1,481.8 70.1,478.2 1.4,410.1 	"/>
	<polygon class="st0" points="2.9,407.8 70.1,474.4 70.1,473.3 3.3,407.2 	"/>
	<polygon class="st0" points="6.4,402.8 6,402.8 4.8,404.8 70.1,469.6 70.1,466 	"/>
	<rect x="72.6" y="15.9" class="st0" width="2.6" height="391"/>
	<rect x="72.6" y="417.7" class="st0" width="2.6" height="64.9"/>
	<rect x="77.9" y="417.7" class="st0" width="0.8" height="64.9"/>
	<rect x="77.9" y="15.9" class="st0" width="0.8" height="391"/>
	<rect x="81.3" y="15.9" class="st0" width="2.5" height="391"/>
	<rect x="81.3" y="417.7" class="st0" width="2.5" height="64.9"/>
	<polygon class="st0" points="78,6 297.9,6 297.3,5.2 78.7,5.2 	"/>
	<polygon class="st0" points="83.9,0 81.4,2.5 295.2,2.5 293.2,0 	"/>
</g>
</svg>
