<?xml version="1.0" encoding="utf-8"?>
<!-- Generator: Adobe Illustrator 19.2.1, SVG Export Plug-In . SVG Version: 6.00 Build 0)  -->
<svg version="1.1" id="Capa_1" xmlns="http://www.w3.org/2000/svg" xmlns:xlink="http://www.w3.org/1999/xlink" x="0px" y="0px"
	 viewBox="0 0 1275.5 380.3" style="enable-background:new 0 0 1275.5 380.3;" xml:space="preserve">
<style type="text/css">
	.st0{fill:#E6E6E6;}
</style>
<g>
	<polygon class="st0" points="1050.2,227.5 1052,229.3 1275.5,5.8 1275.5,2.2 	"/>
	<polygon class="st0" points="1053.9,231.2 1054.5,231.7 1275.5,10.7 1275.5,9.6 	"/>
	<polygon class="st0" points="1056.4,233.6 1058.2,235.4 1275.5,18.1 1275.5,14.5 	"/>
	
		<rect x="385.4" y="-41.5" transform="matrix(0.7071 -0.7071 0.7071 0.7071 33.3767 306.5488)" class="st0" width="2.6" height="309.1"/>
	
		<rect x="383.3" y="-38.5" transform="matrix(0.7072 -0.707 0.707 0.7072 30.2647 305.2099)" class="st0" width="0.8" height="309.1"/>
	
		<rect x="379.3" y="-35.4" transform="matrix(0.707 -0.7072 0.7072 0.707 27.2511 304.0348)" class="st0" width="2.5" height="309.1"/>
	<g id="XMLID_4922_">
		<g>
			<g id="XMLID_25_">
				<rect x="889.9" y="18.8" class="st0" width="2.6" height="345.8"/>
			</g>
			<g id="XMLID_24_">
				<rect x="895.1" y="18.8" class="st0" width="0.8" height="345.8"/>
			</g>
			<g id="XMLID_23_">
				<rect x="898.6" y="18.8" class="st0" width="2.5" height="345.8"/>
			</g>
		</g>
	</g>
	<polygon class="st0" points="901.7,369.1 673.3,369.1 673.3,371.6 901,371.6 901.7,370.6 	"/>
	<polygon class="st0" points="673.3,375.1 898.8,375.1 899.3,374.3 673.3,374.3 	"/>
	<polygon class="st0" points="673.3,380.3 895.3,380.3 897,377.8 673.3,377.8 	"/>
	<rect y="260.5" class="st0" width="370.3" height="2.6"/>
	<rect y="265.7" class="st0" width="370.3" height="0.8"/>
	<rect y="269.2" class="st0" width="370.3" height="2.5"/>
	<polygon class="st0" points="657,307.1 657,369 659.6,371.6 659.6,307.1 	"/>
	<polygon class="st0" points="662.3,307.1 662.3,374.3 663.1,375.1 663.1,307.1 	"/>
	<polygon class="st0" points="668.3,307.1 665.7,307.1 665.7,377.7 668.3,380.3 	"/>
	<polygon class="st0" points="1266.6,3.1 901.5,3.1 898.8,5.7 1264,5.7 	"/>
	<polygon class="st0" points="1260.6,9.1 1261.3,8.4 896,8.4 895.1,9.1 	"/>
	<polygon class="st0" points="889.9,14.3 1255.3,14.3 1257.9,11.8 892.3,11.8 889.9,14.1 	"/>
	<polygon class="st0" points="0,257.7 3.6,257.7 261.4,0 257.7,0 	"/>
	<polygon class="st0" points="7.4,257.7 8.5,257.7 266.2,0 265.1,0 	"/>
	<polygon class="st0" points="270,0 12.3,257.7 15.9,257.7 273.6,0 	"/>
	
		<rect x="385.4" y="-41.5" transform="matrix(0.7071 -0.7071 0.7071 0.7071 33.3767 306.5488)" class="st0" width="2.6" height="309.1"/>
	
		<rect x="383.3" y="-38.5" transform="matrix(0.7072 -0.707 0.707 0.7072 30.2647 305.2099)" class="st0" width="0.8" height="309.1"/>
	
		<rect x="379.3" y="-35.4" transform="matrix(0.707 -0.7072 0.7072 0.707 27.2511 304.0348)" class="st0" width="2.5" height="309.1"/>
</g>
</svg>
