<?xml version="1.0" encoding="utf-8"?>
<!-- Generator: Adobe Illustrator 19.2.1, SVG Export Plug-In . SVG Version: 6.00 Build 0)  -->
<svg version="1.1" id="Capa_1" xmlns="http://www.w3.org/2000/svg" xmlns:xlink="http://www.w3.org/1999/xlink" x="0px" y="0px"
	 viewBox="0 0 204 770.6" style="enable-background:new 0 0 204 770.6;" xml:space="preserve">
<style type="text/css">
	.st0{fill:#E6E6E6;}
</style>
<path class="st0" d="M191.2,11.4l-0.6,2.6h-323.5v-2.6H191.2z M-132.9,17.4h322.6l0.2-0.8h-322.8V17.4z M-132.9,22.7h321.4l0.6-2.5
	h-322V22.7z"/>
<polygon class="st0" points="54.6,768.6 56.2,770.6 192.3,658.5 192.3,655.2 "/>
<polygon class="st0" points="52.5,765.9 53,766.5 192.3,651.7 192.3,650.7 "/>
<polygon class="st0" points="49.2,761.8 50.8,763.8 192.3,647.3 192.3,644 "/>
<polygon class="st0" points="184.2,29.2 30.7,650.8 32.8,653.4 187,29.2 "/>
<polygon class="st0" points="180.5,29.2 27.8,647.2 28.5,648 181.3,29.2 "/>
<polygon class="st0" points="174.9,29.2 23.5,641.9 25.6,644.5 177.6,29.2 "/>
<polygon class="st0" points="42.2,644.3 41.5,646.9 182.6,646.9 185.6,644.3 "/>
<polygon class="st0" points="40.7,650.3 178.5,650.3 179.5,649.5 40.9,649.5 "/>
<polygon class="st0" points="39.3,655.5 172.4,655.5 175.4,653 40,653 "/>
</svg>
