<?xml version="1.0" encoding="utf-8"?>
<!-- Generator: Adobe Illustrator 19.2.1, SVG Export Plug-In . SVG Version: 6.00 Build 0)  -->
<svg version="1.1" id="Capa_1" xmlns="http://www.w3.org/2000/svg" xmlns:xlink="http://www.w3.org/1999/xlink" x="0px" y="0px"
	 viewBox="0 0 1273.8 344.9" style="enable-background:new 0 0 1273.8 344.9;" xml:space="preserve">
<style type="text/css">
	.st0{fill:#E6E6E6;}
</style>
<g>
	<polygon class="st0" points="870.1,333.7 870.1,336.2 1241.3,336.2 1238.7,333.7 	"/>
	<polygon class="st0" points="870.1,338.9 870.1,339.7 1244.7,339.7 1243.9,338.9 	"/>
	<polygon class="st0" points="1247.4,342.4 870.1,342.4 870.1,344.9 1249.9,344.9 	"/>
	<g id="XMLID_4897_">
		<g>
			<g id="XMLID_29_">
				<rect x="1" y="17.2" class="st0" width="2.6" height="299.6"/>
			</g>
			<g id="XMLID_28_">
				<rect x="6.3" y="17.2" class="st0" width="0.8" height="299.6"/>
			</g>
			<g id="XMLID_27_">
				<rect x="9.7" y="17.2" class="st0" width="2.5" height="299.6"/>
			</g>
		</g>
	</g>
	<polygon class="st0" points="12,0 9.1,2.6 931.9,2.6 929.3,0 	"/>
	<polygon class="st0" points="5.1,6 935.3,6 934.6,5.3 6,5.3 	"/>
	<polygon class="st0" points="0,10.5 0,11.2 940.5,11.2 938,8.7 2,8.7 	"/>
	<polygon class="st0" points="945.1,16.2 941.4,16.2 1270.1,344.9 1273.8,344.9 	"/>
	<polygon class="st0" points="936.5,16.2 1265.3,344.9 1266.4,344.9 937.6,16.2 	"/>
	<polygon class="st0" points="929.2,16.2 1257.9,344.9 1261.5,344.9 932.8,16.2 	"/>
</g>
</svg>
