<?xml version="1.0" encoding="utf-8"?>
<!-- Generator: Adobe Illustrator 19.2.1, SVG Export Plug-In . SVG Version: 6.00 Build 0)  -->
<svg version="1.1" id="Capa_1" xmlns="http://www.w3.org/2000/svg" xmlns:xlink="http://www.w3.org/1999/xlink" x="0px" y="0px"
	 viewBox="0 0 419 352" style="enable-background:new 0 0 419 352;" xml:space="preserve">
<style type="text/css">
	.st0{fill:#E6E6E6;}
</style>
<polygon class="st0" points="1220.9,-50 1220.9,-47.4 1592.1,-47.4 1589.5,-50 "/>
<polygon class="st0" points="1220.9,-44.8 1220.9,-44 1595.5,-44 1594.7,-44.8 "/>
<polygon class="st0" points="1598.2,-41.3 1220.9,-41.3 1220.9,-38.8 1600.7,-38.8 "/>
<g id="XMLID_4897_">
	<g>
		<g id="XMLID_29_">
			<rect x="351.8" y="-366.5" class="st0" width="2.6" height="299.6"/>
		</g>
		<g id="XMLID_28_">
			<rect x="357.1" y="-366.5" class="st0" width="0.8" height="299.6"/>
		</g>
		<g id="XMLID_27_">
			<rect x="360.5" y="-366.5" class="st0" width="2.5" height="299.6"/>
		</g>
	</g>
</g>
<g>
	<g id="XMLID_4911_">
		<g>
			<g id="XMLID_33_">
				<rect y="340.7" class="st0" width="382.6" height="2.6"/>
			</g>
			<g id="XMLID_32_">
				<rect y="346" class="st0" width="382.6" height="0.8"/>
			</g>
			<g id="XMLID_31_">
				<rect y="349.4" class="st0" width="382.6" height="2.5"/>
			</g>
		</g>
	</g>
	<g id="XMLID_6_">
		<g>
			<g id="XMLID_26_">
				<rect x="189.7" class="st0" width="82.7" height="2.6"/>
			</g>
			<g id="XMLID_25_">
				<rect x="189.7" y="5.3" class="st0" width="82.7" height="0.8"/>
			</g>
			<g id="XMLID_24_">
				<rect x="189.7" y="8.7" class="st0" width="82.7" height="2.5"/>
			</g>
		</g>
	</g>
	<polygon class="st0" points="418.9,195 165.8,195 163.2,197.6 418.9,197.6 	"/>
	<polygon class="st0" points="418.9,201 418.9,200.3 160.6,200.3 159.8,201 	"/>
	<polygon class="st0" points="418.9,206.2 418.9,203.7 157.1,203.7 154.6,206.2 	"/>
	<polygon class="st0" points="0,338 3.6,338 146.6,195 143,195 	"/>
	<polygon class="st0" points="7.4,338 8.5,338 151.5,195 150.4,195 	"/>
	<polygon class="st0" points="155.3,195 12.3,338 15.9,338 158.9,195 	"/>
	<polygon class="st0" points="418.4,212.5 415.8,212.5 415.8,324.7 418.4,327.3 	"/>
	<polygon class="st0" points="412.4,212.5 412.4,321.2 413.2,322 413.2,212.5 	"/>
	<polygon class="st0" points="407.2,212.5 407.2,316 409.7,318.6 409.7,212.5 	"/>
	<polygon class="st0" points="419,335.3 173.5,89.8 173.5,93.5 415.3,335.3 	"/>
	<polygon class="st0" points="410.5,335.3 411.6,335.3 173.5,97.2 173.5,98.3 	"/>
	<polygon class="st0" points="403.1,335.3 406.7,335.3 173.5,102.1 173.5,105.7 	"/>
	<polygon class="st0" points="173.5,1.7 173.5,83.8 176.1,85.9 176.1,1.7 	"/>
	<polygon class="st0" points="178.8,1.7 178.8,88.2 179.6,88.8 179.6,1.7 	"/>
	<polygon class="st0" points="184.8,1.7 182.2,1.7 182.2,91.1 184.8,93.2 	"/>
</g>
<polygon class="st0" points="362.8,-383.7 359.9,-381.1 1282.7,-381.1 1280.1,-383.7 "/>
<polygon class="st0" points="355.9,-377.6 1286.1,-377.6 1285.4,-378.4 356.8,-378.4 "/>
<polygon class="st0" points="350.8,-373.2 350.8,-372.4 1291.4,-372.4 1288.8,-375 352.8,-375 "/>
<polygon class="st0" points="1295.9,-367.5 1292.2,-367.5 1620.9,-38.8 1624.6,-38.8 "/>
<polygon class="st0" points="1287.3,-367.5 1616.1,-38.8 1617.2,-38.8 1288.4,-367.5 "/>
<polygon class="st0" points="1280,-367.5 1608.7,-38.8 1612.3,-38.8 1283.6,-367.5 "/>
</svg>
