<?xml version="1.0" encoding="utf-8"?>
<!-- Generator: Adobe Illustrator 19.2.1, SVG Export Plug-In . SVG Version: 6.00 Build 0)  -->
<svg version="1.1" id="Capa_1" xmlns="http://www.w3.org/2000/svg" xmlns:xlink="http://www.w3.org/1999/xlink" x="0px" y="0px"
	 viewBox="0 0 128 339.5" style="enable-background:new 0 0 128 339.5;" xml:space="preserve">
<style type="text/css">
	.st0{fill:#E6E6E6;}
</style>
<g>
	<g>
		<polygon class="st0" points="25.6,18.2 70.3,75.1 70.3,70.9 25.6,14.1 		"/>
		<polygon class="st0" points="25.6,9.8 70.3,66.6 70.3,65.4 25.6,8.5 		"/>
		<polygon class="st0" points="25.6,0 25.6,4.2 70.3,61 70.3,56.9 		"/>
	</g>
	<polygon class="st0" points="0,282.1 115.4,282.1 117.8,279.5 0,279.5 	"/>
	<polygon class="st0" points="0,276.9 120.4,276.9 121.1,276.1 0,276.1 	"/>
	<polygon class="st0" points="125.9,270.9 0,270.9 0,273.4 123.6,273.4 125.9,271 	"/>
	<polygon class="st0" points="70.3,83.8 67.7,80.1 67.7,330.1 70.3,327.5 	"/>
	<polygon class="st0" points="64.2,75.2 64.2,333.5 65,332.7 65,76.3 	"/>
	<polygon class="st0" points="59,67.8 59,337.8 59.9,337.8 61.6,336.2 61.6,71.4 	"/>
	<polygon class="st0" points="128,288.8 128,285.2 77.6,335.5 82.5,334.3 	"/>
	<polygon class="st0" points="128,281.4 128,280.3 71.1,337.1 72.6,336.8 	"/>
	<polygon class="st0" points="128,272.9 61.6,339.3 61.7,339.5 66.1,338.4 128,276.5 	"/>
</g>
</svg>
