<?xml version="1.0" encoding="utf-8"?>
<!-- Generator: Adobe Illustrator 19.2.1, SVG Export Plug-In . SVG Version: 6.00 Build 0)  -->
<svg version="1.1" id="Capa_1" xmlns="http://www.w3.org/2000/svg" xmlns:xlink="http://www.w3.org/1999/xlink" x="0px" y="0px"
	 viewBox="0 0 157.3 175.5" style="enable-background:new 0 0 157.3 175.5;" xml:space="preserve">
<style type="text/css">
	.st0{fill:#E6232F;}
</style>
<g>
	<g>
		<g>
			<path d="M146.1,81.8c0.1,4.2-0.6,9.9-2,15.5c-1.3,5.4-3.2,10.5-5.9,15.4c-0.8,1.5-1.7,3-2.5,4.6c-0.3,0.7-0.8,0.9-1.5,0.7
				c-3.3-0.9-6.6-0.8-9.9-0.7c-3.1,0.1-6.1,0.9-9,2c-0.4,0.2-0.9,0.9-0.9,1.4c-0.1,1.5-0.6,2.5-2,2.8c-4.2,0.8-7,3.5-9.4,6.7
				c-1.6,2.1-3.9,3-6.4,3.4c-0.3,0-0.6-0.1-0.9-0.2c-0.1,0,0-0.5,0.1-0.7c1.8-2.7,3.6-5.4,5.5-8.1c1.3-1.8,2.6-3.6,3.9-5.4
				c1.3-1.9,2-4,2.3-6.3c0.3-2.4,0.9-4.7,1.4-7c0.1-0.6,0.3-1.2,0.4-1.8c0.2-0.9-0.2-1.2-1.1-0.9c-0.9,0.3-1.7,0.5-2.6,0.9
				c-1.7,0.7-3.3,0.7-5,0.1c-2.3-0.8-4.5-1.1-6.7,0.2c-1,0.6-2.3,0.6-3.3,0.1c-2.6-1.4-5.2-0.8-7.9-0.3c-3.5,0.6-7,1.2-10.6,0.4
				c-1.9-0.4-3.5-1.6-5.1-2.7c-2.3-1.7-4.3-3.8-6-6.1c-0.3-0.4-0.6-0.8-1-1.2c-0.7-0.6-1.4-0.6-2.1-0.2c-0.2,0.1-0.3,0.2-0.5,0.3
				c-1.6,1-2.7,0.8-3.8-0.8c-0.6-0.9-1.2-1.9-1.9-2.8c-1.1-1.4-2.4-2.7-4.1-3.4c-3.9-1.6-7.3,1.2-7.6,4.8c-0.1,1.8,0.5,3.4,1.7,4.8
				c0.8,1,1.5,2,2.2,3c0.7,1.1,1.5,1.9,2.6,2.5c0.3,0.1,0.5,0.3,0.7,0.5c0.6,0.5,1.1,1.1,0.7,1.8c-0.3,0.5-0.9,1.1-1.5,1.2
				c-3.1,0.7-6.1-0.4-7.6-3.3c-1.8-3.4-5.3-4.3-8.8-2.7c-4,1.9-8.3,2.6-12.7,2.5c-0.6,0-1.2,0-1.8,0c-0.8,0.1-1.2-0.3-1.4-1
				c-1.7-5.6-2.6-11.2-3-17c-0.3-4.6,0-9.1,0.7-13.5c0.8-5.9,2.4-11.6,4.7-17c3.2-7.3,7.4-14,12.8-19.9c4.1-4.4,8.7-8.3,13.8-11.5
				c3.7-2.3,7.6-4.4,11.8-5.9c3.1-1.1,6.2-2.2,9.4-2.9c5.3-1.2,10.8-1.7,16.3-1.6c4.2,0.1,8.4,0.6,12.5,1.5c4.5,1,9,2.4,13.2,4.4
				c6.4,3,12.2,6.8,17.4,11.5c4.5,4.2,8.6,8.8,11.7,14.1c2,3.3,3.8,6.8,5.4,10.4c1.2,2.7,2,5.7,2.8,8.5
				C145.3,68.6,146,74.4,146.1,81.8z"/>
			<path d="M78.3,144.4c0,4.6,0,9.2,0,13.9c0,1,0.1,1.9,0.1,2.9c0.1,0.8-0.3,1.3-1.2,1.3c-1,0-2,0-3,0c-0.8,0-1.2-0.4-1.2-1.2
				c0-0.5,0-1-0.1-1.4c0-0.2-0.2-0.4-0.4-0.6c-0.2,0.1-0.4,0.2-0.5,0.4c-3.4,4.7-11.8,4.7-15.4-1c-2.6-4.1-2.9-8.6-1.6-13.1
				c0.9-3,2.5-5.4,5.3-7c2.9-1.7,8.3-1.9,11,1c0.1,0.1,0.4,0.2,0.6,0.2c0.1-0.3,0.3-0.5,0.3-0.8c0-2.9,0-5.9,0-8.8
				c0-0.8,0-1.7,0-2.5c0-0.7,0.4-1,1.1-0.8c1.2,0.3,2.4,0.6,3.6,0.9c1.2,0.3,1.4,0.5,1.4,1.8C78.4,134.5,78.4,139.4,78.3,144.4
				C78.4,144.4,78.4,144.4,78.3,144.4z M72.3,149.9C72.3,149.9,72.3,149.9,72.3,149.9c0-1.1,0.1-2.2-0.1-3.3
				c-0.4-2.1-1.6-3.7-3.7-4.3c-3.6-1.1-6.5,1.2-7.4,4.7c-0.5,2.1-0.5,4.1-0.1,6.2c0.6,2.9,3.2,5,6,4.8c2.8-0.2,5-2.4,5.2-5.4
				C72.3,151.8,72.3,150.8,72.3,149.9z"/>
			<path d="M44.2,151.8c-2.3,0-4.6,0-6.9,0c-1.1,0-1.4,0.4-1.1,1.4c0.9,3,2.8,4.6,5.9,4.9c2.4,0.3,4.7,0,7-0.6
				c0.9-0.2,1.2,0,1.4,0.9c0.1,0.7,0.3,1.5,0.4,2.2c0,0.3-0.3,0.9-0.5,0.9c-1.7,0.5-3.4,1-5.1,1.2c-2.5,0.3-4.9,0.3-7.4-0.5
				c-3.4-1.1-5.7-3.3-6.8-6.6c-1.6-4.6-1.2-9.2,1.5-13.4c2.3-3.7,5.8-5.1,10-5.1c5.1,0.1,8.5,3.6,9.4,8.1c0.3,1.7,0.4,3.5,0.4,5.2
				c0,1.3-0.2,1.4-1.5,1.4C48.6,151.8,46.4,151.8,44.2,151.8L44.2,151.8z M41.4,147.6c1.1,0,2.1,0,3.2,0c2.3,0,2.4-0.1,1.9-2.4
				c-0.8-3.4-4.5-4.9-7.5-3c-1.5,0.9-2.2,2.3-2.7,3.9c-0.4,1.2-0.2,1.5,1.1,1.5C38.7,147.6,40,147.6,41.4,147.6z"/>
			<path d="M20.7,141.7c0.3-0.5,0.5-0.9,0.8-1.4c1.4-1.9,3.3-3.2,5.8-3.1c0.8,0,1.2,0.3,1.2,1.1c0,1.2,0,2.5,0,3.7
				c0,0.8-0.3,1.1-1.1,1c-3.9-0.4-6.4,2.8-6.4,5.9c0,4-0.1,8.1-0.1,12.1c0,1.3-0.2,1.5-1.4,1.5c-1.1,0-2.1,0-3.2,0
				c-1.2,0-1.4-0.2-1.4-1.4c0-6.3,0-12.5,0-18.8c0-1.2,0-2.3-0.1-3.5c0-0.7,0.3-1,1-1c1,0,2.1,0,3.1,0c0.8,0,1.1,0.3,1.1,1.1
				c0,0.6,0,1.2,0.1,1.8c0,0.3,0.2,0.6,0.3,1C20.6,141.7,20.7,141.7,20.7,141.7z"/>
			<path d="M86.9,141.9c0.2-0.3,0.3-0.7,0.6-1c1.9-2.5,4.6-3.7,7.7-3.5c3.4,0.2,6.2,2.3,7.1,5.9c0.4,1.7,0.6,3.5,0.6,5.2
				c0.1,4.2,0,8.4,0,12.6c0,1.1-0.2,1.3-1.2,1.3c-1,0-1.2-0.2-1.2-1.3c0-4.3,0-8.5,0-12.8c0-2-0.2-3.8-1.1-5.6
				c-1.3-2.5-3.6-3.3-6.2-3.1c-3.9,0.4-6.8,4.1-6.8,8c0,4.5,0,9,0,13.5c0,0.8-0.2,1.3-1,1.3c-1.1,0.1-1.4-0.2-1.4-1.3
				c0-5.5,0-11.1,0-16.6c0-4.5,0-9,0-13.6c0-0.5-0.3-1.2,0.6-1.3c1.1-0.1,1.8,0.5,1.8,1.4c0,3.1,0,6.3,0,9.4c0,0.4,0.1,0.7,0.1,1.1
				C86.6,141.7,86.8,141.8,86.9,141.9z"/>
			<path d="M121.2,159.4c-1,0.8-1.9,1.6-2.9,2.3c-2.5,1.6-6.8,1.6-8.9,0c-3.6-2.7-3.6-8.4,0-11.4c1.8-1.4,3.9-2.2,6.2-2.5
				c1.5-0.2,3.1-0.3,4.6-0.4c0.8-0.1,1.3-0.4,1.2-1.3c-0.3-2.3-0.6-4.7-3-6c-0.9-0.5-2-0.7-3-0.8c-1.9-0.1-3.8,0.3-5.5,1.3
				c-0.5,0.3-0.8,0.3-1.1-0.2c-0.3-0.5-0.5-1,0.1-1.3c0.5-0.3,1.1-0.7,1.7-0.9c2.9-1.1,5.8-1.5,8.7-0.2c2.5,1.1,3.7,3.3,4,5.9
				c0.2,2.5,0.2,5,0.3,7.4c0.1,3.2,0.2,6.5,0.3,9.7c0,0.6,0,1.1-0.8,1.2c-0.8,0.1-1.4-0.1-1.5-1c-0.1-0.6-0.1-1.1-0.2-1.7
				C121.4,159.6,121.3,159.5,121.2,159.4z M121.3,152.6c0-0.5,0-1.1,0-1.6c0-1.3-0.3-1.7-1.6-1.5c-2.1,0.2-4.3,0.4-6.3,1
				c-3.7,1.1-5.2,4.4-4,7.7c0.5,1.3,1.4,2.3,2.8,2.6c2.4,0.5,4.7,0.1,6.6-1.5C120.9,157.4,121.6,155.2,121.3,152.6z"/>
			<path d="M130.7,149c0-2.6,0-5.2,0-7.8c0-0.9-0.3-1.3-1.2-1.2c-0.6,0-1.2,0-1.8,0c-0.7,0-1-0.3-1-1c0-0.7,0.4-0.9,1-0.9
				c0.7,0,1.4,0,2.1,0c0.7,0,1-0.3,1-0.9c0-0.9,0-1.7,0-2.6c0-0.8,1.3-1.8,2-1.6c0.2,0.1,0.4,0.5,0.4,0.8c0,1.1,0,2.1,0,3.2
				c0,0.8,0.3,1.2,1.1,1.1c1.5,0,3.1,0,4.7,0c0.7,0,1.1,0.2,1.1,1c0,0.8-0.5,1-1.1,0.9c-1.6,0-3.1,0-4.7,0c-0.8,0-1.1,0.3-1.1,1.1
				c0,5.2,0,10.3,0,15.5c0,0.7,0.1,1.4,0.3,2c0.8,2.1,1.9,2.6,4.8,2.3c0.3,0,0.8,0,1.1,0.2c0.5,0.4,0.2,1.4-0.4,1.6
				c-1.9,0.9-5.4,0.2-6.7-1.4c-1.1-1.3-1.4-3-1.5-4.7C130.6,154,130.7,151.5,130.7,149L130.7,149z"/>
			<path d="M81.9,114.4c0-1,0.5-1.6,1.4-1.9c1.2-0.3,2.3-0.2,3.4,0.4c0.2,0.1,0.5,0.3,0.7,0.4c2.5,1.5,3,1.4,5.1-0.7
				c0.2-0.2,0.7-0.5,0.9-0.4c0.3,0.1,0.4,0.5,0.5,0.8c0.1,0.3,0.1,0.6,0,0.9c-0.4,1.9-2.2,3.7-4.1,3.9c-0.8,0.1-1.8-0.2-2.6-0.6
				c-1.3-0.7-2.4-1.4-4-1.2C82.3,116,81.9,115.4,81.9,114.4z"/>
		</g>
	</g>
	<g>
		<path class="st0" d="M136.1,74.8c-0.5-2.6-2.8-6.2-8.4-9.3c-5.6-3.2-8.5-2.6-8.5-2.6s0.1,0.7-1.1,2.5c-1.2,1.8-1.8,3.7-4.3,4.3
			c-2.5,0.7-1.1,0.1,0-1.7c1.1-1.8,2.2-4.6,2.2-6.4c0-1.8-2.6-10.1-3.7-13.8c-1.1-3.7-5.1-11.7-6.4-14.2c-1.3-2.5-4.1-5-7.4-6.2
			c-3.3-1.2-8.3-1.3-9.9-1.1c-1.6,0.3-6,2.4-9.2,2.2c-3.2-0.1-6.2,0-11.4-1.3c-5.3-1.3-9.7,1.6-10.9,3.3c-1.2,1.7-2.1,4.9-2.5,6.8
			s-2.6,8.7-2.6,10.1s-0.5,4.2,1.2,6c1.7,1.8,9.2,5.6,13.7,6.7c4.5,1.1,10.2,2.1,12.5,3.3c2.2,1.2,3.4,1.6,3.8,2.6
			c0.4,1.1,0.3,1.8,0.5,2.8c0.3,0.9,0.9,2.8,1.7,3.8c0.8,1.1,2.2,1.8,2.2,1.8s0.9,0.9-0.4,1.3c-1.3,0.4-3.8,0.7-9.3-0.9
			c-5.5-1.6-13.7-3.9-18.1-6.2c-4.5-2.2-9.2-5.3-10.2-8.5c-1.1-3.3,0.7-5.6-0.1-6.4c0,0-8.7-0.8-12.2,0c-3.5,0.8-8.1,2.4-9.6,6.6
			c-1.4,4.2,3,10.8,9.9,16c6.8,5.3,24,14.2,28.5,15.4c4.5,1.2,17.5,7,32.8,7s25.1-2.9,31.8-9.1C137.3,83.5,136.7,77.4,136.1,74.8z
			 M79.1,44.2C78.1,45,77,45,74.3,45.1c-2.8,0.1-5.5,0.9-6.4,1.4c-0.9,0.5-1.6,1.3-2.8,1.8c-1.2,0.5-1.6-0.3-2.1-0.8
			c-0.5-0.5-0.5-1.6-2.2-2.8c-1.7-1.2-1.7-1.6-2.1-3.8c-0.4-2.2,1.4-3,2.5-3.2c1.1-0.1,1.8,1.7,1.8,1.7c1.8,1.7,3,1.7,4.5,1.4
			c1.4-0.3,5-0.1,7.5-0.4c2.5-0.3,3.2,0.5,4.2,1.3C80.2,42.7,80.2,43.4,79.1,44.2z M99.1,36c-1.2,0.4-3.9,1.4-7.5,1.2
			C88.1,37,88.9,36,88.9,36s1.8-0.7,3.1-1.4c1.3-0.8,1.6-1.2,0-2.5c-1.6-1.3-7.2-0.7-7.2-0.7c-0.7-0.7,0.8-0.8,2.5-1.3
			c1.7-0.5,5.3-1.3,8.1-0.5c2.9,0.8,4.7,1.6,5.4,3.3C101.5,34.6,100.3,35.6,99.1,36z"/>
	</g>
</g>
</svg>
