<svg id="Capa_1" data-name="Capa 1" xmlns="http://www.w3.org/2000/svg" viewBox="0 0 151.12 168.62"><defs><style>.cls-1{fill:#b3b3b3;}.cls-2{fill:#999;}</style></defs><title>logo</title><path class="cls-1" d="M148.93,77.89a66.85,66.85,0,0,1-2.14,16.91,70.6,70.6,0,0,1-6.39,16.77c-0.91,1.66-1.89,3.29-2.77,5a1.26,1.26,0,0,1-1.62.76,35,35,0,0,0-10.79-.74,31,31,0,0,0-9.84,2.16,2.07,2.07,0,0,0-1,1.52c-0.12,1.62-.6,2.68-2.21,3-4.52.92-7.57,3.83-10.28,7.24a10.32,10.32,0,0,1-7,3.69,1.61,1.61,0,0,1-1-.25,1,1,0,0,1,.13-0.73c2-2.94,3.95-5.87,6-8.78,1.38-2,2.88-3.89,4.24-5.89a15,15,0,0,0,2.51-6.84c0.3-2.56,1-5.08,1.56-7.61,0.14-.65.37-1.29,0.48-1.94,0.18-1-.2-1.31-1.18-1a27.54,27.54,0,0,0-2.8.94,7.25,7.25,0,0,1-5.44.06c-2.46-.88-4.88-1.21-7.32.18a3.76,3.76,0,0,1-3.58.12c-2.83-1.49-5.67-.86-8.55-0.33-3.81.7-7.65,1.26-11.51,0.43a14.26,14.26,0,0,1-5.52-3A32.87,32.87,0,0,1,56.45,93a9.62,9.62,0,0,0-1.11-1.26A1.75,1.75,0,0,0,53,91.52l-0.53.34c-1.73,1.09-2.95.82-4.09-.91-0.68-1-1.29-2.1-2-3.07a10.89,10.89,0,0,0-4.49-3.71c-4.24-1.72-7.93,1.26-8.25,5.22a7.07,7.07,0,0,0,1.82,5.22,32.8,32.8,0,0,1,2.4,3.31,7.47,7.47,0,0,0,2.83,2.76,5.65,5.65,0,0,1,.79.52,1.6,1.6,0,0,1,.78,2,2.77,2.77,0,0,1-1.59,1.3,7.1,7.1,0,0,1-8.25-3.63c-2-3.74-5.71-4.72-9.52-2.9a29.94,29.94,0,0,1-13.81,2.76,16.24,16.24,0,0,0-2,0A1.29,1.29,0,0,1,5.59,99.6,87.68,87.68,0,0,1,2.31,81.07,68.52,68.52,0,0,1,3,66.35,71.11,71.11,0,0,1,8.18,47.85a76.61,76.61,0,0,1,14-21.65,73.46,73.46,0,0,1,15-12.56A62.64,62.64,0,0,1,49.92,7.26,92.23,92.23,0,0,1,60.18,4.15,71,71,0,0,1,77.87,2.46,77.46,77.46,0,0,1,91.46,4.1,67.24,67.24,0,0,1,105.8,8.9a73.18,73.18,0,0,1,18.88,12.53,68.4,68.4,0,0,1,12.73,15.37,108.24,108.24,0,0,1,5.87,11.28,76.08,76.08,0,0,1,3.05,9.28C148.15,63.5,148.91,69.8,148.93,77.89Z"/><path class="cls-1" d="M75.24,146c0,5,0,10.06,0,15.09,0,1.05.09,2.11,0.16,3.16a1.08,1.08,0,0,1-1.26,1.37c-1.09,0-2.18-.05-3.27,0a1.16,1.16,0,0,1-1.34-1.27,13.42,13.42,0,0,0-.14-1.58,2.24,2.24,0,0,0-.41-0.67,2.27,2.27,0,0,0-.55.4c-3.71,5.08-12.84,5.08-16.71-1.09-2.83-4.5-3.11-9.32-1.69-14.3a12.42,12.42,0,0,1,5.76-7.61c3.16-1.87,9.06-2.07,12,1.08a1.78,1.78,0,0,0,.61.27,3,3,0,0,0,.28-0.85c0-3.2,0-6.4.05-9.6,0-.91,0-1.83,0-2.74a0.83,0.83,0,0,1,1.24-.89c1.28,0.37,2.58.68,3.87,1s1.49,0.55,1.49,2q0,8.13,0,16.25H75.24Zm-6.59,5.94h0.08a30.61,30.61,0,0,0-.18-3.57,5.51,5.51,0,0,0-4-4.69c-4-1.18-7.08,1.25-8.09,5.14a14.74,14.74,0,0,0-.09,6.78,6.49,6.49,0,0,0,6.57,5.24,6.09,6.09,0,0,0,5.7-5.84C68.71,154,68.65,153,68.65,151.94Z"/><path class="cls-1" d="M38,154c-2.5,0-5,0-7.49,0-1.22,0-1.53.44-1.19,1.58a6.89,6.89,0,0,0,6.4,5.38,20.26,20.26,0,0,0,7.63-.68,1,1,0,0,1,1.55,1,16.12,16.12,0,0,1,.41,2.38,1.24,1.24,0,0,1-.57,1A34.85,34.85,0,0,1,39.26,166a19.29,19.29,0,0,1-8-.57,11,11,0,0,1-7.45-7.17,16.42,16.42,0,0,1,1.63-14.57c2.53-4,6.31-5.6,10.92-5.54,5.58,0.06,9.21,3.88,10.18,8.8a32.94,32.94,0,0,1,.49,5.64c0,1.38-.22,1.51-1.67,1.52-2.43,0-4.85,0-7.28,0v0Zm-3-4.61h3.48c2.52,0,2.63-.13,2.06-2.58a5.31,5.31,0,0,0-8.12-3.3,7.18,7.18,0,0,0-2.92,4.23c-0.41,1.32-.23,1.63,1.18,1.64S33.56,149.43,35,149.43Z"/><path class="cls-1" d="M12.57,143.07c0.31-.5.58-1,0.92-1.48a7.31,7.31,0,0,1,6.3-3.39,1.08,1.08,0,0,1,1.28,1.25c0,1.33,0,2.67,0,4a0.9,0.9,0,0,1-1.16,1.06,6.34,6.34,0,0,0-7,6.43c0,4.39-.11,8.78-0.16,13.17,0,1.39-.18,1.59-1.56,1.63-1.16,0-2.32,0-3.48,0-1.31,0-1.52-.22-1.52-1.54q0-10.23,0-20.45c0-1.26,0-2.53-.09-3.79a0.91,0.91,0,0,1,1-1.11c1.12,0,2.25,0,3.37,0A1.05,1.05,0,0,1,11.82,140c0,0.67.05,1.34,0.13,2a6.69,6.69,0,0,0,.29,1h0.32Z"/><path class="cls-1" d="M84.57,143.28a7.89,7.89,0,0,1,.61-1.11,9.35,9.35,0,0,1,8.37-3.78,8.23,8.23,0,0,1,7.74,6.37,26,26,0,0,1,.69,5.71c0.09,4.57,0,9.14,0,13.72,0,1.16-.23,1.39-1.32,1.39s-1.33-.26-1.33-1.39q0-7,0-13.93a13.12,13.12,0,0,0-1.24-6.12c-1.39-2.76-3.93-3.59-6.79-3.33-4.27.39-7.44,4.48-7.44,8.72,0,4.89,0,9.78,0,14.67,0,0.82-.18,1.36-1.12,1.42-1.16.07-1.52-.24-1.52-1.42q0-9,0-18c0-4.92,0-9.85,0-14.77,0-.53-0.3-1.32.66-1.38a1.66,1.66,0,0,1,2,1.51c0,3.41,0,6.82,0,10.23,0,0.39.07,0.78,0.11,1.18Z"/><path class="cls-1" d="M121.88,162.33c-1.11.87-2.09,1.78-3.2,2.49-2.74,1.76-7.4,1.73-9.74,0-4-2.88-4-9.19,0-12.36a13.15,13.15,0,0,1,6.75-2.72c1.67-.2,3.36-0.33,5-0.45a1.1,1.1,0,0,0,1.25-1.38c-0.35-2.53-.63-5.14-3.23-6.48a8.1,8.1,0,0,0-3.22-.82,10.54,10.54,0,0,0-6,1.44c-0.55.33-.91,0.3-1.22-0.23s-0.51-1.07.15-1.47a11.17,11.17,0,0,1,1.86-1c3.12-1.17,6.3-1.61,9.43-.19a7.38,7.38,0,0,1,4.33,6.42c0.25,2.69.21,5.4,0.3,8.11,0.11,3.51.21,7,.33,10.53,0,0.68,0,1.19-.87,1.25s-1.47-.11-1.58-1.09c-0.07-.63-0.15-1.25-0.24-1.87A0.66,0.66,0,0,0,121.88,162.33Zm0.13-7.46c0-.6,0-1.19,0-1.79,0-1.45-.28-1.81-1.73-1.65a41,41,0,0,0-6.84,1.06,6.17,6.17,0,0,0-4.32,8.42,4.13,4.13,0,0,0,3,2.83,7.77,7.77,0,0,0,7.19-1.68A8,8,0,0,0,122,154.87Z"/><path class="cls-1" d="M132.19,151c0-2.85,0-5.69,0-8.54,0-1-.32-1.44-1.34-1.35-0.66.05-1.33,0-2,0a1,1,0,0,1-1.09-1.09,0.91,0.91,0,0,1,1.07-1c0.77,0,1.55,0,2.32,0a0.87,0.87,0,0,0,1-1c0-.95,0-1.9,0-2.85a2.06,2.06,0,0,1,2.21-1.7,1.09,1.09,0,0,1,.42.84c0,1.16,0,2.32,0,3.48A1,1,0,0,0,136,139c1.69,0,3.37,0,5.06,0a1,1,0,0,1,1.2,1.07c0,0.88-.51,1-1.24,1-1.69,0-3.37,0-5.06,0a1,1,0,0,0-1.21,1.17c0,5.62,0,11.25,0,16.87a6.27,6.27,0,0,0,.34,2.17c0.89,2.33,2.06,2.86,5.19,2.54a1.67,1.67,0,0,1,1.15.21,1.15,1.15,0,0,1-.39,1.77c-2,.94-5.83.21-7.26-1.48a8,8,0,0,1-1.62-5.12c-0.1-2.74,0-5.48,0-8.22h0Z"/><path class="cls-1" d="M79.12,113.29a2,2,0,0,1,1.58-2.09,4.75,4.75,0,0,1,3.67.44l0.73,0.41c2.75,1.61,3.22,1.54,5.57-.71a1.31,1.31,0,0,1,1-.44,1.5,1.5,0,0,1,.58.92,1.88,1.88,0,0,1,0,.93,5.6,5.6,0,0,1-4.5,4.21,5.37,5.37,0,0,1-2.79-.71c-1.37-.72-2.62-1.56-4.32-1.33C79.58,115.06,79.11,114.37,79.12,113.29Z"/><path class="cls-2" d="M138.13,70.21c-0.57-2.86-3-6.72-9.15-10.15s-9.29-2.86-9.29-2.86,0.14,0.71-1.14,2.72-2,4-4.72,4.72-1.14.14,0-1.86,2.43-5,2.43-7-2.86-11-4-15-5.57-12.72-7-15.44a15.14,15.14,0,0,0-8-6.72,28.07,28.07,0,0,0-10.72-1.14c-1.72.29-6.57,2.57-10,2.43a50.48,50.48,0,0,1-12.43-1.43C58.37,17,53.51,20.19,52.23,22a23.27,23.27,0,0,0-2.72,7.43c-0.43,2.14-2.86,9.43-2.86,11s-0.57,4.57,1.29,6.57,10,6.15,14.86,7.29S74,56.63,76.38,57.92s3.72,1.72,4.15,2.86a27.36,27.36,0,0,1,.57,3A14.88,14.88,0,0,0,83,67.93a8.79,8.79,0,0,0,2.43,2A0.79,0.79,0,0,1,85,71.36c-1.43.43-4.14,0.71-10.15-1s-14.86-4.29-19.72-6.72-10-5.72-11.15-9.29,0.71-6.15-.14-7c0,0-9.43-.86-13.29,0s-8.86,2.57-10.43,7.15,3.29,11.72,10.72,17.44,26.16,15.44,31,16.72,19,7.58,35.73,7.58,27.3-3.14,34.59-9.86S138.7,73.07,138.13,70.21Zm-62-33.3c-1.14.86-2.29,0.86-5.29,1a19.47,19.47,0,0,0-7,1.57,27.29,27.29,0,0,1-3,2c-1.29.57-1.72-.29-2.29-0.86s-0.57-1.72-2.39-3-1.9-1.72-2.33-4.15A2.87,2.87,0,0,1,56.51,30c1.14-.14,2,1.86,2,1.86,2,1.86,3.29,1.86,4.86,1.57s5.43-.14,8.15-0.43a5.05,5.05,0,0,1,4.57,1.43C77.24,35.34,77.24,36.05,76.1,36.91ZM97.82,28a19.71,19.71,0,0,1-8.15,1.29C85.81,29,86.76,28,86.76,28a24.13,24.13,0,0,0,3.34-1.57c1.43-.86,1.72-1.29,0-2.72S82.24,23,82.24,23c-0.71-.71.86-0.86,2.72-1.43s5.72-1.43,8.86-.57,5.15,1.72,5.86,3.57S99.11,27.62,97.82,28Z"/></svg>