<?xml version="1.0" standalone="no"?>
<!DOCTYPE svg PUBLIC "-//W3C//DTD SVG 20010904//EN"
 "http://www.w3.org/TR/2001/REC-SVG-20010904/DTD/svg10.dtd">
<svg version="1.0" xmlns="http://www.w3.org/2000/svg"
 width="388.000000pt" height="165.000000pt" viewBox="0 0 388.000000 165.000000"
 preserveAspectRatio="xMidYMid meet">
<metadata>
Created by potrace 1.14, written by Peter Selinger 2001-2017
</metadata>
<g transform="translate(0.000000,165.000000) scale(0.100000,-0.100000)"
fill="#000000" stroke="none">
<path d="M100 810 l0 -180 40 0 39 0 3 73 3 72 68 3 67 3 0 -76 0 -75 40 0 40
0 0 180 0 180 -40 0 -40 0 0 -75 0 -76 -67 3 -68 3 -3 73 -3 72 -39 0 -40 0 0
-180z"/>
<path d="M1120 830 c0 -157 1 -161 25 -185 16 -17 35 -25 60 -25 32 0 35 2 35
29 0 20 -6 30 -20 34 -19 5 -20 14 -20 156 l0 151 -40 0 -40 0 0 -160z"/>
<path d="M2000 811 l0 -181 40 0 40 0 0 55 0 55 40 0 c117 0 187 100 134 189
-27 45 -52 55 -156 59 l-98 4 0 -181z"/>
<path d="M2810 810 l0 -180 39 0 40 0 3 52 3 53 34 -53 c32 -50 35 -52 78 -52
l45 0 -47 66 -46 66 46 59 46 59 -45 0 c-42 0 -47 -3 -78 -46 l-33 -46 -3 101
-3 101 -39 0 -40 0 0 -180z"/>
<path d="M3720 924 l0 -65 -22 15 c-28 20 -61 20 -99 0 -79 -40 -77 -202 2
-244 13 -8 38 -10 63 -6 23 4 62 7 89 6 l47 -1 0 181 0 180 -40 0 -40 0 0 -66z"/>
<path d="M1560 915 c0 -28 -4 -35 -20 -35 -15 0 -20 -7 -20 -26 0 -17 6 -28
20 -31 17 -5 20 -14 20 -64 0 -107 31 -146 106 -137 25 2 29 8 32 35 3 27 0
32 -12 27 -30 -12 -46 15 -46 77 l0 59 50 0 50 0 0 -75 c0 -67 3 -79 25 -100
18 -18 35 -25 65 -25 39 0 40 1 40 36 0 19 -4 33 -9 30 -5 -4 -16 -3 -25 0
-12 5 -16 21 -16 70 0 62 1 64 25 64 21 0 25 5 25 30 0 25 -4 30 -25 30 -22 0
-25 4 -25 35 0 34 -1 35 -40 35 -39 0 -40 -1 -40 -35 l0 -35 -50 0 -50 0 0 35
c0 34 -1 35 -40 35 -39 0 -40 -1 -40 -35z"/>
<path d="M524 880 c-11 -4 -33 -22 -47 -40 -21 -25 -27 -42 -27 -81 0 -28 7
-63 15 -78 26 -51 115 -76 179 -51 20 7 26 16 26 41 0 26 -3 30 -17 23 -10 -4
-34 -9 -55 -12 -28 -3 -41 1 -60 20 l-23 23 89 3 89 3 -7 44 c-3 25 -13 56
-21 69 -26 39 -92 56 -141 36z"/>
<path d="M1333 875 c-89 -38 -96 -183 -11 -235 36 -21 91 -26 132 -10 20 7 26
16 26 40 0 27 -2 30 -19 20 -28 -15 -73 -12 -99 6 -38 26 -25 34 58 34 l80 0
0 38 c0 93 -80 145 -167 107z"/>
<path d="M2340 882 c-19 -6 -26 -16 -28 -41 -3 -28 -1 -33 13 -27 39 15 62 17
88 7 47 -18 33 -36 -29 -36 -49 0 -59 -4 -80 -28 -32 -38 -31 -72 6 -109 27
-26 35 -29 68 -24 20 4 61 6 91 6 l53 -1 -4 100 c-3 93 -6 103 -30 128 -28 28
-98 39 -148 25z"/>
<path d="M2635 876 c-62 -28 -92 -91 -74 -158 19 -71 85 -108 164 -94 32 6 35
10 35 43 0 30 -3 34 -17 27 -59 -26 -120 13 -109 70 10 49 25 59 78 54 47 -5
48 -5 48 23 0 47 -60 64 -125 35z"/>
<path d="M3118 878 c-22 -8 -28 -16 -28 -40 0 -23 4 -28 18 -24 51 15 72 17
91 6 32 -17 27 -37 -9 -32 -71 10 -120 -25 -120 -86 0 -54 27 -77 88 -75 26 1
68 2 95 2 l47 0 0 91 c0 60 -5 101 -15 119 -23 45 -101 64 -167 39z"/>
<path d="M3456 869 c-21 -17 -26 -18 -26 -5 0 12 -10 16 -35 16 l-35 0 0 -125
0 -125 35 0 35 0 0 71 c0 89 10 109 55 109 33 0 35 2 35 34 0 22 -6 36 -16 40
-21 8 -18 9 -48 -15z"/>
<path d="M710 869 c0 -6 16 -63 36 -125 l37 -114 37 0 c37 0 37 0 50 58 19 86
24 88 44 12 l18 -70 37 0 38 0 33 113 c18 61 35 118 38 125 3 10 -5 13 -33 10
-38 -3 -39 -4 -56 -67 -10 -35 -20 -65 -22 -68 -3 -2 -12 28 -22 67 -17 69
-18 70 -50 70 -30 0 -33 -3 -45 -47 -27 -105 -25 -105 -49 -25 -22 71 -22 72
-56 72 -19 0 -35 -5 -35 -11z"/>
<path d="M105 497 c-3 -7 -4 -89 -3 -182 l3 -170 110 0 c106 0 110 1 113 22 3
22 1 23 -87 23 l-91 0 0 60 0 60 80 0 c73 0 80 2 80 20 0 18 -7 20 -80 20
l-80 0 0 55 0 54 88 3 c79 3 87 5 87 23 0 19 -8 20 -108 23 -82 2 -109 0 -112
-11z"/>
<path d="M687 463 c-4 -3 -7 -19 -7 -35 0 -21 -5 -28 -20 -28 -13 0 -20 -7
-20 -20 0 -13 7 -20 19 -20 17 0 19 -9 23 -91 3 -81 6 -93 27 -110 13 -10 38
-19 57 -19 27 0 34 4 34 20 0 14 -7 20 -23 20 -38 0 -47 19 -47 102 l0 78 35
0 c28 0 35 4 35 20 0 16 -7 20 -35 20 -33 0 -35 2 -35 35 0 27 -4 35 -18 35
-10 0 -22 -3 -25 -7z"/>
<path d="M390 269 c0 -130 0 -130 23 -127 21 3 22 8 25 93 3 96 16 125 57 125
45 0 54 -19 57 -120 3 -90 4 -95 26 -98 22 -3 22 -2 22 101 0 90 -3 108 -21
131 -16 21 -29 26 -63 26 -23 0 -47 -5 -54 -12 -9 -9 -15 -9 -24 0 -7 7 -20
12 -30 12 -16 0 -18 -12 -18 -131z"/>
<path d="M882 384 c-73 -51 -68 -190 8 -229 57 -29 140 -14 140 26 0 16 -3 18
-19 9 -48 -25 -131 7 -131 51 0 17 8 19 85 19 l85 0 0 30 c0 38 -24 86 -49
100 -29 15 -93 12 -119 -6z"/>
<path d="M1110 269 c0 -130 0 -130 23 -127 21 3 22 8 25 96 3 84 5 93 27 108
13 8 32 14 42 12 12 -2 18 3 18 17 0 26 -46 33 -69 10 -14 -15 -16 -15 -16 -1
0 10 -9 16 -25 16 l-25 0 0 -131z"/>
<path d="M1290 225 l0 -175 25 0 c24 0 25 3 25 56 0 50 2 55 18 48 9 -4 34 -9
54 -12 33 -3 43 1 73 31 33 33 41 57 37 112 -6 71 -45 115 -104 115 -22 0 -48
-5 -59 -10 -13 -7 -19 -7 -19 0 0 5 -11 10 -25 10 l-25 0 0 -175z m155 118
c41 -41 40 -110 -3 -143 -30 -24 -50 -25 -80 -4 -18 13 -22 25 -22 71 0 65 18
93 61 93 15 0 35 -7 44 -17z"/>
<path d="M1582 273 c3 -124 4 -128 26 -131 21 -3 22 -1 22 87 0 79 3 94 21
112 14 14 28 19 45 15 21 -6 24 -3 24 19 0 20 -5 25 -27 25 -14 0 -35 -7 -45
-17 -17 -15 -18 -15 -18 0 0 11 -8 17 -25 17 l-26 0 3 -127z"/>
<path d="M1902 377 c-42 -44 -18 -106 46 -122 15 -3 37 -13 50 -21 19 -12 21
-18 11 -35 -9 -17 -18 -20 -52 -17 -23 3 -50 8 -59 12 -14 6 -18 3 -18 -13 0
-43 107 -57 154 -20 19 15 26 30 26 53 0 40 -21 61 -84 82 -39 13 -47 20 -44
38 2 16 11 22 40 24 20 2 46 -2 58 -8 18 -9 20 -8 20 14 0 29 -16 36 -79 36
-37 0 -52 -5 -69 -23z"/>
<path d="M2146 374 c-54 -55 -55 -154 -1 -204 29 -27 110 -39 144 -21 26 15
30 57 4 46 -59 -26 -112 -13 -132 32 -6 13 -11 26 -11 28 0 3 41 5 90 5 97 0
96 -1 84 59 -11 53 -46 81 -102 81 -40 0 -54 -5 -76 -26z"/>
</g>
</svg>
