<?xml version="1.0" encoding="utf-8"?>
<!-- Generator: Adobe Illustrator 19.2.1, SVG Export Plug-In . SVG Version: 6.00 Build 0)  -->
<svg version="1.1" id="Capa_1" xmlns="http://www.w3.org/2000/svg" xmlns:xlink="http://www.w3.org/1999/xlink" x="0px" y="0px"
	 viewBox="0 0 447 219" style="enable-background:new 0 0 447 219;" xml:space="preserve">
<style type="text/css">
	.st0{fill:#FFFFFF;}
</style>
<g>
	<rect x="47.8" y="78.1" class="st0" width="6.6" height="127"/>
	<rect x="87.3" y="78.1" class="st0" width="6.6" height="127"/>
	<polygon class="st0" points="184.5,13.7 15.2,13.7 15.2,22.4 181.7,22.4 	"/>
	<polygon class="st0" points="168.5,63.9 171.2,55.2 15.2,55.2 15.2,63.9 	"/>
	<polygon class="st0" points="175.9,40.8 176.3,39.3 15.2,39.3 15.2,40.8 	"/>
	<polygon class="st0" points="242,15.1 175,204.5 183.9,204.5 251,15.1 	"/>
	<polygon class="st0" points="226.7,15.1 159.6,204.5 161.1,204.5 228.2,15.1 	"/>
	<polygon class="st0" points="204.6,15.1 140.4,204.5 149.3,204.5 213.5,15.1 	"/>
	<polygon class="st0" points="258.5,27.5 253.6,41.6 304.6,204.5 313.3,204.5 	"/>
	<polygon class="st0" points="230.2,109 264.6,204.5 273.5,204.5 234.8,95.8 	"/>
	<polygon class="st0" points="244.4,68.2 289.8,204.5 291.2,204.5 245.2,65.9 	"/>
	<polygon class="st0" points="336.4,15.1 295.5,86.4 298.8,97.4 346.3,15.1 	"/>
	<polygon class="st0" points="376.1,15.1 309.3,132.1 312.7,143.2 385.9,15.1 	"/>
	<polygon class="st0" points="360.2,15.1 303.4,112.4 303.9,114.2 361.8,15.1 	"/>
	<polygon class="st0" points="342.6,114 338.1,121.6 419.5,204.3 431.8,204.3 	"/>
	<polygon class="st0" points="318.9,154.5 367.7,204.3 380,204.3 323.3,146.9 	"/>
	<polygon class="st0" points="329.9,135.6 399.1,204.3 401.2,204.3 330.7,134.3 	"/>
	<polygon class="st0" points="68.9,204.9 70.4,205.3 70.4,78.1 68.9,78.1 	"/>
</g>
</svg>
