<svg width="445.00000000000006" height="529" xmlns="http://www.w3.org/2000/svg" class="portafolio-vertical">
 <style type="text/css">.portfolio-vertical .st0{fill:#FFFFFF;}
                                    .portfolio-vertical .st1{opacity:0.2;fill:#FFFFFF;}
                                    .portfolio-vertical .st2{opacity:0.2; fill:#FFFFFF}
                                    .portfolio-vertical .st3{opacity:0.3;fill:#FFFFFF;}
                                    .portfolio-vertical .st4{fill:#F7C639; stroke:none;}
                                    .portfolio-vertical .st5{opacity:0;fill:#FFFFFF;}
                                    .portfolio-vertical .st6{fill:#FFFFFF;}</style>

 <g>
  <title>background</title>
  <rect fill="none" id="canvas_background" height="531" width="447" y="-1" x="-1"/>
 </g>
 <g>
  <title>Layer 1</title>
  <g id="banda-kas">
   <g id="svg_1">
    <g id="svg_2">
     <rect fill="#f7c639" id="svg_3" y="418.254793" x="83.281906" width="28.4" transform="matrix(0.9999,-0.01189225,0.01189225,0.9999,-4.4644,0.635) " height="2.8" class="st0"/>
    </g>
    <g id="svg_4">
     <rect fill="#f7c639" id="svg_5" y="423.052636" x="103.384004" width="8.3" transform="matrix(0.9999,-0.01184511,0.01184511,0.9999,-4.5034,0.7521) " height="2.8" class="st0"/>
    </g>
   </g>
  </g>
  <g id="banda-red">
   <rect fill="#f7c639" id="svg_6" y="89.842071" x="225.294273" width="29.2" transform="matrix(0.9999,-0.01161429,0.01161429,0.9999,-0.5364,2.2512) " height="2.8" class="st0"/>
   <rect fill="#f7c639" id="svg_7" y="94.740133" x="245.996155" width="8.5" transform="matrix(0.9999,-0.01157197,0.01157197,0.9999,-0.5901,2.3634) " height="2.8" class="st0"/>
  </g>
  <g id="svg_8">
   <rect fill="#f7c639" id="svg_9" y="474.342161" x="77.694185" width="32.5" transform="matrix(0.9999,-0.01161627,0.01161627,0.9999,-5.015,0.5823) " height="3.2" class="st0"/>
   <rect fill="#f7c639" id="svg_10" y="479.740517" x="100.695782" width="9.5" transform="matrix(0.9999,-0.01158036,0.01158036,0.9999,-5.0614,0.7144) " height="3.2" class="st0"/>
  </g>
  <g id="banda-oracle">
   <g id="svg_11">
    <g id="svg_12">
     <rect fill="#f7c639" id="svg_13" y="144.454728" x="226.181969" width="29" transform="matrix(0.9999,-0.01189083,0.01189083,0.9999,-1.1981,2.3192) " height="2.9" class="st0"/>
    </g>
    <g id="svg_14">
     <rect fill="#f7c639" id="svg_15" y="149.352863" x="246.783783" width="8.5" transform="matrix(0.9999,-0.01185008,0.01185008,0.9999,-1.252,2.4338) " height="2.9" class="st0"/>
    </g>
   </g>
  </g>
  <g id="svg_16">
   <polygon fill="#ffffff" points="324.4000053405762,202.9000015258789 306.6999931335449,249.29999542236328 309.0999870300293,249.29999542236328 326.79999923706055,202.9000015258789 " id="XMLID_2685_" class="st1"/>
   <polygon fill="#ffffff" points="321.5000114440918,202.9000015258789 303.79999923706055,249.29999542236328 304.1999931335449,249.29999542236328 321.9000053405762,202.9000015258789 " id="XMLID_2683_" class="st1"/>
   <polygon fill="#ffffff" points="316.4000053405762,202.9000015258789 299.4000053405762,249.29999542236328 301.79999923706055,249.29999542236328 318.6999931335449,202.9000015258789 " id="XMLID_2681_" class="st1"/>
   <g id="XMLID_2674_">
    <polygon fill="#ffffff" points="334.9000053405762,249.29999542236328 337.29999923706055,249.29999542236328 324.0000114440918,214.5999984741211 322.79999923706055,217.5999984741211 " id="XMLID_2679_" class="st1"/>
    <polygon fill="#ffffff" points="339.79999923706055,249.29999542236328 340.1999931335449,249.29999542236328 325.5000114440918,210.79999542236328 325.29999923706055,211.29999542236328 " id="XMLID_2677_" class="st1"/>
    <polygon fill="#ffffff" points="344.5999870300293,249.29999542236328 328.0999870300293,204.29999542236328 326.9000053405762,207.4000015258789 342.1999931335449,249.29999542236328 " id="XMLID_2675_" class="st1"/>
   </g>
  </g>
  <g id="svg_17">
   <rect fill="#ffffff" y="126.399998" x="181.900001" width="1.7" transform="matrix(-1,-1.224647e-16,1.224647e-16,-1,459.1116,375.5937) " id="XMLID_2672_" height="36" class="st1"/>
   <rect fill="#ffffff" y="126.399998" x="178.900001" width="0.5" transform="matrix(-1,-1.224647e-16,1.224647e-16,-1,451.857,375.5937) " id="XMLID_2670_" height="36" class="st1"/>
   <rect fill="#ffffff" y="126.399998" x="174.700001" width="1.7" transform="matrix(-1,-1.224647e-16,1.224647e-16,-1,444.6294,375.5937) " id="XMLID_2668_" height="36" class="st1"/>
   <rect fill="#ffffff" y="191.299999" x="181.699998" width="1.7" transform="matrix(6.123234e-17,-1,1,6.123234e-17,58.6434,393.2413) " id="XMLID_2666_" height="45.6" class="st1"/>
   <rect fill="#ffffff" y="187.599999" x="182.299998" width="0.5" transform="matrix(6.123234e-17,-1,1,6.123234e-17,62.3591,389.5256) " id="XMLID_2664_" height="45.6" class="st1"/>
   <rect fill="#ffffff" y="183.899999" x="181.699998" width="1.7" transform="matrix(6.123234e-17,-1,1,6.123234e-17,66.061,385.8237) " id="XMLID_2662_" height="45.6" class="st1"/>
  </g>
  <g id="svg_18">
   <rect fill="#ffffff" y="208.200001" x="124.100002" width="1.7" transform="matrix(-1.83697e-16,1,-1,-1.83697e-16,348.5635,185.3519) " id="XMLID_2660_" height="24" class="st1"/>
   <rect fill="#ffffff" y="211.100001" x="124.700002" width="0.5" transform="matrix(-1.83697e-16,1,-1,-1.83697e-16,351.5161,188.3046) " id="XMLID_2658_" height="24" class="st1"/>
   <rect fill="#ffffff" y="214.100001" x="124.100002" width="1.7" transform="matrix(-1.83697e-16,1,-1,-1.83697e-16,354.4554,191.2439) " id="XMLID_2656_" height="24" class="st1"/>
   <rect fill="#ffffff" y="232.400001" x="119.600002" width="1.7" transform="matrix(-1.83697e-16,1,-1,-1.83697e-16,363.7015,209.6222) " id="XMLID_2654_" height="14.8" class="st1"/>
   <rect fill="#ffffff" y="235.400001" x="120.200002" width="0.5" transform="matrix(-1.83697e-16,1,-1,-1.83697e-16,366.6544,212.5751) " id="XMLID_2652_" height="14.8" class="st1"/>
   <rect fill="#ffffff" y="238.300001" x="119.600002" width="1.7" transform="matrix(-1.83697e-16,1,-1,-1.83697e-16,369.594,215.5139) " id="XMLID_2650_" height="14.8" class="st1"/>
   <g id="XMLID_2642_">
    <g id="svg_19">
     <polygon fill="#ffffff" points="106.89999771118164,317.4000015258789 106.89999771118164,347.60001373291016 109.0999984741211,350.10001373291016 109.0999984741211,315.19998931884766 " id="XMLID_25_" class="st1"/>
     <polygon fill="#ffffff" points="110.5999984741211,313.69998931884766 110.5999984741211,351.7999954223633 110.99999618530273,352.19998931884766 110.99999618530273,313.2999954223633 " id="XMLID_24_" class="st1"/>
     <polygon fill="#ffffff" points="112.79999923706055,311.50000762939453 112.79999923706055,354.2999954223633 114.70000076293945,356.4000015258789 114.70000076293945,309.60001373291016 " id="XMLID_23_" class="st1"/>
    </g>
   </g>
  </g>
  <g id="svg_20">
   <rect fill="#ffffff" y="310.300002" x="246.299999" width="2.2" id="XMLID_2641_" height="46.2" class="st1"/>
   <rect fill="#ffffff" y="310.300002" x="251.099999" width="0.4" id="XMLID_2640_" height="46.2" class="st1"/>
   <rect fill="#ffffff" y="310.300002" x="254.099999" width="1.9" id="XMLID_2639_" height="46.2" class="st1"/>
  </g>
  <g id="svg_21">
   <g id="XMLID_2632_">
    <rect fill="#ffffff" y="310.700002" x="207.199999" width="1.7" id="XMLID_2637_" height="38.1" class="st1"/>
    <rect fill="#ffffff" y="310.700002" x="204.999999" width="0.5" id="XMLID_2635_" height="38.1" class="st1"/>
    <rect fill="#ffffff" y="310.700002" x="201.599999" width="1.6" id="XMLID_2633_" height="38.1" class="st1"/>
   </g>
   <g id="XMLID_2625_">
    <polygon fill="#ffffff" points="231.19999313354492,356.69998931884766 231.19999313354492,355.00000762939453 206.40000534057617,355.00000762939453 207.90000534057617,356.69998931884766 " id="XMLID_2630_" class="st1"/>
    <polygon fill="#ffffff" points="231.19999313354492,353.19998931884766 231.19999313354492,352.69998931884766 204.40000534057617,352.69998931884766 204.79999923706055,353.19998931884766 " id="XMLID_2628_" class="st1"/>
    <polygon fill="#ffffff" points="231.19999313354492,349.19998931884766 201.60000228881836,349.19998931884766 201.60000228881836,349.60001373291016 202.79999923706055,350.9000015258789 231.19999313354492,350.9000015258789 " id="XMLID_2626_" class="st1"/>
   </g>
  </g>
  <g id="svg_22">
   <g id="XMLID_2618_">
    <polygon fill="#ffffff" points="147.79999923706055,316.10001373291016 181.99999618530273,316.10001373291016 181.99999618530273,314.2999954223633 149.39999771118164,314.2999954223633 147.79999923706055,315.7999954223633 " id="XMLID_2623_" class="st1"/>
    <polygon fill="#ffffff" points="181.99999618530273,311.69998931884766 181.99999618530273,311.19998931884766 152.79999923706055,311.19998931884766 152.20000076293945,311.69998931884766 " id="XMLID_2621_" class="st1"/>
    <polygon fill="#ffffff" points="181.99999618530273,306.9000015258789 157.49999618530273,306.9000015258789 155.60000228881836,308.60001373291016 181.99999618530273,308.60001373291016 " id="XMLID_2619_" class="st1"/>
   </g>
   <g id="XMLID_2611_">
    <polygon fill="#ffffff" points="156.70000076293945,352.60001373291016 156.70000076293945,317.60001373291016 154.99999618530273,317.60001373291016 154.99999618530273,351.00000762939453 156.49999618530273,352.60001373291016 " id="XMLID_2616_" class="st1"/>
    <polygon fill="#ffffff" points="152.49999618530273,317.60001373291016 151.99999618530273,317.60001373291016 151.99999618530273,347.50000762939453 152.49999618530273,348.10001373291016 " id="XMLID_2614_" class="st1"/>
    <polygon fill="#ffffff" points="147.79999923706055,317.60001373291016 147.79999923706055,342.60001373291016 149.49999618530273,344.60001373291016 149.49999618530273,317.60001373291016 " id="XMLID_2612_" class="st1"/>
   </g>
   <g id="XMLID_2604_">
    <polygon fill="#ffffff" points="192.10000228881836,343.4000015258789 157.89999771118164,343.4000015258789 157.89999771118164,345.19998931884766 190.49999618530273,345.19998931884766 192.10000228881836,343.69998931884766 " id="XMLID_2609_" class="st1"/>
    <polygon fill="#ffffff" points="157.89999771118164,347.7999954223633 157.89999771118164,348.2999954223633 186.99999618530273,348.2999954223633 187.60000228881836,347.7999954223633 " id="XMLID_2607_" class="st1"/>
    <polygon fill="#ffffff" points="157.89999771118164,352.60001373291016 182.29999923706055,352.60001373291016 184.19999313354492,350.9000015258789 157.89999771118164,350.9000015258789 " id="XMLID_2605_" class="st1"/>
   </g>
   <g id="XMLID_2597_">
    <polygon fill="#ffffff" points="183.10000228881836,306.9000015258789 183.10000228881836,341.9000015258789 184.79999923706055,341.9000015258789 184.79999923706055,308.50000762939453 183.40000534057617,306.9000015258789 " id="XMLID_2602_" class="st1"/>
    <polygon fill="#ffffff" points="187.29999923706055,341.9000015258789 187.79999923706055,341.9000015258789 187.79999923706055,312.00000762939453 187.29999923706055,311.4000015258789 " id="XMLID_2600_" class="st1"/>
    <polygon fill="#ffffff" points="191.99999618530273,341.9000015258789 191.99999618530273,316.9000015258789 190.29999923706055,314.9000015258789 190.29999923706055,341.9000015258789 " id="XMLID_2598_" class="st1"/>
   </g>
  </g>
  <g id="svg_23">
   <g id="XMLID_2590_">
    <polygon fill="#ffffff" points="267.4000053405762,321.50000762939453 301.49999618530273,321.50000762939453 301.49999618530273,319.7999954223633 268.99999618530273,319.7999954223633 267.4000053405762,321.19998931884766 " id="XMLID_2595_" class="st1"/>
    <polygon fill="#ffffff" points="301.49999618530273,317.19998931884766 301.49999618530273,316.69998931884766 272.4000053405762,316.69998931884766 271.79999923706055,317.19998931884766 " id="XMLID_2593_" class="st1"/>
    <polygon fill="#ffffff" points="301.49999618530273,312.4000015258789 277.10000228881836,312.4000015258789 275.1999931335449,314.10001373291016 301.49999618530273,314.10001373291016 " id="XMLID_2591_" class="st1"/>
   </g>
   <g id="XMLID_2583_">
    <polygon fill="#ffffff" points="276.29999923706055,358.10001373291016 276.29999923706055,323.10001373291016 274.60000228881836,323.10001373291016 274.60000228881836,356.50000762939453 275.99999618530273,358.10001373291016 " id="XMLID_2588_" class="st1"/>
    <polygon fill="#ffffff" points="272.10000228881836,323.10001373291016 271.60000228881836,323.10001373291016 271.60000228881836,352.9000015258789 272.10000228881836,353.50000762939453 " id="XMLID_2586_" class="st1"/>
    <polygon fill="#ffffff" points="267.4000053405762,323.10001373291016 267.4000053405762,348.10001373291016 269.10000228881836,350.00000762939453 269.10000228881836,323.10001373291016 " id="XMLID_2584_" class="st1"/>
   </g>
   <g id="XMLID_2576_">
    <polygon fill="#ffffff" points="311.6999931335449,348.9000015258789 277.49999618530273,348.9000015258789 277.49999618530273,350.69998931884766 310.0000114440918,350.69998931884766 311.6999931335449,349.19998931884766 " id="XMLID_2581_" class="st1"/>
    <polygon fill="#ffffff" points="277.49999618530273,353.19998931884766 277.49999618530273,353.7999954223633 306.5999870300293,353.7999954223633 307.1999931335449,353.19998931884766 " id="XMLID_2579_" class="st1"/>
    <polygon fill="#ffffff" points="277.49999618530273,358.10001373291016 301.9000053405762,358.10001373291016 303.79999923706055,356.2999954223633 277.49999618530273,356.2999954223633 " id="XMLID_2577_" class="st1"/>
   </g>
   <g id="XMLID_2569_">
    <polygon fill="#ffffff" points="302.6999931335449,312.2999954223633 302.6999931335449,347.4000015258789 304.4000053405762,347.4000015258789 304.4000053405762,314.00000762939453 303.0000114440918,312.2999954223633 " id="XMLID_2574_" class="st1"/>
    <polygon fill="#ffffff" points="306.9000053405762,347.4000015258789 307.4000053405762,347.4000015258789 307.4000053405762,317.50000762939453 306.9000053405762,316.9000015258789 " id="XMLID_2572_" class="st1"/>
    <polygon fill="#ffffff" points="311.5999870300293,347.4000015258789 311.5999870300293,322.4000015258789 309.9000053405762,320.4000015258789 309.9000053405762,347.4000015258789 " id="XMLID_2570_" class="st1"/>
   </g>
  </g>
  <g id="svg_24">
   <g id="XMLID_2562_">
    <rect fill="#ffffff" y="204.000002" x="105.599999" width="1.7" id="XMLID_2567_" height="46.5" class="st1"/>
    <rect fill="#ffffff" y="204.000002" x="103.399999" width="0.5" id="XMLID_2565_" height="46.5" class="st1"/>
    <rect fill="#ffffff" y="204.000002" x="100.099999" width="1.6" id="XMLID_2563_" height="46.5" class="st1"/>
   </g>
   <rect fill="#ffffff" y="105.800001" x="113.600002" width="1.7" transform="matrix(-1.83697e-16,1,-1,-1.83697e-16,232.9307,90.7364) " id="XMLID_2560_" height="18.6" class="st1"/>
   <rect fill="#ffffff" y="108.700001" x="114.200002" width="0.5" transform="matrix(-1.83697e-16,1,-1,-1.83697e-16,235.8836,93.6893) " id="XMLID_2558_" height="18.6" class="st1"/>
   <rect fill="#ffffff" y="111.600001" x="113.600002" width="1.7" transform="matrix(-1.83697e-16,1,-1,-1.83697e-16,238.8226,96.6283) " id="XMLID_2556_" height="18.6" class="st1"/>
   <g id="XMLID_2549_">
    <polygon fill="#ffffff" points="108.5999984741211,223.29999542236328 108.5999984741211,225.0999984741211 133.39999771118164,225.0999984741211 134.99999618530273,223.29999542236328 " id="XMLID_2554_" class="st1"/>
    <polygon fill="#ffffff" points="108.5999984741211,227.4000015258789 131.20000076293945,227.4000015258789 131.70000076293945,226.9000015258789 108.5999984741211,226.9000015258789 " id="XMLID_2552_" class="st1"/>
    <polygon fill="#ffffff" points="108.5999984741211,230.9000015258789 127.89999771118164,230.9000015258789 129.49999618530273,229.20000457763672 108.5999984741211,229.20000457763672 " id="XMLID_2550_" class="st1"/>
   </g>
   <g id="XMLID_2542_">
    <polygon fill="#ffffff" points="134.60000228881836,210.20000457763672 134.60000228881836,222.50000762939453 136.29999923706055,222.50000762939453 136.29999923706055,211.9000015258789 " id="XMLID_2547_" class="st1"/>
    <polygon fill="#ffffff" points="132.29999923706055,222.50000762939453 132.79999923706055,222.50000762939453 132.79999923706055,208.4000015258789 132.29999923706055,207.9000015258789 " id="XMLID_2545_" class="st1"/>
    <polygon fill="#ffffff" points="128.89999771118164,222.50000762939453 130.49999618530273,222.50000762939453 130.49999618530273,206.20000457763672 128.89999771118164,204.5999984741211 " id="XMLID_2543_" class="st1"/>
   </g>
  </g>
  <g id="svg_25">
   <g id="XMLID_2535_">
    <rect fill="#ffffff" y="205.600002" x="212.299999" width="1.7" id="XMLID_2540_" height="47.6" class="st1"/>
    <rect fill="#ffffff" y="205.600002" x="209.999999" width="0.5" id="XMLID_2538_" height="47.6" class="st1"/>
    <rect fill="#ffffff" y="205.600002" x="206.699999" width="1.6" id="XMLID_2536_" height="47.6" class="st1"/>
   </g>
   <g id="XMLID_2531_">
    <polygon fill="#ffffff" points="231.60000228881836,252.00000762939453 233.49999618530273,252.00000762939453 220.19999313354492,235.20000457763672 218.29999923706055,235.20000457763672 " id="XMLID_2534_" class="st1"/>
    <polygon fill="#ffffff" points="237.19999313354492,252.00000762939453 237.69999313354492,252.00000762939453 224.40000534057617,235.20000457763672 223.79999923706055,235.20000457763672 " id="XMLID_2533_" class="st1"/>
    <polygon fill="#ffffff" points="243.79999923706055,252.00000762939453 230.40000534057617,235.20000457763672 228.49999618530273,235.20000457763672 241.90000534057617,252.00000762939453 " id="XMLID_2532_" class="st1"/>
   </g>
   <rect fill="#ffffff" y="107.700001" x="220.600002" width="1.7" transform="matrix(-1.83697e-16,1,-1,-1.83697e-16,341.8879,-14.2907) " id="XMLID_2529_" height="18.6" class="st1"/>
   <rect fill="#ffffff" y="110.700001" x="221.200002" width="0.5" transform="matrix(-1.83697e-16,1,-1,-1.83697e-16,344.8409,-11.3378) " id="XMLID_2527_" height="18.6" class="st1"/>
   <rect fill="#ffffff" y="113.600001" x="220.600002" width="1.7" transform="matrix(-1.83697e-16,1,-1,-1.83697e-16,347.7799,-8.3987) " id="XMLID_2525_" height="18.6" class="st1"/>
   <g id="XMLID_2518_">
    <polygon fill="#ffffff" points="215.60000228881836,225.29999542236328 215.60000228881836,227.00000762939453 240.40000534057617,227.00000762939453 241.99999618530273,225.29999542236328 " id="XMLID_2523_" class="st1"/>
    <polygon fill="#ffffff" points="215.60000228881836,229.4000015258789 238.19999313354492,229.4000015258789 238.69999313354492,228.79999542236328 215.60000228881836,228.79999542236328 " id="XMLID_2521_" class="st1"/>
    <polygon fill="#ffffff" points="215.60000228881836,232.9000015258789 234.90000534057617,232.9000015258789 236.49999618530273,231.20000457763672 215.60000228881836,231.20000457763672 " id="XMLID_2519_" class="st1"/>
   </g>
   <g id="XMLID_2511_">
    <polygon fill="#ffffff" points="241.60000228881836,212.0999984741211 241.60000228881836,224.50000762939453 243.29999923706055,224.50000762939453 243.29999923706055,213.79999542236328 " id="XMLID_2516_" class="st1"/>
    <polygon fill="#ffffff" points="239.29999923706055,224.50000762939453 239.79999923706055,224.50000762939453 239.79999923706055,210.4000015258789 239.29999923706055,209.9000015258789 " id="XMLID_2514_" class="st1"/>
    <polygon fill="#ffffff" points="235.90000534057617,224.50000762939453 237.49999618530273,224.50000762939453 237.49999618530273,208.20000457763672 235.90000534057617,206.50000762939453 " id="XMLID_2512_" class="st1"/>
   </g>
  </g>
  <polygon fill-opacity="0.5" fill="#ffffff" points="207.60000228881836,286.2000045776367 209.19999313354492,286.2000045776367 208.69999313354492,308.69998931884766 207.10000228881836,308.69998931884766 " id="XMLID_2500_" class="st2"/>
  <polygon fill-opacity="0.5" fill="#ffffff" points="205.40000534057617,286.2000045776367 205.90000534057617,286.2000045776367 205.40000534057617,308.69998931884766 204.99999618530273,308.69998931884766 " id="XMLID_2498_" class="st2"/>
  <polygon fill-opacity="0.5" fill="#ffffff" points="202.19999313354492,285.2999954223633 203.79999923706055,285.2999954223633 203.29999923706055,307.7999954223633 201.69999313354492,307.7999954223633 " id="XMLID_2496_" class="st2"/>
  <polygon fill-opacity="0.5" fill="#ffffff" points="253.49999618530273,286.2000045776367 255.10000228881836,286.2000045776367 254.60000228881836,308.69998931884766 252.99999618530273,308.69998931884766 " id="XMLID_2494_" class="st2"/>
  <polygon fill-opacity="0.5" fill="#ffffff" points="251.40000534057617,286.2000045776367 251.79999923706055,286.2000045776367 251.40000534057617,308.69998931884766 250.90000534057617,308.69998931884766 " id="XMLID_2492_" class="st2"/>
  <polygon fill-opacity="0.5" fill="#ffffff" points="248.10000228881836,286.2000045776367 249.69999313354492,286.2000045776367 249.19999313354492,308.69998931884766 247.60000228881836,308.69998931884766 " id="XMLID_2490_" class="st2"/>
  <g fill-opacity="0.5" id="svg_26">
   <polygon fill="#ffffff" points="354.29999923706055,175.70000457763672 355.9000053405762,175.70000457763672 355.4000053405762,323.00000762939453 353.79999923706055,323.00000762939453 " id="XMLID_2488_" class="st2"/>
   <polygon fill="#ffffff" points="352.1999931335449,175.70000457763672 352.6999931335449,175.70000457763672 352.1999931335449,323.00000762939453 351.6999931335449,323.00000762939453 " id="XMLID_2486_" class="st2"/>
   <polygon fill="#ffffff" points="348.9000053405762,175.70000457763672 350.5000114440918,175.70000457763672 350.0000114440918,323.00000762939453 348.5000114440918,323.00000762939453 " id="XMLID_2484_" class="st2"/>
  </g>
  <polygon fill-opacity="0.5" fill="#ffffff" points="105.29999923706055,43.700001537799835 106.89999771118164,43.700001537799835 106.39999771118164,201.4000015258789 104.79999923706055,201.4000015258789 " id="XMLID_2482_" class="st2"/>
  <polygon fill-opacity="0.5" fill="#ffffff" points="103.0999984741211,43.700001537799835 103.5999984741211,43.700001537799835 103.0999984741211,201.4000015258789 102.5999984741211,201.4000015258789 " id="XMLID_2480_" class="st2"/>
  <polygon fill-opacity="0.5" fill="#ffffff" points="99.89999771118164,43.700001537799835 101.39999771118164,43.700001537799835 101,201.4000015258789 99.39999771118164,201.4000015258789 " id="XMLID_2478_" class="st2"/>
  <polygon fill-opacity="0.5" fill="#ffffff" points="381.0000114440918,435.50000762939453 382.5999870300293,435.50000762939453 382.0999870300293,528.2999954223633 380.5000114440918,528.2999954223633 " id="XMLID_2476_" class="st2"/>
  <polygon fill-opacity="0.5" fill="#ffffff" points="378.79999923706055,435.50000762939453 379.29999923706055,435.50000762939453 378.79999923706055,528.2999954223633 378.29999923706055,528.2999954223633 " id="XMLID_2474_" class="st2"/>
  <polygon fill-opacity="0.5" fill="#ffffff" points="375.5999870300293,435.50000762939453 377.1999931335449,435.50000762939453 376.6999931335449,528.2999954223633 375.0999870300293,528.2999954223633 " id="XMLID_2472_" class="st2"/>
  <polygon fill-opacity="0.5" fill="#ffffff" points="275.10000228881836,252.4000015258789 276.6999931335449,252.4000015258789 276.1999931335449,277.9000015258789 274.60000228881836,277.9000015258789 " id="XMLID_2470_" class="st2"/>
  <polygon fill-opacity="0.5" fill="#ffffff" points="272.99999618530273,252.4000015258789 273.49999618530273,252.4000015258789 272.99999618530273,277.9000015258789 272.49999618530273,277.9000015258789 " id="XMLID_2468_" class="st2"/>
  <polygon fill-opacity="0.5" fill="#ffffff" points="269.6999931335449,252.4000015258789 271.29999923706055,252.4000015258789 270.79999923706055,277.9000015258789 269.29999923706055,277.9000015258789 " id="XMLID_2466_" class="st2"/>
  <polygon fill-opacity="0.5" fill="#ffffff" points="97.5999984741211,78.4000015258789 97.5999984741211,80.10000228881836 0,79.60000228881836 0,77.9000015258789 " id="XMLID_2464_" class="st2"/>
  <polygon fill-opacity="0.5" fill="#ffffff" points="97.5999984741211,76.20000076293945 97.5999984741211,76.70000076293945 0,76.20000076293945 0,75.70000076293945 " id="XMLID_2462_" class="st2"/>
  <polygon fill-opacity="0.5" fill="#ffffff" points="97.5999984741211,72.9000015258789 97.5999984741211,74.50000190734863 0,74.00000190734863 0,72.4000015258789 " id="XMLID_2460_" class="st2"/>
  <polygon fill-opacity="0.5" fill="#ffffff" points="411.4000053405762,501.00000762939453 411.4000053405762,502.69998931884766 389.0000114440918,502.19998931884766 389.0000114440918,500.50000762939453 " id="XMLID_2458_" class="st2"/>
  <polygon fill-opacity="0.5" fill="#ffffff" points="411.4000053405762,498.7999954223633 411.4000053405762,499.2999954223633 389.0000114440918,498.7999954223633 389.0000114440918,498.2999954223633 " id="XMLID_2456_" class="st2"/>
  <polygon fill-opacity="0.5" fill="#ffffff" points="411.4000053405762,495.50000762939453 411.4000053405762,497.10001373291016 389.0000114440918,496.60001373291016 389.0000114440918,495.00000762939453 " id="XMLID_2454_" class="st2"/>
  <polygon fill-opacity="0.5" fill="#ffffff" points="239.29999923706055,78.4000015258789 239.29999923706055,80.10000228881836 109,79.60000228881836 109,77.9000015258789 " id="XMLID_2452_" class="st2"/>
  <polygon fill-opacity="0.5" fill="#ffffff" points="239.29999923706055,76.20000076293945 239.29999923706055,76.70000076293945 109,76.20000076293945 109,75.70000076293945 " id="XMLID_2450_" class="st2"/>
  <polygon fill-opacity="0.5" fill="#ffffff" points="239.29999923706055,72.9000015258789 239.29999923706055,74.50000190734863 109,74.00000190734863 109,72.4000015258789 " id="XMLID_2448_" class="st2"/>
  <polygon fill-opacity="0.5" fill="#ffffff" points="183.60000228881836,198.4000015258789 183.60000228881836,200.0999984741211 110.39999771118164,199.5999984741211 110.39999771118164,197.9000015258789 " id="XMLID_2440_" class="st2"/>
  <polygon fill-opacity="0.5" fill="#ffffff" points="183.60000228881836,196.20000457763672 183.60000228881836,196.70000457763672 110.39999771118164,196.20000457763672 110.39999771118164,195.70000457763672 " id="XMLID_2438_" class="st2"/>
  <polygon fill-opacity="0.5" fill="#ffffff" points="183.60000228881836,192.9000015258789 183.60000228881836,194.50000762939453 110.39999771118164,194.00000762939453 110.39999771118164,192.4000015258789 " id="XMLID_2436_" class="st2"/>
  <polygon fill-opacity="0.5" fill="#ffffff" points="444.79999923706055,208.70000457763672 444.79999923706055,210.29999542236328 332.79999923706055,209.79999542236328 332.79999923706055,208.20000457763672 " id="XMLID_2434_" class="st2"/>
  <polygon fill-opacity="0.5" fill="#ffffff" points="444.79999923706055,206.50000762939453 444.79999923706055,207.00000762939453 332.79999923706055,206.50000762939453 332.79999923706055,206.00000762939453 " id="XMLID_2432_" class="st2"/>
  <polygon fill-opacity="0.5" fill="#ffffff" points="444.79999923706055,203.20000457763672 444.79999923706055,204.79999542236328 332.79999923706055,204.29999542236328 332.79999923706055,202.70000457763672 " id="XMLID_2430_" class="st2"/>
  <polygon fill-opacity="0.5" fill="#ffffff" points="349.5000114440918,58.70000171661377 347.9000053405762,58.70000171661377 348.4000053405762,0 350.0000114440918,0 " id="XMLID_2428_" class="st2"/>
  <polygon fill-opacity="0.5" fill="#ffffff" points="351.6999931335449,58.70000171661377 351.1999931335449,58.70000171661377 351.6999931335449,0 352.1999931335449,0 " id="XMLID_2426_" class="st2"/>
  <polygon fill-opacity="0.5" fill="#ffffff" points="355.0000114440918,58.70000171661377 353.4000053405762,58.70000171661377 353.9000053405762,0 355.5000114440918,0 " id="XMLID_2424_" class="st2"/>
  <g id="svg_27">
   <g id="XMLID_2417_">
    <polygon fill="#ffffff" points="148.20000076293945,214.50000762939453 182.40000534057617,214.50000762939453 182.40000534057617,212.79999542236328 149.79999923706055,212.79999542236328 148.20000076293945,214.20000457763672 " id="XMLID_2422_" class="st1"/>
    <polygon fill="#ffffff" points="182.40000534057617,210.20000457763672 182.40000534057617,209.5999984741211 153.20000076293945,209.5999984741211 152.60000228881836,210.20000457763672 " id="XMLID_2420_" class="st1"/>
    <polygon fill="#ffffff" points="182.40000534057617,205.4000015258789 157.89999771118164,205.4000015258789 155.99999618530273,207.0999984741211 182.40000534057617,207.0999984741211 " id="XMLID_2418_" class="st1"/>
   </g>
   <g id="XMLID_2410_">
    <polygon fill="#ffffff" points="157.10000228881836,251.0999984741211 157.10000228881836,216.00000762939453 155.39999771118164,216.00000762939453 155.39999771118164,249.4000015258789 156.79999923706055,251.0999984741211 " id="XMLID_2415_" class="st1"/>
    <polygon fill="#ffffff" points="152.89999771118164,216.00000762939453 152.39999771118164,216.00000762939453 152.39999771118164,245.9000015258789 152.89999771118164,246.50000762939453 " id="XMLID_2413_" class="st1"/>
    <polygon fill="#ffffff" points="148.20000076293945,216.00000762939453 148.20000076293945,241.0999984741211 149.89999771118164,243.00000762939453 149.89999771118164,216.00000762939453 " id="XMLID_2411_" class="st1"/>
   </g>
   <g id="XMLID_2403_">
    <polygon fill="#ffffff" points="192.49999618530273,241.9000015258789 158.29999923706055,241.9000015258789 158.29999923706055,243.5999984741211 190.90000534057617,243.5999984741211 192.49999618530273,242.20000457763672 " id="XMLID_2408_" class="st1"/>
    <polygon fill="#ffffff" points="158.29999923706055,246.20000457763672 158.29999923706055,246.70000457763672 187.40000534057617,246.70000457763672 187.99999618530273,246.20000457763672 " id="XMLID_2406_" class="st1"/>
    <polygon fill="#ffffff" points="158.29999923706055,251.00000762939453 182.69999313354492,251.00000762939453 184.60000228881836,249.29999542236328 158.29999923706055,249.29999542236328 " id="XMLID_2404_" class="st1"/>
   </g>
   <g id="XMLID_2396_">
    <polygon fill="#ffffff" points="183.49999618530273,205.29999542236328 183.49999618530273,240.29999542236328 185.19999313354492,240.29999542236328 185.19999313354492,207.00000762939453 183.79999923706055,205.29999542236328 " id="XMLID_2401_" class="st1"/>
    <polygon fill="#ffffff" points="187.69999313354492,240.29999542236328 188.19999313354492,240.29999542236328 188.19999313354492,210.50000762939453 187.69999313354492,209.9000015258789 " id="XMLID_2399_" class="st1"/>
    <polygon fill="#ffffff" points="192.40000534057617,240.29999542236328 192.40000534057617,215.29999542236328 190.69999313354492,213.4000015258789 190.69999313354492,240.29999542236328 " id="XMLID_2397_" class="st1"/>
   </g>
  </g>
  <a id="svg_28">
   <g id="red-had">
    <path fill="#ffffff" id="svg_29" d="m270.599999,86.500002c1.3,0 2.2,0.3 2.8,1c0.7,0.8 1.1,2 1.1,3.6c0,1.9 -0.4,3.2 -1.2,3.8c-0.2,0.2 -0.4,0.3 -0.6,0.4s-0.3,0.1 -0.6,0.2l2.7,5.8l-3,0l-2.4,-5.6l-2.4,-0.3l0,5.9l-2.7,0l0,-14.8l6.3,0zm-3.6,6.7l3.3,0c0.5,0 0.9,-0.1 1.1,-0.4c0.2,-0.3 0.3,-0.8 0.3,-1.6c0,-0.8 -0.1,-1.4 -0.4,-1.7c-0.2,-0.3 -0.6,-0.5 -1.1,-0.5l-3.3,0l0,4.2l0.1,0z" class="st1"/>
    <path fill="#ffffff" id="svg_30" d="m279.299999,87.000002c0.3,-0.2 0.6,-0.3 1,-0.4s0.6,-0.1 0.8,-0.1s1.1,0 2.8,0.1c1.7,0 3,0.1 3.8,0.3l0,2.3l-5.7,0c-0.5,0 -0.8,0.1 -0.9,0.4c-0.1,0.2 -0.1,0.4 -0.1,0.8l0,2.3l5.8,0.2l0,2.3l-5.8,0.2l0,2.3c0,0.5 0.1,0.8 0.4,0.9c0.2,0.1 0.5,0.1 0.8,0.1l5.5,0l0,2.3c-0.7,0.1 -2.3,0.2 -4.8,0.3l-1.3,0.1c-0.1,0 -0.2,0 -0.4,0s-0.3,0 -0.5,0c-0.2,0 -0.5,-0.1 -0.8,-0.2c-0.3,-0.1 -0.6,-0.3 -0.8,-0.5c-0.5,-0.5 -0.8,-1.2 -0.8,-2.2l0,-8.8c0,-1.3 0.3,-2.2 1,-2.7z" class="st1"/>
    <path fill="#ffffff" id="svg_31" d="m291.399999,101.300002l0,-14.8l6.1,0c3.3,0 5,2.5 5,7.5c0,3.1 -0.7,5.2 -2.1,6.4c-0.8,0.6 -1.7,1 -2.8,1l-6.2,0l0,-0.1zm8.3,-7.3c0,-2.5 -0.4,-4 -1.1,-4.6c-0.3,-0.3 -0.8,-0.4 -1.3,-0.4l-3.1,0l0,9.8l3.1,0c1.6,0 2.4,-1.6 2.4,-4.8z" class="st1"/>
    <path fill="#ffffff" id="svg_32" d="m313.199999,101.300002l0,-14.8l2.7,0l0,6.4l4.9,0l0,-6.4l2.7,0l0,14.8l-2.7,0l0,-5.9l-4.9,0l0,5.9l-2.7,0z" class="st1"/>
    <path fill="#ffffff" id="svg_33" d="m327.099999,101.300002l4.8,-14.8l3.1,0l4.7,14.8l-2.9,0l-1,-3.3l-4.7,0l-1,3.3l-3,0zm4.7,-5.8l3.3,0l-1.6,-5.3l-1.7,5.3z" class="st1"/>
    <path fill="#ffffff" id="svg_34" d="m340.699999,89.100002l0,-2.6l10.6,0l0,2.6l-4,0l0,12.2l-2.7,0l0,-12.2l-3.9,0z" class="st1"/>
   </g>
  </a>
  <a id="svg_35">
   <g id="oracle">
    <path fill="#ffffff" id="svg_36" d="m267.199999,152.700002c-0.1,-0.5 -0.2,-1 -0.2,-1.6s-0.1,-1.3 -0.1,-2.2c0,-0.9 0,-1.7 0.1,-2.4s0.2,-1.4 0.4,-1.9c0.2,-0.5 0.4,-1 0.7,-1.4c0.3,-0.4 0.6,-0.7 0.9,-0.9s0.6,-0.4 1.1,-0.5c0.7,-0.2 1.4,-0.3 2.1,-0.3s1.3,0 1.6,0c0.3,0 0.7,0.1 1.1,0.2s0.7,0.2 1,0.4c0.3,0.2 0.5,0.4 0.8,0.6s0.5,0.6 0.7,1s0.3,0.8 0.5,1.3c0.3,1 0.4,2.2 0.4,3.5s0,2.4 -0.1,3.1c-0.1,0.7 -0.2,1.3 -0.4,1.9s-0.4,1 -0.6,1.3c-0.3,0.4 -0.5,0.7 -0.8,0.9c-0.3,0.2 -0.6,0.4 -1,0.5c-0.9,0.3 -2.2,0.4 -3.7,0.3c-0.8,0 -1.4,-0.1 -1.7,-0.3c-0.4,-0.2 -0.7,-0.3 -0.9,-0.5c-0.3,-0.2 -0.5,-0.4 -0.7,-0.7c-0.2,-0.3 -0.4,-0.6 -0.5,-1c-0.5,-0.4 -0.6,-0.8 -0.7,-1.3zm2.6,-6.7c-0.1,0.4 -0.1,0.8 -0.2,1.3s-0.1,1.1 -0.1,1.9s0,1.4 0.1,1.9c0.1,0.5 0.1,1 0.3,1.4c0.1,0.4 0.3,0.7 0.5,0.9c0.4,0.3 1.1,0.5 2.1,0.5c0.9,0 1.6,-0.2 2,-0.5c0.6,-0.5 0.9,-1.9 0.9,-4.3c0,-1.6 -0.1,-2.6 -0.2,-3.1c-0.2,-0.5 -0.3,-0.9 -0.4,-1.1s-0.3,-0.4 -0.6,-0.5c-0.4,-0.2 -0.9,-0.3 -1.4,-0.3s-0.9,0 -1.1,0c-0.2,0 -0.4,0.1 -0.7,0.1c-0.2,0.1 -0.4,0.2 -0.6,0.3s-0.3,0.3 -0.4,0.6c-0.1,0.3 -0.1,0.6 -0.2,0.9z" class="st1"/>
    <path fill="#ffffff" id="svg_37" d="m287.799999,141.600002c1.2,0 2.1,0.3 2.7,1c0.7,0.8 1.1,2 1.1,3.6c0,1.9 -0.4,3.2 -1.1,3.8c-0.2,0.2 -0.4,0.3 -0.6,0.4c-0.1,0.1 -0.3,0.1 -0.6,0.2l2.7,5.8l-3,0l-2.3,-5.6l-2.4,-0.3l0,5.9l-2.7,0l0,-14.8l6.2,0zm-3.4,6.7l3.2,0c0.5,0 0.9,-0.1 1.1,-0.4c0.2,-0.3 0.3,-0.8 0.3,-1.6c0,-0.8 -0.1,-1.4 -0.3,-1.7c-0.2,-0.3 -0.6,-0.5 -1,-0.5l-3.2,0l0,4.2l-0.1,0z" class="st1"/>
    <path fill="#ffffff" id="svg_38" d="m294.899999,156.400002l4.7,-14.8l3,0l4.6,14.8l-2.9,0l-1,-3.3l-4.5,0l-1,3.3l-2.9,0zm4.6,-5.8l3.3,0l-1.6,-5.3l-1.7,5.3z" class="st1"/>
    <path fill="#ffffff" id="svg_39" d="m310.599999,143.400002c0.5,-0.9 1.2,-1.5 2.1,-1.8c0.5,-0.1 1.1,-0.2 1.7,-0.2c1.8,0 3.5,0.2 4.9,0.7l0,2.2c-0.2,0 -0.4,0 -0.5,-0.1c-0.2,0 -0.3,0 -0.6,-0.1c-0.2,0 -0.5,0 -0.7,-0.1c-0.3,0 -0.5,0 -0.8,-0.1c-0.6,0 -1.1,-0.1 -1.6,-0.1c-0.5,0 -0.8,0 -1.1,0.1s-0.5,0.2 -0.8,0.4s-0.4,0.5 -0.5,0.8c-0.3,0.8 -0.4,2 -0.4,3.7c0,1.7 0.2,3 0.6,3.7c0.4,0.8 1.1,1.1 2.2,1.1c1.2,0 2.4,0 3.6,-0.1l0.6,0l0,2.2c-1.1,0.4 -2.6,0.6 -4.4,0.6c-0.1,0 -0.3,0 -0.4,0c-1.7,0 -2.9,-0.7 -3.7,-1.9s-1.1,-3.2 -1.1,-5.7c-0.1,-2.4 0.2,-4.2 0.9,-5.3z" class="st1"/>
    <path fill="#ffffff" id="svg_40" d="m322.799999,153.500002l0,-11.9l2.7,0l0,11.2c0,0.5 0.1,0.8 0.4,0.9c0.2,0.1 0.5,0.1 0.8,0.1l4.8,0l0,2.6l-5.8,0c-1.9,0 -2.9,-1 -2.9,-2.9z" class="st1"/>
    <path fill="#ffffff" id="svg_41" d="m335.999999,142.100002c0.3,-0.2 0.6,-0.3 0.9,-0.4c0.3,-0.1 0.6,-0.1 0.7,-0.1c0.2,0 1.1,0 2.8,0.1c1.7,0 2.9,0.1 3.7,0.3l0,2.3l-5.5,0c-0.5,0 -0.8,0.1 -0.9,0.4c-0.1,0.2 -0.1,0.4 -0.1,0.8l0,2.3l5.7,0.2l0,2.3l-5.7,0.2l0,2.3c0,0.5 0.1,0.8 0.4,0.9c0.2,0.1 0.5,0.1 0.8,0.1l5.3,0l0,2.3c-0.6,0.1 -2.2,0.2 -4.7,0.3l-1.2,0.1c-0.1,0 -0.2,0 -0.4,0c-0.1,0 -0.3,0 -0.5,0c-0.2,0 -0.5,-0.1 -0.8,-0.2c-0.3,-0.1 -0.6,-0.3 -0.8,-0.5c-0.5,-0.5 -0.8,-1.2 -0.8,-2.2l0,-8.8c0.1,-1.4 0.4,-2.2 1.1,-2.7z" class="st1"/>
   </g>
  </a>
  <a id="svg_42">
   <g id="svg_43">
    <path fill="#ffffff" id="svg_44" d="m118.099999,487.200002l0,-16.6l3.1,0l0,7.1l5.5,0l0,-7.1l3.1,0l0,16.6l-3.1,0l0,-6.6l-5.5,0l0,6.6l-3.1,0z" class="st1"/>
    <path fill="#ffffff" id="svg_45" d="m135.399999,471.200002c0.4,-0.2 0.7,-0.4 1.1,-0.5c0.4,-0.1 0.6,-0.1 0.9,-0.1c0.2,0 1.3,0 3.2,0.1c1.9,0.1 3.3,0.1 4.3,0.3l0,2.6l-6.3,0c-0.5,0 -0.9,0.1 -1,0.4c-0.1,0.2 -0.1,0.5 -0.1,0.9l0,2.6l6.5,0.2l0,2.6l-6.5,0.2l0,2.6c0,0.6 0.2,0.9 0.5,1c0.2,0.1 0.5,0.1 0.9,0.1l5.9,0l0,2.6c-0.7,0.1 -2.5,0.2 -5.4,0.3l-1.4,0.1c-0.1,0 -0.3,0 -0.4,0c-0.2,0 -0.4,0 -0.6,0c-0.2,0 -0.5,-0.1 -0.9,-0.2c-0.4,-0.1 -0.7,-0.3 -0.9,-0.5c-0.6,-0.5 -0.9,-1.4 -0.9,-2.5l0,-9.9c-0.1,-1.4 0.3,-2.4 1.1,-2.9z" class="st1"/>
    <path fill="#ffffff" id="svg_46" d="m148.299999,470.600002l3.3,0l3.6,12.3l2.9,-12.3l3.3,0l-1.1,4.3l2.5,8.1l2.9,-12.4l3.2,0l-4.4,16.6l-3.6,0l-2.1,-6.8l-1.9,6.8l-3.6,0l-5,-16.6z" class="st1"/>
    <path fill="#ffffff" id="svg_47" d="m172.899999,484.000002l0,-13.4l3.1,0l0,12.5c0,0.6 0.2,0.9 0.5,1c0.2,0.1 0.5,0.1 0.9,0.1l5.5,0l0,2.9l-6.6,0c-2.3,0.1 -3.4,-1 -3.4,-3.1z" class="st1"/>
    <path fill="#ffffff" id="svg_48" d="m187.999999,471.200002c0.4,-0.2 0.7,-0.4 1.1,-0.5c0.4,-0.1 0.6,-0.1 0.9,-0.1c0.2,0 1.3,0 3.2,0.1c1.9,0.1 3.3,0.1 4.3,0.3l0,2.6l-6.3,0c-0.5,0 -0.9,0.1 -1,0.4c-0.1,0.2 -0.1,0.5 -0.1,0.9l0,2.6l6.5,0.2l0,2.6l-6.5,0.2l0,2.6c0,0.6 0.2,0.9 0.5,1c0.2,0.1 0.5,0.1 0.9,0.1l6.1,0l0,2.6c-0.7,0.1 -2.5,0.2 -5.4,0.3l-1.4,0.1c-0.1,0 -0.3,0 -0.4,0c-0.2,0 -0.4,0 -0.6,0c-0.2,0 -0.5,-0.1 -0.9,-0.2c-0.4,-0.1 -0.7,-0.3 -0.9,-0.5c-0.6,-0.5 -0.9,-1.4 -0.9,-2.5l0,-9.9c-0.3,-1.4 0.1,-2.4 0.9,-2.9z" class="st1"/>
    <path fill="#ffffff" id="svg_49" d="m200.799999,473.500002l0,-2.9l11.9,0l0,2.9l-4.5,0l0,13.7l-3.1,0l0,-13.7l-4.3,0z" class="st1"/>
    <path fill="#ffffff" id="svg_50" d="m216.099999,473.500002l0,-2.9l11.9,0l0,2.9l-4.5,0l0,13.7l-3.1,0l0,-13.7l-4.3,0z" class="st1"/>
    <path fill="#ffffff" id="svg_51" d="m239.399999,487.200002l0,-16.6l6.9,0c1.6,0 2.7,0.5 3.5,1.4c0.7,0.8 1,2.1 1,3.7c0,1 -0.1,1.8 -0.3,2.5s-0.4,1.2 -0.7,1.6c-0.3,0.4 -0.6,0.7 -1.1,0.9c-0.6,0.3 -1.2,0.4 -1.9,0.4c-0.5,0 -1.3,-0.1 -2.5,-0.2c-1.1,-0.1 -1.7,-0.2 -1.8,-0.2l0,6.6l-3.1,0l0,-0.1zm6.6,-13.8l-3.6,0l0,4.9l3.6,0c0.4,0 0.6,-0.1 0.9,-0.2c0.5,-0.3 0.7,-1.1 0.7,-2.3c0,-1.6 -0.5,-2.4 -1.6,-2.4z" class="st1"/>
    <path fill="#ffffff" id="svg_52" d="m252.399999,487.200002l5.4,-16.6l3.5,0l5.2,16.6l-3.3,0l-1.1,-3.7l-5.3,0l-1.2,3.7l-3.2,0zm5.3,-6.5l3.7,0l-1.8,-5.9l-1.9,5.9z" class="st1"/>
    <path fill="#ffffff" id="svg_53" d="m270.399999,472.600002c0.6,-1 1.4,-1.7 2.4,-2c0.6,-0.2 1.2,-0.2 1.9,-0.2c2.1,0 4,0.2 5.6,0.7l0,2.5c-0.2,0 -0.4,-0.1 -0.6,-0.1c-0.2,0 -0.4,0 -0.6,-0.1c-0.2,0 -0.5,0 -0.8,-0.1s-0.6,0 -0.9,-0.1c-0.7,0 -1.3,-0.1 -1.8,-0.1s-1,0 -1.3,0.1c-0.3,0.1 -0.6,0.2 -0.9,0.4c-0.3,0.2 -0.5,0.5 -0.6,0.9c-0.3,0.9 -0.4,2.3 -0.4,4.2s0.2,3.3 0.6,4.2c0.4,0.9 1.3,1.3 2.5,1.3c1.4,0 2.8,0 4.2,-0.1l0.7,0l0,2.5c-1.3,0.4 -3,0.6 -5.1,0.6c-0.2,0 -0.3,0 -0.5,0c-2,0 -3.4,-0.7 -4.2,-2.2s-1.3,-3.6 -1.3,-6.4c0,-2.7 0.4,-4.7 1.1,-6z" class="st1"/>
    <path fill="#ffffff" id="svg_54" d="m284.399999,487.200002l0,-16.6l2.9,0l0,6.9l1.3,0l4.1,-6.9l3.6,0l-4.9,8.3l4.9,8.3l-3.5,0l-4.1,-6.8l-1.3,0l0,6.8l-3,0z" class="st1"/>
    <path fill="#ffffff" id="svg_55" d="m299.799999,487.200002l5.4,-16.6l3.5,0l5.2,16.6l-3.3,0l-1.1,-3.7l-5.3,0l-1.2,3.7l-3.2,0zm5.3,-6.5l3.7,0l-1.8,-5.9l-1.9,5.9z" class="st1"/>
    <path fill="#ffffff" id="svg_56" d="m324.599999,470.600002c1.4,0 2.4,0.4 3.1,1.1c0.8,0.9 1.2,2.2 1.2,4.1c0,2.1 -0.4,3.5 -1.3,4.2c-0.3,0.2 -0.5,0.4 -0.6,0.4s-0.4,0.1 -0.6,0.2l3,6.5l-3.5,0l-2.7,-6.3l-2.7,-0.3l0,6.6l-3.1,0l0,-16.6l7.2,0l0,0.1zm-3.9,7.5l3.6,0c0.6,0 1,-0.2 1.2,-0.5c0.2,-0.3 0.4,-0.9 0.4,-1.8c0,-0.9 -0.1,-1.6 -0.4,-1.9c-0.3,-0.3 -0.7,-0.5 -1.2,-0.5l-3.6,0l0,4.7z" class="st1"/>
    <path fill="#ffffff" id="svg_57" d="m332.599999,473.500002l0,-2.9l11.9,0l0,2.9l-4.5,0l0,13.7l-3.1,0l0,-13.7l-4.3,0z" class="st1"/>
   </g>
  </a>
  <a id="svg_58">
   <g id="kaspersky">
    <path fill="#ffffff" id="svg_59" d="m118.799999,427.700002l0,-16.6l2.9,0l0,6.9l1.3,0l4.1,-6.9l3.6,0l-4.9,8.3l4.9,8.3l-3.6,0l-4.1,-6.8l-1.3,0l0,6.8l-2.9,0z" class="st1"/>
    <path fill="#ffffff" id="svg_60" d="m134.099999,427.700002l5.4,-16.6l3.5,0l5.2,16.6l-3.3,0l-1.1,-3.7l-5.3,0l-1.2,3.7l-3.2,0zm5.3,-6.5l3.7,0l-1.8,-5.9l-1.9,5.9z" class="st1"/>
    <path fill="#ffffff" id="svg_61" d="m151.199999,416.700002l0,-1.4c0,-1.6 0.4,-2.7 1.2,-3.4c0.8,-0.6 1.8,-0.9 3.1,-0.9c0.2,0 0.5,0 1.1,0c0.6,0 1.4,0.1 2.5,0.2c1.1,0.1 2,0.3 2.6,0.5l0,2.5c-1.7,-0.2 -3,-0.2 -4,-0.2c-1,0 -1.5,0 -1.6,0c-0.7,0 -1.1,0.1 -1.4,0.3c-0.3,0.2 -0.5,0.6 -0.5,1.3l0,0.8c0,0.6 0.1,1.1 0.4,1.3c0.2,0.2 0.7,0.3 1.3,0.3l2.5,0c1.7,0 2.8,0.7 3.4,2.1c0.3,0.7 0.4,1.5 0.4,2.3l0,1.1c0,2 -0.7,3.3 -2,4c-0.7,0.3 -1.5,0.5 -2.5,0.5c-2.6,0 -4.7,-0.2 -6.2,-0.7l0,-2.5c1.6,0.2 3,0.2 4.2,0.2s1.9,0 2.1,0s0.4,-0.1 0.6,-0.2c0.4,-0.2 0.7,-0.6 0.7,-1.2l0,-0.9c0,-0.8 -0.2,-1.3 -0.7,-1.5c-0.2,-0.1 -0.4,-0.1 -0.7,-0.1l-2.5,0c-2.6,0 -4,-1.5 -4,-4.4z" class="st1"/>
    <path fill="#ffffff" id="svg_62" d="m166.399999,427.700002l0,-16.6l6.9,0c1.6,0 2.7,0.5 3.5,1.4c0.7,0.8 1,2.1 1,3.7c0,1 -0.1,1.8 -0.3,2.5s-0.4,1.2 -0.7,1.6c-0.3,0.4 -0.6,0.7 -1.1,0.9c-0.6,0.3 -1.2,0.4 -1.9,0.4c-0.5,0 -1.3,-0.1 -2.5,-0.2c-1.1,-0.1 -1.7,-0.2 -1.8,-0.2l0,6.6l-3.1,0l0,-0.1zm6.6,-13.8l-3.6,0l0,4.9l3.6,0c0.4,0 0.6,-0.1 0.9,-0.2c0.5,-0.3 0.7,-1.1 0.7,-2.3c0,-1.6 -0.5,-2.4 -1.6,-2.4z" class="st1"/>
    <path fill="#ffffff" id="svg_63" d="m183.099999,411.700002c0.4,-0.2 0.7,-0.4 1.1,-0.5c0.4,-0.1 0.6,-0.1 0.9,-0.1c0.2,0 1.3,0 3.2,0.1c1.9,0.1 3.3,0.1 4.3,0.3l0,2.6l-6.3,0c-0.5,0 -0.9,0.1 -1,0.4c-0.1,0.2 -0.1,0.5 -0.1,0.9l0,2.6l6.5,0.2l0,2.6l-6.5,0.2l0,2.6c0,0.6 0.2,0.9 0.5,1c0.2,0.1 0.5,0.1 0.9,0.1l6.1,0l0,2.6c-0.7,0.1 -2.5,0.2 -5.4,0.3l-1.4,0.1c-0.1,0 -0.3,0 -0.4,0c-0.2,0 -0.4,0 -0.6,0c-0.2,0 -0.5,-0.1 -0.9,-0.2c-0.4,-0.1 -0.7,-0.3 -0.9,-0.5c-0.6,-0.5 -0.9,-1.4 -0.9,-2.5l0,-9.9c-0.3,-1.4 0.1,-2.4 0.9,-2.9z" class="st1"/>
    <path fill="#ffffff" id="svg_64" d="m203.399999,411.100002c1.4,0 2.4,0.4 3.1,1.1c0.8,0.9 1.2,2.2 1.2,4.1c0,2.1 -0.4,3.5 -1.3,4.2c-0.3,0.2 -0.5,0.4 -0.6,0.4s-0.4,0.1 -0.6,0.2l3,6.5l-3.4,0l-2.7,-6.3l-2.7,-0.3l0,6.6l-3.1,0l0,-16.6l7.1,0l0,0.1zm-3.9,7.5l3.6,0c0.6,0 1,-0.2 1.2,-0.5c0.2,-0.3 0.4,-0.9 0.4,-1.8c0,-0.9 -0.1,-1.6 -0.4,-1.9c-0.3,-0.3 -0.7,-0.5 -1.2,-0.5l-3.6,0l0,4.7z" class="st1"/>
    <path fill="#ffffff" id="svg_65" d="m211.899999,416.700002l0,-1.4c0,-1.6 0.4,-2.7 1.2,-3.4c0.8,-0.6 1.8,-0.9 3.1,-0.9c0.2,0 0.5,0 1.1,0c0.6,0 1.4,0.1 2.5,0.2c1.1,0.1 2,0.3 2.6,0.5l0,2.5c-1.7,-0.2 -3,-0.2 -4,-0.2c-1,0 -1.5,0 -1.6,0c-0.7,0 -1.1,0.1 -1.4,0.3c-0.3,0.2 -0.5,0.6 -0.5,1.3l0,0.8c0,0.6 0.1,1.1 0.4,1.3c0.2,0.2 0.7,0.3 1.3,0.3l2.5,0c1.7,0 2.8,0.7 3.4,2.1c0.3,0.7 0.4,1.5 0.4,2.3l0,1.1c0,2 -0.7,3.3 -2,4c-0.7,0.3 -1.5,0.5 -2.5,0.5c-2.6,0 -4.7,-0.2 -6.2,-0.7l0,-2.5c1.6,0.2 3,0.2 4.2,0.2s1.9,0 2.1,0s0.4,-0.1 0.6,-0.2c0.4,-0.2 0.7,-0.6 0.7,-1.2l0,-0.9c0,-0.8 -0.2,-1.3 -0.7,-1.5c-0.2,-0.1 -0.4,-0.1 -0.7,-0.1l-2.5,0c-2.6,0 -4,-1.5 -4,-4.4z" class="st1"/>
    <path fill="#ffffff" id="svg_66" d="m227.299999,427.700002l0,-16.6l2.9,0l0,6.9l1.3,0l4.1,-6.9l3.6,0l-4.9,8.3l4.9,8.3l-3.6,0l-4.1,-6.8l-1.3,0l0,6.8l-2.9,0z" class="st1"/>
    <path fill="#ffffff" id="svg_67" d="m250.599999,427.700002l-3.1,0l0,-5.1l-4.9,-11.4l3.3,0l3.1,8l3.4,-8l3.3,0l-5.3,11.4l0,5.1l0.2,0z" class="st1"/>
   </g>
  </a>
  <polygon stroke="null" fill="#ffffff" id="svg_68" points="108.0999984741211,403.8999938964844 262.0465513979452,404.3999938964844 262.0465513979452,402.8999938964844 108.0999984741211,402.5 " class="st1"/>
  <polygon stroke="null" fill="#ffffff" id="svg_69" points="108.0999984741211,401 261.73207280217594,401.3999938964844 261.73207280217594,401 108.0999984741211,400.5 " class="st1"/>
  <polygon stroke="null" fill="#ffffff" id="svg_70" points="108.39999389648438,399 261.2320744389217,399.5 261.2320744389217,398 108.39999389648438,397.6000061035156 " class="st1"/>
  <polygon stroke="null" fill="#ffffff" id="svg_71" points="108.0999984741211,440.8999938964844 262.98994337583645,441.29998779296875 262.98994337583645,439.79998779296875 108.0999984741211,439.3999938964844 " class="st1"/>
  <polygon stroke="null" fill="#ffffff" id="svg_72" points="108.0999984741211,437.74276119781644 262.0465513979452,437.98552239563287 262.0465513979452,437.74276119781644 108.0999984741211,437.5 " class="st1"/>
  <polygon stroke="null" fill="#ffffff" id="svg_73" points="108.39999389648438,436 262.489941794076,436.3999938964844 262.489941794076,435 108.39999389648438,434.5 " class="st1"/>
  <polygon stroke="null" fill="#ffffff" id="svg_74" points="108.0999984741211,465.1999816894531 356.8069037123514,465.6999816894531 356.8069037123514,464.1999816894531 108.0999984741211,463.79998779296875 " class="st1"/>
  <polygon stroke="null" fill="#ffffff" id="svg_75" points="108.0999984741211,462.29998779296875 356.1172558756298,462.6999816894531 356.1172558756298,462.29998779296875 108.0999984741211,461.79998779296875 " class="st1"/>
  <polygon stroke="null" fill="#ffffff" id="svg_76" points="108.39999389648438,460.29998779296875 356.65173643616436,460.79998779296875 356.65173643616436,459.29998779296875 108.39999389648438,458.8999938964844 " class="st1"/>
  <polygon stroke="null" fill="#ffffff" id="svg_77" points="108.0999984741211,499.29998779296875 357.84139007057274,499.79998779296875 357.84139007057274,498.29998779296875 108.0999984741211,497.8999938964844 " class="st1"/>
  <polygon stroke="null" fill="#ffffff" id="svg_78" points="108.0999984741211,496.3999938964844 357.49655154907305,496.79998779296875 357.49655154907305,496.3999938964844 108.0999984741211,495.8999938964844 " class="st1"/>
  <polygon stroke="null" fill="#ffffff" id="svg_79" points="108.39999389648438,494.3999938964844 357.6861986103904,494.8999938964844 357.6861986103904,493.5 108.39999389648438,493 " class="st1"/>
  <polygon fill="#ffffff" id="svg_80" points="248.40000534057617,168.70000457763672 359.5000114440918,169.0999984741211 359.5000114440918,167.5999984741211 248.40000534057617,167.20000457763672 " class="st1"/>
  <polygon fill="#ffffff" id="svg_81" points="248.40000534057617,165.70000457763672 359.5000114440918,166.0999984741211 359.5000114440918,165.5999984741211 248.40000534057617,165.20000457763672 " class="st1"/>
  <polygon fill="#ffffff" id="svg_82" points="248.40000534057617,163.70000457763672 359.5000114440918,164.0999984741211 359.5000114440918,162.5999984741211 248.40000534057617,162.20000457763672 " class="st1"/>
  <polygon fill="#ffffff" id="svg_83" points="248.40000534057617,137.4000015258789 359.5000114440918,137.8000030517578 359.5000114440918,136.3000030517578 248.40000534057617,135.9000015258789 " class="st1"/>
  <polygon fill="#ffffff" id="svg_84" points="248.40000534057617,134.3000030517578 359.5000114440918,134.8000030517578 359.5000114440918,134.3000030517578 248.40000534057617,133.9000015258789 " class="st1"/>
  <polygon fill="#ffffff" id="svg_85" points="248.40000534057617,132.3000030517578 359.5000114440918,132.8000030517578 359.5000114440918,131.3000030517578 248.40000534057617,130.9000015258789 " class="st1"/>
  <polygon fill="#ffffff" id="svg_86" points="248.40000534057617,114.30000305175781 359.5000114440918,114.70000457763672 359.5000114440918,113.20000457763672 248.40000534057617,112.80000305175781 " class="st1"/>
  <polygon fill="#ffffff" id="svg_87" points="248.40000534057617,111.30000305175781 359.5000114440918,111.70000457763672 359.5000114440918,111.30000305175781 248.40000534057617,110.80000305175781 " class="st1"/>
  <polygon fill="#ffffff" id="svg_88" points="248.40000534057617,109.30000305175781 359.5000114440918,109.70000457763672 359.5000114440918,108.30000305175781 248.40000534057617,107.80000305175781 " class="st1"/>
  <polygon fill="#ffffff" id="svg_89" points="248.40000534057617,78.80000305175781 359.5000114440918,79.30000305175781 359.5000114440918,77.80000305175781 248.40000534057617,77.4000015258789 " class="st1"/>
  <polygon fill="#ffffff" id="svg_90" points="248.40000534057617,75.80000305175781 359.5000114440918,76.30000305175781 359.5000114440918,75.80000305175781 248.40000534057617,75.4000015258789 " class="st1"/>
  <polygon fill="#ffffff" id="svg_91" points="248.40000534057617,73.80000114440918 359.5000114440918,74.30000114440918 359.5000114440918,72.80000114440918 248.40000534057617,72.4000015258789 " class="st1"/>
  <g fill-opacity="0.5" id="svg_92">
   <polygon fill="#ffffff" id="svg_93" points="193.19999313354492,165.70000457763672 191.60000228881836,165.70000457763672 191.19999313354492,211.5999984741211 192.79999923706055,213.29999542236328 " class="st2"/>
   <polygon fill="#ffffff" id="svg_94" points="189.49999618530273,165.70000457763672 189.10000228881836,209.29999542236328 189.60000228881836,209.79999542236328 189.90000534057617,165.70000457763672 " class="st2"/>
   <polygon fill="#ffffff" id="svg_95" points="186.19999313354492,165.70000457763672 185.90000534057617,205.9000015258789 187.40000534057617,207.5999984741211 187.79999923706055,165.70000457763672 " class="st2"/>
  </g>
  <g fill-opacity="0.5" id="svg_96">
   <polygon fill="#ffffff" id="svg_97" points="344.5999870300293,320.50000762939453 344.5999870300293,318.9000015258789 310.4000053405762,318.50000762939453 311.5000114440918,320.10001373291016 " class="st2"/>
   <polygon fill="#ffffff" id="svg_98" points="344.5999870300293,317.19998931884766 344.5999870300293,316.69998931884766 309.0000114440918,316.19998931884766 309.29999923706055,316.69998931884766 " class="st2"/>
   <polygon fill="#ffffff" id="svg_99" points="344.5999870300293,313.2999954223633 306.9000053405762,312.9000015258789 307.9000053405762,314.50000762939453 344.5999870300293,315.00000762939453 " class="st2"/>
  </g>
  <g fill-opacity="0.5" id="svg_100">
   <polygon fill="#ffffff" points="94.89999771118164,177.0999984741211 94.89999771118164,178.70000457763672 1.7999992370605469,178.20000457763672 1.7999992370605469,176.5999984741211 " id="XMLID_2394_" class="st3"/>
   <polygon fill="#ffffff" points="94.89999771118164,174.9000015258789 94.89999771118164,175.4000015258789 1.7999992370605469,174.9000015258789 1.7999992370605469,174.4000015258789 " id="XMLID_2392_" class="st3"/>
   <polygon fill="#ffffff" points="94.89999771118164,171.70000457763672 94.89999771118164,173.20000457763672 1.7999992370605469,172.79999542236328 1.7999992370605469,171.20000457763672 " id="XMLID_2390_" class="st3"/>
  </g>
  <polygon fill-opacity="0.5" fill="#ffffff" id="svg_101" points="212.40000534057617,118.5999984741211 211.90000534057617,203.29999542236328 213.49999618530273,203.29999542236328 213.99999618530273,118.5999984741211 " class="st2"/>
  <polygon fill-opacity="0.5" fill="#ffffff" id="svg_102" points="209.79999923706055,203.29999542236328 210.29999923706055,203.29999542236328 210.69999313354492,118.5999984741211 210.19999313354492,118.5999984741211 " class="st2"/>
  <polygon fill-opacity="0.5" fill="#ffffff" id="svg_103" points="206.60000228881836,203.29999542236328 208.10000228881836,203.29999542236328 208.60000228881836,118.5999984741211 206.99999618530273,118.5999984741211 " class="st2"/>
  <g fill-opacity="0.5" id="svg_104">
   <polygon fill="#ffffff" id="svg_105" points="155.20000076293945,254.0999984741211 153.60000228881836,252.20000457763672 153.39999771118164,307.00000762939453 154.99999618530273,305.19998931884766 " class="st2"/>
   <polygon fill="#ffffff" id="svg_106" points="151.49999618530273,249.5999984741211 151.20000076293945,309.4000015258789 151.70000076293945,308.7999954223633 151.89999771118164,250.20000457763672 " class="st2"/>
   <polygon fill="#ffffff" id="svg_107" points="148.29999923706055,245.79999542236328 147.99999618530273,313.00000762939453 149.60000228881836,311.19998931884766 149.79999923706055,247.70000457763672 " class="st2"/>
  </g>
  <polygon fill-opacity="0.5" fill="#ffffff" id="svg_108" points="114.20000076293945,359.10001373291016 112.60000228881836,357.19998931884766 112.49999618530273,392.4000015258789 114.10000228881836,392.4000015258789 " class="st2"/>
  <polygon fill-opacity="0.5" fill="#ffffff" id="svg_109" points="110.5,354.60001373291016 110.29999923706055,392.4000015258789 110.79999923706055,392.4000015258789 110.89999771118164,355.19998931884766 " class="st2"/>
  <polygon fill-opacity="0.5" fill="#ffffff" id="svg_110" points="107.29999923706055,350.7999954223633 107.0999984741211,392.4000015258789 108.70000076293945,392.4000015258789 108.79999923706055,352.69998931884766 " class="st2"/>
 </g>
</svg>