<?xml version="1.0" encoding="utf-8"?>
<!-- Generator: Adobe Illustrator 21.0.0, SVG Export Plug-In . SVG Version: 6.00 Build 0)  -->
<svg version="1.1" id="Capa_1" xmlns="http://www.w3.org/2000/svg" xmlns:xlink="http://www.w3.org/1999/xlink" x="0px" y="0px"
	 viewBox="0 0 401 903" style="enable-background:new 0 0 401 903;" xml:space="preserve">
<style type="text/css">
	.st0{fill:#FAFAFA;}
	.st1{fill:#FFFFFF;}
</style>
<g>
	<g>
		<path class="st0" d="M102.5,337.3c-14.3,0-17.6-7.6-17.6-17.7c0-4.8,1.6-17.9,2.2-21.7h4.3c-0.4,5.8-0.9,21.7-0.9,21.7
			c-0.3,7.4,1.4,12.5,12,12.5h6.5c9.4,0,10.5-4.1,10.5-10.5v-12c0-12,8.1-14.2,16.2-14.2h6.7c14,0,16.2,9.1,16.2,18
			c0,4.4-1.4,17.9-2.2,22.1h-4.3c0.4-3.8,0.9-13.7,0.9-22.1c0-5.2-0.9-12.9-10.6-12.9h-6.7c-6.6,0-10.5,2.3-10.5,9.1v11.8
			c0,14.2-8.1,15.8-16.2,15.8H102.5z"/>
		<path class="st0" d="M84.8,263.8c0-4.7,1.2-14.8,2.5-21.1h4.2c0,0.1-1.1,12.8-1.1,21.1c0,11.9,6,16.8,31.3,16.8
			c18.4,0,31.1-4.3,31.1-16.8c0-9.5-0.9-21.1-0.9-21.1h4.3c1.3,6.3,2.2,16.4,2.2,21.1c0,16.7-15.7,22-36.9,22
			C98.5,285.8,84.8,281.8,84.8,263.8z"/>
		<path class="st0" d="M85.6,233.5v-27c0-8,4.2-15.4,21-15.4c18.8,0,20.5,8.6,20.7,12.4l30.5-14.1v5.6L127.5,209
			c-0.1,1.6-1.2,19.2-1.3,19.4h31.6v5.1H85.6z M121.5,206.4c0-5.1-0.8-10.2-14.9-10.2c-13.7,0-15.3,5.2-15.3,10.2v21.9h30.2V206.4z"
			/>
		<path class="st0" d="M85.1,156.9c0-15.6,3.3-25,37.1-25c31.9,0,36.1,8.8,36.1,25c0,16.2-3.2,25-36.1,25
			C88.3,181.9,85.1,172.1,85.1,156.9z M152.6,156.9c0-14.5-4.2-19.9-30.4-19.9c-30.3,0-31.5,6.8-31.5,19.9
			c0,12.4,0.7,19.9,31.5,19.9C149,176.8,152.6,171.8,152.6,156.9z"/>
		<path class="st0" d="M85.6,119.6v-5.1h59.9c6.5,0,6.8-3.7,6.8-7.1V80.8h5.6v26.6c0,5.9-1.3,12.3-12.5,12.3H85.6z"/>
		<path class="st0" d="M85.6,69.4v-5.1h59.9c6.5,0,6.8-3.7,6.8-7.1V30.6h5.6v26.6c0,5.9-1.3,12.3-12.5,12.3H85.6z"/>
	</g>
	<path class="st1" d="M232.4,898h-63.9c-64.5,0-117-46.6-117-103.9V608.9c0-57.3,52.5-103.9,117-103.9h63.9
		c64.5,0,117,46.6,117,103.9v185.1C349.4,851.4,296.9,898,232.4,898z M168.6,514.6c-58.6,0-106.2,42.3-106.2,94.4v185.1
		c0,52,47.6,94.4,106.2,94.4h63.9c58.6,0,106.2-42.3,106.2-94.4V608.9c0-52-47.6-94.4-106.2-94.4H168.6z"/>
	<path class="st1" d="M224.4,848.3h-47.7c-48.2,0-87.4-34.8-87.4-77.6V632.4c0-42.8,39.2-77.6,87.4-77.6h47.7
		c48.2,0,87.4,34.8,87.4,77.6v138.3C311.8,813.5,272.5,848.3,224.4,848.3z M176.6,561.8c-43.8,0-79.4,31.6-79.4,70.5v138.3
		c0,38.9,35.6,70.5,79.4,70.5h47.7c43.8,0,79.4-31.6,79.4-70.5V632.4c0-38.9-35.6-70.5-79.4-70.5H176.6z"/>
	<path class="st1" d="M215,702.3h-32.2c-32.6,0-59.1-11.9-59.1-26.6v-47.3c0-14.6,26.5-26.6,59.1-26.6H215
		c32.6,0,59.1,11.9,59.1,26.6v47.3C274.1,690.4,247.6,702.3,215,702.3z M182.8,604.3c-29.6,0-53.6,10.8-53.6,24.1v47.3
		c0,13.3,24.1,24.1,53.6,24.1H215c29.6,0,53.6-10.8,53.6-24.1v-47.3c0-13.3-24.1-24.1-53.6-24.1H182.8z"/>
	<rect x="192.8" y="3" class="st1" width="12.2" height="393.1"/>
	<polygon class="st1" points="195,457.9 120,400.9 127.4,391.2 194.9,442.5 259.7,391.3 267.2,400.8 	"/>
</g>
</svg>
