<?xml version="1.0" encoding="utf-8"?>
<!-- Generator: Adobe Illustrator 19.2.1, SVG Export Plug-In . SVG Version: 6.00 Build 0)  -->
<svg version="1.1" id="Capa_1" xmlns="http://www.w3.org/2000/svg" xmlns:xlink="http://www.w3.org/1999/xlink" x="0px" y="0px"
	 viewBox="0 0 360 324.8" style="enable-background:new 0 0 360 324.8;" xml:space="preserve">
<style type="text/css">
	.st0{fill:#FFFFFF;}
	.st1{opacity:0.33;}
	.st2{opacity:0.33;fill:#FFFFFF;}
</style>
<g>
	<path class="st0" d="M54.3,34.3c-0.4-1.2-0.6-2.7-0.8-4.3s-0.2-3.6-0.2-5.8c0-2.2,0.1-4.3,0.4-6.2c0.3-1.9,0.6-3.5,1-4.8
		c0.4-1.3,1-2.4,1.7-3.4c0.7-0.9,1.4-1.7,2.2-2.2c0.7-0.5,1.6-1,2.7-1.3c1.7-0.5,3.6-0.8,5.6-0.8c2,0,3.5,0,4.5,0.2
		c1,0.1,2,0.3,3.1,0.6c1.1,0.3,2,0.7,2.7,1.3c0.7,0.5,1.5,1.3,2.2,2.2c0.7,0.9,1.3,2.1,1.7,3.4c0.9,2.9,1.4,6.7,1.4,11.3
		c0,6.7-1,11.4-2.9,14c-1.3,1.8-2.9,2.9-4.8,3.5c-2.6,0.8-6,1-10.1,0.7c-2.3-0.2-4-0.5-4.9-1.1c-1-0.5-1.8-1.1-2.5-1.7
		c-0.7-0.6-1.2-1.4-1.7-2.3C55,36.5,54.6,35.5,54.3,34.3z M59.6,16.8c-0.2,0.9-0.3,2-0.4,3.3c-0.1,1.2-0.1,2.8-0.1,4.8
		s0.1,3.6,0.3,5.1s0.5,2.7,0.8,3.7s0.9,1.8,1.6,2.3c1.3,0.9,3,1.3,5.3,1.3c2.2,0,3.9-0.2,4.9-0.5c1-0.3,1.9-0.9,2.7-1.9
		c0.7-0.9,1.2-2.2,1.5-3.9c0.3-1.7,0.4-3.5,0.4-5.6s0-3.7-0.1-4.8c-0.1-1.1-0.2-2.1-0.3-3c-0.1-0.9-0.3-1.6-0.6-2.3
		c-0.2-0.7-0.5-1.2-0.7-1.7c-0.2-0.5-0.6-0.9-1-1.2c-0.4-0.3-0.8-0.6-1.2-0.8c-0.4-0.2-0.8-0.3-1.4-0.4c-0.9-0.1-2-0.2-3.1-0.2
		c-1.1,0-2,0-2.5,0s-1.1,0.1-1.8,0.2s-1.2,0.3-1.5,0.6c-0.4,0.3-0.8,0.6-1.2,1c-0.4,0.4-0.7,1-1,1.6C60,15.1,59.8,15.9,59.6,16.8z
		 M77.5,50.4c-0.9,0.3-1.9,0.4-2.9,0.4s-2-0.1-3-0.4s-1.9-0.7-2.7-1.2c-1.8-1.1-2.9-2.8-3.1-5.1h3.5c1.1,1.3,2.6,1.9,4.5,1.9
		c1.1,0,2.4-0.2,3.8-0.7V50.4z"/>
	<path class="st0" d="M86.3,33.8v-18h5.8v18.1c0,1.4,0.3,2.4,1,3c0.6,0.7,1.6,1,2.9,1s2.5-0.2,3.5-0.6c1-0.4,2.3-1,3.8-2V15.8h5.8
		v26.6h-4.5l-1.3-2.9c-0.3,0.1-0.7,0.4-1.3,0.8c-0.6,0.4-1.1,0.7-1.4,0.8c-0.3,0.2-0.7,0.4-1.3,0.7c-0.6,0.3-1.1,0.5-1.5,0.6
		c-1.1,0.3-2.3,0.5-3.5,0.5c-2.8,0-4.8-0.8-6.1-2.5C86.9,38.7,86.3,36.5,86.3,33.8z"/>
	<path class="st0" d="M119.1,6.7c0.8,0,1.2,0.4,1.2,1.3v3.8c0,0.8-0.4,1.2-1.2,1.2h-4.3c-0.3,0-0.6-0.1-0.9-0.3
		c-0.2-0.2-0.4-0.5-0.4-0.8V8c0-0.9,0.4-1.3,1.2-1.3H119.1z M114,42.5V15.8h5.8v26.6H114z"/>
	<path class="st0" d="M126.4,18.9c1-1.3,2.3-2.2,3.8-2.7c1.5-0.4,3.2-0.6,5.1-0.6c1.9,0,3.3,0,4.2,0.1c0.9,0.1,1.8,0.2,2.7,0.4
		s1.6,0.5,2.2,1c0.5,0.4,1,1,1.5,1.7c0.8,1.3,1.3,3.4,1.3,6.4c0,4.3-2.4,6.5-7.2,6.5h-9.5c0,2.6,0.4,4.3,1.3,5.1
		c0.5,0.4,1,0.7,1.6,0.9c0.6,0.1,2.4,0.2,5.3,0.2c2.9,0,5.6-0.2,7.9-0.6v4.1c-2.7,0.9-7.1,1.4-13.2,1.4c-3.3,0-5.6-1-6.9-3
		c-1.3-2-1.9-5.5-1.9-10.6C124.5,24.1,125.1,20.7,126.4,18.9z M141.2,25c0-2-0.3-3.3-0.8-3.8s-1.9-0.8-3.9-0.8
		c-2.6,0-4.2,0.3-4.8,0.9c-0.7,0.8-1.1,1.7-1.2,2.7c-0.1,1-0.2,2.1-0.2,3.2h8.3C140.3,27.2,141.2,26.5,141.2,25z"/>
	<path class="st0" d="M168.2,24.4c0-2.7-1.2-4.1-3.5-4.1c-1.5,0-2.8,0.2-3.9,0.6c-1,0.4-2.3,1-3.8,1.9v19.6h-5.8V15.8h4.5l1.3,3
		c0.1-0.1,0.5-0.3,1.1-0.7c0.6-0.4,1.2-0.8,1.9-1.2c0.6-0.4,1.5-0.7,2.6-1c1.1-0.3,2.2-0.5,3.4-0.5c2.8,0,4.8,0.8,6.1,2.5
		c1.3,1.7,2,3.8,2,6.5v18h-5.8V24.4z"/>
	<path class="st0" d="M179.7,18.9c1-1.3,2.3-2.2,3.8-2.7c1.5-0.4,3.2-0.6,5.1-0.6s3.3,0,4.2,0.1c0.9,0.1,1.8,0.2,2.7,0.4
		c0.9,0.2,1.6,0.5,2.2,1c0.5,0.4,1,1,1.5,1.7c0.8,1.3,1.3,3.4,1.3,6.4c0,4.3-2.4,6.5-7.2,6.5h-9.5c0,2.6,0.4,4.3,1.3,5.1
		c0.5,0.4,1,0.7,1.6,0.9c0.6,0.1,2.4,0.2,5.3,0.2s5.6-0.2,7.9-0.6v4.1c-2.7,0.9-7.1,1.4-13.2,1.4c-3.3,0-5.6-1-6.9-3
		s-1.9-5.5-1.9-10.6C177.7,24.1,178.3,20.7,179.7,18.9z M194.4,25c0-2-0.3-3.3-0.8-3.8s-1.9-0.8-3.9-0.8c-2.6,0-4.2,0.3-4.8,0.9
		c-0.7,0.8-1.1,1.7-1.2,2.7c-0.1,1-0.2,2.1-0.2,3.2h8.3C193.5,27.2,194.4,26.5,194.4,25z"/>
	<path class="st0" d="M210.5,15.6c2.6,0,5.3,0.1,8.1,0.3c2.8,0.2,4.7,0.5,5.7,0.9v3.9h-12.4c-1.1,0-1.7,0.2-2,0.5
		c-0.3,0.3-0.4,0.9-0.4,1.8v1.6c0,0.9,0.2,1.5,0.6,1.8c0.4,0.2,1,0.4,1.9,0.4h6.9c2.3,0,4,0.6,5.2,1.9c1.1,1.2,1.7,2.9,1.7,4.9v2.7
		c0,4.5-2.2,6.8-6.5,6.8c-2.5,0-5.4-0.1-8.5-0.4c-3.1-0.2-5.1-0.5-5.9-0.9v-3.8h13c1.4,0,2.2-0.7,2.2-2.1v-1.7
		c0-0.7-0.2-1.2-0.5-1.6c-0.3-0.4-0.9-0.5-1.7-0.5h-6.8c-2.5,0-4.3-0.5-5.5-1.6c-1.2-1.1-1.8-2.8-1.8-5.3v-2.3
		C203.6,17.9,205.9,15.6,210.5,15.6z"/>
</g>
<g id="XMLID_1402_" class="st1">
	<rect id="XMLID_1409_" x="-130.2" y="107.6" class="st0" width="182.5" height="1.6"/>
	<rect id="XMLID_1406_" x="-130.2" y="110.8" class="st0" width="182.5" height="0.5"/>
	<rect id="XMLID_1404_" x="-130.2" y="112.9" class="st0" width="182.5" height="1.5"/>
</g>
<g id="XMLID_1392_" class="st1">
	<rect id="XMLID_1400_" x="306.6" y="129.9" class="st0" width="113.6" height="1.6"/>
	<rect id="XMLID_1397_" x="306.6" y="133.1" class="st0" width="113.6" height="0.5"/>
	<rect id="XMLID_1393_" x="306.6" y="135.1" class="st0" width="113.6" height="1.5"/>
</g>
<g id="XMLID_1380_" class="st1">
	<rect id="XMLID_1385_" x="166.8" y="68.7" class="st0" width="1.6" height="56.4"/>
	<rect id="XMLID_1383_" x="164.7" y="68.7" class="st0" width="0.5" height="56.4"/>
	<rect id="XMLID_1381_" x="161.6" y="68.7" class="st0" width="1.5" height="56.4"/>
</g>
<g>
	<g id="XMLID_1370_">
		<rect id="XMLID_1378_" x="117.8" y="128.4" class="st0" width="2.1" height="57"/>
		<rect id="XMLID_1374_" x="115" y="128.4" class="st0" width="0.6" height="57"/>
		<rect id="XMLID_1371_" x="110.7" y="128.4" class="st0" width="2.1" height="57"/>
	</g>
	<g id="XMLID_1362_">
		<rect id="XMLID_1368_" x="165.3" y="128.4" class="st0" width="2.1" height="57"/>
		<rect id="XMLID_1366_" x="162.4" y="128.4" class="st0" width="0.6" height="57"/>
		<rect id="XMLID_1364_" x="158.2" y="128.4" class="st0" width="2.1" height="57"/>
	</g>
	<g id="XMLID_1350_">
		<polygon id="XMLID_1360_" class="st0" points="121.6,128 121.6,132.5 137.1,157.6 138.5,155.4 		"/>
		<polygon id="XMLID_1357_" class="st0" points="121.6,138.6 135.1,160.5 135.6,159.8 121.6,137.2 		"/>
		<polygon id="XMLID_1352_" class="st0" points="121.6,147.7 132.2,164.9 133.6,162.8 121.6,143.2 		"/>
	</g>
	<g id="XMLID_1338_">
		<polygon id="XMLID_1347_" class="st0" points="156.3,128 132.6,166.6 135.4,166.6 156.3,132.5 		"/>
		<polygon id="XMLID_1344_" class="st0" points="156.3,138.6 156.3,137.2 138.3,166.6 139.1,166.6 		"/>
		<polygon id="XMLID_1339_" class="st0" points="156.3,147.7 156.3,143.2 142,166.6 144.7,166.6 		"/>
	</g>
</g>
<g>
	<g id="XMLID_1330_">
		<polygon id="XMLID_1336_" class="st0" points="173.5,139.6 217.1,139.6 217.1,137.5 175.6,137.5 173.5,139.3 		"/>
		<polygon id="XMLID_1334_" class="st0" points="217.1,134.3 217.1,133.6 179.9,133.6 179.2,134.3 		"/>
		<polygon id="XMLID_1331_" class="st0" points="217.1,128.3 186,128.3 183.6,130.4 217.1,130.4 		"/>
	</g>
	<g id="XMLID_1322_">
		<polygon id="XMLID_1328_" class="st0" points="185,185.1 185,141.6 182.8,141.6 182.8,183.1 184.6,185.1 		"/>
		<polygon id="XMLID_1326_" class="st0" points="179.6,141.6 178.9,141.6 178.9,178.7 179.6,179.4 		"/>
		<polygon id="XMLID_1323_" class="st0" points="173.6,141.6 173.6,172.7 175.7,175.1 175.7,141.6 		"/>
	</g>
	<g id="XMLID_1315_">
		<polygon id="XMLID_1320_" class="st0" points="230,173.7 186.4,173.7 186.4,175.9 227.9,175.9 230,174 		"/>
		<polygon id="XMLID_1318_" class="st0" points="186.4,179.1 186.4,179.7 223.6,179.7 224.3,179.1 		"/>
		<polygon id="XMLID_1316_" class="st0" points="186.4,185.1 217.5,185.1 219.9,182.9 186.4,182.9 		"/>
	</g>
	<g id="XMLID_1267_">
		<polygon id="XMLID_1272_" class="st0" points="218.5,128.2 218.5,171.8 220.7,171.8 220.7,130.3 218.9,128.2 		"/>
		<polygon id="XMLID_1270_" class="st0" points="223.9,171.8 224.6,171.8 224.6,134.6 223.9,133.9 		"/>
		<polygon id="XMLID_1268_" class="st0" points="229.9,171.8 229.9,140.7 227.8,138.2 227.8,171.8 		"/>
	</g>
</g>
<g>
	<g id="XMLID_1259_">
		<polygon id="XMLID_1265_" class="st0" points="98,69.8 141.5,69.8 141.5,67.7 100,67.7 98,69.5 		"/>
		<polygon id="XMLID_1263_" class="st0" points="141.5,64.4 141.5,63.8 104.4,63.8 103.6,64.4 		"/>
		<polygon id="XMLID_1260_" class="st0" points="141.5,58.4 110.4,58.4 108,60.6 141.5,60.6 		"/>
	</g>
	<g id="XMLID_1226_">
		<polygon id="XMLID_1256_" class="st0" points="109.4,115.3 109.4,71.7 107.2,71.7 107.2,113.3 109,115.3 		"/>
		<polygon id="XMLID_1237_" class="st0" points="104,71.7 103.4,71.7 103.4,108.9 104,109.6 		"/>
		<polygon id="XMLID_1230_" class="st0" points="98,71.7 98,102.8 100.1,105.3 100.1,71.7 		"/>
	</g>
	<g id="XMLID_1214_">
		<polygon id="XMLID_1221_" class="st0" points="154.4,103.9 110.8,103.9 110.8,106 152.4,106 154.4,104.2 		"/>
		<polygon id="XMLID_1219_" class="st0" points="110.8,109.3 110.8,109.9 148,109.9 148.7,109.3 		"/>
		<polygon id="XMLID_1217_" class="st0" points="110.8,115.3 142,115.3 144.4,113.1 110.8,113.1 		"/>
	</g>
	<g id="XMLID_1142_">
		<polygon id="XMLID_1210_" class="st0" points="143,58.4 143,102 145.2,102 145.2,60.4 143.3,58.4 		"/>
		<polygon id="XMLID_1205_" class="st0" points="148.4,102 149,102 149,64.8 148.4,64.1 		"/>
		<polygon id="XMLID_1144_" class="st0" points="154.4,102 154.4,70.9 152.2,68.4 152.2,102 		"/>
	</g>
</g>
<g>
	<rect id="XMLID_1140_" x="268.3" y="140.1" class="st0" width="2.2" height="10.6"/>
	<rect id="XMLID_1137_" x="272.7" y="140.1" class="st0" width="0.7" height="10.6"/>
	<rect id="XMLID_1133_" x="275.6" y="140.1" class="st0" width="2.1" height="10.6"/>
	<rect id="XMLID_1131_" x="294.4" y="163.7" class="st0" width="2.2" height="11.6"/>
	<rect id="XMLID_1128_" x="298.8" y="163.7" class="st0" width="0.7" height="11.6"/>
	<rect id="XMLID_1116_" x="301.7" y="163.7" class="st0" width="2.1" height="11.6"/>
	<polygon class="st0" points="278.6,129.3 275.5,131.7 304.2,131.7 304.2,129.3 	"/>
	<polygon class="st0" points="273.4,133.5 272.9,134.1 304.2,134.1 304.2,133.5 	"/>
	<polygon class="st0" points="270.3,135.9 267.7,137.7 304.2,137.7 304.2,135.9 	"/>
	<polygon class="st0" points="275.5,158.8 278.6,160.6 304.2,160.6 304.2,160.5 302,158.8 	"/>
	<polygon class="st0" points="272.9,156.4 273.4,157 300.5,157 300,156.4 	"/>
	<polygon class="st0" points="267.7,152.8 270.3,154.6 297.9,154.6 295.9,152.8 	"/>
	<polygon class="st0" points="293.2,185.9 296.3,183.5 269.2,183.5 269.2,185.9 	"/>
	<polygon class="st0" points="298.4,182.3 298.9,181.7 269.2,181.7 269.2,182.3 	"/>
	<polygon class="st0" points="301.5,179.9 304.1,178.1 269.2,178.1 269.2,179.9 	"/>
</g>
<g>
	<rect id="XMLID_1113_" x="55.3" y="69.2" class="st0" width="2.2" height="10.6"/>
	<rect id="XMLID_1090_" x="59.8" y="69.2" class="st0" width="0.7" height="10.6"/>
	<rect id="XMLID_1084_" x="62.7" y="69.2" class="st0" width="2.1" height="10.6"/>
	<rect id="XMLID_1040_" x="81.4" y="92.7" class="st0" width="2.2" height="11.6"/>
	<rect id="XMLID_800_" x="85.9" y="92.7" class="st0" width="0.7" height="11.6"/>
	<rect id="XMLID_116_" x="88.8" y="92.7" class="st0" width="2.1" height="11.6"/>
	<polygon class="st0" points="65.6,58.3 62.5,60.7 91.1,60.7 91.1,58.3 	"/>
	<polygon class="st0" points="60.5,62.5 59.9,63.1 91.1,63.1 91.1,62.5 	"/>
	<polygon class="st0" points="57.4,64.9 54.8,66.7 91.1,66.7 91.1,64.9 	"/>
	<polygon class="st0" points="62.5,87.8 65.6,89.6 91.1,89.6 91.1,89.6 89.1,87.8 	"/>
	<polygon class="st0" points="59.9,85.4 60.5,86 87.6,86 87,85.4 	"/>
	<polygon class="st0" points="54.8,81.8 57.4,83.6 85,83.6 82.9,81.8 	"/>
	<polygon class="st0" points="80.3,114.9 83.4,112.5 56.2,112.5 56.2,114.9 	"/>
	<polygon class="st0" points="85.5,111.3 86,110.7 56.2,110.7 56.2,111.3 	"/>
	<polygon class="st0" points="88.6,108.9 91.2,107.1 56.2,107.1 56.2,108.9 	"/>
</g>
<polygon class="st2" points="-61.5,-59.6 -63,-59.6 -63,63.5 -61.5,65.2 "/>
<polygon class="st2" points="-55.1,-59.6 -55.1,61.3 -54.6,61.8 -54.6,-59.6 "/>
<polygon class="st2" points="-58.2,-59.6 -58.2,58 -56.7,59.6 -56.7,-59.6 "/>
<polygon class="st2" points="-58.3,58.5 -58.3,60.1 52.6,60.1 54.5,58.5 "/>
<polygon class="st2" points="-58.3,62.2 50.1,62.2 50.6,61.7 -58.3,61.7 "/>
<polygon class="st2" points="-58.3,65.3 46.2,65.3 48.1,63.8 -58.3,63.8 "/>
<polygon class="st2" points="206.3,59.7 153.8,59.7 153.8,60 155,61.3 206.3,61.3 "/>
<polygon class="st2" points="206.3,63.4 206.3,62.9 156.4,62.9 156.9,63.4 "/>
<polygon class="st2" points="206.3,66.5 206.3,65 158.4,65 159.8,66.5 "/>
<polygon class="st2" points="88,113.6 88,163.9 89.6,163.9 89.6,112.4 "/>
<polygon class="st2" points="85.9,163.9 86.4,163.9 86.4,114.8 85.9,115.2 "/>
<polygon class="st2" points="82.8,163.9 84.3,163.9 84.3,116.4 82.8,117.6 "/>
<g>
	<polygon class="st2" points="234.7,174.2 234.4,281.7 232.3,281.7 232.6,176.1 234.6,174.2 	"/>
	<polygon class="st2" points="229.5,281.7 229.8,178.7 230.4,178.1 230.1,281.7 	"/>
	<polygon class="st2" points="225.2,281.7 225.5,182.6 227.6,180.7 227.3,281.7 	"/>
</g>
<polygon class="st2" points="418.9,327.4 232.8,293.4 231,291.7 419.2,326.1 "/>
<polygon class="st2" points="419.7,324.4 419.6,324.8 229.1,289.9 228.5,289.4 "/>
<polygon class="st2" points="225,286 420.3,321.7 420,323 226.6,287.6 225,286.1 "/>
<rect x="238" y="178.9" class="st2" width="27.1" height="1.6"/>
<rect x="238" y="182.1" class="st2" width="27.1" height="0.5"/>
<rect x="238" y="184.1" class="st2" width="27.1" height="1.5"/>
</svg>
