<?xml version="1.0" encoding="utf-8"?>
<!-- Generator: Adobe Illustrator 21.0.0, SVG Export Plug-In . SVG Version: 6.00 Build 0)  -->
<svg version="1.1" id="Layer_1" xmlns="http://www.w3.org/2000/svg" xmlns:xlink="http://www.w3.org/1999/xlink" x="0px" y="0px"
	 viewBox="0 0 300 150" style="enable-background:new 0 0 300 150;" xml:space="preserve">
<style type="text/css">
	.st0{fill:#FFFFFF;}
	.st1{enable-background:new    ;}
	.st2{opacity:0.33;}
</style>
<g>
	<g id="XMLID_195_">
		<polygon class="st0" points="96.6,102.5 86.7,127.7 88,127.7 97.9,102.5 		"/>
	</g>
	<g id="XMLID_194_">
		<polygon class="st0" points="95,102.5 85.1,127.7 85.3,127.7 95.2,102.5 		"/>
	</g>
	<g id="XMLID_193_">
		<polygon class="st0" points="92.1,102.5 82.7,127.7 84,127.7 93.4,102.5 		"/>
	</g>
	<g id="XMLID_189_">
		<g id="XMLID_192_">
			<polygon class="st0" points="102.5,127.7 103.8,127.7 96.4,108.8 95.7,110.5 			"/>
		</g>
		<g id="XMLID_191_">
			<polygon class="st0" points="105.2,127.7 105.4,127.7 97.2,106.8 97.1,107.1 			"/>
		</g>
		<g id="XMLID_190_">
			<polygon class="st0" points="107.8,127.7 98.7,103.3 98,104.9 106.5,127.7 			"/>
		</g>
	</g>
	<g id="XMLID_169_">
		<rect x="72.6" y="108.2" class="st0" width="1" height="19.6"/>
	</g>
	<g id="XMLID_168_">
		<rect x="71" y="108.2" class="st0" width="0.3" height="19.6"/>
	</g>
	<g id="XMLID_167_">
		<rect x="68.6" y="108.2" class="st0" width="0.9" height="19.6"/>
	</g>
	<g id="XMLID_166_">
		<rect x="58.4" y="106.4" class="st0" width="25.4" height="1"/>
	</g>
	<g id="XMLID_165_">
		<rect x="58.4" y="104.7" class="st0" width="25.4" height="0.3"/>
	</g>
	<g id="XMLID_158_">
		<rect x="58.4" y="102.4" class="st0" width="25.4" height="0.9"/>
	</g>
	<g id="XMLID_188_">
		<polygon class="st0" points="119.8,63.2 109.9,88.5 111.3,88.5 121.1,63.2 		"/>
	</g>
	<g id="XMLID_187_">
		<polygon class="st0" points="118.2,63.2 108.3,88.5 108.5,88.5 118.4,63.2 		"/>
	</g>
	<g id="XMLID_186_">
		<polygon class="st0" points="115.3,63.2 105.9,88.5 107.2,88.5 116.6,63.2 		"/>
	</g>
	<g id="XMLID_182_">
		<g id="XMLID_185_">
			<polygon class="st0" points="125.7,88.5 127,88.5 119.6,69.6 118.9,71.3 			"/>
		</g>
		<g id="XMLID_184_">
			<polygon class="st0" points="128.4,88.5 128.6,88.5 120.4,67.6 120.3,67.8 			"/>
		</g>
		<g id="XMLID_183_">
			<polygon class="st0" points="131,88.5 121.9,64 121.2,65.7 129.7,88.5 			"/>
		</g>
	</g>
	<g id="XMLID_164_">
		<rect x="97.5" y="68.2" class="st0" width="1" height="19.6"/>
	</g>
	<g id="XMLID_163_">
		<rect x="95.8" y="68.2" class="st0" width="0.3" height="19.6"/>
	</g>
	<g id="XMLID_162_">
		<rect x="93.4" y="68.2" class="st0" width="0.9" height="19.6"/>
	</g>
	<g id="XMLID_161_">
		<rect x="83.2" y="66.3" class="st0" width="25.4" height="1"/>
	</g>
	<g id="XMLID_160_">
		<rect x="83.2" y="64.6" class="st0" width="25.4" height="0.3"/>
	</g>
	<g id="XMLID_159_">
		<rect x="83.2" y="62.3" class="st0" width="25.4" height="0.9"/>
	</g>
	<g id="XMLID_226_">
		<rect x="138" y="84.3" class="st0" width="11.5" height="1"/>
	</g>
	<g id="XMLID_225_">
		<rect x="138" y="86.2" class="st0" width="11.5" height="0.3"/>
	</g>
	<g id="XMLID_224_">
		<rect x="138" y="87.5" class="st0" width="11.5" height="0.9"/>
	</g>
	<g id="XMLID_223_">
		<rect x="138" y="63.1" class="st0" width="11.5" height="1"/>
	</g>
	<g id="XMLID_222_">
		<rect x="138" y="65" class="st0" width="11.5" height="0.3"/>
	</g>
	<g id="XMLID_221_">
		<rect x="138" y="66.3" class="st0" width="11.5" height="0.9"/>
	</g>
	<g id="XMLID_217_">
		<polygon id="XMLID_220_" class="st0" points="132.9,67.4 132.9,83.8 134.2,85.2 134.2,66.2 		"/>
		<polygon id="XMLID_219_" class="st0" points="135,65.4 135,86.1 135.2,86.3 135.2,65.2 		"/>
		<polygon id="XMLID_218_" class="st0" points="136.3,64.2 136.3,87.5 137.3,88.6 137.3,63.2 		"/>
	</g>
	<g id="XMLID_236_">
		<rect x="39.7" y="48.3" class="st0" width="11.5" height="1"/>
	</g>
	<g id="XMLID_235_">
		<rect x="39.7" y="50.3" class="st0" width="11.5" height="0.3"/>
	</g>
	<g id="XMLID_234_">
		<rect x="39.7" y="51.5" class="st0" width="11.5" height="0.9"/>
	</g>
	<g id="XMLID_233_">
		<rect x="39.7" y="27.2" class="st0" width="11.5" height="1"/>
	</g>
	<g id="XMLID_232_">
		<rect x="39.7" y="29.1" class="st0" width="11.5" height="0.3"/>
	</g>
	<g id="XMLID_231_">
		<rect x="39.7" y="30.4" class="st0" width="11.5" height="0.9"/>
	</g>
	<g id="XMLID_227_">
		<polygon id="XMLID_230_" class="st0" points="34.7,31.5 34.7,47.9 35.9,49.3 35.9,30.3 		"/>
		<polygon id="XMLID_229_" class="st0" points="36.8,29.5 36.8,50.2 37,50.4 37,29.3 		"/>
		<polygon id="XMLID_228_" class="st0" points="38,28.3 38,51.5 39,52.7 39,27.3 		"/>
	</g>
	<g id="XMLID_315_">
		<g id="XMLID_318_">
			<polygon class="st0" points="54.8,32.5 73.9,32.5 73.9,31.5 55.7,31.5 54.8,32.3 			"/>
		</g>
		<g id="XMLID_317_">
			<polygon class="st0" points="73.9,30.1 73.9,29.8 57.6,29.8 57.3,30.1 			"/>
		</g>
		<g id="XMLID_316_">
			<polygon class="st0" points="73.9,27.5 60.2,27.5 59.2,28.4 73.9,28.4 			"/>
		</g>
	</g>
	<g id="XMLID_311_">
		<g id="XMLID_314_">
			<polygon class="st0" points="59.8,52.4 59.8,33.3 58.8,33.3 58.8,51.5 59.6,52.4 			"/>
		</g>
		<g id="XMLID_313_">
			<polygon class="st0" points="57.4,33.3 57.2,33.3 57.2,49.6 57.4,49.9 			"/>
		</g>
		<g id="XMLID_312_">
			<polygon class="st0" points="54.8,33.3 54.8,46.9 55.8,48 55.8,33.3 			"/>
		</g>
	</g>
	<g id="XMLID_307_">
		<g id="XMLID_310_">
			<polygon class="st0" points="79.5,47.4 60.4,47.4 60.4,48.3 78.6,48.3 79.5,47.5 			"/>
		</g>
		<g id="XMLID_309_">
			<polygon class="st0" points="60.4,49.7 60.4,50 76.7,50 77,49.7 			"/>
		</g>
		<g id="XMLID_308_">
			<polygon class="st0" points="60.4,52.3 74,52.3 75.1,51.4 60.4,51.4 			"/>
		</g>
	</g>
	<g id="XMLID_303_">
		<g id="XMLID_306_">
			<polygon class="st0" points="74.5,27.5 74.5,46.5 75.4,46.5 75.4,28.4 74.6,27.5 			"/>
		</g>
		<g id="XMLID_305_">
			<polygon class="st0" points="76.8,46.5 77.1,46.5 77.1,30.3 76.8,30 			"/>
		</g>
		<g id="XMLID_304_">
			<polygon class="st0" points="79.5,46.5 79.5,32.9 78.5,31.9 78.5,46.5 			"/>
		</g>
	</g>
	<g id="XMLID_259_">
		<g id="XMLID_262_">
			<rect x="112.9" y="102.7" class="st0" width="0.9" height="24.9"/>
		</g>
		<g id="XMLID_261_">
			<rect x="111.7" y="102.7" class="st0" width="0.3" height="24.9"/>
		</g>
		<g id="XMLID_260_">
			<rect x="109.8" y="102.7" class="st0" width="0.9" height="24.9"/>
		</g>
	</g>
	<g id="XMLID_255_">
		<g id="XMLID_258_">
			<rect x="128.5" y="102.7" class="st0" width="0.9" height="24.9"/>
		</g>
		<g id="XMLID_257_">
			<rect x="127.2" y="102.7" class="st0" width="0.3" height="24.9"/>
		</g>
		<g id="XMLID_256_">
			<rect x="125.3" y="102.7" class="st0" width="0.9" height="24.9"/>
		</g>
	</g>
	<g id="XMLID_251_">
		<g id="XMLID_254_">
			<polygon class="st0" points="114.6,102.6 114.6,104.5 124.7,120.8 124.7,118.8 			"/>
		</g>
		<g id="XMLID_253_">
			<polygon class="st0" points="114.6,107.2 124.7,123.4 124.7,122.8 114.6,106.6 			"/>
		</g>
		<g id="XMLID_252_">
			<polygon class="st0" points="114.6,111.2 124.7,127.4 124.7,125.4 114.6,109.2 			"/>
		</g>
	</g>
	<g id="XMLID_271_">
		<g id="XMLID_274_">
			<rect x="86.3" y="27.9" class="st0" width="0.9" height="24.9"/>
		</g>
		<g id="XMLID_273_">
			<rect x="85.1" y="27.9" class="st0" width="0.3" height="24.9"/>
		</g>
		<g id="XMLID_272_">
			<rect x="83.2" y="27.9" class="st0" width="0.9" height="24.9"/>
		</g>
	</g>
	<g id="XMLID_267_">
		<g id="XMLID_270_">
			<rect x="101.9" y="27.9" class="st0" width="0.9" height="24.9"/>
		</g>
		<g id="XMLID_269_">
			<rect x="100.6" y="27.9" class="st0" width="0.3" height="24.9"/>
		</g>
		<g id="XMLID_268_">
			<rect x="98.8" y="27.9" class="st0" width="0.9" height="24.9"/>
		</g>
	</g>
	<g id="XMLID_263_">
		<g id="XMLID_266_">
			<polygon class="st0" points="88,27.7 88,29.7 98.1,45.9 98.1,44 			"/>
		</g>
		<g id="XMLID_265_">
			<polygon class="st0" points="88,32.3 98.1,48.6 98.1,48 88,31.7 			"/>
		</g>
		<g id="XMLID_264_">
			<polygon class="st0" points="88,36.3 98.1,52.5 98.1,50.6 88,34.4 			"/>
		</g>
	</g>
	<g id="XMLID_331_">
		<g id="XMLID_334_">
			<polygon class="st0" points="134.2,107.7 153.2,107.7 153.2,106.7 135.1,106.7 134.2,107.5 			"/>
		</g>
		<g id="XMLID_333_">
			<polygon class="st0" points="153.2,105.3 153.2,105 137,105 136.7,105.3 			"/>
		</g>
		<g id="XMLID_332_">
			<polygon class="st0" points="153.2,102.7 139.6,102.7 138.6,103.6 153.2,103.6 			"/>
		</g>
	</g>
	<g id="XMLID_327_">
		<g id="XMLID_330_">
			<polygon class="st0" points="139.2,127.5 139.2,108.5 138.2,108.5 138.2,126.6 139,127.5 			"/>
		</g>
		<g id="XMLID_329_">
			<polygon class="st0" points="136.8,108.5 136.6,108.5 136.6,124.7 136.8,125.1 			"/>
		</g>
		<g id="XMLID_328_">
			<polygon class="st0" points="134.2,108.5 134.2,122.1 135.2,123.1 135.2,108.5 			"/>
		</g>
	</g>
	<g id="XMLID_323_">
		<g id="XMLID_326_">
			<polygon class="st0" points="158.9,122.5 139.8,122.5 139.8,123.5 158,123.5 158.9,122.7 			"/>
		</g>
		<g id="XMLID_325_">
			<polygon class="st0" points="139.8,124.9 139.8,125.2 156.1,125.2 156.4,124.9 			"/>
		</g>
		<g id="XMLID_324_">
			<polygon class="st0" points="139.8,127.5 153.4,127.5 154.5,126.6 139.8,126.6 			"/>
		</g>
	</g>
	<g id="XMLID_319_">
		<g id="XMLID_322_">
			<polygon class="st0" points="153.9,102.7 153.9,121.7 154.8,121.7 154.8,103.6 154,102.7 			"/>
		</g>
		<g id="XMLID_321_">
			<polygon class="st0" points="156.2,121.7 156.5,121.7 156.5,105.5 156.2,105.1 			"/>
		</g>
		<g id="XMLID_320_">
			<polygon class="st0" points="158.9,121.7 158.9,108.1 157.9,107 157.9,121.7 			"/>
		</g>
	</g>
	<g id="XMLID_174_">
		<rect x="163.8" y="107.4" class="st0" width="1" height="4.7"/>
	</g>
	<g id="XMLID_173_">
		<rect x="165.8" y="107.4" class="st0" width="0.3" height="4.7"/>
	</g>
	<g id="XMLID_172_">
		<rect x="167.1" y="107.4" class="st0" width="0.9" height="4.7"/>
	</g>
	<g id="XMLID_171_">
		<rect x="175.3" y="117.6" class="st0" width="1" height="5.1"/>
	</g>
	<g id="XMLID_170_">
		<rect x="177.2" y="117.6" class="st0" width="0.3" height="5.1"/>
	</g>
	<g id="XMLID_157_">
		<rect x="178.5" y="117.6" class="st0" width="0.9" height="5.1"/>
	</g>
	<polygon class="st0" points="168.3,102.7 167,103.8 179.5,103.8 179.5,102.7 	"/>
	<polygon class="st0" points="166.1,104.4 165.9,104.6 179.5,104.6 179.5,104.4 	"/>
	<polygon class="st0" points="164.7,105.4 163.6,106.3 179.5,106.3 179.5,105.4 	"/>
	<polygon class="st0" points="167,115.4 168.3,116.4 179.5,116.4 179.5,116.3 178.6,115.4 	"/>
	<polygon class="st0" points="165.9,114.6 166.1,114.8 177.9,114.8 177.7,114.6 	"/>
	<polygon class="st0" points="163.6,112.9 164.7,113.7 176.8,113.7 175.9,112.9 	"/>
	<polygon class="st0" points="174.8,127.4 176.1,126.4 164.2,126.4 164.2,127.4 	"/>
	<polygon class="st0" points="177,125.8 177.3,125.6 164.2,125.6 164.2,125.8 	"/>
	<polygon class="st0" points="178.4,124.7 179.5,123.9 164.2,123.9 164.2,124.7 	"/>
	<rect x="198.5" y="140.7" class="st0" width="55" height="1.1"/>
	<rect x="198.5" y="144.5" class="st0" width="27.5" height="1.1"/>
	<g class="st1">
		<path class="st0" d="M203.9,101.9c-0.2-1.1-1.1-1.7-2.1-1.7c-1.9,0-2.6,1.5-2.6,3.1s0.8,3.1,2.6,3.1c1.3,0,2.1-1,2.2-2.2h0.7
			c-0.2,1.7-1.3,2.8-2.9,2.8c-2.2,0-3.3-1.7-3.3-3.6s1.1-3.6,3.3-3.6c1.3,0,2.6,0.8,2.8,2.3h-0.7V101.9z"/>
		<path class="st0" d="M205.6,101.7h0.6v1.2l0,0c0.3-0.8,1-1.3,1.9-1.3v0.6c-1.1,0-1.9,0.8-1.9,1.8v2.7h-0.6V101.7z"/>
		<path class="st0" d="M208.6,103.3c0.1-1.2,0.9-1.7,2-1.7c0.9,0,1.9,0.3,1.9,1.6v2.7c0,0.2,0.1,0.4,0.4,0.4c0.1,0,0.1,0,0.2,0v0.5
			c-0.1,0-0.2,0-0.4,0c-0.6,0-0.7-0.4-0.7-0.9l0,0c-0.4,0.7-0.9,1-1.8,1c-0.9,0-1.7-0.5-1.7-1.5c0-1.4,1.4-1.5,2.7-1.6
			c0.5,0,0.8-0.1,0.8-0.7c0-0.8-0.6-1-1.3-1c-0.8,0-1.3,0.4-1.4,1.2H208.6z M211.9,104L211.9,104c-0.1,0.1-0.4,0.2-0.5,0.2
			c-1,0.2-2.4,0.2-2.4,1.2c0,0.6,0.5,1,1.1,1c1,0,1.8-0.6,1.8-1.6L211.9,104L211.9,104z"/>
		<path class="st0" d="M216.8,101.3c1.1,0,1.7-0.1,1.9-1.3h0.5v6.9h-0.6v-5.1h-1.8L216.8,101.3L216.8,101.3z"/>
		<path class="st0" d="M222.2,104.6c0,1.1,0.6,1.8,1.7,1.8c0.9,0,1.8-0.5,1.8-1.5s-0.7-1.5-1.6-1.5h-0.5v-0.5h0.5
			c0.6,0,1.4-0.4,1.4-1.2c0-0.9-0.7-1.3-1.5-1.3c-1,0-1.6,0.7-1.6,1.7h-0.6c0-1.3,0.8-2.3,2.2-2.3c1.1,0,2.1,0.5,2.1,1.7
			c0,0.7-0.4,1.3-1.2,1.5l0,0c0.9,0.1,1.4,0.8,1.4,1.7c0,1.3-1.1,2.1-2.4,2.1c-1.4,0-2.4-0.9-2.3-2.3h0.6V104.6z"/>
		<path class="st0" d="M234.3,104.6h-1.1l-0.3,2.2h-0.5l0.3-2.2h-1.4l-0.3,2.2h-0.5l0.3-2.2h-1.1v-0.4h1.1l0.2-1.5h-1.1v-0.4h1.1
			l0.3-2.2h0.5l-0.3,2.2h1.4l0.3-2.2h0.5l-0.3,2.2h1v0.4h-1.1l-0.2,1.5h1v0.4H234.3z M231.6,102.6l-0.2,1.5h1.4l0.2-1.5H231.6z"/>
		<path class="st0" d="M238.7,105.2c0.1,0.8,0.6,1.3,1.4,1.3c1.6,0,1.9-1.8,1.9-3.1l0,0c-0.3,0.7-1,1.1-1.8,1.1
			c-1.4,0-2.3-1-2.3-2.3s1-2.3,2.3-2.3c1.7,0,2.4,1,2.4,3.6c0,0.8-0.2,3.4-2.4,3.4c-1.2,0-2-0.6-2.1-1.8h0.6V105.2z M241.9,102.2
			c0-1-0.5-1.8-1.7-1.8c-1,0-1.6,0.8-1.6,1.8s0.6,1.8,1.7,1.8C241.3,104,241.9,103.2,241.9,102.2z"/>
		<path class="st0" d="M243.6,100h4.4v0.6c-0.9,0.9-2.6,3-2.8,6.2h-0.7c0.2-2.3,0.9-4,2.8-6.2h-3.8V100H243.6z"/>
		<path class="st0" d="M251.8,104.4v-0.6h2.4v0.6H251.8z"/>
		<path class="st0" d="M258.5,104.8c0,1,0.7,1.6,1.7,1.6c1.1,0,1.7-0.9,1.7-1.9s-0.7-1.8-1.8-1.8c-0.6,0-1.2,0.3-1.5,0.8h-0.5
			l0.7-3.6h3.4v0.6h-3l-0.4,2.3l0,0c0.3-0.4,0.9-0.6,1.4-0.6c1.4,0,2.3,1,2.3,2.4c0,1.3-1.1,2.3-2.4,2.3s-2.2-0.8-2.3-2.1
			C257.8,104.8,258.5,104.8,258.5,104.8z"/>
		<path class="st0" d="M264,101.3c1.1,0,1.7-0.1,1.9-1.3h0.5v6.9h-0.6v-5.1H264V101.3z"/>
	</g>
	<g class="st1">
		<path class="st0" d="M201.7,109.7c2.2,0,3.3,1.7,3.3,3.6s-1.1,3.6-3.3,3.6s-3.3-1.7-3.3-3.6S199.5,109.7,201.7,109.7z
			 M201.7,116.4c1.8,0,2.6-1.5,2.6-3.1s-0.8-3.1-2.6-3.1c-1.9,0-2.6,1.5-2.6,3.1S199.9,116.4,201.7,116.4z"/>
		<path class="st0" d="M207.9,112.3h-1v4.5h-0.6v-4.5h-0.9v-0.5h0.9v-0.5c0-0.9,0.2-1.5,1.2-1.5c0.2,0,0.3,0,0.5,0v0.5
			c-0.2,0-0.3,0-0.5,0c-0.7,0-0.7,0.4-0.7,1v0.4h1v0.6H207.9z"/>
		<path class="st0" d="M212,113.3c-0.2-0.8-0.6-1.2-1.4-1.2c-1.2,0-1.8,1.1-1.8,2.2s0.6,2.2,1.8,2.2c0.8,0,1.4-0.6,1.5-1.4h0.6
			c-0.2,1.2-1,2-2.1,2c-1.5,0-2.4-1.2-2.4-2.7s0.9-2.7,2.4-2.7c1.1,0,1.9,0.6,2,1.7L212,113.3L212,113.3z"/>
		<path class="st0" d="M213.5,109.8h0.6v1h-0.6V109.8z M213.5,111.7h0.6v5.1h-0.6V111.7z"/>
		<path class="st0" d="M215.3,111.7h0.6v0.9l0,0c0.2-0.6,0.9-1,1.6-1c1.4,0,1.9,0.7,1.9,2v3.3h-0.6v-3.2c0-0.9-0.3-1.5-1.3-1.5
			s-1.6,0.7-1.6,1.7v2.9h-0.6L215.3,111.7L215.3,111.7z"/>
		<path class="st0" d="M220.5,113.3c0.1-1.2,0.9-1.7,2-1.7c0.9,0,1.9,0.3,1.9,1.6v2.7c0,0.2,0.1,0.4,0.4,0.4c0.1,0,0.1,0,0.2,0v0.5
			c-0.1,0-0.2,0-0.4,0c-0.6,0-0.7-0.4-0.7-0.9l0,0c-0.4,0.7-0.9,1-1.8,1c-0.9,0-1.7-0.5-1.7-1.5c0-1.4,1.4-1.5,2.7-1.6
			c0.5,0,0.8-0.1,0.8-0.7c0-0.8-0.6-1-1.3-1c-0.8,0-1.3,0.4-1.4,1.2H220.5z M223.8,114L223.8,114c-0.1,0.1-0.4,0.2-0.5,0.2
			c-1,0.2-2.4,0.2-2.4,1.2c0,0.6,0.5,1,1.1,1c1,0,1.8-0.6,1.8-1.6L223.8,114L223.8,114z"/>
		<path class="st0" d="M232.7,116.8h-4.5c0-2,2.1-2.5,3.3-3.7c0.4-0.4,0.6-0.7,0.6-1.3c0-0.9-0.7-1.4-1.5-1.4
			c-1.1,0-1.6,0.9-1.5,1.9h-0.6c0-1.4,0.7-2.4,2.2-2.4c1.2,0,2.1,0.7,2.1,1.9c0,1.1-0.8,1.9-1.7,2.4c-0.7,0.4-1.9,1.1-2.1,2h3.8v0.6
			H232.7z"/>
		<path class="st0" d="M238.4,113.4c0,1.6-0.4,3.5-2.4,3.5s-2.4-1.9-2.4-3.5s0.4-3.5,2.4-3.5S238.4,111.8,238.4,113.4z M234.2,113.4
			c0,1.2,0.2,3,1.8,3s1.8-1.8,1.8-3s-0.2-3-1.8-3S234.2,112.2,234.2,113.4z"/>
		<path class="st0" d="M243.6,116.8h-4.5c0-2,2.1-2.5,3.3-3.7c0.4-0.4,0.6-0.7,0.6-1.3c0-0.9-0.7-1.4-1.5-1.4
			c-1.1,0-1.6,0.9-1.5,1.9h-0.6c0-1.4,0.7-2.4,2.2-2.4c1.2,0,2.1,0.7,2.1,1.9c0,1.1-0.8,1.9-1.7,2.4c-0.7,0.4-1.9,1.1-2.1,2h3.8v0.6
			H243.6z"/>
	</g>
	<g class="st1">
		<path class="st0" d="M203.9,121.8c-0.2-1.1-1.1-1.7-2.1-1.7c-1.9,0-2.6,1.5-2.6,3.1s0.8,3.1,2.6,3.1c1.3,0,2.1-1,2.2-2.2h0.7
			c-0.2,1.7-1.3,2.8-2.9,2.8c-2.2,0-3.3-1.7-3.3-3.6s1.1-3.6,3.3-3.6c1.3,0,2.6,0.8,2.8,2.3h-0.7V121.8z"/>
		<path class="st0" d="M205.9,124.3c0,0.9,0.5,2,1.7,2c0.9,0,1.4-0.5,1.6-1.3h0.6c-0.3,1.1-0.9,1.8-2.2,1.8c-1.6,0-2.3-1.2-2.3-2.7
			c0-1.3,0.7-2.7,2.3-2.7s2.3,1.4,2.2,2.8L205.9,124.3L205.9,124.3z M209.2,123.8c0-0.9-0.6-1.8-1.6-1.8s-1.6,0.9-1.7,1.8H209.2z"/>
		<path class="st0" d="M210.7,119.7h0.6v7h-0.6V119.7z"/>
		<path class="st0" d="M212.8,122.8v-1h0.8v1H212.8z M212.8,126.7v-1h0.8v1H212.8z"/>
		<path class="st0" d="M218.2,124.5c0,1.1,0.6,1.8,1.7,1.8c0.9,0,1.8-0.5,1.8-1.5s-0.7-1.5-1.6-1.5h-0.5v-0.5h0.5
			c0.6,0,1.4-0.4,1.4-1.2c0-0.9-0.7-1.3-1.5-1.3c-1,0-1.6,0.7-1.6,1.7h-0.6c0-1.3,0.8-2.3,2.2-2.3c1.1,0,2.1,0.5,2.1,1.7
			c0,0.7-0.4,1.3-1.2,1.5l0,0c0.9,0.1,1.4,0.8,1.4,1.7c0,1.3-1.1,2.1-2.4,2.1c-1.4,0-2.4-0.9-2.3-2.3h0.6V124.5z"/>
		<path class="st0" d="M227.9,123.3c0,1.6-0.4,3.5-2.4,3.5s-2.4-1.9-2.4-3.5s0.4-3.5,2.4-3.5S227.9,121.7,227.9,123.3z M223.7,123.3
			c0,1.2,0.2,3,1.8,3s1.8-1.8,1.8-3s-0.2-3-1.8-3S223.7,122.1,223.7,123.3z"/>
		<path class="st0" d="M229.1,121.2c1.1,0,1.7-0.1,1.9-1.3h0.5v6.9H231v-5.1h-1.8L229.1,121.2L229.1,121.2z"/>
		<path class="st0" d="M237.3,124.5c0,1.1,0.6,1.8,1.7,1.8c0.9,0,1.8-0.5,1.8-1.5s-0.7-1.5-1.6-1.5h-0.5v-0.5h0.5
			c0.6,0,1.4-0.4,1.4-1.2c0-0.9-0.7-1.3-1.5-1.3c-1,0-1.6,0.7-1.6,1.7h-0.6c0-1.3,0.8-2.3,2.2-2.3c1.1,0,2.1,0.5,2.1,1.7
			c0,0.7-0.4,1.3-1.2,1.5l0,0c0.9,0.1,1.4,0.8,1.4,1.7c0,1.3-1.1,2.1-2.4,2.1c-1.4,0-2.4-0.9-2.3-2.3h0.6V124.5z"/>
		<path class="st0" d="M242.8,121.2c1.1,0,1.7-0.1,1.9-1.3h0.5v6.9h-0.6v-5.1h-1.8L242.8,121.2L242.8,121.2z"/>
		<path class="st0" d="M247.7,119.9h4.4v0.6c-0.9,0.9-2.6,3-2.8,6.2h-0.7c0.2-2.3,0.9-4,2.8-6.2h-3.8v-0.6H247.7z"/>
		<path class="st0" d="M256.4,121.2c1.1,0,1.7-0.1,1.9-1.3h0.5v6.9h-0.6v-5.1h-1.8V121.2z"/>
		<path class="st0" d="M265.7,126.7h-4.5c0-2,2.1-2.5,3.3-3.7c0.4-0.4,0.6-0.7,0.6-1.3c0-0.9-0.7-1.4-1.5-1.4
			c-1.1,0-1.6,0.9-1.5,1.9h-0.6c0-1.4,0.7-2.4,2.2-2.4c1.2,0,2.1,0.7,2.1,1.9c0,1.1-0.8,1.9-1.7,2.4c-0.7,0.4-1.9,1.1-2.1,2h3.8
			L265.7,126.7L265.7,126.7z"/>
		<path class="st0" d="M270.6,121.6c-0.1-0.8-0.6-1.3-1.4-1.3c-1.6,0-1.9,1.8-1.9,3.1l0,0c0.3-0.7,1-1.1,1.8-1.1
			c1.4,0,2.3,1,2.3,2.3s-1,2.3-2.3,2.3c-1.7,0-2.4-1-2.4-3.6c0-0.8,0.2-3.4,2.4-3.4c1.2,0,2,0.6,2.1,1.8h-0.6V121.6z M267.4,124.6
			c0,1,0.5,1.8,1.7,1.8c1,0,1.6-0.8,1.6-1.8s-0.6-1.8-1.7-1.8C268.1,122.8,267.4,123.6,267.4,124.6z"/>
		<path class="st0" d="M272,124.4l3.2-4.6h0.6v4.6h1v0.5h-1v1.7h-0.6V125H272V124.4z M275.2,124.5v-3.7l0,0l-2.6,3.7H275.2z"/>
	</g>
	<g class="st1">
		<path class="st0" d="M203.9,131.8c-0.2-1.1-1.1-1.7-2.1-1.7c-1.9,0-2.6,1.5-2.6,3.1s0.8,3.1,2.6,3.1c1.3,0,2.1-1,2.2-2.2h0.7
			c-0.2,1.7-1.3,2.8-2.9,2.8c-2.2,0-3.3-1.7-3.3-3.6s1.1-3.6,3.3-3.6c1.3,0,2.6,0.8,2.8,2.3h-0.7V131.8z"/>
		<path class="st0" d="M205.6,129.7h0.6v1h-0.6V129.7z M205.6,131.6h0.6v5.1h-0.6V131.6z"/>
		<path class="st0" d="M211.5,136.7h-0.6v-0.9l0,0c-0.3,0.7-1,1.1-1.7,1.1c-1.3,0-1.8-0.7-1.8-1.9v-3.3h0.6v3.3
			c0,0.9,0.4,1.4,1.4,1.4c1.1,0,1.5-1,1.5-2v-2.7h0.6V136.7z"/>
		<path class="st0" d="M217.1,136.7h-0.6v-1l0,0c-0.3,0.7-1.1,1.1-1.8,1.1c-1.5,0-2.3-1.2-2.3-2.7s0.7-2.7,2.3-2.7
			c0.7,0,1.5,0.4,1.8,1.1l0,0v-2.9h0.6V136.7z M214.7,136.3c1.3,0,1.8-1.1,1.8-2.2s-0.5-2.2-1.8-2.2c-1.2,0-1.7,1.1-1.7,2.2
			S213.5,136.3,214.7,136.3z"/>
		<path class="st0" d="M218.2,133.2c0.1-1.2,0.9-1.7,2-1.7c0.9,0,1.9,0.3,1.9,1.6v2.7c0,0.2,0.1,0.4,0.4,0.4c0.1,0,0.1,0,0.2,0v0.5
			c-0.1,0-0.2,0-0.4,0c-0.6,0-0.7-0.4-0.7-0.9l0,0c-0.4,0.7-0.9,1-1.8,1c-0.9,0-1.7-0.5-1.7-1.5c0-1.4,1.4-1.5,2.7-1.6
			c0.5,0,0.8-0.1,0.8-0.7c0-0.8-0.6-1-1.3-1c-0.8,0-1.3,0.4-1.4,1.2H218.2z M221.5,133.9L221.5,133.9c-0.1,0.1-0.4,0.2-0.5,0.2
			c-1,0.2-2.4,0.2-2.4,1.2c0,0.6,0.5,1,1.1,1c1,0,1.8-0.6,1.8-1.6L221.5,133.9L221.5,133.9z"/>
		<path class="st0" d="M227.8,136.7h-0.6v-1l0,0c-0.3,0.7-1.1,1.1-1.8,1.1c-1.5,0-2.3-1.2-2.3-2.7s0.7-2.7,2.3-2.7
			c0.7,0,1.5,0.4,1.8,1.1l0,0v-2.9h0.6V136.7z M225.4,136.3c1.3,0,1.8-1.1,1.8-2.2s-0.5-2.2-1.8-2.2c-1.2,0-1.7,1.1-1.7,2.2
			S224.2,136.3,225.4,136.3z"/>
		<path class="st0" d="M231.1,134.3v-0.6h4.9v0.6H231.1z"/>
		<path class="st0" d="M239.4,129.7h3c1.2,0,2.2,0.4,2.2,1.7c0,0.7-0.5,1.4-1.2,1.6l0,0c0.9,0.1,1.5,0.8,1.5,1.7c0,0.7-0.2,2-2.5,2
			h-3V129.7z M240.1,132.8h2.3c1.1,0,1.6-0.5,1.6-1.2c0-0.9-0.5-1.3-1.6-1.3h-2.3V132.8z M240.1,136.1h2.3c1,0,1.8-0.3,1.8-1.4
			c0-0.9-0.7-1.4-1.8-1.4h-2.3V136.1z"/>
		<path class="st0" d="M250.3,134.2c0,1.5-0.9,2.7-2.4,2.7s-2.4-1.2-2.4-2.7s0.9-2.7,2.4-2.7C249.5,131.5,250.3,132.7,250.3,134.2z
			 M246.2,134.2c0,1.1,0.6,2.2,1.8,2.2s1.8-1.1,1.8-2.2s-0.6-2.2-1.8-2.2S246.2,133.1,246.2,134.2z"/>
		<path class="st0" d="M255.5,136.3c0,1.5-0.6,2.4-2.2,2.4c-1,0-2-0.5-2.1-1.5h0.6c0.1,0.7,0.8,1,1.5,1c1.1,0,1.6-0.7,1.6-1.9v-0.7
			l0,0c-0.3,0.6-0.9,1-1.6,1c-1.6,0-2.3-1.1-2.3-2.6c0-1.4,0.8-2.5,2.3-2.5c0.7,0,1.4,0.5,1.6,1l0,0v-0.9h0.6L255.5,136.3
			L255.5,136.3z M254.9,134.1c0-1-0.5-2.1-1.6-2.1c-1.2,0-1.7,1-1.7,2.1c0,1,0.5,2,1.7,2C254.4,136.1,254.9,135.1,254.9,134.1z"/>
		<path class="st0" d="M261.2,134.2c0,1.5-0.9,2.7-2.4,2.7s-2.4-1.2-2.4-2.7s0.9-2.7,2.4-2.7S261.2,132.7,261.2,134.2z M257.1,134.2
			c0,1.1,0.6,2.2,1.8,2.2s1.8-1.1,1.8-2.2s-0.6-2.2-1.8-2.2S257.1,133.1,257.1,134.2z"/>
		<path class="st0" d="M263.1,131.6h1v0.5h-1v3.4c0,0.4,0.1,0.6,0.5,0.7c0.2,0,0.4,0,0.5,0v0.5c-0.2,0-0.4,0-0.5,0
			c-0.8,0-1.1-0.3-1.1-1.1v-3.5h-0.9v-0.5h0.9v-1.5h0.6V131.6z"/>
		<path class="st0" d="M265,133.2c0.1-1.2,0.9-1.7,2-1.7c0.9,0,1.9,0.3,1.9,1.6v2.7c0,0.2,0.1,0.4,0.4,0.4c0.1,0,0.1,0,0.2,0v0.5
			c-0.1,0-0.2,0-0.4,0c-0.6,0-0.7-0.4-0.7-0.9l0,0c-0.4,0.7-0.9,1-1.8,1s-1.7-0.5-1.7-1.5c0-1.4,1.4-1.5,2.7-1.6
			c0.5,0,0.8-0.1,0.8-0.7c0-0.8-0.6-1-1.3-1c-0.8,0-1.3,0.4-1.4,1.2H265z M268.3,133.9L268.3,133.9c-0.1,0.1-0.4,0.2-0.5,0.2
			c-1,0.2-2.4,0.2-2.4,1.2c0,0.6,0.5,1,1.1,1c1,0,1.8-0.6,1.8-1.6V133.9z M267.2,130.9h-0.5l1-1.4h0.8L267.2,130.9z"/>
		<path class="st0" d="M270.5,136.7v-1h0.8v1H270.5z"/>
	</g>
	<g id="XMLID_2895_" class="st2">
		<rect id="XMLID_2900_" x="98.6" y="4.4" class="st0" width="1" height="20.8"/>
		<rect id="XMLID_2898_" x="100.7" y="4.4" class="st0" width="0.3" height="20.8"/>
		<rect id="XMLID_2896_" x="102.1" y="4.4" class="st0" width="1" height="20.8"/>
	</g>
	<g id="XMLID_3304_" class="st2">
		<rect id="XMLID_3621_" x="68.9" y="93" class="st0" width="1" height="8"/>
		<rect id="XMLID_3619_" x="71" y="93" class="st0" width="0.3" height="8"/>
		<rect id="XMLID_3616_" x="72.3" y="93" class="st0" width="1" height="8"/>
	</g>
	<g id="XMLID_1_" class="st2">
		<rect id="XMLID_2833_" x="34.5" y="44.5" class="st0" width="1" height="17"/>
		<rect id="XMLID_2826_" x="36.6" y="44.5" class="st0" width="0.3" height="17"/>
		<rect id="XMLID_2816_" x="38" y="44.5" class="st0" width="1" height="17"/>
	</g>
	<g id="XMLID_2820_" class="st2">
		<rect id="XMLID_2863_" x="34.7" y="62.7" class="st0" width="47.3" height="1"/>
		<rect id="XMLID_2859_" x="34.7" y="64.8" class="st0" width="47.3" height="0.3"/>
		<rect id="XMLID_2855_" x="34.7" y="66.2" class="st0" width="47.3" height="1"/>
	</g>
	<g id="XMLID_2911_" class="st2">
		<rect id="XMLID_3376_" x="74.2" y="93.7" class="st0" width="57.6" height="1"/>
		<rect id="XMLID_3374_" x="74.2" y="95.8" class="st0" width="57.6" height="0.3"/>
		<rect id="XMLID_2964_" x="74.2" y="97.2" class="st0" width="57.6" height="1"/>
	</g>
	<g id="XMLID_2829_" class="st2">
		<rect id="XMLID_2907_" x="150.8" y="62.7" class="st0" width="28.7" height="1"/>
		<rect id="XMLID_2868_" x="150.8" y="64.8" class="st0" width="28.7" height="0.3"/>
		<rect id="XMLID_2866_" x="150.8" y="66.2" class="st0" width="28.7" height="1"/>
	</g>
	<g id="XMLID_2867_" class="st2">
		<rect id="XMLID_2961_" x="136.4" y="82" class="st0" width="1" height="16.5"/>
		<rect id="XMLID_2959_" x="135.1" y="82" class="st0" width="0.3" height="16.5"/>
		<rect id="XMLID_2910_" x="133" y="82" class="st0" width="1" height="16.5"/>
	</g>
	<g class="st2">
		<polygon class="st0" points="10.3,26.9 10.3,27.9 36.2,27.9 37.3,26.9 		"/>
		<polygon class="st0" points="10.3,29.3 34.8,29.3 35.1,29 10.3,29 		"/>
		<polygon class="st0" points="10.3,31.3 32.6,31.3 33.7,30.3 10.3,30.3 		"/>
	</g>
	<g>
		<polygon class="st0" points="124.9,56.4 120.4,60.9 121.1,60.9 125.7,56.4 		"/>
		<polygon class="st0" points="119.4,60.9 119.7,60.9 124.2,56.4 124,56.4 		"/>
		<polygon class="st0" points="117.9,60.9 118.6,60.9 123.2,56.4 122.5,56.4 		"/>
	</g>
</g>
</svg>
