<?xml version="1.0" encoding="utf-8"?>
<!-- Generator: Adobe Illustrator 19.2.1, SVG Export Plug-In . SVG Version: 6.00 Build 0)  -->
<svg version="1.1" id="Capa_1" xmlns="http://www.w3.org/2000/svg" xmlns:xlink="http://www.w3.org/1999/xlink" x="0px" y="0px"
	 viewBox="0 0 475 600" style="enable-background:new 0 0 475 600;" xml:space="preserve">
<style type="text/css">
	.st0{fill:#FFFFFF;}
	.st1{fill:#FAFAFA;}
	.st2{opacity:0.33;}
	.st3{clip-path:url(#SVGID_2_);fill:#FFFFFF;}
	.st4{clip-path:url(#SVGID_4_);fill:#FFFFFF;}
	.st5{clip-path:url(#SVGID_6_);fill:#FFFFFF;}
	.st6{clip-path:url(#SVGID_8_);fill:#FFFFFF;}
	.st7{clip-path:url(#SVGID_10_);fill:#FFFFFF;}
	.st8{clip-path:url(#SVGID_12_);fill:#FFFFFF;}
	.st9{clip-path:url(#SVGID_14_);fill:#FFFFFF;}
	.st10{clip-path:url(#SVGID_16_);fill:#FFFFFF;}
	.st11{clip-path:url(#SVGID_18_);fill:#FFFFFF;}
	.st12{clip-path:url(#SVGID_20_);fill:#FFFFFF;}
	.st13{clip-path:url(#SVGID_22_);fill:#FFFFFF;}
	.st14{clip-path:url(#SVGID_24_);fill:#FFFFFF;}
	.st15{clip-path:url(#SVGID_26_);fill:#FFFFFF;}
	.st16{clip-path:url(#SVGID_28_);fill:#FFFFFF;}
	.st17{clip-path:url(#SVGID_30_);fill:#FFFFFF;}
	.st18{clip-path:url(#SVGID_32_);fill:#FFFFFF;}
	.st19{clip-path:url(#SVGID_34_);fill:#FFFFFF;}
	.st20{clip-path:url(#SVGID_36_);fill:#FFFFFF;}
	.st21{clip-path:url(#SVGID_38_);fill:#FFFFFF;}
	.st22{clip-path:url(#SVGID_40_);fill:#FFFFFF;}
	.st23{clip-path:url(#SVGID_42_);fill:#FFFFFF;}
	.st24{clip-path:url(#SVGID_44_);fill:#FFFFFF;}
	.st25{clip-path:url(#SVGID_46_);fill:#FFFFFF;}
	.st26{clip-path:url(#SVGID_48_);fill:#FFFFFF;}
	.st27{clip-path:url(#SVGID_50_);fill:#FFFFFF;}
	.st28{clip-path:url(#SVGID_52_);fill:#FFFFFF;}
	.st29{clip-path:url(#SVGID_54_);fill:#FFFFFF;}
	.st30{clip-path:url(#SVGID_56_);fill:#FFFFFF;}
	.st31{clip-path:url(#SVGID_58_);fill:#FFFFFF;}
	.st32{clip-path:url(#SVGID_60_);fill:#FFFFFF;}
	.st33{clip-path:url(#SVGID_62_);fill:#FFFFFF;}
	.st34{clip-path:url(#SVGID_64_);fill:#FFFFFF;}
	.st35{clip-path:url(#SVGID_66_);fill:#FFFFFF;}
	.st36{clip-path:url(#SVGID_68_);fill:#FFFFFF;}
	.st37{clip-path:url(#SVGID_70_);fill:#FFFFFF;}
	.st38{clip-path:url(#SVGID_72_);fill:#FFFFFF;}
	.st39{clip-path:url(#SVGID_74_);fill:#FFFFFF;}
	.st40{clip-path:url(#SVGID_76_);fill:#FFFFFF;}
	.st41{clip-path:url(#SVGID_78_);fill:#FFFFFF;}
	.st42{clip-path:url(#SVGID_80_);fill:#FFFFFF;}
	.st43{clip-path:url(#SVGID_82_);fill:#FFFFFF;}
	.st44{clip-path:url(#SVGID_84_);fill:#FFFFFF;}
	.st45{clip-path:url(#SVGID_86_);fill:#FFFFFF;}
	.st46{clip-path:url(#SVGID_88_);fill:#FFFFFF;}
	.st47{clip-path:url(#SVGID_90_);fill:#FFFFFF;}
	.st48{clip-path:url(#SVGID_92_);fill:#FFFFFF;}
	.st49{clip-path:url(#SVGID_94_);fill:#FFFFFF;}
	.st50{clip-path:url(#SVGID_96_);fill:#FFFFFF;}
	.st51{clip-path:url(#SVGID_98_);fill:#FFFFFF;}
	.st52{clip-path:url(#SVGID_100_);fill:#FFFFFF;}
	.st53{clip-path:url(#SVGID_102_);fill:#FFFFFF;}
	.st54{clip-path:url(#SVGID_104_);fill:#FFFFFF;}
	.st55{clip-path:url(#SVGID_106_);fill:#FFFFFF;}
</style>
<rect x="364" y="334.7" class="st0" width="1.5" height="31.7"/>
<rect x="361.2" y="334.7" class="st0" width="0.5" height="31.7"/>
<rect x="357.5" y="334.7" class="st0" width="1.5" height="31.7"/>
<rect x="340.9" y="331.7" class="st0" width="41.2" height="1.5"/>
<rect x="340.9" y="329" class="st0" width="41.2" height="0.5"/>
<rect x="340.9" y="325.2" class="st0" width="41.2" height="1.5"/>
<rect x="157.4" y="359.4" class="st0" width="18.6" height="1.5"/>
<rect x="157.4" y="362.5" class="st0" width="18.6" height="0.5"/>
<rect x="157.4" y="364.6" class="st0" width="18.6" height="1.5"/>
<rect x="157.4" y="325.1" class="st0" width="18.6" height="1.5"/>
<rect x="157.4" y="328.3" class="st0" width="18.6" height="0.5"/>
<rect x="157.4" y="330.3" class="st0" width="18.6" height="1.5"/>
<polygon class="st0" points="149.2,332.1 149.2,358.7 151.3,360.9 151.3,330.1 "/>
<polygon class="st0" points="152.6,328.8 152.6,362.4 152.9,362.8 152.9,328.5 "/>
<polygon class="st0" points="154.6,326.9 154.6,364.6 156.3,366.4 156.3,325.2 "/>
<rect x="278.1" y="325.2" class="st0" width="21.7" height="1.5"/>
<rect x="278.1" y="328.3" class="st0" width="21.7" height="0.5"/>
<rect x="278.1" y="330.4" class="st0" width="21.7" height="1.5"/>
<rect x="278.1" y="359.2" class="st0" width="21.7" height="1.5"/>
<rect x="278.1" y="362.4" class="st0" width="21.7" height="0.5"/>
<rect x="278.1" y="364.4" class="st0" width="21.7" height="1.5"/>
<rect x="278.1" y="342.5" class="st0" width="13.4" height="1.5"/>
<rect x="278.1" y="345.7" class="st0" width="13.4" height="0.5"/>
<rect x="278.1" y="347.7" class="st0" width="13.4" height="1.5"/>
<polygon class="st0" points="269.4,332.2 269.4,358.8 271.5,361 271.5,330.2 "/>
<polygon class="st0" points="272.8,328.9 272.8,362.5 273.1,362.8 273.1,328.6 "/>
<polygon class="st0" points="274.8,326.9 274.8,364.7 276.5,366.5 276.5,325.3 "/>
<rect x="210.4" y="278" class="st0" width="1.5" height="40.4"/>
<rect x="208.4" y="278" class="st0" width="0.5" height="40.4"/>
<rect x="205.4" y="278" class="st0" width="1.5" height="40.4"/>
<rect x="244.1" y="278" class="st0" width="1.5" height="40.4"/>
<rect x="242" y="278" class="st0" width="0.5" height="40.4"/>
<rect x="239" y="278" class="st0" width="1.5" height="40.4"/>
<polygon class="st0" points="213.1,277.8 213.1,281 224.1,298.8 225.1,297.2 "/>
<polygon class="st0" points="213.1,285.3 222.7,300.8 223,300.4 213.1,284.3 "/>
<polygon class="st0" points="213.1,291.7 220.6,303.9 221.6,302.4 213.1,288.6 "/>
<polygon class="st0" points="237.7,277.8 220.9,305.1 222.9,305.1 237.7,281 "/>
<polygon class="st0" points="237.7,285.3 237.7,284.3 224.9,305.1 225.5,305.1 "/>
<polygon class="st0" points="237.7,291.7 237.7,288.6 227.6,305.1 229.5,305.1 "/>
<rect x="309.2" y="325.8" class="st0" width="1.5" height="40.4"/>
<rect x="307.2" y="325.8" class="st0" width="0.5" height="40.4"/>
<rect x="304.2" y="325.8" class="st0" width="1.5" height="40.4"/>
<rect x="334.5" y="325.8" class="st0" width="1.5" height="40.4"/>
<rect x="332.4" y="325.8" class="st0" width="0.5" height="40.4"/>
<rect x="329.4" y="325.8" class="st0" width="1.5" height="40.4"/>
<polygon class="st0" points="311.9,325.5 311.9,328.7 328.4,355.1 328.4,351.9 "/>
<polygon class="st0" points="311.9,333 328.4,359.3 328.4,358.4 311.9,332 "/>
<polygon class="st0" points="311.9,339.5 328.4,365.7 328.4,362.6 311.9,336.3 "/>
<rect x="188" y="324.5" class="st0" width="1.5" height="42.5"/>
<rect x="186" y="324.5" class="st0" width="0.5" height="42.5"/>
<rect x="182.9" y="324.5" class="st0" width="1.5" height="42.5"/>
<rect x="258" y="276.9" class="st0" width="1.5" height="42.5"/>
<rect x="256" y="276.9" class="st0" width="0.5" height="42.5"/>
<rect x="253" y="276.9" class="st0" width="1.5" height="42.5"/>
<polygon class="st0" points="387,333.8 417.9,333.8 417.9,332.2 388.4,332.2 387,333.5 "/>
<polygon class="st0" points="391.5,329.5 391,330 417.9,330 417.9,329.5 "/>
<polygon class="st0" points="417.9,325.7 395.8,325.7 394.1,327.2 417.9,327.2 "/>
<polygon class="st0" points="395.1,366 395.1,335.1 393.5,335.1 393.5,364.5 394.8,366 "/>
<polygon class="st0" points="390.8,335.1 390.8,361.5 391.3,362 391.3,335.1 "/>
<polygon class="st0" points="387,335.1 387,357.2 388.5,358.9 388.5,335.1 "/>
<polygon class="st0" points="427,357.9 396.1,357.9 396.1,359.4 425.5,359.4 427,358.2 "/>
<polygon class="st0" points="396.1,361.7 396.1,362.2 422.4,362.2 423,361.7 "/>
<polygon class="st0" points="396.1,366 418.2,366 419.9,364.4 396.1,364.4 "/>
<polygon class="st0" points="418.9,325.7 418.9,356.5 420.4,356.5 420.4,327.1 419.1,325.7 "/>
<polygon class="st0" points="422.7,356.5 423.2,356.5 423.2,330.2 422.7,329.7 "/>
<polygon class="st0" points="426.9,356.5 426.9,334.5 425.4,332.8 425.4,356.5 "/>
<g>
	<path class="st1" d="M62.7,135.7c0-0.9,0.2-1.6,0.6-2s1-0.6,1.6-0.6c0,0,0.1,0,0.1,0l5.9,0.3v1.2H65c-0.3,0-0.5,0.1-0.7,0.2
		c-0.2,0.1-0.2,0.3-0.3,0.4c0,0.1,0,0.3,0,0.6v4.1l6.1,0.2v1.2l-6.1,0.2v4.1c0,0.3,0.1,0.6,0.2,0.8c0.1,0.2,0.3,0.3,0.4,0.3
		c0.1,0,0.3,0,0.6,0h5.7v1.2l-5.7,0.3c-0.1,0-0.2,0-0.3,0c-1.5,0-2.2-0.9-2.2-2.6V135.7z"/>
	<path class="st1" d="M72.4,140.7v-0.9c0-0.9,0.2-1.6,0.6-2c0.4-0.5,1.1-0.7,2.2-0.7c1,0,2.6,0.1,4.6,0.3v1.2H75
		c-0.6,0-0.9,0.1-1,0.3c-0.1,0.2-0.1,0.5-0.1,0.9v0.9c0,0.5,0.1,0.9,0.4,1c0.2,0.1,0.5,0.2,0.8,0.2h2.9c0.8,0,1.4,0.2,1.8,0.7
		c0.4,0.5,0.6,1.1,0.6,1.9v1c0,1-0.2,1.7-0.7,2.1c-0.4,0.4-1,0.5-1.7,0.5c-1.2,0-2.8-0.1-5.1-0.4v-1.1h5.1c0,0,0,0,0.1,0
		s0.2,0,0.3,0c0.1,0,0.2-0.1,0.3-0.1c0.2-0.1,0.4-0.4,0.4-0.9v-1c0-0.4-0.1-0.7-0.2-0.8c-0.2-0.2-0.4-0.3-0.8-0.3H75
		c-0.9,0-1.6-0.2-2-0.6C72.6,142.4,72.4,141.7,72.4,140.7z"/>
	<path class="st1" d="M81.1,138.7v-1.1l1.8-0.4l0.3-3h1v3h2.9v1.5h-2.9v5.5c0,0.8,0.1,1.4,0.3,1.7c0.2,0.3,0.4,0.5,0.8,0.6
		c1,0.3,1.6,0.4,1.7,0.4v1.1h-1.6c-1.6,0-2.4-1.3-2.4-3.8v-5.5H81.1z"/>
	<path class="st1" d="M88.8,148v-10.8h1l0.4,1.4c0.9-0.6,1.5-1,1.8-1.1c0.2-0.1,0.5-0.2,0.7-0.2c0.4-0.1,0.8-0.2,1.4-0.2
		s1,0.1,1.2,0.2v1.5c-0.3-0.1-0.7-0.1-1.3-0.1s-1,0.1-1.5,0.2c-0.4,0.1-0.8,0.2-1,0.3c-0.3,0.1-0.7,0.3-1.3,0.7v8.2H88.8z"/>
	<path class="st1" d="M96.6,144.7v-7.5h1.4v7.5c0,0.6,0.2,1.1,0.5,1.5c0.3,0.3,0.7,0.5,1.2,0.5c0.5,0,0.9-0.1,1.4-0.2
		c0.4-0.1,0.8-0.2,1-0.3c0.3-0.1,0.7-0.3,1.3-0.7v-8.3h1.4V148h-1l-0.4-1.3c0,0-0.2,0.1-0.4,0.3c-0.2,0.2-0.4,0.2-0.4,0.3
		s-0.2,0.1-0.4,0.2c-0.2,0.1-0.4,0.2-0.4,0.2c-0.1,0-0.2,0.1-0.4,0.2c-0.2,0.1-0.4,0.1-0.5,0.2c-0.4,0.1-0.7,0.1-1,0.1
		c-0.9,0-1.7-0.3-2.2-1C96.8,146.5,96.6,145.7,96.6,144.7z"/>
	<path class="st1" d="M106.9,145.4c-0.2-0.8-0.2-1.7-0.2-2.9s0.1-2.1,0.2-2.8c0.2-0.8,0.4-1.3,0.7-1.7c0.3-0.4,0.6-0.6,1-0.8
		c0.4-0.1,0.9-0.2,1.7-0.2s2.1,0.2,3.8,0.5v1.1c-1.7-0.1-2.9-0.1-3.7-0.1s-1.2,0-1.4,0.1s-0.4,0.2-0.6,0.5c-0.3,0.5-0.5,1.6-0.5,3.2
		s0.1,2.8,0.4,3.4s0.8,0.8,1.5,0.8c1.2,0,2.4-0.1,3.7-0.2l0.7-0.1v1.1c-1.2,0.4-2.6,0.6-4.4,0.6c-0.5,0-0.9-0.1-1.3-0.2
		c-0.4-0.1-0.7-0.4-1-0.8C107.3,146.7,107.1,146.2,106.9,145.4z"/>
	<path class="st1" d="M115.4,138.7v-1.1l1.8-0.4l0.3-3h1v3h2.9v1.5h-2.9v5.5c0,0.8,0.1,1.4,0.3,1.7c0.2,0.3,0.4,0.5,0.8,0.6
		c1,0.3,1.6,0.4,1.7,0.4v1.1h-1.6c-1.6,0-2.4-1.3-2.4-3.8v-5.5H115.4z"/>
	<path class="st1" d="M122.9,144.7v-7.5h1.4v7.5c0,0.6,0.2,1.1,0.5,1.5c0.3,0.3,0.7,0.5,1.2,0.5c0.5,0,0.9-0.1,1.4-0.2
		c0.4-0.1,0.8-0.2,1-0.3c0.3-0.1,0.7-0.3,1.3-0.7v-8.3h1.4V148h-1l-0.4-1.3c0,0-0.2,0.1-0.4,0.3c-0.2,0.2-0.4,0.2-0.4,0.3
		s-0.2,0.1-0.4,0.2c-0.2,0.1-0.4,0.2-0.4,0.2c-0.1,0-0.2,0.1-0.4,0.2c-0.2,0.1-0.4,0.1-0.5,0.2c-0.4,0.1-0.7,0.1-1,0.1
		c-0.9,0-1.7-0.3-2.2-1C123.2,146.5,122.9,145.7,122.9,144.7z"/>
	<path class="st1" d="M133.2,148v-10.8h1l0.4,1.4c0.9-0.6,1.5-1,1.8-1.1c0.2-0.1,0.5-0.2,0.7-0.2c0.4-0.1,0.8-0.2,1.4-0.2
		s1,0.1,1.2,0.2v1.5c-0.3-0.1-0.7-0.1-1.3-0.1s-1,0.1-1.5,0.2c-0.4,0.1-0.8,0.2-1,0.3c-0.3,0.1-0.7,0.3-1.3,0.7v8.2H133.2z"/>
	<path class="st1" d="M141.1,137.6c1.3-0.4,3-0.6,4.9-0.6c0.8,0,1.5,0.3,2,0.8c0.5,0.5,0.8,1.3,0.8,2.4v7.9h-1l-0.4-1.3l-0.3,0.1
		c-1.6,0.9-2.9,1.3-3.8,1.3c-0.7,0-1.3-0.2-1.8-0.7c-0.5-0.5-0.7-1.1-0.7-2v-1.2c0-0.8,0.2-1.5,0.7-2c0.4-0.5,1-0.7,1.8-0.7
		c1.4,0,2.7,0,4.1,0c0-0.4,0-0.8,0-1c0-0.2,0-0.3,0-0.4c0-1.1-0.5-1.7-1.6-1.7s-2.6,0.1-4.7,0.2V137.6z M142.1,145.3
		c0,0.9,0.4,1.3,1.1,1.3c0.4,0,1-0.1,1.7-0.3c0.7-0.2,1.3-0.3,1.7-0.5l0.7-0.3v-2.9l-4.1,0.3c-0.4,0-0.6,0.2-0.8,0.4
		c-0.2,0.2-0.3,0.5-0.3,0.9V145.3z"/>
	<path class="st1" d="M150.4,140.7v-0.9c0-0.9,0.2-1.6,0.6-2c0.4-0.5,1.1-0.7,2.2-0.7c1,0,2.6,0.1,4.6,0.3v1.2h-4.8
		c-0.6,0-0.9,0.1-1,0.3c-0.1,0.2-0.1,0.5-0.1,0.9v0.9c0,0.5,0.1,0.9,0.4,1c0.2,0.1,0.5,0.2,0.8,0.2h2.9c0.8,0,1.4,0.2,1.8,0.7
		c0.4,0.5,0.6,1.1,0.6,1.9v1c0,1-0.2,1.7-0.7,2.1c-0.4,0.4-1,0.5-1.7,0.5c-1.2,0-2.8-0.1-5.1-0.4v-1.1h5.1c0,0,0,0,0.1,0
		s0.2,0,0.3,0c0.1,0,0.2-0.1,0.3-0.1c0.2-0.1,0.4-0.4,0.4-0.9v-1c0-0.4-0.1-0.7-0.2-0.8c-0.2-0.2-0.4-0.3-0.8-0.3h-2.9
		c-0.9,0-1.6-0.2-2-0.6C150.6,142.4,150.4,141.7,150.4,140.7z"/>
	<path class="st1" d="M165.2,146.3c-0.2-0.6-0.4-1.1-0.5-1.7s-0.1-1.3-0.1-2s0-1.4,0.1-2c0.1-0.6,0.2-1.2,0.4-1.7
		c0.5-1.2,1.4-1.8,2.7-1.8c0.5,0,1,0.1,1.7,0.2s1.3,0.3,1.9,0.6V132h1.4v16h-1l-0.4-1.2c-0.3,0.2-0.9,0.5-1.6,0.8
		c-0.8,0.3-1.5,0.5-2.1,0.5c-0.6,0-1.1-0.2-1.6-0.5C165.8,147.3,165.4,146.8,165.2,146.3z M166,142.6c0,2.6,0.6,4,1.9,4
		c1,0,2.2-0.3,3.6-0.9V139c-1.2-0.4-2.4-0.5-3.6-0.5c-0.6,0-1.1,0.3-1.4,0.9C166.1,140,166,141.1,166,142.6z"/>
	<path class="st1" d="M174.9,142.5c0-1.2,0.1-2.2,0.2-2.9s0.4-1.3,0.8-1.6c0.4-0.4,0.8-0.6,1.3-0.7c0.5-0.1,1.1-0.2,1.9-0.2
		s1.3,0,1.7,0.1c0.4,0.1,0.8,0.2,1.1,0.5c0.4,0.2,0.6,0.6,0.8,1.2c0.2,0.5,0.2,1.2,0.2,2.1c0,1.7-0.8,2.5-2.5,2.5h-4.2
		c0,1.3,0.1,2.1,0.4,2.5c0.3,0.4,0.8,0.6,1.5,0.6c2.3,0,3.8-0.1,4.6-0.2v1.1c-1.2,0.4-2.8,0.6-4.6,0.6c-1.2,0-2.1-0.4-2.6-1.2
		C175.1,146.1,174.9,144.7,174.9,142.5z M176.2,141.9h4.2c0.8,0,1.2-0.3,1.2-1c0-1-0.1-1.7-0.4-1.9s-0.9-0.4-2-0.4
		c-1.3,0-2,0.1-2.3,0.4c-0.3,0.4-0.5,0.9-0.6,1.3C176.3,140.9,176.2,141.4,176.2,141.9z"/>
</g>
<rect x="68" y="204" class="st0" width="26.1" height="2.2"/>
<rect x="68" y="208.5" class="st0" width="26.1" height="0.7"/>
<rect x="68" y="211.4" class="st0" width="26.1" height="2.1"/>
<rect x="68" y="155.8" class="st0" width="26.1" height="2.2"/>
<rect x="68" y="160.2" class="st0" width="26.1" height="0.7"/>
<rect x="68" y="163.2" class="st0" width="26.1" height="2.1"/>
<polygon class="st0" points="56.6,165.7 56.6,203.1 59.4,206.2 59.4,162.9 "/>
<polygon class="st0" points="61.3,161.1 61.3,208.3 61.8,208.8 61.8,160.6 "/>
<polygon class="st0" points="64.1,158.3 64.1,211.4 66.5,213.9 66.5,156 "/>
<rect x="177.4" y="158.9" class="st0" width="2.1" height="56.8"/>
<rect x="174.5" y="158.9" class="st0" width="0.6" height="56.8"/>
<rect x="170.3" y="158.9" class="st0" width="2.1" height="56.8"/>
<rect x="212.9" y="158.9" class="st0" width="2.1" height="56.8"/>
<rect x="210" y="158.9" class="st0" width="0.6" height="56.8"/>
<rect x="205.7" y="158.9" class="st0" width="2.1" height="56.8"/>
<polygon class="st0" points="181.2,158.5 181.2,163 204.3,200.1 204.3,195.6 "/>
<polygon class="st0" points="181.2,169 204.3,206 204.3,204.7 181.2,167.7 "/>
<polygon class="st0" points="181.2,178.1 204.3,215.1 204.3,210.7 181.2,173.7 "/>
<polygon class="st0" points="101.9,167.9 145.4,167.9 145.4,165.8 104,165.8 101.9,167.6 "/>
<polygon class="st0" points="108.3,161.9 107.6,162.6 145.4,162.6 145.4,161.9 "/>
<polygon class="st0" points="145.4,156.6 114.3,156.6 111.9,158.7 145.4,158.7 "/>
<polygon class="st0" points="113.3,213.2 113.3,169.8 111.2,169.8 111.2,211.2 113,213.2 "/>
<polygon class="st0" points="107.3,169.8 107.3,206.9 108,207.6 108,169.8 "/>
<polygon class="st0" points="102,169.8 102,200.8 104.1,203.2 104.1,169.8 "/>
<polygon class="st0" points="158.2,201.8 114.8,201.8 114.8,204 156.2,204 158.2,202.2 "/>
<polygon class="st0" points="114.8,207.2 114.8,207.9 151.8,207.9 152.5,207.2 "/>
<polygon class="st0" points="114.8,213.2 145.8,213.2 148.2,211.1 114.8,211.1 "/>
<polygon class="st0" points="146.8,156.5 146.8,199.9 149,199.9 149,158.6 147.2,156.5 "/>
<polygon class="st0" points="152.2,199.9 152.8,199.9 152.8,162.9 152.2,162.2 "/>
<polygon class="st0" points="158.2,199.9 158.2,168.9 156,166.5 156,199.9 "/>
<polygon class="st0" points="223.1,170.1 266.5,170.1 266.5,168 225.2,168 223.1,169.8 "/>
<polygon class="st0" points="229.5,164.1 228.8,164.8 266.5,164.8 266.5,164.1 "/>
<polygon class="st0" points="266.5,158.8 235.5,158.8 233.1,160.9 266.5,160.9 "/>
<polygon class="st0" points="234.5,215.4 234.5,172 232.3,172 232.3,213.4 234.1,215.4 "/>
<polygon class="st0" points="228.5,172 228.5,209.1 229.1,209.8 229.1,172 "/>
<polygon class="st0" points="223.2,172 223.2,203 225.3,205.4 225.3,172 "/>
<polygon class="st0" points="279.4,204.1 235.9,204.1 235.9,206.2 277.3,206.2 279.4,204.4 "/>
<polygon class="st0" points="235.9,209.4 235.9,210.1 273,210.1 273.7,209.4 "/>
<polygon class="st0" points="235.9,215.4 267,215.4 269.4,213.3 235.9,213.3 "/>
<polygon class="st0" points="268,158.7 268,202.1 270.2,202.1 270.2,160.8 268.3,158.7 "/>
<polygon class="st0" points="273.4,202.1 274,202.1 274,165.1 273.4,164.4 "/>
<polygon class="st0" points="279.3,202.1 279.3,171.1 277.2,168.7 277.2,202.1 "/>
<g class="st2">
	<g>
		<defs>
			<rect id="SVGID_1_" x="304.3" y="118.7" width="6.3" height="204.5"/>
		</defs>
		<clipPath id="SVGID_2_">
			<use xlink:href="#SVGID_1_"  style="overflow:visible;"/>
		</clipPath>
		<rect x="309.1" y="118.7" class="st3" width="1.4" height="204.5"/>
		<rect x="307.2" y="118.7" class="st3" width="0.4" height="204.5"/>
		<rect x="304.3" y="118.7" class="st3" width="1.4" height="204.5"/>
	</g>
</g>
<g class="st2">
	<g>
		<defs>
			<rect id="SVGID_3_" x="419" y="392.5" width="6.3" height="204.5"/>
		</defs>
		<clipPath id="SVGID_4_">
			<use xlink:href="#SVGID_3_"  style="overflow:visible;"/>
		</clipPath>
		<rect x="423.8" y="392.5" class="st4" width="1.4" height="204.5"/>
		<rect x="421.9" y="392.5" class="st4" width="0.4" height="204.5"/>
		<rect x="419" y="392.5" class="st4" width="1.4" height="204.5"/>
	</g>
</g>
<g class="st2">
	<g>
		<defs>
			<rect id="SVGID_5_" x="205.1" y="397.9" width="6.3" height="43.5"/>
		</defs>
		<clipPath id="SVGID_6_">
			<use xlink:href="#SVGID_5_"  style="overflow:visible;"/>
		</clipPath>
		<rect x="209.9" y="397.9" class="st5" width="1.4" height="43.5"/>
		<rect x="208" y="397.9" class="st5" width="0.4" height="43.5"/>
		<rect x="205.1" y="397.9" class="st5" width="1.4" height="43.5"/>
	</g>
</g>
<g class="st2">
	<g>
		<defs>
			<rect id="SVGID_7_" x="358.6" y="286.9" width="6.3" height="38"/>
		</defs>
		<clipPath id="SVGID_8_">
			<use xlink:href="#SVGID_7_"  style="overflow:visible;"/>
		</clipPath>
		<rect x="363.4" y="286.9" class="st6" width="1.4" height="38"/>
		<rect x="361.5" y="286.9" class="st6" width="0.4" height="38"/>
		<rect x="358.6" y="286.9" class="st6" width="1.4" height="38"/>
	</g>
</g>
<g class="st2">
	<g>
		<defs>
			<rect id="SVGID_9_" x="358.6" y="173.2" width="6.3" height="102.5"/>
		</defs>
		<clipPath id="SVGID_10_">
			<use xlink:href="#SVGID_9_"  style="overflow:visible;"/>
		</clipPath>
		<rect x="363.4" y="173.2" class="st7" width="1.4" height="102.5"/>
		<rect x="361.5" y="173.2" class="st7" width="0.4" height="102.5"/>
		<rect x="358.6" y="173.2" class="st7" width="1.4" height="102.5"/>
	</g>
</g>
<g class="st2">
	<g>
		<defs>
			<rect id="SVGID_11_" x="327.8" y="221.4" width="6.3" height="55.5"/>
		</defs>
		<clipPath id="SVGID_12_">
			<use xlink:href="#SVGID_11_"  style="overflow:visible;"/>
		</clipPath>
		<rect x="332.6" y="221.4" class="st8" width="1.4" height="55.5"/>
		<rect x="330.7" y="221.4" class="st8" width="0.4" height="55.5"/>
		<rect x="327.8" y="221.4" class="st8" width="1.4" height="55.5"/>
	</g>
</g>
<g class="st2">
	<g>
		<defs>
			<rect id="SVGID_13_" x="205.7" y="221.4" width="6.3" height="54.3"/>
		</defs>
		<clipPath id="SVGID_14_">
			<use xlink:href="#SVGID_13_"  style="overflow:visible;"/>
		</clipPath>
		<rect x="210.6" y="221.4" class="st9" width="1.4" height="54.3"/>
		<rect x="208.6" y="221.4" class="st9" width="0.4" height="54.3"/>
		<rect x="205.7" y="221.4" class="st9" width="1.4" height="54.3"/>
	</g>
</g>
<g class="st2">
	<g>
		<defs>
			<rect id="SVGID_15_" x="252.9" y="321" width="6.3" height="46"/>
		</defs>
		<clipPath id="SVGID_16_">
			<use xlink:href="#SVGID_15_"  style="overflow:visible;"/>
		</clipPath>
		<rect x="257.7" y="321" class="st10" width="1.4" height="46"/>
		<rect x="255.8" y="321" class="st10" width="0.4" height="46"/>
		<rect x="252.9" y="321" class="st10" width="1.4" height="46"/>
	</g>
</g>
<g class="st2">
	<g>
		<defs>
			<rect id="SVGID_17_" x="229.4" y="64" width="99.3" height="2"/>
		</defs>
		<clipPath id="SVGID_18_">
			<use xlink:href="#SVGID_17_"  style="overflow:visible;"/>
		</clipPath>
		<polygon class="st11" points="328.7,66 328.7,64 229.4,64 230.6,66 		"/>
	</g>
</g>
<g class="st2">
	<g>
		<defs>
			<rect id="SVGID_19_" x="231.9" y="68.1" width="96.8" height="0.6"/>
		</defs>
		<clipPath id="SVGID_20_">
			<use xlink:href="#SVGID_19_"  style="overflow:visible;"/>
		</clipPath>
		<polygon class="st12" points="328.7,68.7 328.7,68.1 231.9,68.1 232.3,68.7 		"/>
	</g>
</g>
<g class="st2">
	<g>
		<defs>
			<rect id="SVGID_21_" x="233.5" y="70.8" width="95.2" height="2"/>
		</defs>
		<clipPath id="SVGID_22_">
			<use xlink:href="#SVGID_21_"  style="overflow:visible;"/>
		</clipPath>
		<polygon class="st13" points="328.7,72.7 328.7,70.8 233.5,70.8 234.7,72.7 		"/>
	</g>
</g>
<g class="st2">
	<g>
		<defs>
			<rect id="SVGID_23_" x="64.2" y="217.1" width="2" height="150.1"/>
		</defs>
		<clipPath id="SVGID_24_">
			<use xlink:href="#SVGID_23_"  style="overflow:visible;"/>
		</clipPath>
		<polygon class="st14" points="64.2,217.1 64.2,367.2 66.2,367.2 66.2,219.3 		"/>
	</g>
</g>
<g class="st2">
	<g>
		<defs>
			<rect id="SVGID_25_" x="61.5" y="214.1" width="0.6" height="153"/>
		</defs>
		<clipPath id="SVGID_26_">
			<use xlink:href="#SVGID_25_"  style="overflow:visible;"/>
		</clipPath>
		<polygon class="st15" points="61.5,367.2 62.1,367.2 62.1,214.8 61.5,214.1 		"/>
	</g>
</g>
<g class="st2">
	<g>
		<defs>
			<rect id="SVGID_27_" x="57.4" y="209.6" width="2" height="157.5"/>
		</defs>
		<clipPath id="SVGID_28_">
			<use xlink:href="#SVGID_27_"  style="overflow:visible;"/>
		</clipPath>
		<polygon class="st16" points="57.4,367.2 59.4,367.2 59.4,211.8 57.4,209.6 		"/>
	</g>
</g>
<g class="st2">
	<g>
		<defs>
			<rect id="SVGID_29_" x="8.3" y="156.5" width="53.5" height="2"/>
		</defs>
		<clipPath id="SVGID_30_">
			<use xlink:href="#SVGID_29_"  style="overflow:visible;"/>
		</clipPath>
		<polygon class="st17" points="8.3,156.5 8.3,158.5 60.7,158.5 61.8,156.5 		"/>
	</g>
</g>
<g class="st2">
	<g>
		<defs>
			<rect id="SVGID_31_" x="8.3" y="160.6" width="51.3" height="0.6"/>
		</defs>
		<clipPath id="SVGID_32_">
			<use xlink:href="#SVGID_31_"  style="overflow:visible;"/>
		</clipPath>
		<polygon class="st18" points="8.3,161.2 59.2,161.2 59.6,160.6 8.3,160.6 		"/>
	</g>
</g>
<g class="st2">
	<g>
		<defs>
			<rect id="SVGID_33_" x="8.3" y="163.3" width="49.8" height="2"/>
		</defs>
		<clipPath id="SVGID_34_">
			<use xlink:href="#SVGID_33_"  style="overflow:visible;"/>
		</clipPath>
		<polygon class="st19" points="8.3,165.3 57,165.3 58.1,163.3 8.3,163.3 		"/>
	</g>
</g>
<g class="st2">
	<g>
		<defs>
			<rect id="SVGID_35_" x="188.7" y="4.2" width="94" height="153.7"/>
		</defs>
		<clipPath id="SVGID_36_">
			<use xlink:href="#SVGID_35_"  style="overflow:visible;"/>
		</clipPath>
		<polygon class="st20" points="190.4,4.2 188.7,5.3 280.4,157.9 282.8,157.9 		"/>
	</g>
</g>
<g class="st2">
	<g>
		<defs>
			<rect id="SVGID_37_" x="186.4" y="6.4" width="91.6" height="151.6"/>
		</defs>
		<clipPath id="SVGID_38_">
			<use xlink:href="#SVGID_37_"  style="overflow:visible;"/>
		</clipPath>
		<polygon class="st21" points="186.4,6.7 277.2,157.9 278,157.9 186.9,6.4 		"/>
	</g>
</g>
<g class="st2">
	<g>
		<defs>
			<rect id="SVGID_39_" x="182.9" y="7.7" width="91.9" height="150.2"/>
		</defs>
		<clipPath id="SVGID_40_">
			<use xlink:href="#SVGID_39_"  style="overflow:visible;"/>
		</clipPath>
		<polygon class="st22" points="182.9,8.8 272.5,157.9 274.8,157.9 184.6,7.8 		"/>
	</g>
</g>
<g class="st2">
	<g>
		<defs>
			<rect id="SVGID_41_" x="116.5" y="241.2" width="30" height="1.4"/>
		</defs>
		<clipPath id="SVGID_42_">
			<use xlink:href="#SVGID_41_"  style="overflow:visible;"/>
		</clipPath>
		<polygon class="st23" points="146.5,241.2 116.5,241.2 117.8,242.6 146.5,242.6 		"/>
	</g>
</g>
<g class="st2">
	<g>
		<defs>
			<rect id="SVGID_43_" x="119.2" y="244.1" width="27.3" height="0.4"/>
		</defs>
		<clipPath id="SVGID_44_">
			<use xlink:href="#SVGID_43_"  style="overflow:visible;"/>
		</clipPath>
		<polygon class="st24" points="146.5,244.5 146.5,244.1 119.2,244.1 119.6,244.5 		"/>
	</g>
</g>
<g class="st2">
	<g>
		<defs>
			<rect id="SVGID_45_" x="120.9" y="246" width="25.6" height="1.4"/>
		</defs>
		<clipPath id="SVGID_46_">
			<use xlink:href="#SVGID_45_"  style="overflow:visible;"/>
		</clipPath>
		<polygon class="st25" points="146.5,247.4 146.5,246 120.9,246 122.2,247.4 		"/>
	</g>
</g>
<g class="st2">
	<g>
		<defs>
			<rect id="SVGID_47_" x="154.3" y="241.2" width="1.4" height="83.1"/>
		</defs>
		<clipPath id="SVGID_48_">
			<use xlink:href="#SVGID_47_"  style="overflow:visible;"/>
		</clipPath>
		<polygon class="st26" points="155.7,241.2 154.3,241.2 154.3,324.3 155.7,322.9 		"/>
	</g>
</g>
<g class="st2">
	<g>
		<defs>
			<rect id="SVGID_49_" x="152.4" y="241.2" width="0.4" height="85"/>
		</defs>
		<clipPath id="SVGID_50_">
			<use xlink:href="#SVGID_49_"  style="overflow:visible;"/>
		</clipPath>
		<polygon class="st27" points="152.4,241.2 152.4,326.2 152.8,325.8 152.8,241.2 		"/>
	</g>
</g>
<g class="st2">
	<g>
		<defs>
			<rect id="SVGID_51_" x="149.5" y="241.2" width="1.4" height="87.9"/>
		</defs>
		<clipPath id="SVGID_52_">
			<use xlink:href="#SVGID_51_"  style="overflow:visible;"/>
		</clipPath>
		<polygon class="st28" points="149.5,241.2 149.5,329 150.9,327.7 150.9,241.2 		"/>
	</g>
</g>
<g class="st2">
	<g>
		<defs>
			<rect id="SVGID_53_" x="81.6" y="359.9" width="67" height="1.4"/>
		</defs>
		<clipPath id="SVGID_54_">
			<use xlink:href="#SVGID_53_"  style="overflow:visible;"/>
		</clipPath>
		<polygon class="st29" points="81.6,359.9 81.6,361.3 148.6,361.3 147.2,359.9 		"/>
	</g>
</g>
<g class="st2">
	<g>
		<defs>
			<rect id="SVGID_55_" x="81.6" y="362.8" width="68.9" height="0.4"/>
		</defs>
		<clipPath id="SVGID_56_">
			<use xlink:href="#SVGID_55_"  style="overflow:visible;"/>
		</clipPath>
		<polygon class="st30" points="81.6,363.2 150.6,363.2 150.1,362.8 81.6,362.8 		"/>
	</g>
</g>
<g class="st2">
	<g>
		<defs>
			<rect id="SVGID_57_" x="81.6" y="364.7" width="71.8" height="1.4"/>
		</defs>
		<clipPath id="SVGID_58_">
			<use xlink:href="#SVGID_57_"  style="overflow:visible;"/>
		</clipPath>
		<polygon class="st31" points="81.6,366.1 153.4,366.1 152,364.7 81.6,364.7 		"/>
	</g>
</g>
<g class="st2">
	<g>
		<defs>
			<rect id="SVGID_59_" x="210.1" y="321" width="1.4" height="46.2"/>
		</defs>
		<clipPath id="SVGID_60_">
			<use xlink:href="#SVGID_59_"  style="overflow:visible;"/>
		</clipPath>
		<rect x="210.1" y="321" class="st32" width="1.4" height="46.2"/>
	</g>
</g>
<g class="st2">
	<g>
		<defs>
			<rect id="SVGID_61_" x="208.2" y="321" width="0.4" height="46.2"/>
		</defs>
		<clipPath id="SVGID_62_">
			<use xlink:href="#SVGID_61_"  style="overflow:visible;"/>
		</clipPath>
		<rect x="208.2" y="321" class="st33" width="0.4" height="46.2"/>
	</g>
</g>
<g class="st2">
	<g>
		<defs>
			<rect id="SVGID_63_" x="205.3" y="321" width="1.4" height="46.2"/>
		</defs>
		<clipPath id="SVGID_64_">
			<use xlink:href="#SVGID_63_"  style="overflow:visible;"/>
		</clipPath>
		<rect x="205.3" y="321" class="st34" width="1.4" height="46.2"/>
	</g>
</g>
<g class="st2">
	<g>
		<defs>
			<rect id="SVGID_65_" x="311.9" y="116.4" width="25.5" height="41.8"/>
		</defs>
		<clipPath id="SVGID_66_">
			<use xlink:href="#SVGID_65_"  style="overflow:visible;"/>
		</clipPath>
		<polygon class="st35" points="336.2,116.4 311.9,155.4 311.9,158.2 337.5,117.1 		"/>
	</g>
</g>
<g class="st2">
	<g>
		<defs>
			<rect id="SVGID_67_" x="239.7" y="171.6" width="62.5" height="104.1"/>
		</defs>
		<clipPath id="SVGID_68_">
			<use xlink:href="#SVGID_67_"  style="overflow:visible;"/>
		</clipPath>
		<polygon class="st36" points="241.3,275.7 302.2,174.4 302.2,171.6 239.7,275.7 		"/>
	</g>
</g>
<g class="st2">
	<g>
		<defs>
			<rect id="SVGID_69_" x="243.1" y="177.3" width="59.1" height="98.4"/>
		</defs>
		<clipPath id="SVGID_70_">
			<use xlink:href="#SVGID_69_"  style="overflow:visible;"/>
		</clipPath>
		<polygon class="st37" points="302.2,178.1 302.2,177.3 243.1,275.7 243.6,275.7 		"/>
	</g>
</g>
<g class="st2">
	<g>
		<defs>
			<rect id="SVGID_71_" x="311.9" y="117.9" width="27.2" height="44"/>
		</defs>
		<clipPath id="SVGID_72_">
			<use xlink:href="#SVGID_71_"  style="overflow:visible;"/>
		</clipPath>
		<polygon class="st38" points="338.7,117.9 311.9,161.1 311.9,161.9 339.1,118.1 		"/>
	</g>
</g>
<g class="st2">
	<g>
		<defs>
			<rect id="SVGID_73_" x="245.3" y="181" width="56.9" height="94.7"/>
		</defs>
		<clipPath id="SVGID_74_">
			<use xlink:href="#SVGID_73_"  style="overflow:visible;"/>
		</clipPath>
		<polygon class="st39" points="302.2,183.7 302.2,181 245.3,275.7 247,275.7 		"/>
	</g>
</g>
<g class="st2">
	<g>
		<defs>
			<rect id="SVGID_75_" x="311.9" y="118.9" width="29.7" height="48.7"/>
		</defs>
		<clipPath id="SVGID_76_">
			<use xlink:href="#SVGID_75_"  style="overflow:visible;"/>
		</clipPath>
		<polygon class="st40" points="340.4,118.9 311.9,164.8 311.9,167.6 341.6,119.6 		"/>
	</g>
</g>
<g class="st2">
	<g>
		<defs>
			<rect id="SVGID_77_" x="260.7" y="360.8" width="9.7" height="1.4"/>
		</defs>
		<clipPath id="SVGID_78_">
			<use xlink:href="#SVGID_77_"  style="overflow:visible;"/>
		</clipPath>
		<polygon class="st41" points="260.7,360.8 260.7,362.2 270.4,362.2 268.9,360.8 		"/>
	</g>
</g>
<g class="st2">
	<g>
		<defs>
			<rect id="SVGID_79_" x="260.7" y="363.7" width="11.6" height="0.4"/>
		</defs>
		<clipPath id="SVGID_80_">
			<use xlink:href="#SVGID_79_"  style="overflow:visible;"/>
		</clipPath>
		<polygon class="st42" points="260.7,363.7 260.7,364.1 272.3,364.1 271.9,363.7 		"/>
	</g>
</g>
<g class="st2">
	<g>
		<defs>
			<rect id="SVGID_81_" x="260.7" y="365.6" width="14.5" height="1.4"/>
		</defs>
		<clipPath id="SVGID_82_">
			<use xlink:href="#SVGID_81_"  style="overflow:visible;"/>
		</clipPath>
		<polygon class="st43" points="273.8,365.6 260.7,365.6 260.7,367 275.2,367 		"/>
	</g>
</g>
<g class="st2">
	<g>
		<defs>
			<rect id="SVGID_83_" x="425.1" y="286.9" width="1.4" height="43.2"/>
		</defs>
		<clipPath id="SVGID_84_">
			<use xlink:href="#SVGID_83_"  style="overflow:visible;"/>
		</clipPath>
		<polygon class="st44" points="426.5,286.9 425.1,286.9 425.1,328.4 426.5,330 		"/>
	</g>
</g>
<g class="st2">
	<g>
		<defs>
			<rect id="SVGID_85_" x="423.1" y="286.9" width="0.4" height="39.9"/>
		</defs>
		<clipPath id="SVGID_86_">
			<use xlink:href="#SVGID_85_"  style="overflow:visible;"/>
		</clipPath>
		<polygon class="st45" points="423.1,286.9 423.1,326.3 423.6,326.8 423.6,286.9 		"/>
	</g>
</g>
<g class="st2">
	<g>
		<defs>
			<rect id="SVGID_87_" x="420.2" y="286.9" width="1.4" height="37.8"/>
		</defs>
		<clipPath id="SVGID_88_">
			<use xlink:href="#SVGID_87_"  style="overflow:visible;"/>
		</clipPath>
		<polygon class="st46" points="420.2,286.9 420.2,323.1 421.6,324.7 421.6,286.9 		"/>
	</g>
</g>
<g class="st2">
	<g>
		<defs>
			<rect id="SVGID_89_" x="328.4" y="278.3" width="93.7" height="1.4"/>
		</defs>
		<clipPath id="SVGID_90_">
			<use xlink:href="#SVGID_89_"  style="overflow:visible;"/>
		</clipPath>
		<polygon class="st47" points="328.4,278.3 328.4,278.7 329.6,279.7 422.1,279.7 421,278.3 		"/>
	</g>
</g>
<g class="st2">
	<g>
		<defs>
			<rect id="SVGID_91_" x="331.3" y="281.2" width="92.3" height="0.4"/>
		</defs>
		<clipPath id="SVGID_92_">
			<use xlink:href="#SVGID_91_"  style="overflow:visible;"/>
		</clipPath>
		<polygon class="st48" points="331.3,281.2 331.8,281.6 423.6,281.6 423.3,281.2 		"/>
	</g>
</g>
<g class="st2">
	<g>
		<defs>
			<rect id="SVGID_93_" x="333.5" y="283.1" width="92.4" height="1.4"/>
		</defs>
		<clipPath id="SVGID_94_">
			<use xlink:href="#SVGID_93_"  style="overflow:visible;"/>
		</clipPath>
		<polygon class="st49" points="424.8,283.1 333.5,283.1 335.2,284.5 425.9,284.5 		"/>
	</g>
</g>
<g class="st2">
	<g>
		<defs>
			<rect id="SVGID_95_" x="425.1" y="360.6" width="41.6" height="1.4"/>
		</defs>
		<clipPath id="SVGID_96_">
			<use xlink:href="#SVGID_95_"  style="overflow:visible;"/>
		</clipPath>
		<polygon class="st50" points="466.7,360.6 425.7,360.6 425.1,362 466.7,362 		"/>
	</g>
</g>
<g class="st2">
	<g>
		<defs>
			<rect id="SVGID_97_" x="424.4" y="363.5" width="42.3" height="0.4"/>
		</defs>
		<clipPath id="SVGID_98_">
			<use xlink:href="#SVGID_97_"  style="overflow:visible;"/>
		</clipPath>
		<polygon class="st51" points="466.7,363.9 466.7,363.5 424.6,363.5 424.4,363.9 		"/>
	</g>
</g>
<g class="st2">
	<g>
		<defs>
			<rect id="SVGID_99_" x="423.3" y="365.4" width="43.4" height="1.4"/>
		</defs>
		<clipPath id="SVGID_100_">
			<use xlink:href="#SVGID_99_"  style="overflow:visible;"/>
		</clipPath>
		<polygon class="st52" points="466.7,366.8 466.7,365.4 423.8,365.4 423.3,366.8 		"/>
	</g>
</g>
<g class="st2">
	<g>
		<defs>
			<rect id="SVGID_101_" x="213.4" y="63.6" width="1.3" height="92.4"/>
		</defs>
		<clipPath id="SVGID_102_">
			<use xlink:href="#SVGID_101_"  style="overflow:visible;"/>
		</clipPath>
		<polygon class="st53" points="214.7,67 213.4,63.6 213.4,156 214.7,156 		"/>
	</g>
</g>
<g class="st2">
	<g>
		<defs>
			<polygon id="SVGID_103_" points="210.9,156 210.9,156 210.9,59.1 			"/>
		</defs>
		<clipPath id="SVGID_104_">
			<use xlink:href="#SVGID_103_"  style="overflow:visible;"/>
		</clipPath>
		<polygon class="st54" points="210.9,59.1 210.9,156 210.9,60.1 		"/>
	</g>
</g>
<g class="st2">
	<g>
		<defs>
			<rect id="SVGID_105_" x="205.8" y="52.3" width="2.5" height="103.7"/>
		</defs>
		<clipPath id="SVGID_106_">
			<use xlink:href="#SVGID_105_"  style="overflow:visible;"/>
		</clipPath>
		<polygon class="st55" points="205.8,52.3 205.8,156 208.3,156 208.3,55.6 		"/>
	</g>
</g>
<g>
	<path class="st1" d="M148.6,385.7c-0.2-0.5-0.4-1.2-0.5-2c-0.1-0.8-0.1-1.8-0.1-3c0-1.2,0.1-2.3,0.2-3.2c0.2-0.9,0.4-1.6,0.6-2.2
		s0.6-0.9,1.1-1.2c0.5-0.3,0.9-0.5,1.4-0.5s1-0.1,1.6-0.1s1.2,0,1.6,0.1s0.8,0.2,1.2,0.3c0.4,0.2,0.8,0.4,1,0.8
		c0.3,0.3,0.5,0.8,0.7,1.3c0.4,1,0.6,2.7,0.6,4.9c0,2.4-0.3,4.1-0.8,5.3c-0.3,0.5-0.6,0.9-1.1,1.2c-0.5,0.3-0.9,0.5-1.4,0.6
		c-0.5,0.1-1,0.1-1.7,0.1c-0.7,0-1.2,0-1.6-0.1s-0.8-0.2-1.2-0.3c-0.4-0.2-0.8-0.4-1-0.7C149.1,386.6,148.8,386.2,148.6,385.7z
		 M149.5,377.7c-0.1,0.4-0.1,0.9-0.1,1.4c0,0.5-0.1,1.3-0.1,2.2s0.1,1.8,0.2,2.6c0.1,0.8,0.3,1.3,0.6,1.7c0.3,0.4,0.7,0.7,1.1,0.8
		c0.4,0.1,1,0.2,1.8,0.2c0.8,0,1.4-0.1,1.8-0.2s0.8-0.4,1.1-0.8c0.3-0.4,0.5-1,0.7-1.7c0.1-0.7,0.2-1.6,0.2-2.5c0-0.9,0-1.7-0.1-2.2
		c0-0.5-0.1-1-0.1-1.4c-0.1-0.4-0.1-0.7-0.3-1c-0.1-0.3-0.2-0.5-0.3-0.7s-0.2-0.4-0.4-0.5c-0.2-0.1-0.4-0.2-0.5-0.3
		c-0.1-0.1-0.3-0.1-0.6-0.2s-0.5-0.1-0.7-0.1c-0.2,0-0.4,0-0.8,0s-0.6,0-0.8,0c-0.2,0-0.4,0-0.7,0.1c-0.3,0-0.5,0.1-0.6,0.2
		c-0.1,0.1-0.3,0.2-0.5,0.3c-0.2,0.1-0.3,0.3-0.4,0.5c-0.1,0.2-0.2,0.4-0.3,0.7C149.7,377,149.6,377.3,149.5,377.7z M153.5,388.6
		c0.6,0.5,1.1,0.7,1.7,0.7c0.5,0,1-0.1,1.4-0.3v1.6c-0.4,0.1-0.7,0.2-1,0.2s-0.4,0-0.5,0c-0.6,0-1.1-0.3-1.6-0.6
		c-0.5-0.4-0.8-0.9-0.9-1.5H153.5z"/>
	<path class="st1" d="M159.9,384.8v-7.3h1.3v7.3c0,0.6,0.1,1.1,0.4,1.4c0.3,0.3,0.7,0.5,1.1,0.5c0.5,0,0.9-0.1,1.3-0.2
		s0.7-0.2,1-0.3c0.2-0.1,0.7-0.3,1.2-0.6v-8.1h1.3V388h-0.9l-0.4-1.2c0,0-0.2,0.1-0.4,0.2c-0.2,0.2-0.4,0.2-0.4,0.3
		s-0.2,0.1-0.4,0.2s-0.3,0.2-0.4,0.2c-0.1,0-0.2,0.1-0.4,0.2c-0.2,0.1-0.3,0.1-0.5,0.2c-0.4,0.1-0.7,0.1-1,0.1c-0.9,0-1.6-0.3-2.2-1
		C160.1,386.5,159.9,385.7,159.9,384.8z"/>
	<path class="st1" d="M169.6,382.7c0-1.2,0.1-2.1,0.2-2.8s0.4-1.2,0.8-1.6s0.8-0.6,1.3-0.7c0.5-0.1,1.1-0.2,1.8-0.2s1.3,0,1.7,0.1
		c0.4,0.1,0.7,0.2,1.1,0.5s0.6,0.6,0.8,1.1c0.2,0.5,0.2,1.2,0.2,2c0,1.6-0.8,2.4-2.5,2.4h-4c0,1.2,0.1,2,0.4,2.5
		c0.3,0.4,0.7,0.6,1.4,0.6c2.2,0,3.7-0.1,4.5-0.2v1.1c-1.2,0.4-2.7,0.6-4.5,0.6c-1.2,0-2-0.4-2.5-1.1S169.6,384.8,169.6,382.7z
		 M171,382.1h4c0.8,0,1.1-0.3,1.1-1c0-1-0.1-1.6-0.4-1.9c-0.3-0.2-0.9-0.4-1.9-0.4c-1.2,0-2,0.1-2.2,0.4c-0.3,0.4-0.5,0.8-0.6,1.3
		C171,381.1,171,381.6,171,382.1z"/>
	<path class="st1" d="M183.5,385.7c0-0.4,0.1-0.7,0.3-1c0.2-0.3,0.4-0.5,0.8-0.6c-0.7-0.5-1-1.4-1-2.7c0-1.3,0.3-2.3,0.8-2.9
		s1.3-0.9,2.3-0.9h5.6v1.1l-1.5,0.4c0,0,0.1,0.1,0.1,0.2c0.1,0.1,0.1,0.3,0.2,0.3c0,0.1,0.1,0.2,0.1,0.4c0.1,0.3,0.1,0.7,0.1,1.2
		s0,0.9-0.1,1.3c-0.1,0.4-0.2,0.8-0.4,1.2c-0.2,0.4-0.5,0.8-0.9,1.1s-0.9,0.4-1.5,0.4h-2.8c-0.5,0-0.7,0.2-0.7,0.6
		c0,0.4,0.2,0.7,0.7,0.7h3.8c0.7,0,1.3,0.2,1.7,0.7c0.4,0.5,0.6,1.2,0.6,2v1.2c0,0.7-0.1,1.4-0.4,1.9c-0.2,0.3-0.5,0.6-0.8,0.8
		c-0.4,0.2-0.8,0.3-1.4,0.3h-2.7c-0.9,0-1.6-0.3-2.1-0.8c-0.5-0.5-0.8-1.3-0.8-2.3v-1.7l0.7-1.3C183.7,387,183.5,386.4,183.5,385.7z
		 M185.6,387.8c-0.3,0-0.6-0.1-0.8-0.2v2.7c0,1.1,0.5,1.6,1.5,1.6h2.7c0.9,0,1.4-0.5,1.4-1.6v-1.1c0-0.5-0.1-0.9-0.2-1.1
		s-0.5-0.3-1-0.3H185.6z M184.9,381.2c0,0.6,0.1,1,0.2,1.4c0.3,0.7,0.8,1,1.4,1h1.8c0.6,0,1.1-0.2,1.4-0.7s0.4-1,0.4-1.5
		c0-0.8-0.1-1.4-0.4-1.8s-0.7-0.6-1.4-0.6h-1.6C185.4,378.9,184.9,379.7,184.9,381.2z"/>
	<path class="st1" d="M193.1,382.7c0-1.2,0.1-2.1,0.2-2.8s0.4-1.2,0.8-1.6s0.8-0.6,1.3-0.7c0.5-0.1,1.1-0.2,1.8-0.2s1.3,0,1.7,0.1
		c0.4,0.1,0.7,0.2,1.1,0.5s0.6,0.6,0.8,1.1c0.2,0.5,0.2,1.2,0.2,2c0,1.6-0.8,2.4-2.5,2.4h-4c0,1.2,0.1,2,0.4,2.5
		c0.3,0.4,0.7,0.6,1.4,0.6c2.2,0,3.7-0.1,4.5-0.2v1.1c-1.2,0.4-2.7,0.6-4.5,0.6c-1.2,0-2-0.4-2.5-1.1S193.1,384.8,193.1,382.7z
		 M194.4,382.1h4c0.8,0,1.1-0.3,1.1-1c0-1-0.1-1.6-0.4-1.9c-0.3-0.2-0.9-0.4-1.9-0.4c-1.2,0-2,0.1-2.2,0.4c-0.3,0.4-0.5,0.8-0.6,1.3
		C194.4,381.1,194.4,381.6,194.4,382.1z"/>
	<path class="st1" d="M202.7,388v-10.5h0.9l0.4,1.2c0,0,0.2-0.1,0.4-0.2c0.2-0.2,0.4-0.2,0.4-0.3s0.2-0.1,0.4-0.2s0.3-0.2,0.4-0.2
		c0.1,0,0.2-0.1,0.4-0.2s0.3-0.1,0.5-0.2c0.4-0.1,0.7-0.1,1-0.1c0.9,0,1.6,0.3,2.2,1c0.5,0.7,0.8,1.4,0.8,2.4v7.3h-1.3v-7.3
		c0-0.6-0.1-1.1-0.4-1.4c-0.3-0.3-0.7-0.5-1.1-0.5s-0.9,0.1-1.3,0.2c-0.4,0.1-0.7,0.2-1,0.3c-0.2,0.1-0.7,0.3-1.2,0.6v8.1H202.7z"/>
	<path class="st1" d="M212.1,382.7c0-1.2,0.1-2.1,0.2-2.8s0.4-1.2,0.8-1.6s0.8-0.6,1.3-0.7c0.5-0.1,1.1-0.2,1.8-0.2s1.3,0,1.7,0.1
		c0.4,0.1,0.7,0.2,1.1,0.5s0.6,0.6,0.8,1.1c0.2,0.5,0.2,1.2,0.2,2c0,1.6-0.8,2.4-2.5,2.4h-4c0,1.2,0.1,2,0.4,2.5
		c0.3,0.4,0.7,0.6,1.4,0.6c2.2,0,3.7-0.1,4.5-0.2v1.1c-1.2,0.4-2.7,0.6-4.5,0.6c-1.2,0-2-0.4-2.5-1.1S212.1,384.8,212.1,382.7z
		 M213.4,382.1h4c0.8,0,1.1-0.3,1.1-1c0-1-0.1-1.6-0.4-1.9c-0.3-0.2-0.9-0.4-1.9-0.4c-1.2,0-2,0.1-2.2,0.4c-0.3,0.4-0.5,0.8-0.6,1.3
		C213.4,381.1,213.4,381.6,213.4,382.1z"/>
	<path class="st1" d="M221.7,388v-10.5h0.9l0.4,1.3c0.9-0.6,1.5-1,1.7-1s0.5-0.2,0.6-0.2c0.4-0.1,0.8-0.2,1.4-0.2s0.9,0.1,1.1,0.2
		v1.4c-0.3-0.1-0.7-0.1-1.2-0.1c-0.5,0-1,0.1-1.4,0.2c-0.4,0.1-0.7,0.2-1,0.3c-0.2,0.1-0.7,0.3-1.3,0.7v8H221.7z"/>
	<path class="st1" d="M229.3,377.9c1.3-0.4,2.9-0.6,4.7-0.6c0.8,0,1.4,0.3,1.9,0.8c0.5,0.5,0.8,1.3,0.8,2.3v7.6h-1l-0.3-1.3
		l-0.3,0.1c-1.6,0.8-2.8,1.2-3.7,1.2c-0.7,0-1.3-0.2-1.7-0.7c-0.5-0.5-0.7-1.1-0.7-1.9v-1.2c0-0.8,0.2-1.4,0.6-1.9
		c0.4-0.5,1-0.7,1.8-0.7c1.3,0,2.7,0,4,0c0-0.4,0-0.8,0-1c0-0.2,0-0.3,0-0.3c0-1.1-0.5-1.6-1.5-1.6c-1,0-2.5,0.1-4.5,0.2V377.9z
		 M230.3,385.4c0,0.8,0.4,1.2,1.1,1.2c0.4,0,1-0.1,1.6-0.3c0.7-0.2,1.2-0.3,1.7-0.5l0.7-0.3v-2.8l-4,0.3c-0.4,0-0.6,0.2-0.8,0.4
		c-0.2,0.2-0.3,0.5-0.3,0.9V385.4z"/>
	<path class="st1" d="M238.6,388v-10.5h0.9l0.4,1.2c0,0,0.2-0.1,0.4-0.2c0.2-0.2,0.4-0.2,0.4-0.3c0.1,0,0.2-0.1,0.4-0.2
		c0.2-0.1,0.3-0.2,0.4-0.2c0.1,0,0.2-0.1,0.4-0.2c0.2-0.1,0.3-0.1,0.5-0.2c0.4-0.1,0.7-0.1,1-0.1c0.9,0,1.6,0.3,2.2,1
		c0.5,0.7,0.8,1.4,0.8,2.4v7.3h-1.3v-7.3c0-0.6-0.1-1.1-0.4-1.4c-0.3-0.3-0.7-0.5-1.1-0.5s-0.9,0.1-1.3,0.2c-0.4,0.1-0.7,0.2-1,0.3
		c-0.2,0.1-0.7,0.3-1.2,0.6v8.1H238.6z"/>
	<path class="st1" d="M252.9,388v-10.5h0.9l0.4,1.2c0,0,0.2-0.1,0.4-0.2c0.2-0.2,0.4-0.2,0.4-0.3c0.1,0,0.2-0.1,0.4-0.2
		c0.2-0.1,0.3-0.2,0.4-0.2c0.1,0,0.2-0.1,0.4-0.2c0.2-0.1,0.3-0.1,0.5-0.2c0.4-0.1,0.7-0.1,1-0.1c0.9,0,1.6,0.3,2.2,1
		c0.5,0.7,0.8,1.4,0.8,2.4v7.3h-1.3v-7.3c0-0.6-0.1-1.1-0.4-1.4c-0.3-0.3-0.7-0.5-1.1-0.5s-0.9,0.1-1.3,0.2c-0.4,0.1-0.7,0.2-1,0.3
		c-0.2,0.1-0.7,0.3-1.2,0.6v8.1H252.9z"/>
	<path class="st1" d="M262.5,384.8v-7.3h1.3v7.3c0,0.6,0.1,1.1,0.4,1.4c0.3,0.3,0.7,0.5,1.1,0.5s0.9-0.1,1.3-0.2
		c0.4-0.1,0.7-0.2,1-0.3c0.2-0.1,0.7-0.3,1.2-0.6v-8.1h1.3V388h-0.9l-0.4-1.2c0,0-0.2,0.1-0.4,0.2c-0.2,0.2-0.4,0.2-0.4,0.3
		s-0.2,0.1-0.4,0.2c-0.2,0.1-0.3,0.2-0.4,0.2c-0.1,0-0.2,0.1-0.4,0.2s-0.3,0.1-0.5,0.2c-0.4,0.1-0.7,0.1-1,0.1c-0.9,0-1.6-0.3-2.2-1
		C262.7,386.5,262.5,385.7,262.5,384.8z"/>
	<path class="st1" d="M272.2,382.7c0-1.2,0.1-2.1,0.2-2.8s0.4-1.2,0.8-1.6s0.8-0.6,1.3-0.7c0.5-0.1,1.1-0.2,1.8-0.2s1.3,0,1.7,0.1
		s0.7,0.2,1.1,0.5c0.4,0.2,0.6,0.6,0.8,1.1c0.2,0.5,0.2,1.2,0.2,2c0,1.6-0.8,2.4-2.5,2.4h-4c0,1.2,0.1,2,0.4,2.5
		c0.3,0.4,0.7,0.6,1.4,0.6c2.2,0,3.7-0.1,4.5-0.2v1.1c-1.2,0.4-2.7,0.6-4.5,0.6c-1.2,0-2-0.4-2.5-1.1S272.2,384.8,272.2,382.7z
		 M273.6,382.1h4c0.8,0,1.1-0.3,1.1-1c0-1-0.1-1.6-0.4-1.9c-0.3-0.2-0.9-0.4-1.9-0.4c-1.2,0-2,0.1-2.2,0.4c-0.3,0.4-0.5,0.8-0.6,1.3
		C273.6,381.1,273.6,381.6,273.6,382.1z"/>
	<path class="st1" d="M281,377.5h1.5l3,8.3l3-8.3h1.5L286,388h-1.3L281,377.5z"/>
	<path class="st1" d="M295,388.1c-1.6,0-2.7-0.4-3.3-1.2c-0.6-0.8-0.9-2.2-0.9-4.2c0-2,0.3-3.4,0.9-4.2c0.6-0.8,1.7-1.2,3.3-1.2
		c1.6,0,2.7,0.4,3.3,1.2s0.9,2.2,0.9,4.2c0,2-0.3,3.4-0.9,4.2C297.7,387.7,296.6,388.1,295,388.1z M292.5,379.9
		c-0.1,0.3-0.2,0.7-0.3,1.2c-0.1,0.5-0.1,1.1-0.1,1.9c0,0.8,0.1,1.5,0.2,2c0.1,0.5,0.3,0.9,0.6,1.1c0.3,0.2,0.6,0.4,0.9,0.5
		c0.3,0.1,0.7,0.1,1.3,0.1c0.5,0,1,0,1.3-0.1c0.3-0.1,0.6-0.2,0.9-0.5c0.3-0.2,0.5-0.6,0.6-1.1c0.1-0.5,0.2-1.2,0.2-2.1
		s0-1.6-0.1-2.2c-0.1-0.5-0.3-0.9-0.5-1.2s-0.5-0.4-0.9-0.5c-0.3-0.1-0.7-0.1-1.2-0.1c-0.5,0-0.9,0-1.2,0.1c-0.3,0-0.5,0.1-0.8,0.3
		C292.8,379.4,292.6,379.6,292.5,379.9z"/>
	<path class="st1" d="M300.5,380.9V380c0-0.9,0.2-1.5,0.6-1.9s1.1-0.7,2.1-0.7c1,0,2.5,0.1,4.5,0.3v1.1H303c-0.6,0-0.9,0.1-1,0.3
		c-0.1,0.2-0.1,0.4-0.1,0.8v0.9c0,0.5,0.1,0.8,0.3,1c0.2,0.1,0.5,0.2,0.8,0.2h2.8c0.8,0,1.3,0.2,1.7,0.7c0.4,0.5,0.6,1.1,0.6,1.8v1
		c0,1-0.2,1.6-0.6,2s-1,0.5-1.7,0.5c-1.1,0-2.8-0.1-4.9-0.4v-1.1h4.9c0,0,0,0,0.1,0c0.1,0,0.1,0,0.3,0c0.1,0,0.2-0.1,0.3-0.1
		c0.2-0.1,0.4-0.4,0.4-0.9v-1c0-0.4-0.1-0.6-0.2-0.8c-0.2-0.2-0.4-0.3-0.8-0.3H303c-0.9,0-1.5-0.2-1.9-0.6
		C300.7,382.6,300.5,381.9,300.5,380.9z"/>
	<path class="st1" d="M314.5,393.3v-15.8h1l0.3,1.2c0.3-0.2,0.8-0.5,1.6-0.8c0.8-0.3,1.4-0.5,2-0.5c0.6,0,1.1,0.2,1.5,0.5
		c0.4,0.3,0.8,0.7,1,1.3c0.4,1,0.6,2.2,0.6,3.6c0,2.6-0.5,4.3-1.5,5c-0.4,0.3-0.9,0.5-1.5,0.5c-0.5,0-1.2-0.1-1.8-0.2
		c-0.7-0.1-1.3-0.3-1.8-0.6v6H314.5z M319.3,386.7c0.6,0,1.1-0.3,1.4-0.8c0.3-0.6,0.4-1.6,0.4-3.1c0-2.6-0.6-3.9-1.8-3.9
		c-1,0-2.2,0.3-3.5,0.9v6.4C316.9,386.5,318.1,386.7,319.3,386.7z"/>
	<path class="st1" d="M324.1,382.7c0-1.2,0.1-2.1,0.2-2.8s0.4-1.2,0.8-1.6s0.8-0.6,1.3-0.7c0.5-0.1,1.1-0.2,1.8-0.2s1.3,0,1.7,0.1
		s0.7,0.2,1.1,0.5c0.4,0.2,0.6,0.6,0.8,1.1c0.2,0.5,0.2,1.2,0.2,2c0,1.6-0.8,2.4-2.5,2.4h-4c0,1.2,0.1,2,0.4,2.5
		c0.3,0.4,0.7,0.6,1.4,0.6c2.2,0,3.7-0.1,4.5-0.2v1.1c-1.2,0.4-2.7,0.6-4.5,0.6c-1.2,0-2-0.4-2.5-1.1S324.1,384.8,324.1,382.7z
		 M325.4,382.1h4c0.8,0,1.1-0.3,1.1-1c0-1-0.1-1.6-0.4-1.9c-0.3-0.2-0.9-0.4-1.9-0.4c-1.2,0-2,0.1-2.2,0.4c-0.3,0.4-0.5,0.8-0.6,1.3
		C325.4,381.1,325.4,381.6,325.4,382.1z"/>
	<path class="st1" d="M333.7,388v-10.5h0.9l0.4,1.2c0,0,0.2-0.1,0.4-0.2c0.2-0.2,0.4-0.2,0.4-0.3c0.1,0,0.2-0.1,0.4-0.2
		c0.2-0.1,0.3-0.2,0.4-0.2c0.1,0,0.2-0.1,0.4-0.2c0.2-0.1,0.3-0.1,0.5-0.2c0.4-0.1,0.7-0.1,1-0.1c0.9,0,1.6,0.3,2.2,1
		c0.5,0.7,0.8,1.4,0.8,2.4v7.3h-1.3v-7.3c0-0.6-0.1-1.1-0.4-1.4c-0.3-0.3-0.7-0.5-1.1-0.5s-0.9,0.1-1.3,0.2c-0.4,0.1-0.7,0.2-1,0.3
		c-0.2,0.1-0.7,0.3-1.2,0.6v8.1H333.7z"/>
	<path class="st1" d="M342.9,380.9V380c0-0.9,0.2-1.5,0.6-1.9s1.1-0.7,2.1-0.7c1,0,2.5,0.1,4.5,0.3v1.1h-4.7c-0.6,0-0.9,0.1-1,0.3
		c-0.1,0.2-0.1,0.4-0.1,0.8v0.9c0,0.5,0.1,0.8,0.3,1c0.2,0.1,0.5,0.2,0.8,0.2h2.8c0.8,0,1.3,0.2,1.7,0.7c0.4,0.5,0.6,1.1,0.6,1.8v1
		c0,1-0.2,1.6-0.6,2s-1,0.5-1.7,0.5c-1.1,0-2.8-0.1-4.9-0.4v-1.1h4.9c0,0,0,0,0.1,0c0.1,0,0.1,0,0.3,0c0.1,0,0.2-0.1,0.3-0.1
		c0.2-0.1,0.4-0.4,0.4-0.9v-1c0-0.4-0.1-0.6-0.2-0.8c-0.2-0.2-0.4-0.3-0.8-0.3h-2.8c-0.9,0-1.5-0.2-1.9-0.6
		C343.1,382.6,342.9,381.9,342.9,380.9z"/>
	<path class="st1" d="M352.3,377.9c1.3-0.4,2.9-0.6,4.7-0.6c0.8,0,1.4,0.3,1.9,0.8c0.5,0.5,0.8,1.3,0.8,2.3v7.6h-1l-0.3-1.3
		l-0.3,0.1c-1.6,0.8-2.8,1.2-3.7,1.2c-0.7,0-1.3-0.2-1.7-0.7c-0.5-0.5-0.7-1.1-0.7-1.9v-1.2c0-0.8,0.2-1.4,0.6-1.9
		c0.4-0.5,1-0.7,1.8-0.7c1.3,0,2.7,0,4,0c0-0.4,0-0.8,0-1c0-0.2,0-0.3,0-0.3c0-1.1-0.5-1.6-1.5-1.6s-2.5,0.1-4.5,0.2V377.9z
		 M353.3,385.4c0,0.8,0.4,1.2,1.1,1.2c0.4,0,1-0.1,1.6-0.3s1.2-0.3,1.7-0.5l0.7-0.3v-2.8l-4,0.3c-0.4,0-0.6,0.2-0.8,0.4
		c-0.2,0.2-0.3,0.5-0.3,0.9V385.4z"/>
	<path class="st1" d="M361.7,388v-10.5h0.9l0.4,1.3c0.1-0.1,0.2-0.1,0.4-0.3c0.2-0.1,0.4-0.2,0.5-0.3c0.1-0.1,0.2-0.1,0.4-0.2
		c0.2-0.1,0.4-0.2,0.5-0.2l0.4-0.2c0.3-0.1,0.7-0.2,1.2-0.2s1,0.1,1.5,0.4s0.8,0.7,1,1.1c1.1-1,2.4-1.5,3.8-1.5
		c0.8,0,1.5,0.3,2.1,0.9s0.8,1.4,0.8,2.4v7.2h-1.3v-7.2c0-0.6-0.2-1-0.5-1.4c-0.3-0.3-0.7-0.5-1.2-0.5c-0.7,0-1.3,0.1-1.9,0.2
		c-0.5,0.2-1.1,0.4-1.7,0.9v8H368v-7.2c0-0.6-0.2-1-0.5-1.4c-0.3-0.3-0.7-0.5-1.1-0.5c-0.5,0-0.9,0.1-1.3,0.2
		c-0.4,0.1-0.7,0.2-0.9,0.3c-0.2,0.1-0.6,0.3-1.2,0.6v8H361.7z"/>
	<path class="st1" d="M377.6,375.8v-1.1c0-0.3,0.1-0.5,0.4-0.5h0.9c0.3,0,0.4,0.2,0.4,0.5v1.1c0,0.3-0.1,0.5-0.4,0.5H378
		C377.7,376.3,377.6,376.1,377.6,375.8z M377.8,388v-10.5h1.3V388H377.8z"/>
	<path class="st1" d="M381.1,382.7c0-1.2,0.1-2.1,0.2-2.8s0.4-1.2,0.8-1.6s0.8-0.6,1.3-0.7c0.5-0.1,1.1-0.2,1.8-0.2s1.3,0,1.7,0.1
		s0.7,0.2,1.1,0.5c0.4,0.2,0.6,0.6,0.8,1.1c0.2,0.5,0.2,1.2,0.2,2c0,1.6-0.8,2.4-2.5,2.4h-4c0,1.2,0.1,2,0.4,2.5
		c0.3,0.4,0.7,0.6,1.4,0.6c2.2,0,3.7-0.1,4.5-0.2v1.1c-1.2,0.4-2.7,0.6-4.5,0.6c-1.2,0-2-0.4-2.5-1.1S381.1,384.8,381.1,382.7z
		 M382.5,382.1h4c0.8,0,1.1-0.3,1.1-1c0-1-0.1-1.6-0.4-1.9c-0.3-0.2-0.9-0.4-1.9-0.4c-1.2,0-2,0.1-2.2,0.4c-0.3,0.4-0.5,0.8-0.6,1.3
		C382.5,381.1,382.5,381.6,382.5,382.1z"/>
	<path class="st1" d="M390.7,388v-10.5h0.9l0.4,1.2c0,0,0.2-0.1,0.4-0.2c0.2-0.2,0.4-0.2,0.4-0.3c0.1,0,0.2-0.1,0.4-0.2
		c0.2-0.1,0.3-0.2,0.4-0.2c0.1,0,0.2-0.1,0.4-0.2c0.2-0.1,0.3-0.1,0.5-0.2c0.4-0.1,0.7-0.1,1-0.1c0.9,0,1.6,0.3,2.2,1
		c0.5,0.7,0.8,1.4,0.8,2.4v7.3h-1.3v-7.3c0-0.6-0.1-1.1-0.4-1.4c-0.3-0.3-0.7-0.5-1.1-0.5s-0.9,0.1-1.3,0.2c-0.4,0.1-0.7,0.2-1,0.3
		c-0.2,0.1-0.7,0.3-1.2,0.6v8.1H390.7z"/>
	<path class="st1" d="M399.6,379v-1.1l1.8-0.4l0.3-2.9h1v2.9h2.8v1.5h-2.8v5.3c0,0.8,0.1,1.4,0.3,1.7c0.2,0.3,0.4,0.5,0.8,0.6
		c1,0.3,1.5,0.4,1.6,0.4v1h-1.6c-1.6,0-2.4-1.2-2.4-3.7V379H399.6z"/>
	<path class="st1" d="M411.2,388.1c-1.6,0-2.7-0.4-3.3-1.2c-0.6-0.8-0.9-2.2-0.9-4.2c0-2,0.3-3.4,0.9-4.2c0.6-0.8,1.7-1.2,3.3-1.2
		c1.6,0,2.7,0.4,3.3,1.2s0.9,2.2,0.9,4.2c0,2-0.3,3.4-0.9,4.2C413.9,387.7,412.8,388.1,411.2,388.1z M408.7,379.9
		c-0.1,0.3-0.2,0.7-0.3,1.2c-0.1,0.5-0.1,1.1-0.1,1.9c0,0.8,0.1,1.5,0.2,2c0.1,0.5,0.3,0.9,0.6,1.1c0.3,0.2,0.6,0.4,0.9,0.5
		c0.3,0.1,0.7,0.1,1.3,0.1c0.5,0,1,0,1.3-0.1c0.3-0.1,0.6-0.2,0.9-0.5c0.3-0.2,0.5-0.6,0.6-1.1c0.1-0.5,0.2-1.2,0.2-2.1
		s0-1.6-0.1-2.2c-0.1-0.5-0.3-0.9-0.5-1.2s-0.5-0.4-0.9-0.5c-0.3-0.1-0.7-0.1-1.2-0.1c-0.5,0-0.9,0-1.2,0.1c-0.3,0-0.5,0.1-0.8,0.3
		C409,379.4,408.8,379.6,408.7,379.9z"/>
	<path class="st1" d="M416.7,380.9V380c0-0.9,0.2-1.5,0.6-1.9s1.1-0.7,2.1-0.7c1,0,2.5,0.1,4.5,0.3v1.1h-4.7c-0.6,0-0.9,0.1-1,0.3
		c-0.1,0.2-0.1,0.4-0.1,0.8v0.9c0,0.5,0.1,0.8,0.3,1c0.2,0.1,0.5,0.2,0.8,0.2h2.8c0.8,0,1.3,0.2,1.7,0.7c0.4,0.5,0.6,1.1,0.6,1.8v1
		c0,1-0.2,1.6-0.6,2s-1,0.5-1.7,0.5c-1.1,0-2.8-0.1-4.9-0.4v-1.1h4.9c0,0,0,0,0.1,0c0.1,0,0.1,0,0.3,0c0.1,0,0.2-0.1,0.3-0.1
		c0.2-0.1,0.4-0.4,0.4-0.9v-1c0-0.4-0.1-0.6-0.2-0.8c-0.2-0.2-0.4-0.3-0.8-0.3h-2.8c-0.9,0-1.5-0.2-1.9-0.6
		C416.9,382.6,416.7,381.9,416.7,380.9z"/>
</g>
</svg>
